EP 107 MUSIC EDL
SMPTE FRAME CODE


RVTR=RVTR
0001 EP_107 A34    C        01:00:00:00 01:00:00:02 01:00:00:00 01:00:00:02
* FROM CLIP NAME:  SAMPLE ACCURATE EDIT
0002 EP_107 A34    C        01:00:06:19 01:00:07:10 01:00:00:02 01:00:00:17
* FROM CLIP NAME:  DCD060_01 KILL STREAK.NEW.01_01-05.A1
0003 EP_107 A34    C        01:00:00:17 01:00:01:01 01:00:00:17 01:00:01:01
* FROM CLIP NAME:  FADE
0004 EP_107 A34    C        01:00:07:18 01:00:13:08 01:00:01:01 01:00:06:15
* FROM CLIP NAME:  DCD060_01 KILL STREAK.NEW.01_01-06.A1
0005 EP_107 A34    C        01:00:06:15 01:00:06:19 01:00:06:15 01:00:06:19
* FROM CLIP NAME:  SAMPLE ACCURATE EDIT
0006 EP_107 A34    C        01:00:14:04 01:00:25:04 01:00:06:19 01:00:17:19
* FROM CLIP NAME:  DCD060_01 KILL STREAK.NEW.01_01-07.A1
0007 EP_107 A34    C        01:00:17:19 01:00:18:07 01:00:17:19 01:00:18:07
* FROM CLIP NAME:  FADE
0008 EP_107 A34    C        01:00:18:10 01:00:18:14 01:00:18:10 01:00:18:14
* FROM CLIP NAME:  SAMPLE ACCURATE EDIT
0009 EP_107 A34    C        01:01:42:13 01:01:43:14 01:00:18:14 01:00:19:15
* FROM CLIP NAME:  DCD060_01 KILL STREAK.NEW.02_01-11.A1
0010 EP_107 A34    C        01:00:19:15 01:00:22:19 01:00:19:15 01:00:22:19
* FROM CLIP NAME:  SAMPLE ACCURATE EDIT
0011 EP_107 A34    C        01:01:46:18 01:02:01:13 01:00:22:19 01:00:37:14
* FROM CLIP NAME:  DCD060_01 KILL STREAK.NEW.02_01-12.A1
0012 EP_107 A34    C        01:00:37:14 01:00:37:17 01:00:37:14 01:00:37:17
* FROM CLIP NAME:  FADE
0013 EP_107 A34    C        01:02:01:16 01:02:06:01 01:00:37:17 01:00:42:02
* FROM CLIP NAME:  DCD060_01 KILL STREAK.NEW.02_01-06.A1
0014 EP_107 A34    C        01:00:42:02 01:00:42:18 01:00:42:02 01:00:42:18
* FROM CLIP NAME:  FADE
0015 EP_107 A12    C        01:00:42:03 01:00:43:22 01:00:42:03 01:00:43:22
* FROM CLIP NAME:  SAMPLE ACCURATE EDIT
0016 EP_107 A12    C        01:00:01:23 01:00:09:18 01:00:43:22 01:00:51:17
* FROM CLIP NAME:  WAA001_09 KILL STREAK.NEW.01_01-04.A1
0017 EP_107 A12    C        01:00:51:17 01:00:51:21 01:00:51:17 01:00:51:21
* FROM CLIP NAME:  SAMPLE ACCURATE EDIT
0018 EP_107 A12    C        01:02:05:05 01:02:05:17 01:00:51:21 01:00:52:09
* FROM CLIP NAME:  WAA001_09 KILL STREAK.NEW.02_01-03.A1
0019 EP_107 A12    C        01:00:52:09 01:00:55:07 01:00:52:09 01:00:55:07
* FROM CLIP NAME:  FADE
0020 EP_107 A12    C        01:00:56:06 01:00:56:08 01:00:56:06 01:00:56:08
* FROM CLIP NAME:  SAMPLE ACCURATE EDIT
0021 EP_107 A12    C        01:00:06:07 01:00:09:16 01:00:56:08 01:00:59:17
* FROM CLIP NAME:  SCS004_04 DIAMOND IN THE BLUFF.COPY.01.NEW.01_01-04.A1
0022 EP_107 A12    C        01:00:59:17 01:01:01:07 01:00:59:17 01:01:01:07
* FROM CLIP NAME:  SAMPLE ACCURATE EDIT
0023 EP_107 A12    C        01:00:11:06 01:00:18:06 01:01:01:07 01:01:08:07
* FROM CLIP NAME:  SCS004_04 DIAMOND IN THE BLUFF.COPY.01.NEW.01_01-05.A1
0024 EP_107 A12    C        01:01:08:07 01:01:08:19 01:01:08:07 01:01:08:19
* FROM CLIP NAME:  FADE
0025 EP_107 A12    C        01:00:40:07 01:00:49:05 01:01:08:19 01:01:17:17
* FROM CLIP NAME:  SCS004_04 DIAMOND IN THE BLUFF.COPY.01.NEW.02_01-01.A1
0026 EP_107 A12    C        01:01:17:17 01:01:17:21 01:01:17:17 01:01:17:21
* FROM CLIP NAME:  SAMPLE ACCURATE EDIT
0027 EP_107 A12    C        01:02:59:02 01:03:01:00 01:01:17:21 01:01:19:19
* FROM CLIP NAME:  DCD123_04 TRUST NO ONE.COPY.01.NEW.01_01-01.A1
0028 EP_107 A34    C        01:01:19:14 01:01:19:15 01:01:19:14 01:01:19:15
* FROM CLIP NAME:  SAMPLE ACCURATE EDIT
0029 EP_107 A34    C        01:00:09:13 01:00:19:10 01:01:19:15 01:01:29:12
* FROM CLIP NAME:  DCD060_09 MONKEY TRICK.NEW.01_01-04.A1
0030 EP_107 A12    C        01:01:19:19 01:01:20:03 01:01:19:19 01:01:20:03
* FROM CLIP NAME:  FADE
0031 EP_107 A34    C        01:01:29:12 01:01:29:16 01:01:29:12 01:01:29:16
* FROM CLIP NAME:  SAMPLE ACCURATE EDIT
0032 EP_107 A34    C        01:00:34:16 01:00:35:20 01:01:29:16 01:01:30:20
* FROM CLIP NAME:  DCD060_09 MONKEY TRICK.NEW.02_01-05.A1
0033 EP_107 A34    C        01:01:30:20 01:01:31:08 01:01:30:20 01:01:31:08
* FROM CLIP NAME:  FADE
0034 EP_107 A34    C        01:00:36:08 01:00:45:19 01:01:31:08 01:01:40:19
* FROM CLIP NAME:  DCD060_09 MONKEY TRICK.NEW.02_01-04.A1
0035 EP_107 A34    C        01:01:40:19 01:01:40:21 01:01:40:19 01:01:40:21
* FROM CLIP NAME:  SAMPLE ACCURATE EDIT
0036 EP_107 A34    C        01:01:53:03 01:02:16:03 01:01:40:21 01:02:03:21
* FROM CLIP NAME:  DCD060_09 MONKEY TRICK.NEW.03_01-03.A1
0037 EP_107 A34    C        01:02:03:21 01:02:04:03 01:02:03:21 01:02:04:03
* FROM CLIP NAME:  FADE
0038 EP_107 A34    C        01:02:48:14 01:02:50:20 01:02:04:03 01:02:06:09
* FROM CLIP NAME:  DCD060_09 MONKEY TRICK.NEW.04_01-03.A1
0039 EP_107 A34    C        01:02:06:09 01:02:06:20 01:02:06:09 01:02:06:20
* FROM CLIP NAME:  FADE
0040 EP_107 A12    C        01:02:06:11 01:02:06:14 01:02:06:11 01:02:06:14
* FROM CLIP NAME:  SAMPLE ACCURATE EDIT
0041 EP_107 A12    C        01:01:12:12 01:01:13:11 01:02:06:14 01:02:07:13
* FROM CLIP NAME:  DCD123_11 EQUAL RITES.NEW.01_01-05.A1
0042 EP_107 A12    C        01:02:07:13 01:02:07:15 01:02:07:13 01:02:07:15
* FROM CLIP NAME:  SAMPLE ACCURATE EDIT
0043 EP_107 A12    C        01:01:13:13 01:01:21:12 01:02:07:15 01:02:15:14
* FROM CLIP NAME:  DCD123_11 EQUAL RITES.NEW.01_01-06.A1
0044 EP_107 A12    C        01:02:15:14 01:02:15:18 01:02:15:14 01:02:15:18
* FROM CLIP NAME:  SAMPLE ACCURATE EDIT
0045 EP_107 A12    C        01:01:21:16 01:01:36:15 01:02:15:18 01:02:30:17
* FROM CLIP NAME:  DCD123_11 EQUAL RITES.NEW.01_01-03.A1
0046 EP_107 A12    C        01:02:30:17 01:02:30:21 01:02:30:17 01:02:30:21
* FROM CLIP NAME:  SAMPLE ACCURATE EDIT
0047 EP_107 A12    C        01:01:53:11 01:01:53:17 01:02:30:21 01:02:31:03
* FROM CLIP NAME:  DCD123_11 EQUAL RITES.NEW.02_01-01.A1
0048 EP_107 A34    C        01:02:31:03 01:02:31:16 01:02:31:03 01:02:31:16
* FROM CLIP NAME:  SAMPLE ACCURATE EDIT
0049 EP_107 A12    C        01:02:31:03 01:02:31:18 01:02:31:03 01:02:31:18
* FROM CLIP NAME:  FADE
0050 EP_107 A34    C        01:00:00:14 01:00:19:02 01:02:31:16 01:02:50:04
* FROM CLIP NAME:  SCS047_15 MADE UP.COPY.01.NEW.01_01-05.A1
0051 EP_107 A34    C        01:02:50:04 01:02:50:14 01:02:50:04 01:02:50:14
* FROM CLIP NAME:  FADE
0052 EP_107 A34    C        01:00:19:12 01:00:28:14 01:02:50:14 01:02:59:16
* FROM CLIP NAME:  SCS047_15 MADE UP.COPY.01.NEW.01_01-04.A1
0053 EP_107 A34    C        01:02:59:16 01:02:59:22 01:02:59:16 01:02:59:22
* FROM CLIP NAME:  FADE
0054 EP_107 A34    C        01:01:05:14 01:01:08:07 01:02:59:22 01:03:02:15
* FROM CLIP NAME:  SCS047_15 MADE UP.COPY.01.NEW.02_01-03.A1
0055 EP_107 A12    C        01:03:02:04 01:03:02:07 01:03:02:04 01:03:02:07
* FROM CLIP NAME:  SAMPLE ACCURATE EDIT
0056 EP_107 A12    C        01:00:00:10 01:00:17:16 01:03:02:07 01:03:19:13
* FROM CLIP NAME:  AETN DCD077_02 TERMINAL CONTROL.WAV.COPY.01.NEW.01_01-01.A1
0057 EP_107 A34    C        01:03:02:15 01:03:04:00 01:03:02:15 01:03:04:00
* FROM CLIP NAME:  FADE
0058 EP_107 A12    C        01:03:19:13 01:03:20:01 01:03:19:13 01:03:20:01
* FROM CLIP NAME:  FADE
0059 EP_107 A12    C        01:01:20:06 01:01:25:08 01:03:20:01 01:03:25:03
* FROM CLIP NAME:  AETN DCD077_02 TERMINAL CONTROL.WAV.COPY.01.NEW.02_01-01.A1
0060 EP_107 A12    C        01:03:25:03 01:03:25:15 01:03:25:03 01:03:25:15
* FROM CLIP NAME:  FADE
0061 EP_107 A34    C        01:03:25:10 01:03:25:16 01:03:25:10 01:03:25:16
* FROM CLIP NAME:  SAMPLE ACCURATE EDIT
0062 EP_107 A34    C        01:00:50:09 01:01:06:11 01:03:25:16 01:03:41:18
* FROM CLIP NAME:  LAA013_10 TIGHTEN THE NET.COPY.01.NEW.01_01-03.A1
0063 EP_107 A34    C        01:03:41:18 01:03:42:02 01:03:41:18 01:03:42:02
* FROM CLIP NAME:  FADE
0064 EP_107 A34    C        01:02:02:08 01:02:02:16 01:03:42:02 01:03:42:10
* FROM CLIP NAME:  LAA013_10 TIGHTEN THE NET.COPY.01.NEW.02_01-01.A1
0065 EP_107 A12    C        01:03:42:06 01:03:42:07 01:03:42:06 01:03:42:07
* FROM CLIP NAME:  SAMPLE ACCURATE EDIT
0066 EP_107 A12    C        01:00:00:01 01:00:06:17 01:03:42:07 01:03:48:23
* FROM CLIP NAME:  021APOLY CATCH AND GRAB.NEW.01_01-05.A1
0067 EP_107 A34    C        01:03:42:10 01:03:42:22 01:03:42:10 01:03:42:22
* FROM CLIP NAME:  FADE
0068 EP_107 A12    C        01:03:48:23 01:03:49:09 01:03:48:23 01:03:49:09
* FROM CLIP NAME:  FADE
0069 EP_107 A12    C        01:00:07:03 01:00:08:20 01:03:49:09 01:03:51:02
* FROM CLIP NAME:  021APOLY CATCH AND GRAB.NEW.01_01-06.A1
0070 EP_107 A12    C        01:03:51:02 01:03:51:12 01:03:51:02 01:03:51:12
* FROM CLIP NAME:  FADE
0071 EP_107 A12    C        01:00:09:06 01:00:29:17 01:03:51:12 01:04:11:23
* FROM CLIP NAME:  021APOLY CATCH AND GRAB.NEW.01_01-07.A1
0072 EP_107 A12    C        01:04:11:23 01:04:12:06 01:04:11:23 01:04:12:06
* FROM CLIP NAME:  FADE
0073 EP_107 A34    C        01:04:12:00 01:04:12:07 01:04:12:00 01:04:12:07
* FROM CLIP NAME:  SAMPLE ACCURATE EDIT
0074 EP_107 A34    C        01:00:47:07 01:00:54:16 01:04:12:07 01:04:19:16
* FROM CLIP NAME:  021APOLY CATCH AND GRAB.NEW.02_01-03.A1
0075 EP_107 A34    C        01:04:19:16 01:04:19:20 01:04:19:16 01:04:19:20
* FROM CLIP NAME:  SAMPLE ACCURATE EDIT
0076 EP_107 A34    C        01:01:39:04 01:01:40:22 01:04:19:20 01:04:21:14
* FROM CLIP NAME:  021APOLY CATCH AND GRAB.NEW.03_01-01.A1
0077 EP_107 A34    C        01:04:21:14 01:04:22:03 01:04:21:14 01:04:22:03
* FROM CLIP NAME:  FADE
0078 EP_107 A12    C        01:04:21:16 01:04:21:20 01:04:21:16 01:04:21:20
* FROM CLIP NAME:  SAMPLE ACCURATE EDIT
0079 EP_107 A12    C        01:00:05:05 01:00:19:19 01:04:21:20 01:04:36:10
* FROM CLIP NAME:  AESG BLUEPRINT STRATEGY FULL MIX MB.AIF.NEW.01_01-04.A1
0080 EP_107 A12    C        01:04:36:10 01:04:36:20 01:04:36:10 01:04:36:20
* FROM CLIP NAME:  FADE
0081 EP_107 A12    C        01:00:41:20 01:00:50:01 01:04:36:20 01:04:45:01
* FROM CLIP NAME:  AESG BLUEPRINT STRATEGY FULL MIX MB.AIF.NEW.02_01-03.A1
0082 EP_107 A34    C        01:04:43:22 01:04:44:00 01:04:43:22 01:04:44:00
* FROM CLIP NAME:  SAMPLE ACCURATE EDIT
0083 EP_107 A34    C        01:00:13:19 01:00:45:05 01:04:44:00 01:05:15:10
* FROM CLIP NAME:  SCS047_06 POWDER KEG PERCH.COPY.01.NEW.01_01-03.A1
0084 EP_107 A12    C        01:04:45:01 01:04:45:07 01:04:45:01 01:04:45:07
* FROM CLIP NAME:  FADE
0085 EP_107 A34    C        01:05:15:10 01:05:15:14 01:05:15:10 01:05:15:14
* FROM CLIP NAME:  SAMPLE ACCURATE EDIT
0086 EP_107 A34    C        01:00:55:08 01:00:58:13 01:05:15:14 01:05:18:19
* FROM CLIP NAME:  SCS047_06 POWDER KEG PERCH.COPY.01.NEW.02_01-03.A1
0087 EP_107 A12    C        01:05:16:14 01:05:16:18 01:05:16:14 01:05:16:18
* FROM CLIP NAME:  SAMPLE ACCURATE EDIT
0088 EP_107 A12    C        01:00:21:13 01:00:33:04 01:05:16:18 01:05:28:09
* FROM CLIP NAME:  DCD121_12 CLEVER CLOGGS.COPY.01.NEW.01_01-01.A1
0089 EP_107 A34    C        01:05:18:19 01:05:19:07 01:05:18:19 01:05:19:07
* FROM CLIP NAME:  FADE
0090 EP_107 A12    C        01:05:28:09 01:05:28:21 01:05:28:09 01:05:28:21
* FROM CLIP NAME:  FADE
0091 EP_107 A12    C        01:01:39:15 01:01:51:04 01:05:28:21 01:05:40:10
* FROM CLIP NAME:  DCD121_12 CLEVER CLOGGS.COPY.01.NEW.02_01-01.A1
0092 EP_107 A12    C        01:05:40:10 01:05:40:22 01:05:40:10 01:05:40:22
* FROM CLIP NAME:  FADE
0093 EP_107 A34    C        01:05:40:22 01:05:41:02 01:05:40:22 01:05:41:02
* FROM CLIP NAME:  SAMPLE ACCURATE EDIT
0094 EP_107 A34    C        01:00:28:16 01:00:37:08 01:05:41:02 01:05:49:18
* FROM CLIP NAME:  AETN LAA022_05 WINDOW OF OPPORTUNITY.WAV.COPY.01.NEW.01_01-03.A1
0095 EP_107 A1234  C        01:05:49:18 01:05:49:20 01:05:49:18 01:05:49:20
* FROM CLIP NAME:  SAMPLE ACCURATE EDIT
0096 EP_107 A12    C        01:01:01:12 01:01:11:10 01:05:49:20 01:05:59:18
* FROM CLIP NAME:  AETN LAA022_05 WINDOW OF OPPORTUNITY.WAV.COPY.01.NEW.02_01-02.A1
0097 EP_107 A34    C        01:05:59:17 01:05:59:21 01:05:59:17 01:05:59:21
* FROM CLIP NAME:  SAMPLE ACCURATE EDIT
0098 EP_107 A12    C        01:05:59:18 01:05:59:21 01:05:59:18 01:05:59:21
* FROM CLIP NAME:  FADE
0099 EP_107 A34    C        01:01:10:20 01:01:15:14 01:05:59:21 01:06:04:15
* FROM CLIP NAME:  AETN LAA022_05 WINDOW OF OPPORTUNITY.WAV.COPY.01.NEW.02_01-04.A1
0100 EP_107 A34    C        01:06:04:15 01:06:05:15 01:06:04:15 01:06:05:15
* FROM CLIP NAME:  FADE
0101 EP_107 A34    C        01:02:09:21 01:02:11:15 01:06:05:15 01:06:07:09
* FROM CLIP NAME:  AETN LAA022_05 WINDOW OF OPPORTUNITY.WAV.COPY.01.NEW.03_01-03.A1
0102 EP_107 A34    C        01:06:07:09 01:06:07:14 01:06:07:09 01:06:07:14
* FROM CLIP NAME:  FADE
0103 EP_107 A12    C        01:06:07:10 01:06:07:11 01:06:07:10 01:06:07:11
* FROM CLIP NAME:  SAMPLE ACCURATE EDIT
0104 EP_107 A12    C        01:00:00:01 01:00:04:02 01:06:07:11 01:06:11:12
* FROM CLIP NAME:  AESG NIGHT CRAWLER NO DRUMS MK RH.AIF.NEW.01_01-03.A1
0105 EP_107 A12    C        01:06:11:12 01:06:11:14 01:06:11:12 01:06:11:14
* FROM CLIP NAME:  SAMPLE ACCURATE EDIT
0106 EP_107 A12    C        01:00:54:16 01:00:57:20 01:06:11:14 01:06:14:18
* FROM CLIP NAME:  AESG NIGHT CRAWLER NO DRUMS MK RH.AIF.NEW.02_01-04.A1
0107 EP_107 A12    C        01:06:14:18 01:06:15:04 01:06:14:18 01:06:15:04
* FROM CLIP NAME:  FADE
0108 EP_107 A12    C        01:00:58:06 01:01:04:23 01:06:15:04 01:06:21:21
* FROM CLIP NAME:  AESG NIGHT CRAWLER NO DRUMS MK RH.AIF.NEW.02_01-05.A1
0109 EP_107 A12    C        01:06:21:21 01:06:22:05 01:06:21:21 01:06:22:05
* FROM CLIP NAME:  FADE
0110 EP_107 A12    C        01:06:22:16 01:06:22:17 01:06:22:16 01:06:22:17
* FROM CLIP NAME:  SAMPLE ACCURATE EDIT
0111 EP_107 A12    C        01:00:00:09 01:00:00:17 01:06:22:17 01:06:23:01
* FROM CLIP NAME:  AESG KEEN SENSES ONLY BASS AND DRUMS MB.AIF.NEW.01_01-07.A1
0112 EP_107 A12    C        01:06:23:01 01:06:23:16 01:06:23:01 01:06:23:16
* FROM CLIP NAME:  FADE
0113 EP_107 A12    C        01:00:01:08 01:00:15:11 01:06:23:16 01:06:37:19
* FROM CLIP NAME:  AESG KEEN SENSES ONLY BASS AND DRUMS MB.AIF.NEW.01_01-04.A1
0114 EP_107 A12    C        01:06:37:19 01:06:38:15 01:06:37:19 01:06:38:15
* FROM CLIP NAME:  FADE
0115 EP_107 A12    C        01:00:16:07 01:00:31:06 01:06:38:15 01:06:53:14
* FROM CLIP NAME:  AESG KEEN SENSES ONLY BASS AND DRUMS MB.AIF.NEW.01_01-05.A1
0116 EP_107 A12    C        01:06:53:14 01:06:53:16 01:06:53:14 01:06:53:16
* FROM CLIP NAME:  SAMPLE ACCURATE EDIT
0117 EP_107 A12    C        01:01:14:19 01:01:19:08 01:06:53:16 01:06:58:05
* FROM CLIP NAME:  AESG KEEN SENSES FULL MIX MB.AIF.NEW.01_01-01.A1
0118 EP_107 A12    C        01:06:58:05 01:06:58:07 01:06:58:05 01:06:58:07
* FROM CLIP NAME:  SAMPLE ACCURATE EDIT
0119 EP_107 A12    C        01:01:25:01 01:01:30:01 01:06:58:07 01:07:03:07
* FROM CLIP NAME:  AESG KEEN SENSES FULL MIX MB.AIF.NEW.01_01-02.A1
0120 EP_107 A34    C        01:07:01:10 01:07:01:14 01:07:01:10 01:07:01:14
* FROM CLIP NAME:  SAMPLE ACCURATE EDIT
0121 EP_107 A34    C        01:00:46:09 01:01:13:08 01:07:01:14 01:07:28:13
* FROM CLIP NAME:  AETN LAA021_08 GREED ONLY.WAV.COPY.01.NEW.01_01-03.A1
0122 EP_107 A12    C        01:07:03:07 01:07:03:16 01:07:03:07 01:07:03:16
* FROM CLIP NAME:  FADE
0123 EP_107 A34    C        01:07:28:13 01:07:28:15 01:07:28:13 01:07:28:15
* FROM CLIP NAME:  SAMPLE ACCURATE EDIT
0124 EP_107 A34    C        01:02:21:00 01:02:23:01 01:07:28:15 01:07:30:16
* FROM CLIP NAME:  AETN LAA021_08 GREED ONLY.WAV.COPY.01.NEW.02_01-04.A1
0125 EP_107 A12    C        01:07:30:13 01:07:30:16 01:07:30:13 01:07:30:16
* FROM CLIP NAME:  SAMPLE ACCURATE EDIT
0126 EP_107 A34    C        01:07:30:16 01:07:30:17 01:07:30:16 01:07:30:17
* FROM CLIP NAME:  SAMPLE ACCURATE EDIT
0127 EP_107 A12    C        01:00:14:02 01:00:15:21 01:07:30:16 01:07:32:11
* FROM CLIP NAME:  AESG WHERES THE VAN FULL MIX NEZ STIZ.AIF.NEW.01_01-06.A1
0128 EP_107 A12    C        01:07:32:11 01:07:33:07 01:07:32:11 01:07:33:07
* FROM CLIP NAME:  FADE
0129 EP_107 A12    C        01:00:16:17 01:00:23:16 01:07:33:07 01:07:40:06
* FROM CLIP NAME:  AESG WHERES THE VAN FULL MIX NEZ STIZ.AIF.NEW.01_01-02.A1
0130 EP_107 A12    C        01:07:40:06 01:07:40:08 01:07:40:06 01:07:40:08
* FROM CLIP NAME:  SAMPLE ACCURATE EDIT
0131 EP_107 A12    C        01:00:22:01 01:00:38:10 01:07:40:08 01:07:56:17
* FROM CLIP NAME:  AESG WHERES THE VAN FULL MIX NEZ STIZ.AIF.NEW.01_01-07.A1
0132 EP_107 A12    C        01:07:56:17 01:07:56:21 01:07:56:17 01:07:56:21
* FROM CLIP NAME:  SAMPLE ACCURATE EDIT
0133 EP_107 A34    C        01:07:56:20 01:07:57:01 01:07:56:20 01:07:57:01
* FROM CLIP NAME:  SAMPLE ACCURATE EDIT
0134 EP_107 A12    C        01:01:17:01 01:01:22:11 01:07:56:21 01:08:02:07
* FROM CLIP NAME:  AESG WHERES THE VAN FULL MIX NEZ STIZ.AIF.NEW.02_01-03.A1
0135 EP_107 A34    C        01:00:00:05 01:00:07:21 01:07:57:01 01:08:04:17
* FROM CLIP NAME:  DCD125_23 PIECE OF BUSINESS.NEW.01_01-04.A1
0136 EP_107 A12    C        01:08:02:07 01:08:02:13 01:08:02:07 01:08:02:13
* FROM CLIP NAME:  FADE
0137 EP_107 A34    C        01:08:04:17 01:08:04:23 01:08:04:17 01:08:04:23
* FROM CLIP NAME:  SAMPLE ACCURATE EDIT
0138 EP_107 A34    C        01:00:08:03 01:00:20:05 01:08:04:23 01:08:17:01
* FROM CLIP NAME:  DCD125_23 PIECE OF BUSINESS.NEW.01_01-05.A1
0139 EP_107 A34    C        01:08:17:01 01:08:17:13 01:08:17:01 01:08:17:13
* FROM CLIP NAME:  FADE
0140 EP_107 A34    C        01:02:29:14 01:02:31:05 01:08:17:13 01:08:19:04
* FROM CLIP NAME:  DCD125_23 PIECE OF BUSINESS.NEW.02_01-03.A1
0141 EP_107 A12    C        01:08:18:06 01:08:18:08 01:08:18:06 01:08:18:08
* FROM CLIP NAME:  SAMPLE ACCURATE EDIT
0142 EP_107 A12    C        01:00:00:02 01:00:00:15 01:08:18:08 01:08:18:21
* FROM CLIP NAME:  SCS047_03 SCANNER SCRAMBLER.NEW.01_01-10.A1
0143 EP_107 A12    C        01:08:18:21 01:08:19:07 01:08:18:21 01:08:19:07
* FROM CLIP NAME:  FADE
0144 EP_107 A34    C        01:08:19:04 01:08:19:15 01:08:19:04 01:08:19:15
* FROM CLIP NAME:  FADE
0145 EP_107 A12    C        01:00:01:01 01:00:10:01 01:08:19:07 01:08:28:07
* FROM CLIP NAME:  SCS047_03 SCANNER SCRAMBLER.NEW.01_01-11.A1
0146 EP_107 A12    C        01:08:28:07 01:08:28:17 01:08:28:07 01:08:28:17
* FROM CLIP NAME:  FADE
0147 EP_107 A12    C        01:00:10:11 01:00:11:08 01:08:28:17 01:08:29:14
* FROM CLIP NAME:  SCS047_03 SCANNER SCRAMBLER.NEW.01_01-12.A1
0148 EP_107 A12    C        01:08:29:14 01:08:30:00 01:08:29:14 01:08:30:00
* FROM CLIP NAME:  FADE
0149 EP_107 A12    C        01:00:11:18 01:00:16:08 01:08:30:00 01:08:34:14
* FROM CLIP NAME:  SCS047_03 SCANNER SCRAMBLER.NEW.01_01-13.A1
0150 EP_107 A12    C        01:08:34:14 01:08:34:16 01:08:34:14 01:08:34:16
* FROM CLIP NAME:  SAMPLE ACCURATE EDIT
0151 EP_107 A12    C        01:00:56:08 01:00:58:06 01:08:34:16 01:08:36:14
* FROM CLIP NAME:  SCS047_03 SCANNER SCRAMBLER.NEW.02_01-04.A1
0152 EP_107 A34    C        01:08:36:04 01:08:36:07 01:08:36:04 01:08:36:07
* FROM CLIP NAME:  SAMPLE ACCURATE EDIT
0153 EP_107 A34    C        01:00:06:22 01:00:29:07 01:08:36:07 01:08:58:16
* FROM CLIP NAME:  DCD087_07 TRIPLE THREAT.NEW.01_01-01.A1
0154 EP_107 A12    C        01:08:36:14 01:08:36:21 01:08:36:14 01:08:36:21
* FROM CLIP NAME:  FADE
0155 EP_107 A34    C        01:08:58:16 01:08:59:04 01:08:58:16 01:08:59:04
* FROM CLIP NAME:  FADE
0156 EP_107 A34    C        01:01:26:15 01:01:47:10 01:08:59:04 01:09:19:23
* FROM CLIP NAME:  DCD087_07 TRIPLE THREAT.NEW.02_01-01.A1
0157 EP_107 A34    C        01:09:19:23 01:09:20:07 01:09:19:23 01:09:20:07
* FROM CLIP NAME:  FADE
0158 EP_107 A34    C        01:02:48:10 01:02:50:18 01:09:20:07 01:09:22:15
* FROM CLIP NAME:  DCD087_07 TRIPLE THREAT.NEW.03_01-01.A1
0159 EP_107 A34    C        01:09:22:15 01:09:23:00 01:09:22:15 01:09:23:00
* FROM CLIP NAME:  FADE
0160 EP_107 A12    C        01:09:22:16 01:09:22:18 01:09:22:16 01:09:22:18
* FROM CLIP NAME:  SAMPLE ACCURATE EDIT
0161 EP_107 A12    C        01:00:13:20 01:00:18:20 01:09:22:18 01:09:27:18
* FROM CLIP NAME:  DCD041_19 BODY HEAT.NEW.01_01-05.A1
0162 EP_107 A12    C        01:09:27:18 01:09:28:04 01:09:27:18 01:09:28:04
* FROM CLIP NAME:  FADE
0163 EP_107 A12    C        01:00:19:06 01:00:22:16 01:09:28:04 01:09:31:14
* FROM CLIP NAME:  DCD041_19 BODY HEAT.NEW.01_01-06.A1
0164 EP_107 A12    C        01:09:31:14 01:09:32:00 01:09:31:14 01:09:32:00
* FROM CLIP NAME:  FADE
0165 EP_107 A12    C        01:00:23:02 01:00:25:16 01:09:32:00 01:09:34:14
* FROM CLIP NAME:  DCD041_19 BODY HEAT.NEW.01_01-07.A1
0166 EP_107 A12    C        01:09:34:14 01:09:34:16 01:09:34:14 01:09:34:16
* FROM CLIP NAME:  SAMPLE ACCURATE EDIT
0167 EP_107 A12    C        01:01:15:12 01:01:17:20 01:09:34:16 01:09:37:00
* FROM CLIP NAME:  DCD041_19_2 BODY HEAT.NEW.01_01-03.A1
0168 EP_107 A12    C        01:09:37:00 01:09:37:08 01:09:37:00 01:09:37:08
* FROM CLIP NAME:  FADE
0169 EP_107 A34    C        01:09:39:00 01:09:39:04 01:09:39:00 01:09:39:04
* FROM CLIP NAME:  SAMPLE ACCURATE EDIT
0170 EP_107 A34    C        01:00:00:04 01:00:02:20 01:09:39:04 01:09:41:20
* FROM CLIP NAME:  DCD049_16 MOTIONAL RESCUE.NEW.01_01-05.A1
0171 EP_107 A34    C        01:09:41:20 01:09:42:21 01:09:41:20 01:09:42:21
* FROM CLIP NAME:  FADE
0172 EP_107 A34    C        01:00:03:21 01:00:20:00 01:09:42:21 01:09:59:00
* FROM CLIP NAME:  DCD049_16 MOTIONAL RESCUE.NEW.01_01-06.A1
0173 EP_107 A12    C        01:09:50:14 01:09:50:17 01:09:50:14 01:09:50:17
* FROM CLIP NAME:  SAMPLE ACCURATE EDIT
0174 EP_107 A12    C        01:00:00:03 01:00:03:18 01:09:50:17 01:09:54:08
* FROM CLIP NAME:  AESG HYBRID SWIPE 7 JV RH.AIF.NEW.01_01-08.A1
0175 EP_107 A12    C        01:09:54:08 01:09:54:14 01:09:54:08 01:09:54:14
* FROM CLIP NAME:  FADE
0176 EP_107 A34    C        01:09:59:00 01:09:59:20 01:09:59:00 01:09:59:20
* FROM CLIP NAME:  FADE
0177 EP_107 A34    C        01:01:31:02 01:01:31:10 01:09:59:20 01:10:00:04
* FROM CLIP NAME:  DCD049_16 MOTIONAL RESCUE.NEW.02_01-04.A1
0178 EP_107 A34    C        01:10:00:04 01:10:00:14 01:10:00:04 01:10:00:14
* FROM CLIP NAME:  FADE
0179 EP_107 A34    C        01:01:31:20 01:01:36:22 01:10:00:14 01:10:05:16
* FROM CLIP NAME:  DCD049_16 MOTIONAL RESCUE.NEW.02_01-05.A1
0180 EP_107 A12    C        01:10:05:13 01:10:05:15 01:10:05:13 01:10:05:15
* FROM CLIP NAME:  SAMPLE ACCURATE EDIT
0181 EP_107 A12    C        01:02:04:03 01:02:16:03 01:10:05:15 01:10:17:15
* FROM CLIP NAME:  DCD125_16 EAT WHAT YOU KILL.NEW.01_01-01.A1
0182 EP_107 A34    C        01:10:05:16 01:10:08:04 01:10:05:16 01:10:08:04
* FROM CLIP NAME:  FADE
0183 EP_107 A34    C        01:10:14:23 01:10:15:19 01:10:14:23 01:10:15:19
* FROM CLIP NAME:  FADE
0184 EP_107 A34    C        01:00:22:01 01:00:47:01 01:10:15:19 01:10:40:19
* FROM CLIP NAME:  DCD111_01 WHERE THERES SMOKE.NEW.01-01.A1
0185 EP_107 A12    C        01:10:17:15 01:10:17:21 01:10:17:15 01:10:17:21
* FROM CLIP NAME:  FADE
0186 EP_107 A34    C        01:10:40:19 01:10:41:00 01:10:40:19 01:10:41:00
* FROM CLIP NAME:  FADE
0187 EP_107 A12    C        01:10:41:04 01:10:41:05 01:10:41:04 01:10:41:05
* FROM CLIP NAME:  SAMPLE ACCURATE EDIT
0188 EP_107 A12    C        01:00:00:10 01:00:03:03 01:10:41:05 01:10:43:22
* FROM CLIP NAME:  AESG BLUEPRINT STRATEGY FULL MIX MB.AIF.NEW.01_01-02.A1
0189 EP_107 A12    C        01:10:43:22 01:10:44:00 01:10:43:22 01:10:44:00
* FROM CLIP NAME:  SAMPLE ACCURATE EDIT
0190 EP_107 A12    C        01:00:05:23 01:00:26:21 01:10:44:00 01:11:04:22
* FROM CLIP NAME:  AESG BLUEPRINT STRATEGY FULL MIX MB.AIF.NEW.01_01-05.A1
0191 EP_107 A12    C        01:11:04:22 01:11:05:00 01:11:04:22 01:11:05:00
* FROM CLIP NAME:  SAMPLE ACCURATE EDIT
0192 EP_107 A12    C        01:00:45:04 01:00:50:04 01:11:05:00 01:11:10:00
* FROM CLIP NAME:  AESG BLUEPRINT STRATEGY FULL MIX MB.AIF.NEW.02_01-02.A1
0193 EP_107 A34    C        01:11:08:19 01:11:09:03 01:11:08:19 01:11:09:03
* FROM CLIP NAME:  SAMPLE ACCURATE EDIT
0194 EP_107 A34    C        01:00:00:08 01:00:02:08 01:11:09:03 01:11:11:03
* FROM CLIP NAME:  AESG NIGHTFALL FULL MIX NEZ STIZ.AIF.NEW.01_01-02.A1
0195 EP_107 A12    C        01:11:10:00 01:11:10:05 01:11:10:00 01:11:10:05
* FROM CLIP NAME:  FADE
0196 EP_107 A34    C        01:11:11:03 01:11:11:07 01:11:11:03 01:11:11:07
* FROM CLIP NAME:  SAMPLE ACCURATE EDIT
0197 EP_107 A34    C        01:00:02:12 01:00:03:03 01:11:11:07 01:11:11:22
* FROM CLIP NAME:  AESG NIGHTFALL FULL MIX NEZ STIZ.AIF.NEW.01_01-01.A1
0198 EP_107 A34    C        01:11:11:22 01:11:12:02 01:11:11:22 01:11:12:02
* FROM CLIP NAME:  SAMPLE ACCURATE EDIT
0199 EP_107 A34    C        01:00:02:12 01:00:03:04 01:11:12:02 01:11:12:18
* FROM CLIP NAME:  AESG NIGHTFALL FULL MIX NEZ STIZ.AIF.NEW.01_01-01.A1
0200 EP_107 A34    C        01:11:12:18 01:11:12:20 01:11:12:18 01:11:12:20
* FROM CLIP NAME:  SAMPLE ACCURATE EDIT
0201 EP_107 A34    C        01:00:03:06 01:00:06:16 01:11:12:20 01:11:16:06
* FROM CLIP NAME:  AESG NIGHTFALL FULL MIX NEZ STIZ.AIF.NEW.01_01-06.A1
0202 EP_107 A34    C        01:11:16:06 01:11:16:10 01:11:16:06 01:11:16:10
* FROM CLIP NAME:  SAMPLE ACCURATE EDIT
0203 EP_107 A34    C        01:00:06:20 01:00:10:04 01:11:16:10 01:11:19:18
* FROM CLIP NAME:  AESG NIGHTFALL FULL MIX NEZ STIZ.AIF.NEW.01_01-04.A1
0204 EP_107 A34    C        01:11:19:18 01:11:19:22 01:11:19:18 01:11:19:22
* FROM CLIP NAME:  SAMPLE ACCURATE EDIT
0205 EP_107 A34    C        01:00:06:20 01:00:10:04 01:11:19:22 01:11:23:06
* FROM CLIP NAME:  AESG NIGHTFALL FULL MIX NEZ STIZ.AIF.NEW.01_01-05.A1
0206 EP_107 A34    C        01:11:23:06 01:11:23:10 01:11:23:06 01:11:23:10
* FROM CLIP NAME:  SAMPLE ACCURATE EDIT
0207 EP_107 A34    C        01:00:10:08 01:00:13:16 01:11:23:10 01:11:26:18
* FROM CLIP NAME:  AESG NIGHTFALL FULL MIX NEZ STIZ.AIF.NEW.01_01-10.A1
0208 EP_107 A34    C        01:11:26:18 01:11:26:20 01:11:26:18 01:11:26:20
* FROM CLIP NAME:  SAMPLE ACCURATE EDIT
0209 EP_107 A34    C        01:00:13:18 01:00:20:22 01:11:26:20 01:11:34:00
* FROM CLIP NAME:  AESG NIGHTFALL FULL MIX NEZ STIZ.AIF.NEW.01_01-11.A1
0210 EP_107 A34    C        01:11:34:00 01:11:34:02 01:11:34:00 01:11:34:02
* FROM CLIP NAME:  SAMPLE ACCURATE EDIT
0211 EP_107 A34    C        01:00:24:12 01:00:29:16 01:11:34:02 01:11:39:06
* FROM CLIP NAME:  AESG NIGHTFALL FULL MIX NEZ STIZ.AIF.NEW.01_01-12.A1
0212 EP_107 A34    C        01:11:39:06 01:11:39:08 01:11:39:06 01:11:39:08
* FROM CLIP NAME:  SAMPLE ACCURATE EDIT
0213 EP_107 A34    C        01:00:57:18 01:01:13:11 01:11:39:08 01:11:55:01
* FROM CLIP NAME:  AESG NIGHTFALL FULL MIX NEZ STIZ.AIF.NEW.02_01-03.A1
0214 EP_107 A34    C        01:11:55:01 01:11:55:04 01:11:55:01 01:11:55:04
* FROM CLIP NAME:  SAMPLE ACCURATE EDIT
0215 EP_107 A12    C        01:11:55:02 01:11:55:03 01:11:55:02 01:11:55:03
* FROM CLIP NAME:  SAMPLE ACCURATE EDIT
0216 EP_107 A12    C        01:01:24:01 01:01:30:20 01:11:55:03 01:12:01:22
* FROM CLIP NAME:  AESG NIGHTFALL FULL MIX NEZ STIZ.AIF.NEW.03_01-01.A1
0217 EP_107 A34    C        01:11:55:19 01:11:55:20 01:11:55:19 01:11:55:20
* FROM CLIP NAME:  SAMPLE ACCURATE EDIT
0218 EP_107 A34    C        01:00:00:09 01:00:00:17 01:11:55:20 01:11:56:04
* FROM CLIP NAME:  AESG KEEN SENSES ONLY BASS AND DRUMS MB.AIF.NEW.01_01-02.A1
0219 EP_107 A34    C        01:11:56:04 01:11:56:19 01:11:56:04 01:11:56:19
* FROM CLIP NAME:  FADE
0220 EP_107 A34    C        01:00:01:08 01:00:08:19 01:11:56:19 01:12:04:06
* FROM CLIP NAME:  AESG KEEN SENSES ONLY BASS AND DRUMS MB.AIF.NEW.01_01-08.A1
0221 EP_107 A12    C        01:12:01:22 01:12:02:04 01:12:01:22 01:12:02:04
* FROM CLIP NAME:  FADE
0222 EP_107 A34    C        01:12:04:06 01:12:04:12 01:12:04:06 01:12:04:12
* FROM CLIP NAME:  SAMPLE ACCURATE EDIT
0223 EP_107 A34    C        01:01:14:05 01:01:27:12 01:12:04:12 01:12:17:19
* FROM CLIP NAME:  AESG KEEN SENSES FULL MIX MB.AIF.NEW.01_01-07.A1
0224 EP_107 A34    C        01:12:17:19 01:12:17:23 01:12:17:19 01:12:17:23
* FROM CLIP NAME:  SAMPLE ACCURATE EDIT
0225 EP_107 A34    C        01:01:26:16 01:01:32:15 01:12:17:23 01:12:23:22
* FROM CLIP NAME:  AESG KEEN SENSES FULL MIX MB.AIF.NEW.01_01-06.A1
0226 EP_107 A34    C        01:12:23:22 01:12:24:04 01:12:23:22 01:12:24:04
* FROM CLIP NAME:  FADE
0227 EP_107 A34    C        01:12:24:20 01:12:24:21 01:12:24:20 01:12:24:21
* FROM CLIP NAME:  SAMPLE ACCURATE EDIT
0228 EP_107 A34    C        01:00:00:01 01:00:19:07 01:12:24:21 01:12:44:03
* FROM CLIP NAME:  DCD077_06_2 POWER MOVE.NEW.01_01-02.A1
0229 EP_107 A34    C        01:12:44:03 01:12:45:23 01:12:44:03 01:12:45:23
* FROM CLIP NAME:  FADE
0230 EP_107 A34    C        01:00:21:03 01:00:32:02 01:12:45:23 01:12:56:22
* FROM CLIP NAME:  DCD077_06_2 POWER MOVE.NEW.01_01-01.A1
0231 EP_107 A12    C        01:12:56:09 01:12:57:05 01:12:56:09 01:12:57:05
* FROM CLIP NAME:  FADE
0232 EP_107 A34    C        01:12:56:22 01:12:57:00 01:12:56:22 01:12:57:00
* FROM CLIP NAME:  SAMPLE ACCURATE EDIT
0233 EP_107 A34    C        01:01:52:21 01:01:55:08 01:12:57:00 01:12:59:11
* FROM CLIP NAME:  DCD077_06_2 POWER MOVE.NEW.02_01-01.A1
0234 EP_107 A12    C        01:02:03:14 01:02:06:16 01:12:57:05 01:13:00:07
* FROM CLIP NAME:  LAA017_02 MAN ON THE INSIDE.NEW.01_01-02.A1
0235 EP_107 A34    C        01:12:59:11 01:13:00:23 01:12:59:11 01:13:00:23
* FROM CLIP NAME:  FADE
0236 EP_107 A12    C        01:13:00:07 01:13:01:03 01:13:00:07 01:13:01:03
* FROM CLIP NAME:  FADE
0237 EP_107 A12    C        01:02:07:12 01:02:07:23 01:13:01:03 01:13:01:14
* FROM CLIP NAME:  LAA017_02 MAN ON THE INSIDE.NEW.01_01-01.A1
0238 EP_107 A12    C        01:13:01:14 01:13:01:22 01:13:01:14 01:13:01:22
* FROM CLIP NAME:  FADE
0239 EP_107 A34    C        01:13:01:16 01:13:01:23 01:13:01:16 01:13:01:23
* FROM CLIP NAME:  SAMPLE ACCURATE EDIT
0240 EP_107 A34    C        01:00:07:07 01:00:09:00 01:13:01:23 01:13:03:16
* FROM CLIP NAME:  LAA015_08 RIDE THE LINE.NEW.01-01.A1
0241 EP_107 A34    C        01:13:03:16 01:13:03:19 01:13:03:16 01:13:03:19
* FROM CLIP NAME:  FADE
0242 EP_107 A12    C        01:13:03:16 01:13:03:20 01:13:03:16 01:13:03:20
* FROM CLIP NAME:  SAMPLE ACCURATE EDIT
0243 EP_107 A12    C        01:01:48:15 01:01:54:23 01:13:03:20 01:13:10:04
* FROM CLIP NAME:  LAA015_08 RIDE THE LINE.NEW.02-04.A1
0244 EP_107 A12    C        01:13:10:04 01:13:10:19 01:13:10:04 01:13:10:19
* FROM CLIP NAME:  FADE
0245 EP_107 A12    C        01:01:50:12 01:02:01:09 01:13:10:19 01:13:21:16
* FROM CLIP NAME:  LAA015_08 RIDE THE LINE.NEW.02-07.A1
0246 EP_107 A34    C        01:13:20:03 01:13:21:23 01:13:20:03 01:13:21:23
* FROM CLIP NAME:  FADE
0247 EP_107 A12    C        01:13:21:16 01:13:21:23 01:13:21:16 01:13:21:23
* FROM CLIP NAME:  FADE
0248 EP_107 A34    C        01:01:41:04 01:01:56:10 01:13:21:23 01:13:37:05
* FROM CLIP NAME:  LAA015_08 RIDE THE LINE.NEW.02-06.A1
0249 EP_107 A34    C        01:13:37:05 01:13:37:09 01:13:37:05 01:13:37:09
* FROM CLIP NAME:  FADE
0250 EP_107 A34    C        01:13:37:16 01:13:37:21 01:13:37:16 01:13:37:21
* FROM CLIP NAME:  FADE
0251 EP_107 A34    C        01:00:02:05 01:00:04:13 01:13:37:21 01:13:40:05
* FROM CLIP NAME:  GAA006_04_7 THE WILL TO KILL_FX.NEW.01_01-07.A1
0252 EP_107 A12    C        01:13:40:02 01:13:40:03 01:13:40:02 01:13:40:03
* FROM CLIP NAME:  SAMPLE ACCURATE EDIT
0253 EP_107 A12    C        01:00:16:18 01:00:18:21 01:13:40:03 01:13:42:06
* FROM CLIP NAME:  LAA013_04 LIGHTS NO SIRENS.NEW.01_01-04.A1
0254 EP_107 A34    C        01:13:40:05 01:13:40:12 01:13:40:05 01:13:40:12
* FROM CLIP NAME:  FADE
0255 EP_107 A12    C        01:13:42:06 01:13:43:18 01:13:42:06 01:13:43:18
* FROM CLIP NAME:  FADE
0256 EP_107 A12    C        01:00:20:09 01:00:36:08 01:13:43:18 01:13:59:17
* FROM CLIP NAME:  LAA013_04 LIGHTS NO SIRENS.NEW.01_01-02.A1
0257 EP_107 A12    C        01:13:59:17 01:14:00:01 01:13:59:17 01:14:00:01
* FROM CLIP NAME:  FADE
0258 EP_107 A34    C        01:14:01:17 01:14:01:19 01:14:01:17 01:14:01:19
* FROM CLIP NAME:  SAMPLE ACCURATE EDIT
0259 EP_107 A34    C        00:59:56:13 01:00:17:03 01:14:01:19 01:14:22:09
* FROM CLIP NAME:  AETN LAA021_01 JOE CODE.WAV.NEW.01_01-01.A1
0260 EP_107 A12    C        01:14:22:09 01:14:22:11 01:14:22:09 01:14:22:11
* FROM CLIP NAME:  SAMPLE ACCURATE EDIT
0261 EP_107 A34    C        01:14:22:09 01:14:25:22 01:14:22:09 01:14:25:22
* FROM CLIP NAME:  FADE
0262 EP_107 A12    C        01:00:00:02 01:00:36:22 01:14:22:11 01:14:59:07
* FROM CLIP NAME:  DCD037_35 FIFTH WHEEL (PULSE).NEW.01-03.A1
0263 EP_107 A12    C        01:14:59:07 01:14:59:17 01:14:59:07 01:14:59:17
* FROM CLIP NAME:  FADE
0264 EP_107 A12    C        01:00:37:08 01:00:48:19 01:14:59:17 01:15:11:04
* FROM CLIP NAME:  DCD037_35 FIFTH WHEEL (PULSE).NEW.01-04.A1
0265 EP_107 A34    C        01:15:10:17 01:15:11:17 01:15:10:17 01:15:11:17
* FROM CLIP NAME:  FADE
0266 EP_107 A12    C        01:15:11:04 01:15:11:12 01:15:11:04 01:15:11:12
* FROM CLIP NAME:  FADE
0267 EP_107 A34    C        01:00:15:23 01:00:18:04 01:15:11:17 01:15:13:22
* FROM CLIP NAME:  AETN LAA021_09 CREEPING BEAUTY.WAV.NEW.01_01-04.A1
0268 EP_107 A34    C        01:15:13:22 01:15:14:10 01:15:13:22 01:15:14:10
* FROM CLIP NAME:  FADE
0269 EP_107 A34    C        01:00:19:21 01:00:38:10 01:15:14:10 01:15:32:23
* FROM CLIP NAME:  AETN LAA021_09 CREEPING BEAUTY.WAV.NEW.01_01-09.A1
0270 EP_107 A34    C        01:15:32:23 01:15:33:09 01:15:32:23 01:15:33:09
* FROM CLIP NAME:  FADE
0271 EP_107 A34    C        01:00:38:20 01:00:41:16 01:15:33:09 01:15:36:05
* FROM CLIP NAME:  AETN LAA021_09 CREEPING BEAUTY.WAV.NEW.01_01-10.A1
0272 EP_107 A12    C        01:15:36:02 01:15:36:06 01:15:36:02 01:15:36:06
* FROM CLIP NAME:  SAMPLE ACCURATE EDIT
0273 EP_107 A34    C        01:15:36:05 01:15:36:06 01:15:36:05 01:15:36:06
* FROM CLIP NAME:  AETN LAA021_09 CREEPING BEAUTY.WAV.NEW.01_01-10.A1
0274 EP_107 A12    C        01:02:07:07 01:02:18:08 01:15:36:06 01:15:47:07
* FROM CLIP NAME:  AETN LAA021_09 CREEPING BEAUTY.WAV.NEW.02_01-05.A1
0275 EP_107 A12    C        01:15:47:07 01:15:47:09 01:15:47:07 01:15:47:09
* FROM CLIP NAME:  SAMPLE ACCURATE EDIT
0276 EP_107 A12    C        01:02:18:10 01:02:23:10 01:15:47:09 01:15:52:09
* FROM CLIP NAME:  AETN LAA021_09 CREEPING BEAUTY.WAV.NEW.02_01-01.A1
0277 EP_107 A34    C        01:15:48:03 01:15:48:06 01:15:48:03 01:15:48:06
* FROM CLIP NAME:  SAMPLE ACCURATE EDIT
0278 EP_107 A34    C        01:00:00:03 01:00:26:05 01:15:48:06 01:16:14:08
* FROM CLIP NAME:  LAA016_08 DESPERATE MEASURES.NEW.01_01-01.A1
0279 EP_107 A12    C        01:15:52:09 01:15:52:16 01:15:52:09 01:15:52:16
* FROM CLIP NAME:  FADE
0280 EP_107 A34    C        01:16:14:08 01:16:14:10 01:16:14:08 01:16:14:10
* FROM CLIP NAME:  SAMPLE ACCURATE EDIT
0281 EP_107 A34    C        01:01:51:22 01:01:57:20 01:16:14:10 01:16:20:08
* FROM CLIP NAME:  LAA008_04 REMAINS SILENT.NEW.03_01-01.A1
0282 EP_107 A12    C        01:16:17:06 01:16:17:10 01:16:17:06 01:16:17:10
* FROM CLIP NAME:  SAMPLE ACCURATE EDIT
0283 EP_107 A12    C        01:00:05:05 01:00:06:12 01:16:17:10 01:16:18:17
* FROM CLIP NAME:  AESG BLUEPRINT STRATEGY FULL MIX MB.AIF.NEW.01_01-01.A1
0284 EP_107 A12    C        01:16:18:17 01:16:19:03 01:16:18:17 01:16:19:03
* FROM CLIP NAME:  FADE
0285 EP_107 A12    C        01:00:08:07 01:00:12:11 01:16:19:03 01:16:23:07
* FROM CLIP NAME:  AESG BLUEPRINT STRATEGY FULL MIX MB.AIF.NEW.01_01-03.A1
0286 EP_107 A34    C        01:16:20:08 01:16:20:13 01:16:20:08 01:16:20:13
* FROM CLIP NAME:  FADE
0287 EP_107 A12    C        01:16:23:07 01:16:23:11 01:16:23:07 01:16:23:11
* FROM CLIP NAME:  SAMPLE ACCURATE EDIT
0288 EP_107 A12    C        01:00:45:04 01:00:46:23 01:16:23:11 01:16:25:06
* FROM CLIP NAME:  AESG BLUEPRINT STRATEGY FULL MIX MB.AIF.NEW.02_01-01.A1
0289 EP_107 A12    C        01:16:25:06 01:16:25:10 01:16:25:06 01:16:25:10
* FROM CLIP NAME:  FADE
0290 EP_107 A34    C        01:16:25:06 01:16:26:02 01:16:25:06 01:16:26:02
* FROM CLIP NAME:  FADE
0291 EP_107 A34    C        01:01:50:03 01:01:54:13 01:16:26:02 01:16:30:12
* FROM CLIP NAME:  DCD060_01 KILL STREAK.NEW.02_01-16.A1
0292 EP_107 A34    C        01:16:30:12 01:16:30:22 01:16:30:12 01:16:30:22
* FROM CLIP NAME:  FADE
0293 EP_107 A34    C        01:01:54:23 01:01:58:07 01:16:30:22 01:16:34:06
* FROM CLIP NAME:  DCD060_01 KILL STREAK.NEW.02_01-15.A1
0294 EP_107 A34    C        01:16:34:06 01:16:34:16 01:16:34:06 01:16:34:16
* FROM CLIP NAME:  FADE
0295 EP_107 A34    C        01:01:58:17 01:01:59:18 01:16:34:16 01:16:35:17
* FROM CLIP NAME:  DCD060_01 KILL STREAK.NEW.02_01-14.A1
0296 EP_107 A34    C        01:16:35:17 01:16:35:23 01:16:35:17 01:16:35:23
* FROM CLIP NAME:  FADE
0297 EP_107 A34    C        01:02:00:00 01:02:00:15 01:16:35:23 01:16:36:14
* FROM CLIP NAME:  DCD060_01 KILL STREAK.NEW.02_01-13.A1
0298 EP_107 A34    C        01:16:36:14 01:16:37:00 01:16:36:14 01:16:37:00
* FROM CLIP NAME:  FADE
0299 EP_107 A12    C        01:16:36:15 01:16:36:20 01:16:36:15 01:16:36:20
* FROM CLIP NAME:  SAMPLE ACCURATE EDIT
0300 EP_107 A12    C        01:00:00:05 01:00:01:05 01:16:36:20 01:16:37:20
* FROM CLIP NAME:  AESG THUNDER HIT 2 JV RH.AIF.NEW.01_01-01.A1
0301 EP_107 A34    C        01:02:01:01 01:02:01:13 01:16:37:00 01:16:37:12
* FROM CLIP NAME:  DCD060_01 KILL STREAK.NEW.02_01-03.A1
0302 EP_107 A34    C        01:16:37:12 01:16:37:15 01:16:37:12 01:16:37:15
* FROM CLIP NAME:  FADE
0303 EP_107 A34    C        01:02:01:16 01:02:01:17 01:16:37:15 01:16:37:16
* FROM CLIP NAME:  DCD060_01 KILL STREAK.NEW.02_01-01.A1
0304 EP_107 A34    C        01:16:37:16 01:16:37:17 01:16:37:16 01:16:37:17
* FROM CLIP NAME:  DCD060_01 KILL STREAK.NEW.02_01-01.A1
0305 EP_107 A12    C        01:16:37:20 01:16:38:00 01:16:37:20 01:16:38:00
* FROM CLIP NAME:  SAMPLE ACCURATE EDIT
0306 EP_107 A12    C        01:00:03:07 01:00:04:15 01:16:38:00 01:16:39:08
* FROM CLIP NAME:  AESG RISE TAKE THE BLUE PILL RH.AIF.NEW.01_01-03.A1
0307 EP_107 A12    C        01:16:39:08 01:16:39:17 01:16:39:08 01:16:39:17
* FROM CLIP NAME:  FADE
0308 EP_107 A34    C        01:16:43:00 01:16:43:02 01:16:43:00 01:16:43:02
* FROM CLIP NAME:  SAMPLE ACCURATE EDIT
0309 EP_107 A34    C        01:00:21:03 01:00:23:23 01:16:43:02 01:16:45:22
* FROM CLIP NAME:  AETN LAA021_09 CREEPING BEAUTY.WAV.NEW.01_01-03.A1
0310 EP_107 A34    C        01:16:45:22 01:16:46:08 01:16:45:22 01:16:46:08
* FROM CLIP NAME:  FADE
0311 EP_107 A34    C        01:00:24:09 01:00:36:11 01:16:46:08 01:16:58:10
* FROM CLIP NAME:  AETN LAA021_09 CREEPING BEAUTY.WAV.NEW.01_01-11.A1
0312 EP_107 A34    C        01:16:58:10 01:16:58:18 01:16:58:10 01:16:58:18
* FROM CLIP NAME:  FADE
0313 EP_107 A34    C        01:00:36:19 01:00:39:00 01:16:58:18 01:17:00:23
* FROM CLIP NAME:  AETN LAA021_09 CREEPING BEAUTY.WAV.NEW.01_01-12.A1
0314 EP_107 A34    C        01:17:00:23 01:17:01:19 01:17:00:23 01:17:01:19
* FROM CLIP NAME:  FADE
0315 EP_107 A34    C        01:00:37:20 01:00:43:06 01:17:01:19 01:17:07:05
* FROM CLIP NAME:  AETN LAA021_09 CREEPING BEAUTY.WAV.NEW.01_01-13.A1
0316 EP_107 A12    C        01:17:07:01 01:17:07:21 01:17:07:01 01:17:07:21
* FROM CLIP NAME:  FADE
0317 EP_107 A34    C        01:17:07:05 01:17:07:11 01:17:07:05 01:17:07:11
* FROM CLIP NAME:  FADE
0318 EP_107 A12    C        01:02:14:18 01:02:22:12 01:17:07:21 01:17:15:15
* FROM CLIP NAME:  AETN LAA021_09 CREEPING BEAUTY.WAV.NEW.02_01-02.A1
0319 EP_107 A12    C        01:17:15:15 01:17:15:23 01:17:15:15 01:17:15:23
* FROM CLIP NAME:  FADE
0320 EP_107 A12    C        01:17:20:23 01:17:21:00 01:17:20:23 01:17:21:00
* FROM CLIP NAME:  SAMPLE ACCURATE EDIT
0321 EP_107 A12    C        01:00:00:01 01:00:01:20 01:17:21:00 01:17:22:19
* FROM CLIP NAME:  LAA008_04 REMAINS SILENT.NEW.01_01-05.A1
0322 EP_107 A12    C        01:17:22:19 01:17:23:15 01:17:22:19 01:17:23:15
* FROM CLIP NAME:  FADE
0323 EP_107 A12    C        01:00:02:16 01:00:22:18 01:17:23:15 01:17:43:17
* FROM CLIP NAME:  LAA008_04 REMAINS SILENT.NEW.01_01-04.A1
0324 EP_107 A12    C        01:17:43:17 01:17:43:21 01:17:43:17 01:17:43:21
* FROM CLIP NAME:  FADE
0325 EP_107 A12    C        01:00:31:14 01:00:38:06 01:17:43:21 01:17:50:13
* FROM CLIP NAME:  LAA008_04 REMAINS SILENT.NEW.02_01-03.A1
0326 EP_107 A34    C        01:17:49:15 01:17:49:18 01:17:49:15 01:17:49:18
* FROM CLIP NAME:  SAMPLE ACCURATE EDIT
0327 EP_107 A34    C        01:00:18:01 01:00:22:19 01:17:49:18 01:17:54:12
* FROM CLIP NAME:  SPN007_06_2 LAUNCH CODE_LIGHT.NEW.01_01-06.A1
0328 EP_107 A12    C        01:17:50:13 01:17:54:07 01:17:50:13 01:17:54:07
* FROM CLIP NAME:  FADE
0329 EP_107 A34    C        01:17:54:12 01:17:55:08 01:17:54:12 01:17:55:08
* FROM CLIP NAME:  FADE
0330 EP_107 A34    C        01:00:23:15 01:00:26:13 01:17:55:08 01:17:58:06
* FROM CLIP NAME:  SPN007_06_2 LAUNCH CODE_LIGHT.NEW.01_01-07.A1
0331 EP_107 A34    C        01:17:58:06 01:17:59:02 01:17:58:06 01:17:59:02
* FROM CLIP NAME:  FADE
0332 EP_107 A34    C        01:00:27:09 01:00:28:11 01:17:59:02 01:18:00:04
* FROM CLIP NAME:  SPN007_06_2 LAUNCH CODE_LIGHT.NEW.01_01-08.A1
0333 EP_107 A34    C        01:18:00:04 01:18:00:06 01:18:00:04 01:18:00:06
* FROM CLIP NAME:  SAMPLE ACCURATE EDIT
0334 EP_107 A34    C        01:00:28:13 01:00:44:23 01:18:00:06 01:18:16:16
* FROM CLIP NAME:  SPN007_06_2 LAUNCH CODE_LIGHT.NEW.01_01-09.A1
0335 EP_107 A34    C        01:18:16:16 01:18:17:22 01:18:16:16 01:18:17:22
* FROM CLIP NAME:  FADE
0336 EP_107 A34    C        01:01:48:00 01:01:54:12 01:18:17:22 01:18:24:10
* FROM CLIP NAME:  SPN007_06_2 LAUNCH CODE_LIGHT.NEW.02_01-03.A1
0337 EP_107 A34    C        01:18:24:10 01:18:24:15 01:18:24:10 01:18:24:15
* FROM CLIP NAME:  FADE
0338 EP_107 A12    C        01:18:27:06 01:18:27:08 01:18:27:06 01:18:27:08
* FROM CLIP NAME:  SAMPLE ACCURATE EDIT
0339 EP_107 A12    C        00:59:56:13 00:59:59:03 01:18:27:08 01:18:29:22
* FROM CLIP NAME:  AETN LAA021_11 FIREWALL HAZARD.WAV.NEW.01_01-08.A2
0340 EP_107 A12    C        01:18:29:22 01:18:29:23 01:18:29:22 01:18:29:23
* FROM CLIP NAME:  SAMPLE ACCURATE EDIT
0341 EP_107 A12    C        00:59:59:03 01:00:05:14 01:18:29:23 01:18:36:10
* FROM CLIP NAME:  AETN LAA021_11 FIREWALL HAZARD.WAV.NEW.01_01-09.A2
0342 EP_107 A12    C        01:18:36:10 01:18:37:06 01:18:36:10 01:18:37:06
* FROM CLIP NAME:  FADE
0343 EP_107 A12    C        01:00:06:10 01:00:08:02 01:18:37:06 01:18:38:22
* FROM CLIP NAME:  AETN LAA021_11 FIREWALL HAZARD.WAV.NEW.01_01-10.A2
0344 EP_107 A12    C        01:18:38:22 01:18:39:00 01:18:38:22 01:18:39:00
* FROM CLIP NAME:  SAMPLE ACCURATE EDIT
0345 EP_107 A12    C        01:00:08:15 01:00:16:23 01:18:39:00 01:18:47:08
* FROM CLIP NAME:  AETN LAA021_11 FIREWALL HAZARD.WAV.NEW.01_01-11.A2
0346 EP_107 A34    C        01:18:46:20 01:18:46:21 01:18:46:20 01:18:46:21
* FROM CLIP NAME:  SAMPLE ACCURATE EDIT
0347 EP_107 A34    C        01:00:36:12 01:00:39:21 01:18:46:21 01:18:50:06
* FROM CLIP NAME:  AETN LAA021_11 FIREWALL HAZARD.WAV.NEW.02_01-08.A1
0348 EP_107 A12    C        01:18:47:08 01:18:47:12 01:18:47:08 01:18:47:12
* FROM CLIP NAME:  FADE
0349 EP_107 A34    C        01:18:50:06 01:18:50:10 01:18:50:06 01:18:50:10
* FROM CLIP NAME:  SAMPLE ACCURATE EDIT
0350 EP_107 A34    C        01:00:40:01 01:00:41:07 01:18:50:10 01:18:51:16
* FROM CLIP NAME:  AETN LAA021_11 FIREWALL HAZARD.WAV.NEW.02_01-09.A1
0351 EP_107 A34    C        01:18:51:16 01:18:51:18 01:18:51:16 01:18:51:18
* FROM CLIP NAME:  SAMPLE ACCURATE EDIT
0352 EP_107 A34    C        01:00:41:09 01:00:42:13 01:18:51:18 01:18:52:22
* FROM CLIP NAME:  AETN LAA021_11 FIREWALL HAZARD.WAV.NEW.02_01-10.A1
0353 EP_107 A34    C        01:18:52:22 01:18:53:00 01:18:52:22 01:18:53:00
* FROM CLIP NAME:  SAMPLE ACCURATE EDIT
0354 EP_107 A34    C        01:00:42:15 01:00:43:18 01:18:53:00 01:18:54:03
* FROM CLIP NAME:  AETN LAA021_11 FIREWALL HAZARD.WAV.NEW.02_01-11.A1
0355 EP_107 A12    C        01:18:53:18 01:18:54:04 01:18:53:18 01:18:54:04
* FROM CLIP NAME:  FADE
0356 EP_107 A34    C        01:18:54:03 01:18:54:05 01:18:54:03 01:18:54:05
* FROM CLIP NAME:  SAMPLE ACCURATE EDIT
0357 EP_107 A12    C        01:01:50:14 01:02:04:14 01:18:54:04 01:19:08:04
* FROM CLIP NAME:  AETN LAA021_11 FIREWALL HAZARD.WAV.NEW.03_01-01.A1
0358 EP_107 A34    C        01:00:43:20 01:00:44:05 01:18:54:05 01:18:54:14
* FROM CLIP NAME:  AETN LAA021_11 FIREWALL HAZARD.WAV.NEW.02_01-12.A1
0359 EP_107 A34    C        01:18:54:14 01:18:54:18 01:18:54:14 01:18:54:18
* FROM CLIP NAME:  FADE
0360 EP_107 A34    C        01:19:04:19 01:19:04:21 01:19:04:19 01:19:04:21
* FROM CLIP NAME:  SAMPLE ACCURATE EDIT
0361 EP_107 A34    C        01:00:00:02 01:00:18:02 01:19:04:21 01:19:22:21
* FROM CLIP NAME:  LAA013_02 NEW INTELLIGENCE.NEW.01_01-02.A1
0362 EP_107 A12    C        01:19:08:04 01:19:08:13 01:19:08:04 01:19:08:13
* FROM CLIP NAME:  FADE
0363 EP_107 A34    C        01:19:22:21 01:19:23:22 01:19:22:21 01:19:23:22
* FROM CLIP NAME:  FADE
0364 EP_107 A34    C        01:00:10:20 01:00:12:20 01:19:23:22 01:19:25:22
* FROM CLIP NAME:  LAA013_02 NEW INTELLIGENCE.NEW.01_01-01.A1
0365 EP_107 A34    C        01:19:25:22 01:19:26:00 01:19:25:22 01:19:26:00
* FROM CLIP NAME:  SAMPLE ACCURATE EDIT
0366 EP_107 A34    C        01:00:12:22 01:00:30:23 01:19:26:00 01:19:44:01
* FROM CLIP NAME:  LAA013_02 NEW INTELLIGENCE.NEW.01_01-03.A1
0367 EP_107 A34    C        01:19:44:01 01:19:45:07 01:19:44:01 01:19:45:07
* FROM CLIP NAME:  FADE
0368 EP_107 A34    C        01:02:19:08 01:02:27:01 01:19:45:07 01:19:53:00
* FROM CLIP NAME:  LAA013_02 NEW INTELLIGENCE.NEW.02_01-01.A1
0369 EP_107 A12    C        01:19:51:15 01:19:51:20 01:19:51:15 01:19:51:20
* FROM CLIP NAME:  SAMPLE ACCURATE EDIT
0370 EP_107 A12    C        01:00:14:07 01:00:19:14 01:19:51:20 01:19:57:03
* FROM CLIP NAME:  LAA016_07_1 THE TAKEDOWN_BED.NEW.01_01-01.A1
0371 EP_107 A34    C        01:19:53:00 01:19:53:06 01:19:53:00 01:19:53:06
* FROM CLIP NAME:  FADE
0372 EP_107 A12    C        01:19:57:03 01:19:58:13 01:19:57:03 01:19:58:13
* FROM CLIP NAME:  FADE
0373 EP_107 A12    C        01:00:37:00 01:00:50:06 01:19:58:13 01:20:11:19
* FROM CLIP NAME:  LAA016_07_1 THE TAKEDOWN_BED.NEW.02_01-05.A1
0374 EP_107 A12    C        01:20:11:19 01:20:12:20 01:20:11:19 01:20:12:20
* FROM CLIP NAME:  FADE
0375 EP_107 A12    C        01:00:54:20 01:01:05:01 01:20:12:20 01:20:23:01
* FROM CLIP NAME:  LAA016_07_1 THE TAKEDOWN_BED.NEW.02_01-04.A1
0376 EP_107 A12    C        01:20:23:01 01:20:23:03 01:20:23:01 01:20:23:03
* FROM CLIP NAME:  SAMPLE ACCURATE EDIT
0377 EP_107 A12    C        01:01:06:01 01:01:09:21 01:20:23:03 01:20:26:23
* FROM CLIP NAME:  LAA016_07_1 THE TAKEDOWN_BED.NEW.02_01-13.A1
0378 EP_107 A12    C        01:20:26:23 01:20:27:03 01:20:26:23 01:20:27:03
* FROM CLIP NAME:  SAMPLE ACCURATE EDIT
0379 EP_107 A12    C        01:01:10:10 01:01:29:12 01:20:27:03 01:20:46:05
* FROM CLIP NAME:  LAA016_07_1 THE TAKEDOWN_BED.NEW.02_01-12.A1
0380 EP_107 A12    C        01:20:46:05 01:20:46:07 01:20:46:05 01:20:46:07
* FROM CLIP NAME:  SAMPLE ACCURATE EDIT
0381 EP_107 A12    C        01:01:30:04 01:01:30:21 01:20:46:07 01:20:47:00
* FROM CLIP NAME:  LAA016_07_1 THE TAKEDOWN_BED.NEW.02_01-09.A1
0382 EP_107 A12    C        01:20:47:00 01:20:47:02 01:20:47:00 01:20:47:02
* FROM CLIP NAME:  SAMPLE ACCURATE EDIT
0383 EP_107 A12    C        01:01:32:04 01:01:34:13 01:20:47:02 01:20:49:11
* FROM CLIP NAME:  LAA016_07_1 THE TAKEDOWN_BED.NEW.02_01-10.A1
0384 EP_107 A12    C        01:20:49:11 01:20:49:13 01:20:49:11 01:20:49:13
* FROM CLIP NAME:  SAMPLE ACCURATE EDIT
0385 EP_107 A12    C        01:01:34:15 01:01:47:05 01:20:49:13 01:21:02:03
* FROM CLIP NAME:  LAA016_07_1 THE TAKEDOWN_BED.NEW.02_01-11.A1
0386 EP_107 A12    C        01:21:02:03 01:21:07:03 01:21:02:03 01:21:07:03
* FROM CLIP NAME:  FADE
0387 EP_107 A34    C        01:21:06:01 01:21:09:19 01:21:06:01 01:21:09:19
* FROM CLIP NAME:  FADE
0388 EP_107 A34    C        01:01:48:23 01:02:19:02 01:21:09:19 01:21:39:22
* FROM CLIP NAME:  LAA016_02 FINAL WARNING.NEW.01_01-02.A1
0389 EP_107 A34    C        01:21:39:22 01:21:40:23 01:21:39:22 01:21:40:23
* FROM CLIP NAME:  FADE
0390 EP_107 A34    C        01:02:05:14 01:02:12:18 01:21:40:23 01:21:48:03
* FROM CLIP NAME:  LAA016_02 FINAL WARNING.NEW.01_01-01.A1
0391 EP_107 A12    C        01:21:48:02 01:21:51:20 01:21:48:02 01:21:51:20
* FROM CLIP NAME:  FADE
0392 EP_107 A34    C        01:21:48:03 01:21:51:21 01:21:48:03 01:21:51:21
* FROM CLIP NAME:  FADE
0393 EP_107 A12    C        01:00:17:19 01:00:18:12 01:21:51:20 01:21:52:13
* FROM CLIP NAME:  LAA013_05 SHOW AND TELL.NEW.01_01-01.A1
0394 EP_107 A12    C        01:21:52:13 01:21:52:15 01:21:52:13 01:21:52:15
* FROM CLIP NAME:  SAMPLE ACCURATE EDIT
0395 EP_107 A12    C        01:00:18:14 01:00:30:08 01:21:52:15 01:22:04:09
* FROM CLIP NAME:  LAA013_05 SHOW AND TELL.NEW.01_01-06.A1
0396 EP_107 A12    C        01:22:04:09 01:22:05:06 01:22:04:09 01:22:05:06
* FROM CLIP NAME:  SAMPLE ACCURATE EDIT
0397 EP_107 A12    C        01:00:30:09 01:00:45:13 01:22:05:06 01:22:20:10
* FROM CLIP NAME:  LAA013_05 SHOW AND TELL.NEW.01_01-07.A1
0398 EP_107 A12    C        01:22:20:10 01:22:20:18 01:22:20:10 01:22:20:18
* FROM CLIP NAME:  SAMPLE ACCURATE EDIT
0399 EP_107 A12    C        01:01:43:01 01:01:48:04 01:22:20:18 01:22:25:21
* FROM CLIP NAME:  LAA013_05 SHOW AND TELL.NEW.02_01-09.A1
0400 EP_107 A12    C        01:22:25:21 01:22:27:10 01:22:25:21 01:22:27:10
* FROM CLIP NAME:  SAMPLE ACCURATE EDIT
0401 EP_107 A12    C        01:01:49:17 01:01:52:11 01:22:27:10 01:22:30:04
* FROM CLIP NAME:  LAA013_05 SHOW AND TELL.NEW.02_01-14.A1
0402 EP_107 A12    C        01:22:30:04 01:22:31:00 01:22:30:04 01:22:31:00
* FROM CLIP NAME:  FADE
0403 EP_107 A12    C        01:01:53:07 01:01:54:15 01:22:31:00 01:22:32:08
* FROM CLIP NAME:  LAA013_05 SHOW AND TELL.NEW.02_01-10.A1
0404 EP_107 A12    C        01:22:32:08 01:22:32:12 01:22:32:08 01:22:32:12
* FROM CLIP NAME:  SAMPLE ACCURATE EDIT
0405 EP_107 A12    C        01:01:55:15 01:01:57:06 01:22:32:12 01:22:34:03
* FROM CLIP NAME:  LAA013_05 SHOW AND TELL.NEW.02_01-11.A1
0406 EP_107 A12    C        01:22:34:03 01:22:34:05 01:22:34:03 01:22:34:05
* FROM CLIP NAME:  SAMPLE ACCURATE EDIT
0407 EP_107 A12    C        01:01:56:12 01:01:59:11 01:22:34:05 01:22:37:04
* FROM CLIP NAME:  LAA013_05 SHOW AND TELL.NEW.02_01-12.A1
0408 EP_107 A12    C        01:22:37:04 01:22:37:23 01:22:37:04 01:22:37:23
* FROM CLIP NAME:  SAMPLE ACCURATE EDIT
0409 EP_107 A12    C        01:02:17:10 01:02:21:01 01:22:37:23 01:22:41:14
* FROM CLIP NAME:  LAA013_05 SHOW AND TELL.NEW.02_01-13.A1
0410 EP_107 A34    C        01:22:40:01 01:22:40:05 01:22:40:01 01:22:40:05
* FROM CLIP NAME:  FADE
0411 EP_107 A34    C        01:01:17:11 01:01:18:15 01:22:40:05 01:22:41:09
* FROM CLIP NAME:  AETN SPN011_12 STAY CLOSE.WAV.NEW.01_01-06.A1
0412 EP_107 A34    C        01:22:41:09 01:22:42:05 01:22:41:09 01:22:42:05
* FROM CLIP NAME:  FADE
0413 EP_107 A12    C        01:22:41:14 01:22:44:17 01:22:41:14 01:22:44:17
* FROM CLIP NAME:  SAMPLE ACCURATE EDIT
0414 EP_107 A34    C        01:01:19:11 01:01:22:23 01:22:42:05 01:22:45:17
* FROM CLIP NAME:  AETN SPN011_12 STAY CLOSE.WAV.NEW.01_01-07.A1
0415 EP_107 A34    C        01:22:45:17 01:22:46:03 01:22:45:17 01:22:46:03
* FROM CLIP NAME:  FADE
0416 EP_107 A34    C        01:01:23:09 01:01:27:09 01:22:46:03 01:22:50:03
* FROM CLIP NAME:  AETN SPN011_12 STAY CLOSE.WAV.NEW.01_01-09.A1
0417 EP_107 A34    C        01:22:50:03 01:22:50:13 01:22:50:03 01:22:50:13
* FROM CLIP NAME:  FADE
0418 EP_107 A34    C        01:01:27:19 01:01:32:01 01:22:50:13 01:22:54:19
* FROM CLIP NAME:  AETN SPN011_12 STAY CLOSE.WAV.NEW.01_01-08.A1
0419 EP_107 A12    C        01:22:50:20 01:22:50:21 01:22:50:20 01:22:50:21
* FROM CLIP NAME:  SAMPLE ACCURATE EDIT
0420 EP_107 A12    C        01:02:44:17 01:02:48:09 01:22:50:21 01:22:54:13
* FROM CLIP NAME:  DCD025_06 DEAD LETTER DAY.COPY.01.NEW.01_01-01.A1
0421 EP_107 A12    C        01:22:54:13 01:22:55:00 01:22:54:13 01:22:55:00
* FROM CLIP NAME:  FADE
0422 EP_107 A34    C        01:22:54:19 01:22:55:00 01:22:54:19 01:22:55:00
* FROM CLIP NAME:  FADE
0423 EP_107 A12    C        01:22:56:01 01:22:56:02 01:22:56:01 01:22:56:02
* FROM CLIP NAME:  SAMPLE ACCURATE EDIT
0424 EP_107 A12    C        01:00:00:01 01:00:05:07 01:22:56:02 01:23:01:08
* FROM CLIP NAME:  DCD049_19 EVOLUTION ECLIPSE.NEW.01_01-05.A1
0425 EP_107 A12    C        01:23:01:08 01:23:02:04 01:23:01:08 01:23:02:04
* FROM CLIP NAME:  FADE
0426 EP_107 A12    C        01:00:06:05 01:00:20:12 01:23:02:04 01:23:16:11
* FROM CLIP NAME:  DCD049_19 EVOLUTION ECLIPSE.NEW.01_01-04.A1
0427 EP_107 A12    C        01:23:16:11 01:23:16:15 01:23:16:11 01:23:16:15
* FROM CLIP NAME:  SAMPLE ACCURATE EDIT
0428 EP_107 A12    C        01:00:27:18 01:00:34:17 01:23:16:15 01:23:23:14
* FROM CLIP NAME:  AETN LAA022_05 WINDOW OF OPPORTUNITY.WAV.NEW.01_01-04.A1
0429 EP_107 A12    C        01:23:23:14 01:23:23:16 01:23:23:14 01:23:23:16
* FROM CLIP NAME:  SAMPLE ACCURATE EDIT
0430 EP_107 A12    C        01:00:34:19 01:00:45:22 01:23:23:16 01:23:34:19
* FROM CLIP NAME:  AETN LAA022_05 WINDOW OF OPPORTUNITY.WAV.NEW.01_01-02.A1
0431 EP_107 A12    C        01:23:34:19 01:23:35:10 01:23:34:19 01:23:35:10
* FROM CLIP NAME:  FADE
0432 EP_107 A12    C        01:02:09:22 01:02:09:23 01:23:35:10 01:23:35:11
* FROM CLIP NAME:  AETN LAA022_05 WINDOW OF OPPORTUNITY.WAV.NEW.02_01-06.A1
0433 EP_107 A34    C        01:23:35:10 01:23:35:13 01:23:35:10 01:23:35:13
* FROM CLIP NAME:  SAMPLE ACCURATE EDIT
0434 EP_107 A12    C        01:23:35:11 01:23:35:13 01:23:35:11 01:23:35:13
* FROM CLIP NAME:  SAMPLE ACCURATE EDIT
0435 EP_107 A12    C        01:02:10:01 01:02:11:20 01:23:35:13 01:23:37:08
* FROM CLIP NAME:  AETN LAA022_05 WINDOW OF OPPORTUNITY.WAV.NEW.02_01-07.A1
0436 EP_107 A34    C        01:00:13:19 01:00:24:02 01:23:35:13 01:23:45:20
* FROM CLIP NAME:  AETN LAA022_03 EVERY TURN.WAV.NEW.01_01-05.A1
0437 EP_107 A12    C        01:23:37:08 01:23:37:10 01:23:37:08 01:23:37:10
* FROM CLIP NAME:  SAMPLE ACCURATE EDIT
0438 EP_107 A12    C        01:02:11:22 01:02:16:15 01:23:37:10 01:23:42:03
* FROM CLIP NAME:  AETN LAA022_05 WINDOW OF OPPORTUNITY.WAV.NEW.02_01-08.A1
0439 EP_107 A12    C        01:23:42:03 01:23:42:10 01:23:42:03 01:23:42:10
* FROM CLIP NAME:  FADE
0440 EP_107 A34    C        01:23:45:20 01:23:45:22 01:23:45:20 01:23:45:22
* FROM CLIP NAME:  SAMPLE ACCURATE EDIT
0441 EP_107 A12    C        01:23:45:22 01:23:46:01 01:23:45:22 01:23:46:01
* FROM CLIP NAME:  SAMPLE ACCURATE EDIT
0442 EP_107 A34    C        01:00:24:04 01:00:28:16 01:23:45:22 01:23:50:10
* FROM CLIP NAME:  AETN LAA022_03 EVERY TURN.WAV.NEW.01_01-06.A1
0443 EP_107 A12    C        01:01:02:02 01:01:06:15 01:23:46:01 01:23:50:14
* FROM CLIP NAME:  AETN LAA022_02 DANCING WITH DANGER.WAV.NEW.02_01-03.A1
0444 EP_107 A34    C        01:23:50:10 01:23:50:15 01:23:50:10 01:23:50:15
* FROM CLIP NAME:  FADE
0445 EP_107 A12    C        01:23:50:14 01:23:50:16 01:23:50:14 01:23:50:16
* FROM CLIP NAME:  SAMPLE ACCURATE EDIT
0446 EP_107 A12    C        01:00:00:18 01:00:05:09 01:23:50:16 01:23:55:07
* FROM CLIP NAME:  LAA008_07 HALF IMPRESSION.NEW.01_01-05.A1
0447 EP_107 A12    C        01:23:55:07 01:23:55:13 01:23:55:07 01:23:55:13
* FROM CLIP NAME:  SAMPLE ACCURATE EDIT
0448 EP_107 A12    C        01:00:05:15 01:00:11:14 01:23:55:13 01:24:01:12
* FROM CLIP NAME:  LAA008_07 HALF IMPRESSION.NEW.01_01-02.A1
0449 EP_107 A12    C        01:24:01:12 01:24:01:16 01:24:01:12 01:24:01:16
* FROM CLIP NAME:  SAMPLE ACCURATE EDIT
0450 EP_107 A12    C        01:00:09:16 01:00:15:17 01:24:01:16 01:24:07:17
* FROM CLIP NAME:  LAA008_07 HALF IMPRESSION.NEW.01_01-03.A1
0451 EP_107 A12    C        01:24:07:17 01:24:07:22 01:24:07:17 01:24:07:22
* FROM CLIP NAME:  FADE
0452 EP_107 A34    C        01:24:08:06 01:24:08:09 01:24:08:06 01:24:08:09
* FROM CLIP NAME:  SAMPLE ACCURATE EDIT
0453 EP_107 A34    C        01:01:55:16 01:02:14:13 01:24:08:09 01:24:27:06
* FROM CLIP NAME:  LAA008_07 HALF IMPRESSION.NEW.02_01-01.A1
0454 EP_107 A12    C        01:24:26:06 01:24:26:10 01:24:26:06 01:24:26:10
* FROM CLIP NAME:  SAMPLE ACCURATE EDIT
0455 EP_107 A12    C        01:00:36:18 01:00:42:04 01:24:26:10 01:24:31:20
* FROM CLIP NAME:  LAA002_08_13 RAPID RESPONSE_STRINGS.NEW.01_01-01.A1
0456 EP_107 A34    C        01:24:27:06 01:24:27:09 01:24:27:06 01:24:27:09
* FROM CLIP NAME:  FADE
0457 EP_107 A12    C        01:24:31:20 01:24:33:02 01:24:31:20 01:24:33:02
* FROM CLIP NAME:  FADE
0458 EP_107 A12    C        01:00:43:10 01:00:45:07 01:24:33:02 01:24:34:23
* FROM CLIP NAME:  LAA002_08 RAPID RESPONSE.NEW.01_01-05.A1
0459 EP_107 A12    C        01:24:34:23 01:24:35:19 01:24:34:23 01:24:35:19
* FROM CLIP NAME:  FADE
0460 EP_107 A12    C        01:00:46:03 01:00:51:15 01:24:35:19 01:24:41:07
* FROM CLIP NAME:  LAA002_08 RAPID RESPONSE.NEW.01_01-06.A1
0461 EP_107 A12    C        01:24:41:07 01:24:42:03 01:24:41:07 01:24:42:03
* FROM CLIP NAME:  FADE
0462 EP_107 A34    C        01:24:41:17 01:24:41:19 01:24:41:17 01:24:41:19
* FROM CLIP NAME:  SAMPLE ACCURATE EDIT
0463 EP_107 A34    C        01:00:52:03 01:01:04:03 01:24:41:19 01:24:53:19
* FROM CLIP NAME:  LAA002_08 RAPID RESPONSE.NEW.01_01-03.A1
0464 EP_107 A12    C        01:24:53:18 01:24:53:21 01:24:53:18 01:24:53:21
* FROM CLIP NAME:  SAMPLE ACCURATE EDIT
0465 EP_107 A34    C        01:24:53:19 01:24:53:23 01:24:53:19 01:24:53:23
* FROM CLIP NAME:  FADE
0466 EP_107 A12    C        01:01:17:05 01:01:21:15 01:24:53:21 01:24:58:07
* FROM CLIP NAME:  LAA002_08 RAPID RESPONSE.NEW.02_01-02.A1
0467 EP_107 A12    C        01:24:58:07 01:24:58:09 01:24:58:07 01:24:58:09
* FROM CLIP NAME:  SAMPLE ACCURATE EDIT
0468 EP_107 A12    C        01:01:21:17 01:01:22:11 01:24:58:09 01:24:59:03
* FROM CLIP NAME:  LAA002_08 RAPID RESPONSE.NEW.02_01-01.A1
0469 EP_107 A12    C        01:24:59:03 01:25:01:15 01:24:59:03 01:25:01:15
* FROM CLIP NAME:  FADE
0470 EP_107 A34    C        01:25:01:09 01:25:01:12 01:25:01:09 01:25:01:12
* FROM CLIP NAME:  SAMPLE ACCURATE EDIT
0471 EP_107 A34    C        01:00:01:11 01:00:05:07 01:25:01:12 01:25:05:08
* FROM CLIP NAME:  AETN SPN011_10 LAST DEFENCE.WAV.NEW.01_01-01.A1
0472 EP_107 A34    C        01:25:05:08 01:25:06:14 01:25:05:08 01:25:06:14
* FROM CLIP NAME:  FADE
0473 EP_107 A34    C        01:02:04:09 01:02:07:04 01:25:06:14 01:25:09:09
* FROM CLIP NAME:  AETN SPN011_10 LAST DEFENCE.WAV.NEW.02_01-01.A1
0474 EP_107 A34    C        01:25:09:09 01:25:10:05 01:25:09:09 01:25:10:05
* FROM CLIP NAME:  FADE
0475 EP_107 A12    C        01:25:09:19 01:25:10:00 01:25:09:19 01:25:10:00
* FROM CLIP NAME:  SAMPLE ACCURATE EDIT
0476 EP_107 A12    C        01:00:31:18 01:00:50:16 01:25:10:00 01:25:28:22
* FROM CLIP NAME:  AETN LAA021_11 FIREWALL HAZARD.WAV.NEW.02_01-06.A1
0477 EP_107 A34    C        01:25:26:17 01:25:29:05 01:25:26:17 01:25:29:05
* FROM CLIP NAME:  FADE
0478 EP_107 A12    C        01:25:28:22 01:25:29:05 01:25:28:22 01:25:29:05
* FROM CLIP NAME:  FADE
0479 EP_107 A34    C        01:02:54:03 01:02:55:18 01:25:29:05 01:25:30:20
* FROM CLIP NAME:  AETN SPN011_10 LAST DEFENCE.WAV.NEW.03_01-01.A1
0480 EP_107 A34    C        01:25:30:20 01:25:31:01 01:25:30:20 01:25:31:01
* FROM CLIP NAME:  FADE
0481 EP_107 A34    C        01:00:02:05 01:00:04:16 01:25:31:01 01:25:33:12
* FROM CLIP NAME:  GAA006_04_7 THE WILL TO KILL_FX.NEW.01_01-04.A1
0482 EP_107 A12    C        01:25:32:16 01:25:33:12 01:25:32:16 01:25:33:12
* FROM CLIP NAME:  FADE
0483 EP_107 A34    C        01:25:33:12 01:25:33:16 01:25:33:12 01:25:33:16
* FROM CLIP NAME:  FADE
0484 EP_107 A12    C        01:01:25:08 01:01:47:05 01:25:33:12 01:25:55:09
* FROM CLIP NAME:  AETN LAA021_06 HACK TO BASICS.WAV.NEW.01_01-03.A1
0485 EP_107 A34    C        01:25:51:10 01:25:51:14 01:25:51:10 01:25:51:14
* FROM CLIP NAME:  SAMPLE ACCURATE EDIT
0486 EP_107 A34    C        01:01:20:19 01:01:23:23 01:25:51:14 01:25:54:18
* FROM CLIP NAME:  LAA002_08_10 RAPID RESPONSE_DRUMS AND PERCUSSION.NEW.01_01-01.A1
0487 EP_107 A34    C        01:25:54:18 01:25:59:18 01:25:54:18 01:25:59:18
* FROM CLIP NAME:  FADE
0488 EP_107 A12    C        01:25:55:09 01:25:55:11 01:25:55:09 01:25:55:11
* FROM CLIP NAME:  SAMPLE ACCURATE EDIT
0489 EP_107 A12    C        01:02:15:07 01:02:17:06 01:25:55:11 01:25:57:10
* FROM CLIP NAME:  AETN LAA021_06 HACK TO BASICS.WAV.NEW.02_01-03.A1
0490 EP_107 A12    C        01:25:57:10 01:25:59:22 01:25:57:10 01:25:59:22
* FROM CLIP NAME:  FADE
0491 EP_107 A34    C        01:25:59:22 01:25:59:23 01:25:59:22 01:25:59:23
* FROM CLIP NAME:  SAMPLE ACCURATE EDIT
0492 EP_107 A34    C        00:59:56:12 00:59:57:18 01:25:59:23 01:26:01:05
* FROM CLIP NAME:  AETN LAA022_02 DANCING WITH DANGER.WAV.NEW.01_01-08.A1
0493 EP_107 A34    C        01:26:01:05 01:26:01:15 01:26:01:05 01:26:01:15
* FROM CLIP NAME:  FADE
0494 EP_107 A34    C        00:59:58:04 01:00:00:18 01:26:01:15 01:26:04:05
* FROM CLIP NAME:  AETN LAA022_02 DANCING WITH DANGER.WAV.NEW.01_01-07.A1
0495 EP_107 A34    C        01:26:04:05 01:26:04:15 01:26:04:05 01:26:04:15
* FROM CLIP NAME:  FADE
0496 EP_107 A34    C        01:00:01:04 01:00:02:05 01:26:04:15 01:26:05:16
* FROM CLIP NAME:  AETN LAA022_02 DANCING WITH DANGER.WAV.NEW.01_01-01.A1
0497 EP_107 A34    C        01:26:05:16 01:26:06:02 01:26:05:16 01:26:06:02
* FROM CLIP NAME:  FADE
0498 EP_107 A34    C        01:00:02:15 01:00:15:03 01:26:06:02 01:26:18:14
* FROM CLIP NAME:  AETN LAA022_02 DANCING WITH DANGER.WAV.NEW.01_01-10.A1
0499 EP_107 A34    C        01:26:18:14 01:26:19:20 01:26:18:14 01:26:19:20
* FROM CLIP NAME:  FADE
0500 EP_107 A34    C        01:00:16:09 01:00:39:02 01:26:19:20 01:26:42:13
* FROM CLIP NAME:  AETN LAA022_02 DANCING WITH DANGER.WAV.NEW.01_01-09.A1
0501 EP_107 A34    C        01:26:42:13 01:26:43:14 01:26:42:13 01:26:43:14
* FROM CLIP NAME:  FADE
0502 EP_107 A34    C        01:02:19:06 01:02:23:09 01:26:43:14 01:26:47:17
* FROM CLIP NAME:  AETN LAA022_02 DANCING WITH DANGER.WAV.NEW.03_01-03.A1
0503 EP_107 A12    C        01:26:46:05 01:26:46:08 01:26:46:05 01:26:46:08
* FROM CLIP NAME:  SAMPLE ACCURATE EDIT
0504 EP_107 A12    C        01:00:06:23 01:00:10:15 01:26:46:08 01:26:50:00
* FROM CLIP NAME:  AETN LAA022_09 NO TIME LIKE THE PRESENT.WAV.NEW.01_01-01.A1
0505 EP_107 A34    C        01:26:47:17 01:26:47:22 01:26:47:17 01:26:47:22
* FROM CLIP NAME:  FADE
0506 EP_107 A12    C        01:26:50:00 01:26:50:02 01:26:50:00 01:26:50:02
* FROM CLIP NAME:  SAMPLE ACCURATE EDIT
0507 EP_107 A12    C        01:00:14:20 01:00:40:04 01:26:50:02 01:27:15:10
* FROM CLIP NAME:  AETN LAA022_09 NO TIME LIKE THE PRESENT.WAV.NEW.01_01-04.A1
0508 EP_107 A12    C        01:27:15:10 01:27:16:06 01:27:15:10 01:27:16:06
* FROM CLIP NAME:  FADE
0509 EP_107 A12    C        01:01:57:01 01:02:04:05 01:27:16:06 01:27:23:10
* FROM CLIP NAME:  AETN LAA022_09 NO TIME LIKE THE PRESENT.WAV.NEW.02_01-03.A1
0510 EP_107 A34    C        01:27:21:12 01:27:21:15 01:27:21:12 01:27:21:15
* FROM CLIP NAME:  SAMPLE ACCURATE EDIT
0511 EP_107 A34    C        01:00:00:10 01:00:11:18 01:27:21:15 01:27:32:23
* FROM CLIP NAME:  AETN LAA021_10 GLITCH SLAP.WAV.NEW.01_01-03.A1
0512 EP_107 A12    C        01:27:23:10 01:27:23:18 01:27:23:10 01:27:23:18
* FROM CLIP NAME:  FADE
0513 EP_107 A34    C        01:27:32:23 01:27:33:01 01:27:32:23 01:27:33:01
* FROM CLIP NAME:  SAMPLE ACCURATE EDIT
0514 EP_107 A34    C        01:00:21:23 01:00:38:18 01:27:33:01 01:27:49:20
* FROM CLIP NAME:  AETN LAA021_10 GLITCH SLAP.WAV.NEW.02_01-03.A1
0515 EP_107 A34    C        01:27:49:20 01:27:50:08 01:27:49:20 01:27:50:08
* FROM CLIP NAME:  FADE
0516 EP_107 A34    C        01:02:15:03 01:02:20:06 01:27:50:08 01:27:55:11
* FROM CLIP NAME:  AETN LAA021_10 GLITCH SLAP.WAV.NEW.03_01-03.A1
0517 EP_107 A12    C        01:27:51:20 01:27:52:01 01:27:51:20 01:27:52:01
* FROM CLIP NAME:  SAMPLE ACCURATE EDIT
0518 EP_107 A12    C        01:00:20:11 01:00:38:00 01:27:52:01 01:28:09:14
* FROM CLIP NAME:  SPN002_12 COLD AS VICE.NEW.01_01-03.A1
0519 EP_107 A34    C        01:27:55:11 01:27:55:16 01:27:55:11 01:27:55:16
* FROM CLIP NAME:  FADE
0520 EP_107 A12    C        01:28:09:14 01:28:09:16 01:28:09:14 01:28:09:16
* FROM CLIP NAME:  FADE
0521 EP_107 A34    C        01:28:09:16 01:28:10:22 01:28:09:16 01:28:10:22
* FROM CLIP NAME:  FADE
0522 EP_107 A34    C        01:01:33:13 01:01:36:08 01:28:10:22 01:28:13:17
* FROM CLIP NAME:  DCD105_01 DARK ON DEMAND.NEW.01_01-05.A1
0523 EP_107 A34    C        01:28:13:17 01:28:14:13 01:28:13:17 01:28:14:13
* FROM CLIP NAME:  FADE
0524 EP_107 A34    C        01:01:39:09 01:01:45:12 01:28:14:13 01:28:20:16
* FROM CLIP NAME:  DCD105_01 DARK ON DEMAND.NEW.01_01-06.A1
0525 EP_107 A34    C        01:28:20:16 01:28:20:18 01:28:20:16 01:28:20:18
* FROM CLIP NAME:  SAMPLE ACCURATE EDIT
0526 EP_107 A34    C        01:02:43:19 01:02:44:05 01:28:20:18 01:28:21:04
* FROM CLIP NAME:  DCD105_01 DARK ON DEMAND.NEW.02_01-03.A1
0527 EP_107 A34    C        01:28:21:04 01:28:24:02 01:28:21:04 01:28:24:02
* FROM CLIP NAME:  FADE
0528 EP_107 A12    C        01:28:22:12 01:28:23:18 01:28:22:12 01:28:23:18
* FROM CLIP NAME:  FADE
0529 EP_107 A12    C        01:00:01:06 01:00:39:19 01:28:23:18 01:29:02:07
* FROM CLIP NAME:  DCD102_06 CAREFUL WHAT YOU WISH FOR.NEW.01_01-01.A1
0530 EP_107 A1234  C        01:29:02:07 01:29:03:13 01:29:02:07 01:29:03:13
* FROM CLIP NAME:  FADE
0531 EP_107 A34    C        01:01:00:21 01:01:01:22 01:29:03:13 01:29:04:14
* FROM CLIP NAME:  DCD102_06 CAREFUL WHAT YOU WISH FOR.NEW.02_01-01.A1
0532 EP_107 A34    C        01:29:04:14 01:29:04:22 01:29:04:14 01:29:04:22
* FROM CLIP NAME:  FADE
0533 EP_107 A34    C        01:01:03:04 01:01:20:03 01:29:04:22 01:29:21:21
* FROM CLIP NAME:  DCD102_06 CAREFUL WHAT YOU WISH FOR.NEW.02_01-02.A1
0534 EP_107 A34    C        01:29:21:21 01:29:22:07 01:29:21:21 01:29:22:07
* FROM CLIP NAME:  FADE
0535 EP_107 A12    C        01:29:22:01 01:29:22:04 01:29:22:01 01:29:22:04
* FROM CLIP NAME:  SAMPLE ACCURATE EDIT
0536 EP_107 A12    C        01:00:40:08 01:00:54:09 01:29:22:04 01:29:36:05
* FROM CLIP NAME:  AETN LAA021_03 VULTURE CAPITALIST.WAV.NEW.01_01-03.A1
0537 EP_107 A12    C        01:29:36:05 01:29:36:08 01:29:36:05 01:29:36:08
* FROM CLIP NAME:  SAMPLE ACCURATE EDIT
0538 EP_107 A34    C        01:29:36:06 01:29:36:08 01:29:36:06 01:29:36:08
* FROM CLIP NAME:  SAMPLE ACCURATE EDIT
0539 EP_107 A34    C        01:01:12:22 01:01:26:00 01:29:36:08 01:29:49:10
* FROM CLIP NAME:  AETN LAA022_01 THE ULTIMATE PRICE.WAV.NEW.01_01-02.A1
0540 EP_107 A34    C        01:29:49:10 01:29:50:11 01:29:49:10 01:29:50:11
* FROM CLIP NAME:  FADE
0541 EP_107 A34    C        01:01:22:09 01:01:23:07 01:29:50:11 01:29:51:09
* FROM CLIP NAME:  AETN LAA022_01 THE ULTIMATE PRICE.WAV.NEW.01_01-01.A1
0542 EP_107 A34    C        01:29:51:09 01:29:51:22 01:29:51:09 01:29:51:22
* FROM CLIP NAME:  FADE
0543 EP_107 A34    C        01:29:57:00 01:29:57:01 01:29:57:00 01:29:57:01
* FROM CLIP NAME:  SAMPLE ACCURATE EDIT
0544 EP_107 A34    C        01:00:00:01 01:00:01:09 01:29:57:01 01:29:58:09
* FROM CLIP NAME:  SPN007_02_2 SLEEPER CELL_LIGHT.NEW.01_01-09.A1
0545 EP_107 A34    C        01:29:58:09 01:29:58:19 01:29:58:09 01:29:58:19
* FROM CLIP NAME:  FADE
0546 EP_107 A34    C        01:00:01:19 01:00:04:01 01:29:58:19 01:30:01:01
* FROM CLIP NAME:  SPN007_02_2 SLEEPER CELL_LIGHT.NEW.01_01-10.A1
0547 EP_107 A34    C        01:30:01:01 01:30:01:17 01:30:01:01 01:30:01:17
* FROM CLIP NAME:  SAMPLE ACCURATE EDIT
0548 EP_107 A34    C        01:00:04:17 01:00:20:04 01:30:01:17 01:30:17:04
* FROM CLIP NAME:  SPN007_02_2 SLEEPER CELL_LIGHT.NEW.01_01-08.A1
0549 EP_107 A34    C        01:30:17:04 01:30:17:12 01:30:17:04 01:30:17:12
* FROM CLIP NAME:  FADE
0550 EP_107 A34    C        01:00:20:12 01:00:28:02 01:30:17:12 01:30:25:02
* FROM CLIP NAME:  SPN007_02_2 SLEEPER CELL_LIGHT.NEW.01_01-11.A1
0551 EP_107 A34    C        01:30:25:02 01:30:25:12 01:30:25:02 01:30:25:12
* FROM CLIP NAME:  FADE
0552 EP_107 A34    C        01:00:34:09 01:00:34:20 01:30:25:12 01:30:25:23
* FROM CLIP NAME:  SPN007_02_2 SLEEPER CELL_LIGHT.NEW.02_01-05.A1
0553 EP_107 A34    C        01:30:25:23 01:30:26:09 01:30:25:23 01:30:26:09
* FROM CLIP NAME:  FADE
0554 EP_107 A34    C        01:00:35:06 01:00:47:05 01:30:26:09 01:30:38:08
* FROM CLIP NAME:  SPN007_02_2 SLEEPER CELL_LIGHT.NEW.02_01-06.A1
0555 EP_107 A34    C        01:30:38:08 01:30:38:18 01:30:38:08 01:30:38:18
* FROM CLIP NAME:  FADE
0556 EP_107 A34    C        01:00:47:15 01:00:53:15 01:30:38:18 01:30:44:18
* FROM CLIP NAME:  SPN007_02_2 SLEEPER CELL_LIGHT.NEW.02_01-02.A1
0557 EP_107 A34    C        01:30:44:18 01:30:46:00 01:30:44:18 01:30:46:00
* FROM CLIP NAME:  FADE
0558 EP_107 A12    C        01:30:45:10 01:30:45:11 01:30:45:10 01:30:45:11
* FROM CLIP NAME:  FADE
0559 EP_107 A12    C        01:00:23:20 01:00:25:15 01:30:45:11 01:30:47:06
* FROM CLIP NAME:  LAA008_06 PHYSICAL MATCH.NEW.01_01-04.A1
0560 EP_107 A12    C        01:30:47:06 01:30:47:18 01:30:47:06 01:30:47:18
* FROM CLIP NAME:  FADE
0561 EP_107 A12    C        01:00:26:03 01:00:28:05 01:30:47:18 01:30:49:20
* FROM CLIP NAME:  LAA008_06 PHYSICAL MATCH.NEW.01_01-05.A1
0562 EP_107 A12    C        01:30:49:20 01:30:50:21 01:30:49:20 01:30:50:21
* FROM CLIP NAME:  FADE
0563 EP_107 A12    C        01:00:36:05 01:00:37:05 01:30:50:21 01:30:51:21
* FROM CLIP NAME:  LAA008_06 PHYSICAL MATCH.NEW.02_01-01.A1
0564 EP_107 A34    C        01:30:51:19 01:30:52:05 01:30:51:19 01:30:52:05
* FROM CLIP NAME:  FADE
0565 EP_107 A12    C        01:30:51:21 01:30:52:07 01:30:51:21 01:30:52:07
* FROM CLIP NAME:  FADE
0566 EP_107 A34    C        01:00:47:23 01:00:49:06 01:30:52:05 01:30:53:12
* FROM CLIP NAME:  LAA008_06 PHYSICAL MATCH.NEW.03_01-04.A1
0567 EP_107 A34    C        01:30:53:12 01:30:53:22 01:30:53:12 01:30:53:22
* FROM CLIP NAME:  FADE
0568 EP_107 A34    C        01:00:49:16 01:00:55:17 01:30:53:22 01:30:59:23
* FROM CLIP NAME:  LAA008_06 PHYSICAL MATCH.NEW.03_01-05.A1
0569 EP_107 A34    C        01:30:59:23 01:31:00:07 01:30:59:23 01:31:00:07
* FROM CLIP NAME:  FADE
0570 EP_107 A34    C        01:02:05:13 01:02:07:17 01:31:00:07 01:31:02:11
* FROM CLIP NAME:  LAA008_06 PHYSICAL MATCH.NEW.04_01-01.A1
0571 EP_107 A34    C        01:31:02:11 01:31:02:19 01:31:02:11 01:31:02:19
* FROM CLIP NAME:  FADE
0572 EP_107 A12    C        01:31:02:16 01:31:02:22 01:31:02:16 01:31:02:22
* FROM CLIP NAME:  SAMPLE ACCURATE EDIT
0573 EP_107 A12    C        00:59:56:17 01:00:07:01 01:31:02:22 01:31:13:06
* FROM CLIP NAME:  AETN SPN011_17 HARD EIGHT.WAV.NEW.01_01-06.A1
0574 EP_107 A12    C        01:31:13:06 01:31:13:12 01:31:13:06 01:31:13:12
* FROM CLIP NAME:  SAMPLE ACCURATE EDIT
0575 EP_107 A12    C        01:00:05:06 01:00:06:09 01:31:13:12 01:31:14:15
* FROM CLIP NAME:  AETN SPN011_17 HARD EIGHT.WAV.NEW.01_01-05.A1
0576 EP_107 A12    C        01:31:14:15 01:31:14:17 01:31:14:15 01:31:14:17
* FROM CLIP NAME:  SAMPLE ACCURATE EDIT
0577 EP_107 A12    C        01:00:06:21 01:00:24:20 01:31:14:17 01:31:32:16
* FROM CLIP NAME:  AETN SPN011_17 HARD EIGHT.WAV.NEW.01_01-07.A1
0578 EP_107 A12    C        01:31:32:16 01:31:33:17 01:31:32:16 01:31:33:17
* FROM CLIP NAME:  FADE
0579 EP_107 A34    C        01:31:33:18 01:31:33:19 01:31:33:18 01:31:33:19
* FROM CLIP NAME:  SAMPLE ACCURATE EDIT
0580 EP_107 A34    C        00:59:56:12 00:59:57:14 01:31:33:19 01:31:34:21
* FROM CLIP NAME:  AETN LAA021_02 TROJAN HORSE.WAV.NEW.01_01-02.A1
0581 EP_107 A34    C        01:31:34:21 01:31:35:07 01:31:34:21 01:31:35:07
* FROM CLIP NAME:  FADE
0582 EP_107 A34    C        00:59:58:00 01:00:04:09 01:31:35:07 01:31:41:16
* FROM CLIP NAME:  AETN LAA021_02 TROJAN HORSE.WAV.NEW.01_01-04.A1
0583 EP_107 A34    C        01:31:41:16 01:31:41:18 01:31:41:16 01:31:41:18
* FROM CLIP NAME:  SAMPLE ACCURATE EDIT
0584 EP_107 A34    C        00:59:58:14 01:00:01:22 01:31:41:18 01:31:45:02
* FROM CLIP NAME:  AETN LAA021_02 TROJAN HORSE.WAV.NEW.01_01-03.A1
0585 EP_107 A34    C        01:31:45:02 01:31:45:04 01:31:45:02 01:31:45:04
* FROM CLIP NAME:  SAMPLE ACCURATE EDIT
0586 EP_107 A34    C        01:00:04:07 01:00:04:14 01:31:45:04 01:31:45:11
* FROM CLIP NAME:  AETN LAA021_02 TROJAN HORSE.WAV.NEW.01_01-07.A1
0587 EP_107 A34    C        01:31:45:11 01:31:45:21 01:31:45:11 01:31:45:21
* FROM CLIP NAME:  FADE
0588 EP_107 A34    C        01:00:07:09 01:00:23:11 01:31:45:21 01:32:01:23
* FROM CLIP NAME:  AETN LAA021_02 TROJAN HORSE.WAV.NEW.01_01-08.A1
0589 EP_107 A34    C        01:32:01:23 01:32:02:07 01:32:01:23 01:32:02:07
* FROM CLIP NAME:  FADE
0590 EP_107 A34    C        01:02:05:07 01:02:07:06 01:32:02:07 01:32:04:06
* FROM CLIP NAME:  AETN LAA021_02 TROJAN HORSE.WAV.NEW.02_01-03.A1
0591 EP_107 A34    C        01:32:04:06 01:32:04:21 01:32:04:06 01:32:04:21
* FROM CLIP NAME:  FADE
0592 EP_107 A12    C        01:32:04:20 01:32:06:02 01:32:04:20 01:32:06:02
* FROM CLIP NAME:  FADE
0593 EP_107 A12    C        01:00:21:07 01:00:27:18 01:32:06:02 01:32:12:13
* FROM CLIP NAME:  SCS040_14 BAD COP WORST COP.NEW.01_01-01.A1
0594 EP_107 A12    C        01:32:12:13 01:32:12:23 01:32:12:13 01:32:12:23
* FROM CLIP NAME:  FADE
0595 EP_107 A12    C        01:01:35:18 01:01:36:01 01:32:12:23 01:32:13:06
* FROM CLIP NAME:  DCD105_01 DARK ON DEMAND.NEW.01_01-01.A1
0596 EP_107 A1234  C        01:32:13:06 01:32:13:07 01:32:13:06 01:32:13:07
* FROM CLIP NAME:  DCD105_01 DARK ON DEMAND.NEW.01_01-01.A1
0597 EP_107 A34    C        01:00:06:02 01:00:06:21 01:32:13:07 01:32:14:02
* FROM CLIP NAME:  AETN LAA022_04 KILLING TIME.WAV.NEW.01_01-06.A2
0598 EP_107 A34    C        01:32:14:02 01:32:14:12 01:32:14:02 01:32:14:12
* FROM CLIP NAME:  FADE
0599 EP_107 A34    C        01:00:07:07 01:00:09:02 01:32:14:12 01:32:16:07
* FROM CLIP NAME:  AETN LAA022_04 KILLING TIME.WAV.NEW.01_01-07.A2
0600 EP_107 A34    C        01:32:16:07 01:32:16:09 01:32:16:07 01:32:16:09
* FROM CLIP NAME:  SAMPLE ACCURATE EDIT
0601 EP_107 A34    C        01:00:09:04 01:00:11:18 01:32:16:09 01:32:18:23
* FROM CLIP NAME:  AETN LAA022_04 KILLING TIME.WAV.NEW.01_01-03.A1
0602 EP_107 A34    C        01:32:18:23 01:32:19:01 01:32:18:23 01:32:19:01
* FROM CLIP NAME:  SAMPLE ACCURATE EDIT
0603 EP_107 A34    C        01:00:25:03 01:00:40:02 01:32:19:01 01:32:34:00
* FROM CLIP NAME:  AETN LAA022_04 KILLING TIME.WAV.NEW.02_01-03.A1
0604 EP_107 A34    C        01:32:34:00 01:32:34:10 01:32:34:00 01:32:34:10
* FROM CLIP NAME:  FADE
0605 EP_107 A12    C        01:32:34:05 01:32:34:10 01:32:34:05 01:32:34:10
* FROM CLIP NAME:  SAMPLE ACCURATE EDIT
0606 EP_107 A12    C        01:00:39:12 01:00:51:03 01:32:34:10 01:32:46:01
* FROM CLIP NAME:  AETN LAA022_04 KILLING TIME.WAV.NEW.02_01-05.A1
0607 EP_107 A12    C        01:32:46:01 01:32:46:16 01:32:46:01 01:32:46:16
* FROM CLIP NAME:  FADE
0608 EP_107 A12    C        01:00:54:07 01:01:06:13 01:32:46:16 01:32:58:22
* FROM CLIP NAME:  AETN LAA022_04 KILLING TIME.WAV.NEW.02_01-06.A1
0609 EP_107 A12    C        01:32:58:22 01:32:59:08 01:32:58:22 01:32:59:08
* FROM CLIP NAME:  FADE
0610 EP_107 A12    C        01:01:58:07 01:02:00:03 01:32:59:08 01:33:01:04
* FROM CLIP NAME:  AETN LAA022_04 KILLING TIME.WAV.NEW.03_01-03.A1
0611 EP_107 A12    C        01:33:01:04 01:33:01:19 01:33:01:04 01:33:01:19
* FROM CLIP NAME:  FADE
0612 EP_107 A34    C        01:33:01:08 01:33:01:11 01:33:01:08 01:33:01:11
* FROM CLIP NAME:  SAMPLE ACCURATE EDIT
0613 EP_107 A34    C        01:00:06:20 01:00:08:12 01:33:01:11 01:33:03:03
* FROM CLIP NAME:  SPN002_12 COLD AS VICE.NEW.01_01-08.A1
0614 EP_107 A34    C        01:33:03:03 01:33:03:13 01:33:03:03 01:33:03:13
* FROM CLIP NAME:  FADE
0615 EP_107 A34    C        01:00:08:22 01:00:16:20 01:33:03:13 01:33:11:11
* FROM CLIP NAME:  SPN002_12 COLD AS VICE.NEW.01_01-07.A1
0616 EP_107 A34    C        01:33:11:11 01:33:11:13 01:33:11:11 01:33:11:13
* FROM CLIP NAME:  SAMPLE ACCURATE EDIT
0617 EP_107 A34    C        01:00:20:17 01:00:40:11 01:33:11:13 01:33:31:07
* FROM CLIP NAME:  SPN002_12 COLD AS VICE.NEW.01_01-06.A1
0618 EP_107 A34    C        01:33:31:07 01:33:31:17 01:33:31:07 01:33:31:17
* FROM CLIP NAME:  FADE
0619 EP_107 A34    C        01:01:46:00 01:01:46:03 01:33:31:17 01:33:31:20
* FROM CLIP NAME:  SPN002_12 COLD AS VICE.NEW.02_01-03.A1
0620 EP_107 A34    C        01:33:31:20 01:33:31:22 01:33:31:20 01:33:31:22
* FROM CLIP NAME:  SAMPLE ACCURATE EDIT
0621 EP_107 A34    C        01:02:08:18 01:02:10:05 01:33:31:22 01:33:33:09
* FROM CLIP NAME:  SPN002_12 COLD AS VICE.NEW.03_01-03.A1
0622 EP_107 A34    C        01:33:33:09 01:33:33:12 01:33:33:09 01:33:33:12
* FROM CLIP NAME:  FADE
0623 EP_107 A12    C        01:33:33:17 01:33:33:18 01:33:33:17 01:33:33:18
* FROM CLIP NAME:  SAMPLE ACCURATE EDIT
0624 EP_107 A12    C        01:00:00:01 01:00:00:14 01:33:33:18 01:33:34:07
* FROM CLIP NAME:  SPN001_18 WITHOUT FAIL.NEW.01_01-04.A1
0625 EP_107 A12    C        01:33:34:07 01:33:34:17 01:33:34:07 01:33:34:17
* FROM CLIP NAME:  FADE
0626 EP_107 A12    C        01:00:01:00 01:00:09:21 01:33:34:17 01:33:43:14
* FROM CLIP NAME:  SPN001_18 WITHOUT FAIL.NEW.01_01-05.A1
0627 EP_107 A12    C        01:33:43:14 01:33:44:00 01:33:43:14 01:33:44:00
* FROM CLIP NAME:  FADE
0628 EP_107 A12    C        01:00:16:15 01:00:17:04 01:33:44:00 01:33:44:13
* FROM CLIP NAME:  SPN001_18 WITHOUT FAIL.NEW.02_01-02.A1
0629 EP_107 A12    C        01:33:44:13 01:33:44:23 01:33:44:13 01:33:44:23
* FROM CLIP NAME:  FADE
0630 EP_107 A34    C        01:33:44:23 01:33:45:01 01:33:44:23 01:33:45:01
* FROM CLIP NAME:  SAMPLE ACCURATE EDIT
0631 EP_107 A12    C        01:00:28:22 01:00:29:10 01:33:44:23 01:33:45:11
* FROM CLIP NAME:  SPN001_18 WITHOUT FAIL.NEW.03_01-01.A1
0632 EP_107 A34    C        01:00:45:02 01:00:45:19 01:33:45:01 01:33:45:18
* FROM CLIP NAME:  SPN001_18 WITHOUT FAIL.NEW.04_01-09.A1
0633 EP_107 A12    C        01:33:45:11 01:33:45:13 01:33:45:11 01:33:45:13
* FROM CLIP NAME:  FADE
0634 EP_107 A34    C        01:33:45:18 01:33:46:04 01:33:45:18 01:33:46:04
* FROM CLIP NAME:  FADE
0635 EP_107 A34    C        01:00:46:05 01:00:47:04 01:33:46:04 01:33:47:03
* FROM CLIP NAME:  SPN001_18 WITHOUT FAIL.NEW.04_01-06.A1
0636 EP_107 A34    C        01:33:47:03 01:33:47:05 01:33:47:03 01:33:47:05
* FROM CLIP NAME:  SAMPLE ACCURATE EDIT
0637 EP_107 A34    C        01:00:49:10 01:00:56:15 01:33:47:05 01:33:54:10
* FROM CLIP NAME:  SPN001_18 WITHOUT FAIL.NEW.04_01-07.A1
0638 EP_107 A34    C        01:33:54:10 01:33:54:20 01:33:54:10 01:33:54:20
* FROM CLIP NAME:  FADE
0639 EP_107 A34    C        01:00:56:11 01:00:58:04 01:33:54:20 01:33:56:13
* FROM CLIP NAME:  SPN001_18 WITHOUT FAIL.NEW.04_01-08.A1
0640 EP_107 A34    C        01:33:56:13 01:33:56:19 01:33:56:13 01:33:56:19
* FROM CLIP NAME:  FADE
0641 EP_107 A34    C        01:33:59:06 01:33:59:09 01:33:59:06 01:33:59:09
* FROM CLIP NAME:  SAMPLE ACCURATE EDIT
0642 EP_107 A34    C        01:00:57:12 01:00:59:00 01:33:59:09 01:34:00:21
* FROM CLIP NAME:  LAA010_13 ENOUGH ROPE.NEW.01_01-06.A1
0643 EP_107 A34    C        01:34:00:21 01:34:01:07 01:34:00:21 01:34:01:07
* FROM CLIP NAME:  FADE
0644 EP_107 A34    C        01:00:59:10 01:01:09:05 01:34:01:07 01:34:11:02
* FROM CLIP NAME:  LAA010_13 ENOUGH ROPE.NEW.01_01-03.A1
0645 EP_107 A34    C        01:34:11:02 01:34:11:06 01:34:11:02 01:34:11:06
* FROM CLIP NAME:  SAMPLE ACCURATE EDIT
0646 EP_107 A34    C        01:01:06:13 01:01:12:23 01:34:11:06 01:34:17:16
* FROM CLIP NAME:  LAA010_13 ENOUGH ROPE.NEW.01_01-07.A1
0647 EP_107 A34    C        01:34:17:16 01:34:17:20 01:34:17:16 01:34:17:20
* FROM CLIP NAME:  FADE
0648 EP_107 A34    C        01:01:55:05 01:01:57:20 01:34:17:20 01:34:20:11
* FROM CLIP NAME:  LAA010_13 ENOUGH ROPE.NEW.02_01-03.A1
0649 EP_107 A34    C        01:34:20:11 01:34:21:07 01:34:20:11 01:34:21:07
* FROM CLIP NAME:  FADE
0650 EP_107 A12    C        01:34:21:08 01:34:21:09 01:34:21:08 01:34:21:09
* FROM CLIP NAME:  SAMPLE ACCURATE EDIT
0651 EP_107 A12    C        01:00:00:01 01:00:01:09 01:34:21:09 01:34:22:17
* FROM CLIP NAME:  021APOLY MAN OF MYSTERY.NEW.01_01-10.A1
0652 EP_107 A12    C        01:34:22:17 01:34:23:03 01:34:22:17 01:34:23:03
* FROM CLIP NAME:  FADE
0653 EP_107 A12    C        01:00:01:19 01:00:12:10 01:34:23:03 01:34:33:18
* FROM CLIP NAME:  021APOLY MAN OF MYSTERY.NEW.01_01-11.A1
0654 EP_107 A12    C        01:34:33:18 01:34:34:04 01:34:33:18 01:34:34:04
* FROM CLIP NAME:  FADE
0655 EP_107 A12    C        01:00:12:20 01:00:13:12 01:34:34:04 01:34:34:20
* FROM CLIP NAME:  021APOLY MAN OF MYSTERY.NEW.01_01-12.A1
0656 EP_107 A12    C        01:34:34:20 01:34:35:06 01:34:34:20 01:34:35:06
* FROM CLIP NAME:  FADE
0657 EP_107 A12    C        01:00:13:22 01:00:44:15 01:34:35:06 01:35:05:23
* FROM CLIP NAME:  021APOLY MAN OF MYSTERY.NEW.01_01-13.A1
0658 EP_107 A12    C        01:35:05:23 01:35:06:03 01:35:05:23 01:35:06:03
* FROM CLIP NAME:  FADE
0659 EP_107 A12    C        01:01:27:06 01:01:29:05 01:35:06:03 01:35:08:02
* FROM CLIP NAME:  021APOLY MAN OF MYSTERY.NEW.02_01-05.A1
0660 EP_107 A34    C        01:35:08:02 01:35:08:05 01:35:08:02 01:35:08:05
* FROM CLIP NAME:  SAMPLE ACCURATE EDIT
0661 EP_107 A12    C        01:35:08:02 01:35:08:12 01:35:08:02 01:35:08:12
* FROM CLIP NAME:  FADE
0662 EP_107 A34    C        01:00:00:03 01:00:10:11 01:35:08:05 01:35:18:13
* FROM CLIP NAME:  021APOLY CRIME SPREE.NEW.01_01-03.A1
0663 EP_107 A34    C        01:35:18:13 01:35:18:16 01:35:18:13 01:35:18:16
* FROM CLIP NAME:  SAMPLE ACCURATE EDIT
0664 EP_107 A34    C        01:00:01:05 01:00:23:14 01:35:18:16 01:35:41:01
* FROM CLIP NAME:  021APOLY EXECUTE TO PRECISION.NEW.01_01-06.A1
0665 EP_107 A34    C        01:35:41:01 01:35:41:09 01:35:41:01 01:35:41:09
* FROM CLIP NAME:  FADE
0666 EP_107 A34    C        01:00:23:22 01:00:25:20 01:35:41:09 01:35:43:07
* FROM CLIP NAME:  021APOLY EXECUTE TO PRECISION.NEW.01_01-07.A1
0667 EP_107 A12    C        01:35:42:21 01:35:43:08 01:35:42:21 01:35:43:08
* FROM CLIP NAME:  FADE
0668 EP_107 A34    C        01:35:43:07 01:35:43:11 01:35:43:07 01:35:43:11
* FROM CLIP NAME:  FADE
0669 EP_107 A12    C        01:00:26:15 01:00:31:13 01:35:43:08 01:35:48:06
* FROM CLIP NAME:  021APOLY EXECUTE TO PRECISION.NEW.01_01-02.A1
0670 EP_107 A12    C        01:35:48:06 01:35:48:08 01:35:48:06 01:35:48:08
* FROM CLIP NAME:  SAMPLE ACCURATE EDIT
0671 EP_107 A12    C        01:01:26:03 01:01:29:04 01:35:48:08 01:35:51:09
* FROM CLIP NAME:  021APOLY EXECUTE TO PRECISION.NEW.02_01-03.A1
0672 EP_107 A12    C        01:35:51:09 01:35:51:12 01:35:51:09 01:35:51:12
* FROM CLIP NAME:  SAMPLE ACCURATE EDIT
0673 EP_107 A34    C        01:35:51:10 01:35:51:11 01:35:51:10 01:35:51:11
* FROM CLIP NAME:  SAMPLE ACCURATE EDIT
0674 EP_107 A34    C        01:00:00:01 01:00:01:07 01:35:51:11 01:35:52:17
* FROM CLIP NAME:  021APOLY CLEVER GAMES.NEW.01_01-05.A1
0675 EP_107 A34    C        01:35:52:17 01:35:53:03 01:35:52:17 01:35:53:03
* FROM CLIP NAME:  FADE
0676 EP_107 A34    C        01:00:01:17 01:00:09:02 01:35:53:03 01:36:00:12
* FROM CLIP NAME:  021APOLY CLEVER GAMES.NEW.01_01-06.A1
0677 EP_107 A34    C        01:36:00:12 01:36:00:14 01:36:00:12 01:36:00:14
* FROM CLIP NAME:  SAMPLE ACCURATE EDIT
0678 EP_107 A34    C        01:00:11:11 01:00:11:13 01:36:00:14 01:36:00:16
* FROM CLIP NAME:  021APOLY CLEVER GAMES.NEW.01_01-07.A1
0679 EP_107 A34    C        01:36:00:16 01:36:01:07 01:36:00:16 01:36:01:07
* FROM CLIP NAME:  FADE
0680 EP_107 A34    C        01:01:52:02 01:01:56:21 01:36:01:07 01:36:06:02
* FROM CLIP NAME:  021APOLY CLEVER GAMES.NEW.02_01-03.A1
0681 EP_107 A34    C        01:36:06:02 01:36:06:22 01:36:06:02 01:36:06:22
* FROM CLIP NAME:  FADE
0682 EP_107 A34    C        01:36:09:00 01:36:09:01 01:36:09:00 01:36:09:01
* FROM CLIP NAME:  SAMPLE ACCURATE EDIT
0683 EP_107 A34    C        01:01:35:02 01:01:56:01 01:36:09:01 01:36:30:00
* FROM CLIP NAME:  AETN LAA022_06 LETHAL LIASON.WAV.NEW.01_01-02.A1
0684 EP_107 A34    C        01:36:30:00 01:36:30:12 01:36:30:00 01:36:30:12
* FROM CLIP NAME:  FADE
0685 EP_107 A34    C        01:02:02:01 01:02:05:01 01:36:30:12 01:36:33:12
* FROM CLIP NAME:  AETN LAA022_06 LETHAL LIASON.WAV.NEW.01_01-01.A1
0686 EP_107 A34    C        01:36:33:12 01:36:33:20 01:36:33:12 01:36:33:20
* FROM CLIP NAME:  FADE
0687 EP_107 A12    C        01:36:33:22 01:36:34:00 01:36:33:22 01:36:34:00
* FROM CLIP NAME:  SAMPLE ACCURATE EDIT
0688 EP_107 A12    C        01:00:00:02 01:00:01:13 01:36:34:00 01:36:35:11
* FROM CLIP NAME:  021APOLY MAN OF MYSTERY.NEW.01_01-14.A1
0689 EP_107 A12    C        01:36:35:11 01:36:35:23 01:36:35:11 01:36:35:23
* FROM CLIP NAME:  FADE
0690 EP_107 A12    C        01:00:02:01 01:00:18:03 01:36:35:23 01:36:52:01
* FROM CLIP NAME:  021APOLY MAN OF MYSTERY.NEW.01_01-15.A1
0691 EP_107 A12    C        01:36:52:01 01:36:52:05 01:36:52:01 01:36:52:05
* FROM CLIP NAME:  SAMPLE ACCURATE EDIT
0692 EP_107 A12    C        01:00:31:08 01:00:46:03 01:36:52:05 01:37:07:00
* FROM CLIP NAME:  021APOLY MAN OF MYSTERY.NEW.01_01-09.A1
0693 EP_107 A12    C        01:37:07:00 01:37:07:09 01:37:07:00 01:37:07:09
* FROM CLIP NAME:  SAMPLE ACCURATE EDIT
0694 EP_107 A12    C        01:01:25:23 01:01:28:22 01:37:07:09 01:37:10:08
* FROM CLIP NAME:  021APOLY MAN OF MYSTERY.NEW.02_01-04.A1
0695 EP_107 A12    C        01:37:10:08 01:37:11:05 01:37:10:08 01:37:11:05
* FROM CLIP NAME:  SAMPLE ACCURATE EDIT
0696 EP_107 A34    C        01:37:11:07 01:37:11:08 01:37:11:07 01:37:11:08
* FROM CLIP NAME:  SAMPLE ACCURATE EDIT
0697 EP_107 A34    C        01:00:00:01 01:00:01:16 01:37:11:08 01:37:12:23
* FROM CLIP NAME:  021APOLY LOOK THE OTHER WAY.NEW.01_01-05.A1
0698 EP_107 A34    C        01:37:12:23 01:37:13:07 01:37:12:23 01:37:13:07
* FROM CLIP NAME:  FADE
0699 EP_107 A34    C        01:00:02:00 01:00:14:14 01:37:13:07 01:37:25:21
* FROM CLIP NAME:  021APOLY LOOK THE OTHER WAY.NEW.01_01-04.A1
0700 EP_107 A34    C        01:37:25:21 01:37:26:07 01:37:25:21 01:37:26:07
* FROM CLIP NAME:  FADE
0701 EP_107 A34    C        01:01:14:00 01:01:36:03 01:37:26:07 01:37:48:10
* FROM CLIP NAME:  021APOLY LOOK THE OTHER WAY.NEW.02_01-01.A1
0702 EP_107 A34    C        01:37:48:10 01:37:48:16 01:37:48:10 01:37:48:16
* FROM CLIP NAME:  FADE
0703 EP_107 A12    C        01:37:48:15 01:37:48:16 01:37:48:15 01:37:48:16
* FROM CLIP NAME:  SAMPLE ACCURATE EDIT
0704 EP_107 A12    C        01:00:00:01 01:00:01:08 01:37:48:16 01:37:49:23
* FROM CLIP NAME:  021APOLY DIABOLIC THOUGHTS.NEW.01_01-05.A1
0705 EP_107 A12    C        01:37:49:23 01:37:50:09 01:37:49:23 01:37:50:09
* FROM CLIP NAME:  FADE
0706 EP_107 A12    C        01:00:01:18 01:00:04:14 01:37:50:09 01:37:53:05
* FROM CLIP NAME:  021APOLY DIABOLIC THOUGHTS.NEW.01_01-06.A1
0707 EP_107 A12    C        01:37:53:05 01:37:53:07 01:37:53:05 01:37:53:07
* FROM CLIP NAME:  SAMPLE ACCURATE EDIT
0708 EP_107 A12    C        01:00:09:09 01:00:17:05 01:37:53:07 01:38:01:03
* FROM CLIP NAME:  021APOLY DIABOLIC THOUGHTS.NEW.01_01-07.A1
0709 EP_107 A12    C        01:38:01:03 01:38:01:05 01:38:01:03 01:38:01:05
* FROM CLIP NAME:  SAMPLE ACCURATE EDIT
0710 EP_107 A12    C        01:00:25:11 01:00:38:00 01:38:01:05 01:38:13:18
* FROM CLIP NAME:  021APOLY DIABOLIC THOUGHTS.NEW.02_01-03.A1
0711 EP_107 A12    C        01:38:13:18 01:38:13:20 01:38:13:18 01:38:13:20
* FROM CLIP NAME:  SAMPLE ACCURATE EDIT
0712 EP_107 A12    C        01:01:29:01 01:01:31:05 01:38:13:20 01:38:16:00
* FROM CLIP NAME:  021APOLY DIABOLIC THOUGHTS.NEW.03_01-03.A1
0713 EP_107 A12    C        01:38:16:00 01:38:16:06 01:38:16:00 01:38:16:06
* FROM CLIP NAME:  FADE
0714 EP_107 A34    C        01:38:16:05 01:38:16:09 01:38:16:05 01:38:16:09
* FROM CLIP NAME:  SAMPLE ACCURATE EDIT
0715 EP_107 A34    C        01:00:02:00 01:00:36:11 01:38:16:09 01:38:50:20
* FROM CLIP NAME:  021APOLY FUNKY FEDORA.NEW.01_01-02.A1
0716 EP_107 A34    C        01:38:50:20 01:38:51:00 01:38:50:20 01:38:51:00
* FROM CLIP NAME:  FADE
0717 EP_107 A34    C        01:38:51:22 01:38:52:01 01:38:51:22 01:38:52:01
* FROM CLIP NAME:  SAMPLE ACCURATE EDIT
0718 EP_107 A34    C        01:00:25:16 01:00:39:05 01:38:52:01 01:39:05:14
* FROM CLIP NAME:  021APOLY FUNKY FEDORA.NEW.01_01-01.A1
0719 EP_107 A12    C        01:39:05:09 01:39:05:12 01:39:05:09 01:39:05:12
* FROM CLIP NAME:  SAMPLE ACCURATE EDIT
0720 EP_107 A12    C        01:00:05:12 01:00:20:20 01:39:05:12 01:39:20:20
* FROM CLIP NAME:  XUN023_06 DRINKS ON YOU.NEW.01_01-03.A1
0721 EP_107 A34    C        01:39:05:14 01:39:05:17 01:39:05:14 01:39:05:17
* FROM CLIP NAME:  FADE
0722 EP_107 A12    C        01:39:20:20 01:39:20:22 01:39:20:20 01:39:20:22
* FROM CLIP NAME:  SAMPLE ACCURATE EDIT
0723 EP_107 A12    C        01:00:59:10 01:01:01:00 01:39:20:22 01:39:22:12
* FROM CLIP NAME:  XUN023_06 DRINKS ON YOU.NEW.02_01-05.A1
0724 EP_107 A12    C        01:39:22:12 01:39:22:22 01:39:22:12 01:39:22:22
* FROM CLIP NAME:  FADE
0725 EP_107 A12    C        01:01:01:10 01:01:03:05 01:39:22:22 01:39:24:17
* FROM CLIP NAME:  XUN023_06 DRINKS ON YOU.NEW.02_01-06.A1
0726 EP_107 A12    C        01:39:24:17 01:39:25:03 01:39:24:17 01:39:25:03
* FROM CLIP NAME:  FADE
0727 EP_107 A12    C        01:01:03:15 01:01:13:12 01:39:25:03 01:39:35:00
* FROM CLIP NAME:  XUN023_06 DRINKS ON YOU.NEW.02_01-07.A1
0728 EP_107 A12    C        01:39:35:00 01:39:35:03 01:39:35:00 01:39:35:03
* FROM CLIP NAME:  FADE
0729 EP_107 A34    C        01:39:35:01 01:39:35:04 01:39:35:01 01:39:35:04
* FROM CLIP NAME:  SAMPLE ACCURATE EDIT
0730 EP_107 A34    C        01:00:08:10 01:00:09:01 01:39:35:04 01:39:35:19
* FROM CLIP NAME:  021APOLY YOU KNOW DOGS.NEW.01_01-08.A1
0731 EP_107 A34    C        01:39:35:19 01:39:35:23 01:39:35:19 01:39:35:23
* FROM CLIP NAME:  SAMPLE ACCURATE EDIT
0732 EP_107 A34    C        01:00:09:05 01:00:14:13 01:39:35:23 01:39:41:07
* FROM CLIP NAME:  021APOLY YOU KNOW DOGS.NEW.01_01-10.A1
0733 EP_107 A34    C        01:39:41:07 01:39:41:17 01:39:41:07 01:39:41:17
* FROM CLIP NAME:  FADE
0734 EP_107 A34    C        01:00:14:23 01:00:19:00 01:39:41:17 01:39:45:18
* FROM CLIP NAME:  021APOLY YOU KNOW DOGS.NEW.01_01-09.A1
0735 EP_107 A34    C        01:39:45:18 01:39:46:04 01:39:45:18 01:39:46:04
* FROM CLIP NAME:  FADE
0736 EP_107 A34    C        01:00:19:10 01:00:26:03 01:39:46:04 01:39:52:21
* FROM CLIP NAME:  021APOLY YOU KNOW DOGS.NEW.01_01-11.A1
0737 EP_107 A34    C        01:39:52:21 01:39:52:23 01:39:52:21 01:39:52:23
* FROM CLIP NAME:  SAMPLE ACCURATE EDIT
0738 EP_107 A34    C        01:00:26:05 01:00:26:13 01:39:52:23 01:39:53:07
* FROM CLIP NAME:  021APOLY YOU KNOW DOGS.NEW.01_01-12.A1
0739 EP_107 A34    C        01:39:53:07 01:39:53:09 01:39:53:07 01:39:53:09
* FROM CLIP NAME:  SAMPLE ACCURATE EDIT
0740 EP_107 A34    C        01:00:08:00 01:00:11:14 01:39:53:09 01:39:56:23
* FROM CLIP NAME:  021APOLY YOU KNOW DOGS.NEW.01_01-13.A1
0741 EP_107 A34    C        01:39:56:23 01:39:57:01 01:39:56:23 01:39:57:01
* FROM CLIP NAME:  FADE
0742 EP_107 A34    C        01:00:00:02 01:00:02:09 01:39:57:01 01:39:59:08
* FROM CLIP NAME:  021APOLY YOU KNOW DOGS (STING1).NEW.01_01-03.A1
0743 EP_107 A34    C        01:39:59:08 01:39:59:10 01:39:59:08 01:39:59:10
* FROM CLIP NAME:  FADE
0744 EP_107 A12    C        01:39:59:16 01:39:59:20 01:39:59:16 01:39:59:20
* FROM CLIP NAME:  SAMPLE ACCURATE EDIT
0745 EP_107 A12    C        01:00:00:04 01:00:02:06 01:39:59:20 01:40:01:22
* FROM CLIP NAME:  LAA008_02 DNA IN PLAY.NEW.01_01-03.A1
0746 EP_107 A12    C        01:40:01:22 01:40:02:10 01:40:01:22 01:40:02:10
* FROM CLIP NAME:  FADE
0747 EP_107 A12    C        01:00:12:22 01:00:19:00 01:40:02:10 01:40:08:12
* FROM CLIP NAME:  LAA008_02 DNA IN PLAY.NEW.02_01-07.A1
0748 EP_107 A12    C        01:40:08:12 01:40:08:14 01:40:08:12 01:40:08:14
* FROM CLIP NAME:  SAMPLE ACCURATE EDIT
0749 EP_107 A12    C        01:00:19:02 01:00:25:17 01:40:08:14 01:40:15:05
* FROM CLIP NAME:  LAA008_02 DNA IN PLAY.NEW.02_01-09.A1
0750 EP_107 A12    C        01:40:15:05 01:40:15:15 01:40:15:05 01:40:15:15
* FROM CLIP NAME:  FADE
0751 EP_107 A12    C        01:00:23:20 01:00:31:22 01:40:15:15 01:40:23:17
* FROM CLIP NAME:  LAA008_02 DNA IN PLAY.NEW.02_01-08.A1
0752 EP_107 A12    C        01:40:23:17 01:40:24:03 01:40:23:17 01:40:24:03
* FROM CLIP NAME:  FADE
0753 EP_107 A12    C        01:00:33:06 01:00:44:08 01:40:24:03 01:40:35:05
* FROM CLIP NAME:  LAA008_02 DNA IN PLAY.NEW.02_01-10.A1
0754 EP_107 A12    C        01:40:35:05 01:40:35:15 01:40:35:05 01:40:35:15
* FROM CLIP NAME:  FADE
0755 EP_107 A12    C        01:00:18:16 01:00:38:09 01:40:35:15 01:40:55:08
* FROM CLIP NAME:  LAA008_02 DNA IN PLAY.NEW.02_01-11.A1
0756 EP_107 A12    C        01:40:55:08 01:40:55:14 01:40:55:08 01:40:55:14
* FROM CLIP NAME:  FADE
0757 EP_107 A12    C        01:00:51:13 01:00:55:00 01:40:55:14 01:40:59:01
* FROM CLIP NAME:  LAA008_02 DNA IN PLAY.NEW.03_01-03.A1
0758 EP_107 A34    C        01:40:57:13 01:40:57:15 01:40:57:13 01:40:57:15
* FROM CLIP NAME:  SAMPLE ACCURATE EDIT
0759 EP_107 A34    C        01:00:41:04 01:00:54:17 01:40:57:15 01:41:11:04
* FROM CLIP NAME:  LAA013_05 SHOW AND TELL.NEW.01_01-08.A1
0760 EP_107 A12    C        01:40:59:01 01:40:59:08 01:40:59:01 01:40:59:08
* FROM CLIP NAME:  FADE
0761 EP_107 A34    C        01:41:11:04 01:41:11:23 01:41:11:04 01:41:11:23
* FROM CLIP NAME:  FADE
0762 EP_107 A34    C        01:01:53:18 01:02:21:01 01:41:11:23 01:41:39:06
* FROM CLIP NAME:  LAA013_05 SHOW AND TELL.NEW.02_01-15.A1
0763 EP_107 A34    C        01:41:39:06 01:41:39:17 01:41:39:06 01:41:39:17
* FROM CLIP NAME:  FADE
0764 EP_107 A12    C        01:41:41:09 01:41:41:11 01:41:41:09 01:41:41:11
* FROM CLIP NAME:  SAMPLE ACCURATE EDIT
0765 EP_107 A12    C        01:00:31:22 01:00:48:18 01:41:41:11 01:41:58:07
* FROM CLIP NAME:  021APOLY THE DROP.WAV.NEW.01_01-01.A1
0766 EP_107 A12    C        01:41:58:07 01:41:58:09 01:41:58:07 01:41:58:09
* FROM CLIP NAME:  SAMPLE ACCURATE EDIT
0767 EP_107 A12    C        01:01:35:18 01:01:39:08 01:41:58:09 01:42:01:23
* FROM CLIP NAME:  021APOLY THE DROP.WAV.NEW.02_01-01.A1
0768 EP_107 A12    C        01:42:01:23 01:42:02:06 01:42:01:23 01:42:02:06
* FROM CLIP NAME:  FADE
0769 EP_107 A34    C        01:42:02:10 01:42:02:12 01:42:02:10 01:42:02:12
* FROM CLIP NAME:  SAMPLE ACCURATE EDIT
0770 EP_107 A34    C        01:00:37:20 01:00:39:07 01:42:02:12 01:42:03:23
* FROM CLIP NAME:  DCD087_04 IN FOR THE THRILL.NEW.01_01-04.A1
0771 EP_107 A34    C        01:42:03:23 01:42:04:09 01:42:03:23 01:42:04:09
* FROM CLIP NAME:  FADE
0772 EP_107 A34    C        01:00:39:17 01:00:55:23 01:42:04:09 01:42:20:15
* FROM CLIP NAME:  DCD087_04 IN FOR THE THRILL.NEW.01_01-05.A1
0773 EP_107 A34    C        01:42:20:15 01:42:21:03 01:42:20:15 01:42:21:03
* FROM CLIP NAME:  FADE
0774 EP_107 A34    C        01:02:49:11 01:02:51:18 01:42:21:03 01:42:23:10
* FROM CLIP NAME:  DCD087_04 IN FOR THE THRILL.NEW.02_01-03.A1
0775 EP_107 A12    C        01:42:22:03 01:42:22:07 01:42:22:03 01:42:22:07
* FROM CLIP NAME:  SAMPLE ACCURATE EDIT
0776 EP_107 A12    C        01:00:04:03 01:00:22:14 01:42:22:07 01:42:40:18
* FROM CLIP NAME:  LAA011_04 DO NOT CROSS.NEW.01_01-03.A1
0777 EP_107 A34    C        01:42:23:10 01:42:23:16 01:42:23:10 01:42:23:16
* FROM CLIP NAME:  FADE
0778 EP_107 A34    C        01:42:40:18 01:42:40:21 01:42:40:18 01:42:40:21
* FROM CLIP NAME:  SAMPLE ACCURATE EDIT
0779 EP_107 A12    C        01:42:40:18 01:42:40:22 01:42:40:18 01:42:40:22
* FROM CLIP NAME:  SAMPLE ACCURATE EDIT
0780 EP_107 A34    C        01:01:54:08 01:01:56:03 01:42:40:21 01:42:42:16
* FROM CLIP NAME:  LAA011_04 DO NOT CROSS.NEW.02_01-03.A1
0781 EP_107 A1234  C        01:42:42:16 01:42:42:18 01:42:42:16 01:42:42:18
* FROM CLIP NAME:  SAMPLE ACCURATE EDIT
0782 EP_107 A12    C        01:01:13:19 01:01:28:05 01:42:42:18 01:42:57:04
* FROM CLIP NAME:  DCD060_08 CLOSE QUARTERS.NEW.01_01-03.A1
0783 EP_107 A12    C        01:42:57:04 01:42:57:06 01:42:57:04 01:42:57:06
* FROM CLIP NAME:  SAMPLE ACCURATE EDIT
0784 EP_107 A12    C        01:01:50:20 01:01:54:19 01:42:57:06 01:43:01:05
* FROM CLIP NAME:  DCD060_08 CLOSE QUARTERS.NEW.02_01-03.A1
0785 EP_107 A12    C        01:43:01:05 01:43:01:17 01:43:01:05 01:43:01:17
* FROM CLIP NAME:  FADE
0786 EP_107 A12    C        01:02:56:14 01:02:59:16 01:43:01:17 01:43:04:19
* FROM CLIP NAME:  DCD060_08 CLOSE QUARTERS.NEW.03_01-03.A1
0787 EP_107 A12    C        01:43:04:19 01:43:05:00 01:43:04:19 01:43:05:00
* FROM CLIP NAME:  FADE
