TITLE:   071816_EG101_HEISTS_ROUGH CUT 2.Copy.01.Copy.01.sub.01 
FCM: NON-DROP FRAME
001  OUTPUT_S V     C        01:00:00:00 01:00:05:00 00:59:45:00 00:59:50:00 
* FROM CLIP NAME:  OUTPUT SLATE.11
002  PROPAGAT V     C        00:00:01:03 00:00:08:00 00:59:45:00 00:59:51:28 
* FROM CLIP NAME:  PROPAGATE LOGO V04 (1).MOV
003  OUTPUT_S V     C        01:00:00:00 01:00:05:00 00:59:50:00 00:59:55:00 
* FROM CLIP NAME:  OUTPUT SLATE.21
005  PROPAGAT V     C        00:00:03:01 00:00:08:00 00:59:55:00 01:00:00:00 
* FROM CLIP NAME:  PROPAGATE LOGO V04 (1).MOV
004  OUTPUT_S V     C        01:00:00:10 01:00:05:10 00:59:55:00 01:00:00:00 
* FROM CLIP NAME:  OUTPUT SLATE.23
006  EVL1_HEI V     C        00:05:43:12 00:05:45:13 01:00:00:00 01:00:02:00 
M2   EVL1_HEI       031.3                00:05:43:12 
* FRAMEPOOL_T_QEVL1HEIS301_HEISTS_SISI JEWEL HEIST_AERIAL PULLBACK TO FRONT VIEW O 
* F SCHÃ¶NBRUNN PALACE AT NIGHT_499-775-925 
* FROM CLIP NAME:  T_QEVL1HEIS301.NEW.01 
* REEL: FRAMEPOOL_499-775-925
007  EVL10615 V     C        19:23:25:19 19:23:26:17 01:00:00:15 01:00:01:13 
* FROM CLIP NAME:  EVL1061516A05_275_0291.NEW.01.COPY.01
008  EVL1_HEI V     C        00:02:46:15 00:02:47:02 01:00:01:05 01:00:01:16 
* POND 5_T_QEVL1HEIS368_HEISTS_LUFTHANSA HEIST_POV SHOT, DRIVING FAST THRU TUNNEL_ 
* 37780979 
* FROM CLIP NAME:  T_QEVL1HEIS368.NEW.01 
* REEL: POND 5_37780979
009  SEVL1HEI V     C        01:00:07:20 01:00:08:09 01:00:01:16 01:00:02:03 
* DICK ATKINS__SEVL1HES590_HEISTS_DINNER SET GANG_PETE & DOMINICK YOUNG B&W_A13_ 
* FROM CLIP NAME:  SEVL1HEIS590.TIFF.NEW.01 
* REEL: DICK ATKINS_A13
010  SEVL1GRN V     C        01:00:05:02 01:00:05:17 01:00:02:00 01:00:02:19 
* AP IMAGES__SEVL1GRND037_UNDERGROUND_HATTON GARDEN_SIX MUGSHOTS OF HATTON GARDEN 
* BURGLARS_536159650143_HTTP://WWW.APIMAGES.COM/METADATA/INDEX/BRITAIN-JEWEL-THEFT 
* /443ACF3BAB0C42159FC221A53DC237E2/1/0 
* FROM CLIP NAME:  SEVL1GRND037.TIFF.NEW.01.COPY.01
011  EVL1_HIG V     C        00:00:19:00 00:00:20:08 01:00:02:00 01:00:03:08 
M2   EVL1_HIG       037.5                00:00:19:00 
* POND5_T_QEVL1TECH017_HIGH TECH CRIMES_SILK ROAD_BLUE DIGITAL COMPUTER GRAPHICS A 
* CROSS THE SCREEN FOR THE DARK WEB, DARK ONLINE, BLACK MARKET_54134877 
* FROM CLIP NAME:  T_QEVL1TECH017.NEW.01
012  T_SEVL1G V     C        01:00:07:07 01:00:07:08 01:00:02:19 01:00:02:20 
* ALAMY__SEVL1GRND522_UNDERGROUND_EL CHAPO TUNNELA_CHAPO GUZMAN IN BALLCAP_FRDRJ7_ 
* HTTP://WWW.ALAMY.COM/STOCK-PHOTO-AN-UNDATED-PICTURE-MADE-AVAILABLE-ON-21-JANUARY 
* -2012-SHOWS-MEXICAN-100492847.HTML?PV=1&STAMP=2&IMAGEID=5BA2F30E-AD01-442F-8043- 
* 8019678A9CF1&P= 
* FROM CLIP NAME:  T_SEVL1GRND522.TIFF.NEW.01
FCM: DROP FRAME
013  EVL1_GRN V     C        01:32:29:22 01:32:31:23 01:00:02:19 01:00:04:19 
M2   EVL1_GRN       037.5                01:32:29:22 
* AETN__QEVL1GRND108_UNDERGROUND_EL CHAPO TUNNELS_GANG MEMBERS HOLDING GUNS, DRUGL 
* ORD, DRUG TRAFFICKING, GUN ON PILE OF MONEY_120511_GANGSTERS_EP23_013229 
* FROM CLIP NAME:  QEVL1GRND108.NEW.01
FCM: NON-DROP FRAME
014  T_SEVL1G V     C        01:00:07:09 01:00:07:10 01:00:02:21 01:00:02:23 
* ALAMY__SEVL1GRND522_UNDERGROUND_EL CHAPO TUNNELA_CHAPO GUZMAN IN BALLCAP_FRDRJ7_ 
* HTTP://WWW.ALAMY.COM/STOCK-PHOTO-AN-UNDATED-PICTURE-MADE-AVAILABLE-ON-21-JANUARY 
* -2012-SHOWS-MEXICAN-100492847.HTML?PV=1&STAMP=2&IMAGEID=5BA2F30E-AD01-442F-8043- 
* 8019678A9CF1&P= 
* FROM CLIP NAME:  T_SEVL1GRND522.TIFF.NEW.01
015  T_SEVL1G V     C        01:00:07:11 01:00:07:12 01:00:02:24 01:00:02:25 
* ALAMY__SEVL1GRND522_UNDERGROUND_EL CHAPO TUNNELA_CHAPO GUZMAN IN BALLCAP_FRDRJ7_ 
* HTTP://WWW.ALAMY.COM/STOCK-PHOTO-AN-UNDATED-PICTURE-MADE-AVAILABLE-ON-21-JANUARY 
* -2012-SHOWS-MEXICAN-100492847.HTML?PV=1&STAMP=2&IMAGEID=5BA2F30E-AD01-442F-8043- 
* 8019678A9CF1&P= 
* FROM CLIP NAME:  T_SEVL1GRND522.TIFF.NEW.01
016  T_SEVL1G V     C        01:00:07:13 01:00:09:07 01:00:02:26 01:00:04:19 
* ALAMY__SEVL1GRND522_UNDERGROUND_EL CHAPO TUNNELA_CHAPO GUZMAN IN BALLCAP_FRDRJ7_ 
* HTTP://WWW.ALAMY.COM/STOCK-PHOTO-AN-UNDATED-PICTURE-MADE-AVAILABLE-ON-21-JANUARY 
* -2012-SHOWS-MEXICAN-100492847.HTML?PV=1&STAMP=2&IMAGEID=5BA2F30E-AD01-442F-8043- 
* 8019678A9CF1&P= 
* FROM CLIP NAME:  T_SEVL1GRND522.TIFF.NEW.01
017  SEVL1SCA V     C        01:00:08:15 01:00:08:16 01:00:03:01 01:00:03:03 
* AP IMAGES__SEVL1SCAM016_SCAMS_BERNIE MADOFF_METROPOLITAN CORRECTION CENTER BOOKI 
* NG PHOTO RELEASED BY THE US DEPARTMENT OF JUSTICE OF BERNARD MADOFF BERNIE MADOF 
* F_90317153501_HTTP://WWW.APIMAGES.COM/METADATA/INDEX/REX-AP-872713A-METROPOLITAN 
* -CORRECTION-CEN 
* FROM CLIP NAME:  SEVL1SCAM016.TIF.NEW.01
018  SEVL1SCA V     C        01:00:08:17 01:00:08:18 01:00:03:04 01:00:03:05 
* AP IMAGES__SEVL1SCAM016_SCAMS_BERNIE MADOFF_METROPOLITAN CORRECTION CENTER BOOKI 
* NG PHOTO RELEASED BY THE US DEPARTMENT OF JUSTICE OF BERNARD MADOFF BERNIE MADOF 
* F_90317153501_HTTP://WWW.APIMAGES.COM/METADATA/INDEX/REX-AP-872713A-METROPOLITAN 
* -CORRECTION-CEN 
* FROM CLIP NAME:  SEVL1SCAM016.TIF.NEW.01
019  SEVL1SCA V     C        01:00:08:19 01:00:08:20 01:00:03:06 01:00:03:08 
* AP IMAGES__SEVL1SCAM016_SCAMS_BERNIE MADOFF_METROPOLITAN CORRECTION CENTER BOOKI 
* NG PHOTO RELEASED BY THE US DEPARTMENT OF JUSTICE OF BERNARD MADOFF BERNIE MADOF 
* F_90317153501_HTTP://WWW.APIMAGES.COM/METADATA/INDEX/REX-AP-872713A-METROPOLITAN 
* -CORRECTION-CEN 
* FROM CLIP NAME:  SEVL1SCAM016.TIF.NEW.01
020  SEVL1SCA V     C        01:00:08:21 01:00:10:05 01:00:03:09 01:00:04:19 
* AP IMAGES__SEVL1SCAM016_SCAMS_BERNIE MADOFF_METROPOLITAN CORRECTION CENTER BOOKI 
* NG PHOTO RELEASED BY THE US DEPARTMENT OF JUSTICE OF BERNARD MADOFF BERNIE MADOF 
* F_90317153501_HTTP://WWW.APIMAGES.COM/METADATA/INDEX/REX-AP-872713A-METROPOLITAN 
* -CORRECTION-CEN 
* FROM CLIP NAME:  SEVL1SCAM016.TIF.NEW.01
021  T_SEVL1S V     C        01:00:05:21 01:00:05:22 01:00:03:19 01:00:03:20 
* FRANCINE DAVETA_T_SEVL1SCAM267_SCAMS_LOU PEARLMAN_HEAD SHOT OF LOU PEARLMAN OUTS 
* IDE IN FRONT OF HOME  (VENDOR REQUEST MUST USE 10 FROM THIS SET)_DAVETA070124_24 
* 8.JPG_ 
* FROM CLIP NAME:  T_SEVL1SCAM267.TIF.NEW.01
022  T_SEVL1S V     C        01:00:05:23 01:00:06:00 01:00:03:21 01:00:03:23 
* FRANCINE DAVETA_T_SEVL1SCAM267_SCAMS_LOU PEARLMAN_HEAD SHOT OF LOU PEARLMAN OUTS 
* IDE IN FRONT OF HOME  (VENDOR REQUEST MUST USE 10 FROM THIS SET)_DAVETA070124_24 
* 8.JPG_ 
* FROM CLIP NAME:  T_SEVL1SCAM267.TIF.NEW.01
023  T_SEVL1S V     C        01:00:06:01 01:00:06:02 01:00:03:24 01:00:03:25 
* FRANCINE DAVETA_T_SEVL1SCAM267_SCAMS_LOU PEARLMAN_HEAD SHOT OF LOU PEARLMAN OUTS 
* IDE IN FRONT OF HOME  (VENDOR REQUEST MUST USE 10 FROM THIS SET)_DAVETA070124_24 
* 8.JPG_ 
* FROM CLIP NAME:  T_SEVL1SCAM267.TIF.NEW.01
024  T_SEVL1S V     C        01:00:06:03 01:00:06:21 01:00:03:26 01:00:04:19 
* FRANCINE DAVETA_T_SEVL1SCAM267_SCAMS_LOU PEARLMAN_HEAD SHOT OF LOU PEARLMAN OUTS 
* IDE IN FRONT OF HOME  (VENDOR REQUEST MUST USE 10 FROM THIS SET)_DAVETA070124_24 
* 8.JPG_ 
* FROM CLIP NAME:  T_SEVL1SCAM267.TIF.NEW.01
025  T_SEVL1S V     C        01:00:08:18 01:00:09:05 01:00:04:19 01:00:05:03 
* FRANCINE DAVETA_T_SEVL1SCAM267_SCAMS_LOU PEARLMAN_HEAD SHOT OF LOU PEARLMAN OUTS 
* IDE IN FRONT OF HOME  (VENDOR REQUEST MUST USE 10 FROM THIS SET)_DAVETA070124_24 
* 8.JPG_ 
* FROM CLIP NAME:  T_SEVL1SCAM267.TIF.NEW.01
026  T_SEVL1G V     C        01:00:11:12 01:00:11:23 01:00:04:19 01:00:05:03 
* ALAMY__SEVL1GRND522_UNDERGROUND_EL CHAPO TUNNELA_CHAPO GUZMAN IN BALLCAP_FRDRJ7_ 
* HTTP://WWW.ALAMY.COM/STOCK-PHOTO-AN-UNDATED-PICTURE-MADE-AVAILABLE-ON-21-JANUARY 
* -2012-SHOWS-MEXICAN-100492847.HTML?PV=1&STAMP=2&IMAGEID=5BA2F30E-AD01-442F-8043- 
* 8019678A9CF1&P= 
* FROM CLIP NAME:  T_SEVL1GRND522.TIFF.NEW.01
027  SEVL1SCA V     C        01:00:12:02 01:00:12:13 01:00:04:19 01:00:05:03 
* AP IMAGES__SEVL1SCAM016_SCAMS_BERNIE MADOFF_METROPOLITAN CORRECTION CENTER BOOKI 
* NG PHOTO RELEASED BY THE US DEPARTMENT OF JUSTICE OF BERNARD MADOFF BERNIE MADOF 
* F_90317153501_HTTP://WWW.APIMAGES.COM/METADATA/INDEX/REX-AP-872713A-METROPOLITAN 
* -CORRECTION-CEN 
* FROM CLIP NAME:  SEVL1SCAM016.TIF.NEW.01
028  T_QEVL1H V     C        00:00:03:23 00:00:04:12 01:00:04:19 01:00:05:05 
M2   T_QEVL1H       031.3                00:00:03:23 
* POND5_T_QEVL1HEIS1403_HEISTS_ALL ACTS_VIETNAM WAR, HELICOPTER SOLDIER DEPLOY_279 
* 20541 
* FROM CLIP NAME:  T_QEVL1HEIS1403.NEW.01 
* REEL: POND5_27920541
FCM: DROP FRAME
029  EVL1_GRN V     C        01:30:10:03 01:30:10:18 01:00:04:28 01:00:05:13 
M2   EVL1_GRN       037.5                01:30:10:03 
* AETN__QEVL1GRND085_UNDERGROUND_BRE-X_GOLD MINING, BLOWING UP CLIFF TO FIND GOLD, 
*  SLO-MO OF EXPLOSION_MF11373_GOLDMININGYOSEMITECA 
* FROM CLIP NAME:  QEVL1GRND085.NEW.01
030  EVL1_GRN V     C        01:30:18:17 01:30:19:10 01:00:05:05 01:00:05:28 
M2   EVL1_GRN       037.5                01:30:18:17 
* AETN__QEVL1GRND085_UNDERGROUND_BRE-X_GOLD MINING, BLOWING UP CLIFF TO FIND GOLD, 
*  SLO-MO OF EXPLOSION_MF11373_GOLDMININGYOSEMITECA 
* FROM CLIP NAME:  QEVL1GRND085.NEW.01
031  EVL1_GRN V     C        01:30:11:12 01:30:11:27 01:00:05:13 01:00:05:28 
M2   EVL1_GRN       037.5                01:30:11:12 
* AETN__QEVL1GRND085_UNDERGROUND_BRE-X_GOLD MINING, BLOWING UP CLIFF TO FIND GOLD, 
*  SLO-MO OF EXPLOSION_MF11373_GOLDMININGYOSEMITECA 
* FROM CLIP NAME:  QEVL1GRND085.NEW.01
FCM: NON-DROP FRAME
032  EVL10708 V     C        14:58:27:03 14:58:27:09 01:00:05:16 01:00:05:24 
* FROM CLIP NAME:  EVL1070816B02_BM1063016_B0033.NEW.01.SUB.01
033  EVL10708 V     C        14:58:27:09 14:58:27:19 01:00:05:24 01:00:06:06 
* FROM CLIP NAME:  EVL1070816B02_BM1063016_B0033.NEW.01.SUB.01
034  T_SEVL1T V     C        01:00:09:04 01:00:10:02 01:00:06:08 01:00:07:05 
* GETTY IMAGES_T_SEVL1TECH027_HIGH TECH CRIMES_AL QAEDA PORN_UNDATED FILE PICTURE 
* OF SAUDI DISSIDENT OSAMA BIN__52010518 
* FROM CLIP NAME:  T_SEVL1TECH027.TIF.NEW.01
035  SEVL1BOM V     C        01:00:00:17 01:00:01:11 01:00:07:05 01:00:07:28 
* GETTY IMAGES__SEVL1BOMB030_BOMBS_THE UNABOMBER_FBI SKETCH OF SERIAL BOMBER KNOWN 
*  AS THE UNABOMBER, BASED ON WITNESS RECOLLECTION AFTER KILLING OF STORE MANAGER 
* HUGH SCRUTTON_50696786_HTTP://WWW.GETTYIMAGES.COM/LICENSE/50696786 
* FROM CLIP NAME:  SEVL1BOMB030.TIF.NEW.01
037  T_SEVL1H V     C        01:00:04:05 01:00:05:03 01:00:07:05 01:00:08:03 
* ALAMY_T_SEVL1HEIS148_HEISTS_ANTHONY CURCIO: CRAIGâS LIST ROBBER_CONSTRUCTION WOR 
* KERS, CLEANUP CREW, DISGUISE USED BY ANTHONY_BBRD8T_HTTP://C8.ALAMY.COM/COMP/BBR 
* D8T/TRASH-COLLECTORS-YOYOGI-PARK-TOKYO-JAPAN-BBRD8T.JPG 
* FROM CLIP NAME:  T_SEVL1HEIS148.TIF.NEW.01 
* REEL: ALAMY_BBRD8T
036  SEVL1BOM V     C        01:00:03:08 01:00:04:06 01:00:07:05 01:00:08:03 
* AP IMAGES__SEVL1BOMB043_BOMBS_THE UNABOMBER_1996 FILE PHOTO SHOWS TED KACZYNSKI' 
* S CABIN IN THE WOODS OF LINCOLN, MONT_1604041858536371_HTTP://WWW.APIMAGES.COM/M 
* ETADATA/INDEX/UNABOMBER-ARREST-ANNIVERSARY/8CCAABB96048487687DA37507B19C1E9/6/0 
* FROM CLIP NAME:  SEVL1BOMB043.TIF.NEW.01
038  SEVL1BOM V     C        01:00:01:11 01:00:01:11 01:00:07:28 01:00:07:28 
038     BL    V     W001 008 00:00:00:00 00:00:00:08 01:00:07:28 01:00:08:08 
* GETTY IMAGES__SEVL1BOMB030_BOMBS_THE UNABOMBER_FBI SKETCH OF SERIAL BOMBER KNOWN 
*  AS THE UNABOMBER, BASED ON WITNESS RECOLLECTION AFTER KILLING OF STORE MANAGER 
* HUGH SCRUTTON_50696786_HTTP://WWW.GETTYIMAGES.COM/LICENSE/50696786 
* FROM CLIP NAME:  SEVL1BOMB030.TIF.NEW.01
039  QEVL1HEI V     C        00:08:47:05 00:08:47:25 01:00:08:03 01:00:08:23 
M2   QEVL1HEI       037.5                00:08:47:05 
* GETTY IMAGES__QEVL1HEIS315_HEISTS_SISI JEWEL HEIST_SKYDIVER LEAPING OUT OF PLANE 
* , FREE FALLING AT NIGHT_552130903 
* FROM CLIP NAME:  QEVL1HEIS315.NEW.01 
* REEL: GETTY IMAGES_552130903
040  QEVL1HEI V     C        00:08:47:24 00:08:48:24 01:00:08:23 01:00:09:23 
M2   QEVL1HEI       037.5                00:08:47:24 
* GETTY IMAGES__QEVL1HEIS314_HEISTS_SISI JEWEL HEIST_SKYDIVER PARACHUTING PAST SUN 
* , AT SUNSET_552130915 
* FROM CLIP NAME:  QEVL1HEIS314.NEW.01 
* REEL: GETTY IMAGES_552130915
041  EVL1_HEI V     C        00:05:36:15 00:05:38:13 01:00:08:23 01:00:10:20 
M2   EVL1_HEI       031.3                00:05:36:15 
* FRAMEPOOL_T_QEVL1HEIS302_HEISTS_SISI JEWEL HEIST_PAN AWAY UP TO AERIAL VIEW OF S 
* CHÃ¶NBRUNN PALACE AT NIGHT_982-143-883 
* FROM CLIP NAME:  T_QEVL1HEIS302.NEW.01 
* REEL: FRAMEPOOL_982-143-883
042  EVL1_HEI V     C        00:00:25:21 00:00:26:12 01:00:10:20 01:00:11:05 
* AETN__QEVL1HEIS191_HEISTS_DINNER SET GANG_MAN ON ROOFTOP RUNNING AWAY FROM CRIME 
* , DUSTING FOR FINGERPRINTS_45885_WATCHINGTHEDETECTIVES_EP5_010604 
* FROM CLIP NAME:  QEVL1HEIS191.NEW.01 
* REEL: AETN_45885_WATCHINGTHEDETECTIVE
044  EVL1_HEI V     C        00:00:26:11 00:00:27:16 01:00:11:05 01:00:12:04 
* AETN__QEVL1HEIS191_HEISTS_DINNER SET GANG_MAN ON ROOFTOP RUNNING AWAY FROM CRIME 
* , DUSTING FOR FINGERPRINTS_45885_WATCHINGTHEDETECTIVES_EP5_010604 
* FROM CLIP NAME:  QEVL1HEIS191.NEW.01 
* REEL: AETN_45885_WATCHINGTHEDETECTIVE
043  T_QEVL1H V     C        00:00:00:22 00:00:01:21 01:00:11:05 01:00:12:04 
M2   T_QEVL1H       037.5                00:00:00:22 
* "POND5_T_QEVL1HEIS1329_HEISTS_DINNER SET GANG_DINNER SET JEWELRY, 
* LARGE DIAMONDS FALLING WITH SLOW MOTION _11165972" 
* FROM CLIP NAME:  T_QEVL1HEIS1329.NEW.01 
* REEL: POND5_11165972
045  EVL1_ESC V     C        06:00:02:01 06:00:02:16 01:00:12:04 01:00:12:19 
* GETTY__QEVL1ESCP001_GREAT ESCAPES_MECKLENBURG SIX_AERIAL AROUND PRISON ON ALCATR 
* AZ ISLAND _622-21 
* FROM CLIP NAME:  QEVL1ESCP001.NEW.01
046  EVL1_ESC V     C        06:00:06:22 06:00:07:10 01:00:12:19 01:00:13:01 
* GETTY__QEVL1ESCP001_GREAT ESCAPES_MECKLENBURG SIX_AERIAL AROUND PRISON ON ALCATR 
* AZ ISLAND _622-21 
* FROM CLIP NAME:  QEVL1ESCP001.NEW.01
FCM: DROP FRAME
047  QEVL1GRN V     C        01:31:43:15 01:31:44:10 01:00:13:01 01:00:13:26 
M2   QEVL1GRN       037.5                01:31:43:15 
* GETTY IMAGES__QEVL1GRND130_UNDERGROUND_EL CHAPO TUNNELS_INTERIOR OF ALCATRAZ PRI 
* SON. ROW OF CELLS, CLOSE-UP OF CELL DOOR BARS, INSIDE OF JAIL CELL_180563302 
* FROM CLIP NAME:  QEVL1GRND130.NEW.01
FCM: NON-DROP FRAME
048  EVL10512 V     C        10:05:50:10 10:05:51:00 01:00:13:14 01:00:14:01 
* FROM CLIP NAME:  EVL1051216A01_IP_0213.NEW.01
049  EVL10615 V     C        12:14:02:08 12:14:03:13 01:00:13:26 01:00:15:03 
* FROM CLIP NAME:  EVL1061516A02_275_0223.NEW.01.SUB.01
050  QEVL1SCA V     C        01:00:00:26 01:00:02:01 01:00:15:03 01:00:16:08 
M2   QEVL1SCA       037.5                01:00:00:26 
* GETTY IMAGES__QEVL1SCAM569_SCAMS_RUDY KURNIAWAN_LARGE JUMBO JET LANDING OVER LAX 
*  WELCOME SIGN_451121788 
* FROM CLIP NAME:  QEVL1SCAM569.NEW.01
051  EVL10517 V     C        10:31:04:07 10:31:06:12 01:00:16:08 01:00:18:14 
* FROM CLIP NAME:  EVL1051716B02_LL0243.NEW.01.SUB.01
FCM: DROP FRAME
052  EVL1_HEI V     C        00:00:14:08 00:00:14:13 01:00:18:14 01:00:18:18 
M2   EVL1_HEI       037.5                00:00:14:08 
* AETN__QEVL1HEIS068_HEISTS_LUFTHANSA HEIST_HANDSHAKE IN A BAR_106549_MOBSTERS_JIM 
* MYTHEGENTBURKE_15 
* FROM CLIP NAME:  QEVL1HEIS068.NEW.01 
* REEL: AETN_106549_MOBSTERS_JIMMYTHEGE
FCM: NON-DROP FRAME
053  EVL10512 V     C        10:31:34:22 10:31:34:23 01:00:18:18 01:00:18:19 
* FROM CLIP NAME:  EVL1051216A01_IP_0219.NEW.01
FCM: DROP FRAME
054  EVL1_HEI V     C        00:00:14:13 00:00:14:17 01:00:18:19 01:00:18:21 
M2   EVL1_HEI       037.5                00:00:14:13 
* AETN__QEVL1HEIS068_HEISTS_LUFTHANSA HEIST_HANDSHAKE IN A BAR_106549_MOBSTERS_JIM 
* MYTHEGENTBURKE_15 
* FROM CLIP NAME:  QEVL1HEIS068.NEW.01 
* REEL: AETN_106549_MOBSTERS_JIMMYTHEGE
FCM: NON-DROP FRAME
055  EVL10512 V     C        10:31:35:01 10:31:35:02 01:00:18:21 01:00:18:23 
* FROM CLIP NAME:  EVL1051216A01_IP_0219.NEW.01
FCM: DROP FRAME
056  EVL1_HEI V     C        00:00:14:17 00:00:14:19 01:00:18:23 01:00:18:24 
M2   EVL1_HEI       037.5                00:00:14:17 
* AETN__QEVL1HEIS068_HEISTS_LUFTHANSA HEIST_HANDSHAKE IN A BAR_106549_MOBSTERS_JIM 
* MYTHEGENTBURKE_15 
* FROM CLIP NAME:  QEVL1HEIS068.NEW.01 
* REEL: AETN_106549_MOBSTERS_JIMMYTHEGE
FCM: NON-DROP FRAME
057  EVL10512 V     C        10:31:35:03 10:31:35:04 01:00:18:24 01:00:18:25 
* FROM CLIP NAME:  EVL1051216A01_IP_0219.NEW.01
FCM: DROP FRAME
058  EVL1_HEI V     C        00:00:14:20 00:00:14:22 01:00:18:25 01:00:18:26 
M2   EVL1_HEI       037.5                00:00:14:20 
* AETN__QEVL1HEIS068_HEISTS_LUFTHANSA HEIST_HANDSHAKE IN A BAR_106549_MOBSTERS_JIM 
* MYTHEGENTBURKE_15 
* FROM CLIP NAME:  QEVL1HEIS068.NEW.01 
* REEL: AETN_106549_MOBSTERS_JIMMYTHEGE
FCM: NON-DROP FRAME
059  EVL10512 V     C        10:31:35:05 10:31:35:06 01:00:18:26 01:00:18:28 
* FROM CLIP NAME:  EVL1051216A01_IP_0219.NEW.01
FCM: DROP FRAME
060  EVL1_HEI V     C        00:00:15:13 00:00:15:28 01:00:18:28 01:00:19:11 
M2   EVL1_HEI       037.5                00:00:15:13 
* AETN__QEVL1HEIS068_HEISTS_LUFTHANSA HEIST_HANDSHAKE IN A BAR_106549_MOBSTERS_JIM 
* MYTHEGENTBURKE_15 
* FROM CLIP NAME:  QEVL1HEIS068.NEW.01 
* REEL: AETN_106549_MOBSTERS_JIMMYTHEGE
061  EVL1_HEI V     C        00:00:17:12 00:00:17:29 01:00:19:11 01:00:19:28 
M2   EVL1_HEI       037.5                00:00:17:12 
* AETN__QEVL1HEIS068_HEISTS_LUFTHANSA HEIST_HANDSHAKE IN A BAR_106549_MOBSTERS_JIM 
* MYTHEGENTBURKE_15 
* FROM CLIP NAME:  QEVL1HEIS068.NEW.01 
* REEL: AETN_106549_MOBSTERS_JIMMYTHEGE
FCM: NON-DROP FRAME
062  EVL1_SCA V     C        02:01:46:12 02:01:48:11 01:00:19:28 01:00:21:26 
M2   EVL1_SCA       037.5                02:01:46:12 
* AETN__QEVL1SCAM273_SCAMS_BERNIE MADOFF_NEW YORK BUILDINGS_MF6598_LOWEREASTSIDEMI 
* DTOWNCENTRALPARK 
* FROM CLIP NAME:  QEVL1SCAM273.NEW.01
063  T_QEVL1S V     C        00:00:04:03 00:00:05:04 01:00:20:25 01:00:21:26 
* POND5_T_QEVL1SCAM318_SCAMS_BERNIE MADOFF_WALL STREET BULL NEW YORK_10564747_HTTP 
* S://WWW.POND5.COM/STOCK-FOOTAGE/10564747/WALL-STREET-BULL-NEW-YORK.HTML 
* FROM CLIP NAME:  T_QEVL1SCAM318.NEW.01
064  T_QEVL1H V     C        01:00:09:29 01:00:10:16 01:00:21:26 01:00:22:14 
* POND5_T_QEVL1HEIS1308_HEISTS_DINNER SET GANG_ARCHITECTURE BLUEPRINT, HOUSE PLAN, 
*  GRAPHIC _765394 
* FROM CLIP NAME:  T_QEVL1HEIS1308.MOV 
* REEL: POND5_765394
065     BL    V     C        00:00:00:00 00:00:00:00 01:00:22:14 01:00:22:14 
065  T_QEVL1H V     W001 006 01:00:02:14 01:00:02:21 01:00:22:14 01:00:22:21 
* TO CLIP NAME:  T_QEVL1HEIS1310.MOV
066  T_QEVL1H V     C        01:00:10:16 01:00:10:16 01:00:22:14 01:00:22:14 
066  T_QEVL1H V     W001 006 01:00:02:21 01:00:02:29 01:00:22:14 01:00:22:21 
* POND5_T_QEVL1HEIS1308_HEISTS_DINNER SET GANG_ARCHITECTURE BLUEPRINT, HOUSE PLAN, 
*  GRAPHIC _765394 
* FROM CLIP NAME:  T_QEVL1HEIS1308.MOV 
* TO CLIP NAME:  T_QEVL1HEIS1309.MOV 
* REEL: POND5_765394
067  T_QEVL1H V     C        01:00:02:21 01:00:03:05 01:00:22:21 01:00:23:05 
* POND5_T_QEVL1HEIS1310_HEISTS_DINNER SET GANG_ARCHITECTURE BLUEPRINT PLAN_644420 
* FROM CLIP NAME:  T_QEVL1HEIS1310.MOV 
* REEL: POND5_644420
068  T_QEVL1H V     C        01:00:02:29 01:00:03:12 01:00:22:21 01:00:23:05 
* POND5_T_QEVL1HEIS1309_HEISTS_DINNER SET GANG_ROLLS OF BLUEPRINTS ON TABLE, LAYOU 
* T OF HOUSES_669504 
* FROM CLIP NAME:  T_QEVL1HEIS1309.MOV 
* REEL: POND5_669504
070  EVL10516 V     C        14:48:27:04 14:48:29:07 01:00:23:00 01:00:25:04 
* BACKPLATE FOR SHANNON SMIS 
* FROM CLIP NAME:  EVL1051616B04_LL0236.NEW.01.SUB.01
069  EVL10602 V     C        15:02:22:18 15:02:24:21 01:00:23:00 01:00:25:04 
* FROM CLIP NAME:  EVL1060216D02_EVL1060216B010007.NEW.01.SUB.01
FCM: DROP FRAME
071  QEVL1SCA V     C        00:00:10:16 00:00:10:25 01:00:25:04 01:00:25:13 
M2   QEVL1SCA       037.5                00:00:10:16 
* GETTY IMAGES__QEVL1SCAM412_HEISTS_BERNIE MADOFF_U.S. CURRENCY PRINTING 2 MONEY_4 
* 70281550 
* FROM CLIP NAME:  QEVL1SCAM412.NEW.01
FCM: NON-DROP FRAME
072  EVL10512 V     C        10:05:49:00 10:05:50:12 01:00:25:04 01:00:26:19 
* FROM CLIP NAME:  EVL1051216A01_IP_0213.NEW.01
FCM: DROP FRAME
073  QEVL1SCA V     C        00:00:46:13 00:00:46:24 01:00:25:21 01:00:26:01 
M2   QEVL1SCA       037.5                00:00:46:13 
* GETTY IMAGES__QEVL1SCAM412_HEISTS_BERNIE MADOFF_U.S. CURRENCY PRINTING 2 MONEY_4 
* 70281550 
* FROM CLIP NAME:  QEVL1SCAM412.NEW.01
FCM: NON-DROP FRAME
074  T_QEVL1S V     C        00:00:02:16 00:00:03:09 01:00:26:01 01:00:26:24 
M2   T_QEVL1S       037.5                00:00:02:16 
* SHUTTERSTOCK_T_QEVL1SCAM397_HEISTS_BERNIE MADOFF_MONEY COUNTING MACHINE HUNDREDS 
* _3802880 
* FROM CLIP NAME:  T_QEVL1SCAM397.NEW.01
075  EVL10520 V     C        10:34:50:00 10:34:51:11 01:00:26:19 01:00:28:03 
* FROM CLIP NAME:  EVL1052016B02_275_0056.NEW.01.SUB.01
076  QEVL1ARC V     C        00:01:38:08 00:01:39:10 01:00:27:24 01:00:28:25 
M2   QEVL1ARC       037.5                00:01:38:08 
* GETTY IMAGES__QEVL1ARCH225_ARCHITECTS_NARCO SUBS_MAN COUNTING MONEY FOLLOWING DR 
* UG DEAL, POLICE OFFICER SEIZED DRUGS,HOLDING SYRINGE HEROIN_98115517 
* FROM CLIP NAME:  QEVL1ARCH225.NEW.01
077     BL    V     C        00:00:00:00 00:00:00:00 01:00:28:10 01:00:28:10 
077  EVL1_HIG V     W001 010 00:02:51:25 00:02:52:07 01:00:28:10 01:00:28:23 
* TO CLIP NAME:  T_QEVL1TECH211.NEW.01
078  EVL1_HIG V     C        00:02:52:08 00:02:53:07 01:00:28:23 01:00:29:23 
* POND5_T_QEVL1TECH211_HIGH TECH CRIMES_SILK ROAD_COCAINE FROM SILK ROAD ILLEGAL D 
* RUGS_116642 
* FROM CLIP NAME:  T_QEVL1TECH211.NEW.01
FCM: DROP FRAME
079  EVL1_GRN V     C        01:13:50:07 01:13:51:00 01:00:29:00 01:00:29:23 
M2   EVL1_GRN       037.5                01:13:50:07 
* AETN__QEVL1GRND030_UNDERGROUND_EL CHAPO TUNNELS_ECU COCAINE BEING CUT UP, SNORTE 
* D / MONEY BEING COUNTED_76238_COCAINEHISTORYBETWEENTHELINES_09 
* FROM CLIP NAME:  QEVL1GRND030.NEW.01
FCM: NON-DROP FRAME
080  EVL1_HEI V     C        00:00:28:08 00:00:29:04 01:00:29:03 01:00:29:23 
* GETTY IMAGES__QEVL1HEIS154_HEISTS_LUFTHANSA HEIST_CUTTING COCAINE, SNORTING DRUG 
* S OFF BLACK TABLE_104564643 
* FROM CLIP NAME:  QEVL1HEIS154.NEW.01 
* REEL: GETTY IMAGES_104564643
081  EVL1_HEI V     C        00:02:20:19 00:02:21:10 01:00:29:23 01:00:30:08 
* POND5_T_QEVL1HEIS053_HEISTS_ANTHONY CURCIO: CRAIGâS LIST ROBBER_BRINKâS TRUCK DR 
* IVES OUT OF A STRUCTURE AND TURNS ONTO STREET_35906814 
* FROM CLIP NAME:  T_QEVL1HEIS053.NEW.01 
* REEL: POND5_35906814
082  GFX_HEIS V     C        01:01:46:09 01:01:46:23 01:00:30:08 01:00:30:25 
* FROM CLIP NAME:  GFX_HEIS18_2D.TIF
083  T_SEVL1H V     C        01:00:05:05 01:00:06:00 01:00:30:25 01:00:31:19 
* GETTY IMAGES_T_SEVL1HEIS487_HEISTS_LUFTHANSA HEIST_TWO MEN IN BLACK, ONE HOLDING 
*  THE OTHER HOSTAGE AT GUNPOINT_138368062_HTTP://WWW.GETTYIMAGES.COM/LICENSE/1383 
* 68062 
* FROM CLIP NAME:  T_SEVL1HEIS487.TIF 
* REEL: GETTY IMAGES_138368062
084  RED      V     C        01:00:00:00 01:00:00:01 01:00:31:15 01:00:31:16 
* FROM CLIP NAME:  RED
FCM: DROP FRAME
085  EVL1_HEI V     C        00:00:30:01 00:00:31:13 01:00:31:16 01:00:32:28 
M2   EVL1_HEI       037.5                00:00:30:01 
* AETN__QEVL1HEIS083_HEISTS_LUFTHANSA HEIST_2 DEAD BODIES SLUMPED OVER IN CAR_1065 
* 49_MOBSTERS_JIMMYTHEGENTBURKE_30 
* FROM CLIP NAME:  QEVL1HEIS083.NEW.01.COPY.01
FCM: NON-DROP FRAME
086  EVL1_HEI V     C        00:01:13:19 00:01:14:20 01:00:31:19 01:00:32:14 
* GETTY IMAGES__QEVL1HEIS352_HEISTS_LUFTHANSA HEIST_CU GUN SHOT WITH BLACK BACKGRO 
* UND_145725620 
* FROM CLIP NAME:  QEVL1HEIS352.NEW.01 
* REEL: GETTY IMAGES_145725620
087  EVL10512 V     C        13:21:15:09 13:21:17:05 01:00:32:16 01:00:34:11 
* FROM CLIP NAME:  EVL1051216B02_E0377.NEW.01.SUB.01
088  EVL1_HEI V     C        00:11:42:06 00:11:44:00 01:00:34:11 01:00:36:05 
M2   EVL1_HEI       037.5                00:11:42:06 
* POND5_T_QEVL1HEIS542_HEISTS_LUFTHANSA_LOADING BLOODY BODY INTO TRUNK_11346493 
* FROM CLIP NAME:  T_QEVL1HEIS542.NEW.01 
* REEL: POND5_11346493
089  EVL10516 V     C        10:53:40:14 10:53:42:12 01:00:36:05 01:00:38:03 
* FROM CLIP NAME:  EVL1051616B02_LL0229.NEW.01.SUB.01
090  EVL1_SCA V     C        04:00:10:01 04:00:11:15 01:00:38:03 01:00:39:19 
M2   EVL1_SCA       031.3                04:00:10:01 
* GETTY IMAGES_T_QEVL1SCAM044_SCAMS_BERNIE MADOFF_BERNARD MADOFF EXITING FEDERAL C 
* OURTHOUSE BERNIE MADOFF AT COURT SD ONLY_142432980 
* FROM CLIP NAME:  T_QEVL1SCAM044.NEW.01
091  MADOFF   V     C        01:00:00:00 01:00:00:04 01:00:38:15 01:00:38:19 
* FROM CLIP NAME:  MADOFF
092  MADOFF   V     C        01:00:00:04 01:00:01:04 01:00:38:19 01:00:39:19 
* FROM CLIP NAME:  MADOFF
093  MADOFF   V     C        01:00:00:00 01:00:00:06 01:00:39:19 01:00:39:25 
* FROM CLIP NAME:  MADOFF
094  T_SEVL1G V     C        01:00:09:01 01:00:11:00 01:00:39:19 01:00:41:18 
* REUTERS_T_SEVL1GRND009_UNDERGROUND_EL CHAPO TUNNELS_EL CHAPO ESCORTED BY SOLDIER 
* S CLOSE-UP_GF20000089254_HTTP://PICTURES.REUTERS.COM/PACKAGE/2C0BF1FA1WB1Q#/SEAR 
* CHRESULT&ALID=2C0BF1FA1WB1Q&VBID=2C0BX4S47C08&POPUPPN=3&POPUPIID=2C0BF1FA16IGP 
* FROM CLIP NAME:  T_SEVL1GRND009.TIFF.NEW.01
095  MADOFF   V     C        01:00:00:06 01:00:01:14 01:00:39:25 01:00:41:03 
* FROM CLIP NAME:  MADOFF
096     BL    V     C        00:00:00:00 00:00:00:00 01:00:40:29 01:00:40:29 
096  T_QEVL1S V     W001 006 00:00:00:00 00:00:00:08 01:00:40:29 01:00:41:06 
M2   T_QEVL1S       037.5                00:00:00:00 
* TO CLIP NAME:  T_QEVL1SCAM319.NEW.01
097  MADOFF.0 V     C        01:00:00:06 01:00:00:09 01:00:41:03 01:00:41:05 
* FROM CLIP NAME:  MADOFF.01
098  MADOFF.0 V     C        01:00:00:03 01:00:01:19 01:00:41:05 01:00:42:21 
* FROM CLIP NAME:  MADOFF.01
099  T_QEVL1S V     C        00:00:00:07 00:00:00:25 01:00:41:06 01:00:41:24 
M2   T_QEVL1S       037.5                00:00:00:07 
* ALL-STOCK/ACTIONSPORTS/MR. FOOTAGE_T_QEVL1SCAM319_SCAMS_LANCE ARMSTRONG_ VARIOUS 
*  CLIPS LANCE ARMSTRONG RACING IN YELLOW, LANCE IN VICTORY, LANCE ARMSTRONG WITH 
* TEAMMATES CYCLING_504742_HTTP://WWW.ACTIONSPORTSSTOCKFOOTAGE.COM/STOCKFOOTAGE_AC 
* TIONSPORTS.PHP? 
* FROM CLIP NAME:  T_QEVL1SCAM319.NEW.01
100  T_QEVL1S V     C        00:00:06:27 00:00:08:03 01:00:41:24 01:00:42:29 
M2   T_QEVL1S       037.5                00:00:06:27 
* ALL-STOCK/ACTIONSPORTS/MR. FOOTAGE_T_QEVL1SCAM319_SCAMS_LANCE ARMSTRONG_ VARIOUS 
*  CLIPS LANCE ARMSTRONG RACING IN YELLOW, LANCE IN VICTORY, LANCE ARMSTRONG WITH 
* TEAMMATES CYCLING_504742_HTTP://WWW.ACTIONSPORTSSTOCKFOOTAGE.COM/STOCKFOOTAGE_AC 
* TIONSPORTS.PHP? 
* FROM CLIP NAME:  T_QEVL1SCAM319.NEW.01
101     BL    V     C        00:00:00:00 00:00:00:00 01:00:42:16 01:00:42:16 
101  SEVL1HEI V     W001 010 01:00:03:12 01:00:03:22 01:00:42:16 01:00:42:29 
* TO CLIP NAME:  SEVL1HEIS612.TIFF.NEW.01
102  MADOFF.0 V     C        01:00:00:03 01:00:01:04 01:00:42:21 01:00:43:23 
* FROM CLIP NAME:  MADOFF.04
103  SEVL1HEI V     C        01:00:03:22 01:00:04:17 01:00:42:29 01:00:43:23 
* MONROE PD__SEVL1HEIS612_HEISTS_ANTHONY CURCIO: CRAIGâS LIST ROBBER_MEDIUM SHOT O 
* F CURCIO DURING ARREST__ 
* FROM CLIP NAME:  SEVL1HEIS612.TIFF.NEW.01 
* REEL: MONROE PD_
104  EVL10513 V     C        13:39:40:00 13:39:41:13 01:00:43:23 01:00:45:09 
* FROM CLIP NAME:  EVL1051316B03_E0388.NEW.01
105  EVL1_HEI V     C        00:00:35:09 00:00:36:13 01:00:45:09 01:00:46:08 
* AETN__QEVL1HEIS190_HEISTS_DINNER SET GANG_POLICE DETECTIVES ON ROOFTOP SEARCHING 
*  FOR ROBBERS, NIGHTTIME_45885_WATCHINGTHEDETECTIVES_EP5_010415 
* FROM CLIP NAME:  QEVL1HEIS190.NEW.01 
* REEL: AETN_45885_WATCHINGTHEDETECTIVE
106  EVL1_HEI V     C        00:00:40:21 00:00:42:03 01:00:46:08 01:00:47:08 
* AETN__QEVL1HEIS190_HEISTS_DINNER SET GANG_POLICE DETECTIVES ON ROOFTOP SEARCHING 
*  FOR ROBBERS, NIGHTTIME_45885_WATCHINGTHEDETECTIVES_EP5_010415 
* FROM CLIP NAME:  QEVL1HEIS190.NEW.01 
* REEL: AETN_45885_WATCHINGTHEDETECTIVE
107  EVL10509 V     C        09:57:45:01 09:57:48:10 01:00:46:24 01:00:50:05 
* FROM CLIP NAME:  EVL1050916B01_E0344.NEW.01.SUB.01
108  EVL10509 V     C        09:57:48:10 09:57:48:14 01:00:50:05 01:00:50:10 
* FROM CLIP NAME:  EVL1050916B01_E0344.NEW.01.SUB.01
109  T_QEVL1H V     C        00:05:28:11 00:05:29:19 01:00:50:10 01:00:51:19 
M2   T_QEVL1H       031.3                00:05:28:11 
* POND5_T_QEVL1HEIS267_HEISTS_LUFTHANSA HEIST_TIME LAPSE - CARGO WORKERS AT JFK AI 
* RPORT_34463930 
* FROM CLIP NAME:  T_QEVL1HEIS267.NEW.01 
* REEL: POND5_34463930
110  EVL_GRND V     C        01:00:06:11 01:00:10:19 01:00:50:10 01:00:54:18 
* GETTY IMAGES_T_QEVL1GRND388_UNDERGROUND_EL CHAPO TUNNELS_ARCHITECTURE PLANS, BLU 
* EPRINTS_151489772 
* FROM CLIP NAME:  T_QEVL1GRND388.MP4
111  T_QEVL1H V     C        00:05:29:18 00:05:29:18 01:00:51:19 01:00:51:19 
111  T_QEVL1H V     W001 004 00:05:03:12 00:05:03:17 01:00:51:19 01:00:51:24 
M2   T_QEVL1H       031.3                00:05:29:18 
M2   T_QEVL1H       031.3                00:05:03:12 
* POND5_T_QEVL1HEIS267_HEISTS_LUFTHANSA HEIST_TIME LAPSE - CARGO WORKERS AT JFK AI 
* RPORT_34463930 
* FROM CLIP NAME:  T_QEVL1HEIS267.NEW.01 
* TO CLIP NAME:  T_QEVL1HEIS047.NEW.01 
* REEL: POND5_34463930
112  T_QEVL1H V     C        00:05:03:16 00:05:04:08 01:00:51:24 01:00:52:13 
M2   T_QEVL1H       031.3                00:05:03:16 
* POND5_T_QEVL1HEIS047_HEISTS_ANTHONY CURCIO: CRAIGâS LIST ROBBER_CU OF MANâS EYES 
*  LIT UP BY LAPTOP SCREEN AS HE SURFS WEB_62247017 
* FROM CLIP NAME:  T_QEVL1HEIS047.NEW.01 
* REEL: POND5_62247017
113  T_QEVL1H V     C        00:05:04:07 00:05:04:07 01:00:52:13 01:00:52:13 
113  EVL10527 V     W001 006 17:02:08:11 17:02:08:18 01:00:52:13 01:00:52:20 
M2   T_QEVL1H       031.3                00:05:04:07 
* POND5_T_QEVL1HEIS047_HEISTS_ANTHONY CURCIO: CRAIGâS LIST ROBBER_CU OF MANâS EYES 
*  LIT UP BY LAPTOP SCREEN AS HE SURFS WEB_62247017 
* FROM CLIP NAME:  T_QEVL1HEIS047.NEW.01 
* TO CLIP NAME:  EVL1052716A04_IP_ACAM0469.NEW.01 
* REEL: POND5_62247017
114  EVL10527 V     C        17:02:08:18 17:02:09:05 01:00:52:20 01:00:53:01 
* FROM CLIP NAME:  EVL1052716A04_IP_ACAM0469.NEW.01
115  EVL10527 V     C        17:15:02:23 17:15:03:18 01:00:53:01 01:00:53:20 
* FROM CLIP NAME:  EVL1052716A04_IP_ACAM0473.NEW.01
116  EVL1_GRN V     C        00:01:45:10 00:01:46:09 01:00:53:20 01:00:54:18 
M2   EVL1_GRN       031.3                00:01:45:10 
* GETTY IMAGES_T_QEVL1GRND416_UNDERGROUND_BRE-X_BLUE JEEP DRIVES THRU JUNGLE_1B012 
* 534_116 
* FROM CLIP NAME:  T_QEVL1GRND416.NEW.01
117  EVL1_GRN V     C        00:01:31:10 00:01:32:16 01:00:53:20 01:00:54:20 
* GETTY IMAGES_T_QEVL1GRND409_UNDERGROUND_HATTON GARDEN_AERIAL BIRD'S EYE VIEW SEC 
* URITY IMAGE W/ TARGETS_114211967 
* FROM CLIP NAME:  T_QEVL1GRND409.NEW.01
118  EVL_GRND V     C        01:00:10:19 01:00:10:19 01:00:54:18 01:00:54:18 
118     BL    V     W001 004 00:00:00:00 00:00:00:04 01:00:54:18 01:00:54:23 
* GETTY IMAGES_T_QEVL1GRND388_UNDERGROUND_EL CHAPO TUNNELS_ARCHITECTURE PLANS, BLU 
* EPRINTS_151489772 
* FROM CLIP NAME:  T_QEVL1GRND388.MP4
119  EVL1_GRN V     C        00:01:46:08 00:01:46:08 01:00:54:18 01:00:54:18 
119     BL    V     W001 004 00:00:00:00 00:00:00:04 01:00:54:18 01:00:54:23 
M2   EVL1_GRN       031.3                00:01:46:08 
* GETTY IMAGES_T_QEVL1GRND416_UNDERGROUND_BRE-X_BLUE JEEP DRIVES THRU JUNGLE_1B012 
* 534_116 
* FROM CLIP NAME:  T_QEVL1GRND416.NEW.01
120  EVL10509 V     C        09:57:53:12 09:57:54:02 01:00:54:20 01:00:55:08 
* FROM CLIP NAME:  EVL1050916B01_E0344.NEW.01.SUB.01
121  EVL10509 V     C        09:57:54:02 09:57:54:19 01:00:55:08 01:00:55:29 
* FROM CLIP NAME:  EVL1050916B01_E0344.NEW.01.SUB.01
123  EVL1_GRN V     C        00:01:45:10 00:01:45:12 01:00:55:29 01:00:56:00 
M2   EVL1_GRN       031.3                00:01:45:10 
* GETTY IMAGES_T_QEVL1GRND416_UNDERGROUND_BRE-X_BLUE JEEP DRIVES THRU JUNGLE_1B012 
* 534_116 
* FROM CLIP NAME:  T_QEVL1GRND416.NEW.01
122  EVL1_GRN V     C        00:01:31:10 00:01:31:11 01:00:55:29 01:00:56:00 
* GETTY IMAGES_T_QEVL1GRND409_UNDERGROUND_HATTON GARDEN_AERIAL BIRD'S EYE VIEW SEC 
* URITY IMAGE W/ TARGETS_114211967 
* FROM CLIP NAME:  T_QEVL1GRND409.NEW.01
124  EVL1_HEI V     C        00:00:41:13 00:00:41:16 01:00:56:00 01:00:56:03 
* AETN__QEVL1HEIS190_HEISTS_DINNER SET GANG_POLICE DETECTIVES ON ROOFTOP SEARCHING 
*  FOR ROBBERS, NIGHTTIME_45885_WATCHINGTHEDETECTIVES_EP5_010415 
* FROM CLIP NAME:  QEVL1HEIS190.NEW.01 
* REEL: AETN_45885_WATCHINGTHEDETECTIVE
125  EVL_GRND V     C        01:00:01:09 01:00:01:12 01:00:56:03 01:00:56:06 
* GETTY IMAGES_T_QEVL1GRND393_UNDERGROUND_EL CHAPO TUNNELS_SUBWAY TUNNEL ZOOM_1045 
* 53773 
* FROM CLIP NAME:  T_QEVL1GRND393.MP4
126  EVL1_GRO V     C        00:00:11:05 00:00:13:02 01:00:56:03 01:00:57:29 
M2   EVL1_GRO       037.5                00:00:11:05 
* POND 5_T_QEVL1GRND315_UNDERGROUND_EL CHAPO TUNNELS_MOVING THRU LONG DANK TUNNEL 
* (ACTUALLY GAZA) _31741395 
* FROM CLIP NAME:  T_QEVL1GRND245.NEW.01
127  TITLE_CA V     C        01:00:22:08 01:00:29:00 01:00:56:15 01:01:03:08 
* FROM CLIP NAME:  TITLE CARD
128  EVL10615 V     C        16:48:35:10 16:48:36:00 01:00:57:14 01:00:58:01 
* FROM CLIP NAME:  EVL1061516A04_275_0238.NEW.01.COPY.01
129  EVL1_GRO V     C        00:00:13:01 00:00:13:01 01:00:57:29 01:00:57:29 
129  EVL_TITL V     W007 005 01:01:57:05 01:01:57:10 01:00:57:29 01:00:58:05 
M2   EVL1_GRO       037.5                00:00:13:01 
* POND 5_T_QEVL1GRND315_UNDERGROUND_EL CHAPO TUNNELS_MOVING THRU LONG DANK TUNNEL 
* (ACTUALLY GAZA) _31741395 
* FROM CLIP NAME:  T_QEVL1GRND245.NEW.01 
* TO CLIP NAME:  EVL_TITLE_FRAME_05.TIF
130  EVL_TITL V     C        01:01:57:10 01:01:57:13 01:00:58:05 01:00:58:09 
* FROM CLIP NAME:  EVL_TITLE_FRAME_05.TIF
131  EVL_TITL V     C        01:01:57:13 01:01:58:13 01:00:58:09 01:00:59:09 
* FROM CLIP NAME:  EVL_TITLE_FRAME_05.TIF 
* TO CLIP NAME:  EVL_TITLE_FRAME_05.TIF
132  EVL_TITL V     C        01:01:58:13 01:02:02:12 01:00:59:09 01:01:03:08 
* FROM CLIP NAME:  EVL_TITLE_FRAME_05.TIF
133  EVL1_ARC V     C        00:00:36:14 00:00:37:22 01:01:03:08 01:01:04:16 
* POND5_T_QEVL1ARCH201_ARCHITECTS_ROBERT MOSES_FLYING BY STATUE OF LIBERTY, BROOKL 
* YN IN THE DISTANCE, NEW YORK, NEW YORK,_60063521 
* FROM CLIP NAME:  T_QEVL1ARCH201.NEW.01
FCM: DROP FRAME
134  QEVL1SCA V     C        12:00:45:06 12:00:46:19 01:01:04:16 01:01:05:29 
M2   QEVL1SCA       037.5                12:00:45:06 
* AETN__QEVL1SCAM260_SCAMS_BERNIE MADOFF_NEW YORK CITY B-ROLL POLICE, TAXI TRAFFIC 
* _MF10321_TIMESSQUAREMIDTOWN_01 
* FROM CLIP NAME:  QEVL1SCAM260.NEW.01
FCM: NON-DROP FRAME
135  EVL1_HEI V     C        00:05:47:20 00:05:49:10 01:01:05:29 01:01:07:16 
M2   EVL1_HEI       031.3                00:05:47:20 
* FRAMEPOOL_T_QEVL1HEIS320_HEISTS_SISI JEWEL HEIST_AIRPLANE TAKING OFF FROM RUNWAY 
* , FLYING OVER CAMERA_966-134-040 
* FROM CLIP NAME:  T_QEVL1HEIS320.NEW.01 
* REEL: FRAMEPOOL_966-134-040
136  EVL1_HEI V     C        00:08:44:00 00:08:45:08 01:01:07:16 01:01:08:24 
M2   EVL1_HEI       037.5                00:08:44:00 
* AETN__QEVL1HEIS222_HEISTS_SISI JEWEL HEIST_AIRPORT PEOPLE MILLING AROUND, DARK L 
* IT_MF9749_MVI_5539 
* FROM CLIP NAME:  QEVL1HEIS222.NEW.01 
* REEL: AETN_MF9749_MVI_5539
FCM: DROP FRAME
137  EVL1_HEI V     C        00:00:19:01 00:00:20:05 01:01:08:24 01:01:09:28 
M2   EVL1_HEI       037.5                00:00:19:01 
* AETN__QEVL1HEIS066_HEISTS_LUFTHANSA HEIST_HANDSHAKE / STACK OF MONEY / âJFK INTE 
* RNATIONALâ AIRPORT SIGN_106549_MOBSTERS_JIMMYTHEGENTBURKE_13 
* FROM CLIP NAME:  QEVL1HEIS066.NEW.01 
* REEL: AETN_106549_MOBSTERS_JIMMYTHEGE
FCM: NON-DROP FRAME
138  EVL1_HEI V     C        00:12:31:08 00:12:33:09 01:01:09:28 01:01:11:28 
M2   EVL1_HEI       037.5                00:12:31:08 
* POND5_T_QEVL1HEIS662_HEISTS_LUFTHANSA HEIST_CCTV-SPLIT-SCREEN-AIRPORT-SECURITY-A 
* IRPORT-TRAFFIC-CONTROL VIDEO SURVEILLANCE_41631315 
* FROM CLIP NAME:  T_QEVL1HEIS662.NEW.01 
* REEL: POND5_41631315
139  GFX_HEIS V     C        00:00:04:15 00:00:09:22 01:01:14:21 01:01:20:00 
* FROM CLIP NAME:  GFX_HEIS15_GND_03_V01.MOV
140  LUFTHANS V     C        01:00:00:13 01:00:04:15 01:01:15:01 01:01:19:04 
* FROM CLIP NAME:  LUFTHANSA HEIST
141  GFX_HEIS V     C        01:00:02:25 01:00:09:11 01:01:20:00 01:01:26:16 
* FROM CLIP NAME:  GFX_HEIS34_MAP_V01.TIF
142  TEMP.01  V     C        01:00:00:00 01:00:06:01 01:01:20:10 01:01:26:11 
* FROM CLIP NAME:  TEMP.01
143  GFX_HEIS V     C        00:00:00:05 00:00:06:17 01:01:26:16 01:01:32:29 
* FROM CLIP NAME:  GFX_HEIS14_2.5D_V01.MOV
FCM: DROP FRAME
144  EVL1_HEI V     C        00:00:13:28 00:00:18:17 01:01:32:29 01:01:37:18 
M2   EVL1_HEI       037.5                00:00:13:28 
* AETN__QEVL1HEIS068_HEISTS_LUFTHANSA HEIST_HANDSHAKE IN A BAR_106549_MOBSTERS_JIM 
* MYTHEGENTBURKE_15 
* FROM CLIP NAME:  QEVL1HEIS068.NEW.01 
* REEL: AETN_106549_MOBSTERS_JIMMYTHEGE
145  QEVL1HEI V     C        00:01:27:13 00:01:29:22 01:01:37:18 01:01:39:25 
M2   QEVL1HEI       037.5                00:01:27:13 
* GETTY IMAGES__QEVL1HEIS461_HEISTS_LUFTHANSA HEIST_WORKER LOADING PARCELS ONTO LO 
* ADING VAN, DAYTIME_483675240 
* FROM CLIP NAME:  QEVL1HEIS461.NEW.01 
* REEL: GETTY IMAGES_483675240
FCM: NON-DROP FRAME
146  T_QEVL1H V     C        00:10:08:08 00:10:10:15 01:01:39:25 01:01:42:01 
M2   T_QEVL1H       037.5                00:10:08:08 
* POND5_T_QEVL1HEIS259_HEISTS_LUFTHANSA HEIST_PAN ACROSS JFK RUNWAY, SEE LUFTHANSA 
*  JET_48595056 
* FROM CLIP NAME:  T_QEVL1HEIS259.NEW.01 
* REEL: POND5_48595056
147  QEVL1HEI V     C        00:00:46:12 00:00:49:09 01:01:42:01 01:01:44:10 
* GETTY IMAGES__QEVL1HEIS340_HEISTS_LUFTHANSA HEIST_CHAIN LINK FENCE AT AIRPORT_99 
* 032024 
* FROM CLIP NAME:  QEVL1HEIS340.NEW.01 
* REEL: GETTY IMAGES_99032024
FCM: DROP FRAME
148  EVL1_HEI V     C        00:01:12:29 00:01:14:04 01:01:44:10 01:01:45:14 
M2   EVL1_HEI       037.5                00:01:12:29 
* AETN__QEVL1HEIS200_HEISTS_LUFTHANSA HEIST_TRUCK CARRYING CARGO PACKAGES, LOADING 
*  CARGO ONTO PLANE_73839_MM_PACKAGING_012644 
* FROM CLIP NAME:  QEVL1HEIS200.NEW.01 
* REEL: AETN_73839_MM_PACKAGING_012644
149  EVL1_HEI V     C        00:01:09:27 00:01:12:00 01:01:45:14 01:01:47:16 
M2   EVL1_HEI       037.5                00:01:09:27 
* AETN__QEVL1HEIS200_HEISTS_LUFTHANSA HEIST_TRUCK CARRYING CARGO PACKAGES, LOADING 
*  CARGO ONTO PLANE_73839_MM_PACKAGING_012644 
* FROM CLIP NAME:  QEVL1HEIS200.NEW.01 
* REEL: AETN_73839_MM_PACKAGING_012644
FCM: NON-DROP FRAME
150  EVL1_HEI V     C        00:02:30:09 00:02:33:04 01:01:47:16 01:01:49:24 
* POND5_T_QEVL1HEIS270_HEISTS_LUFTHANSA HEIST_LUFTHANSA CARGO PLANE_60242540 
* FROM CLIP NAME:  T_QEVL1HEIS270.NEW.01 
* REEL: POND5_60242540
FCM: DROP FRAME
151  EVL1_HEI V     C        00:01:08:12 00:01:10:07 01:01:49:24 01:01:51:18 
M2   EVL1_HEI       037.5                00:01:08:12 
* AETN__QEVL1HEIS257_HEISTS_LUFTHANSA HEIST_VAN WYCK EXPRESSWAY-JFK AIRPORT SIGN - 
* - LUFTHANSA CARGO BUILDING_106549_MOBSTERS_JIMMYTHEGENTBURKE_01 
* FROM CLIP NAME:  QEVL1HEIS257.NEW.01 
* REEL: AETN_106549_MOBSTERS_JIMMYTHEGE
FCM: NON-DROP FRAME
152  EVL1_HEI V     C        00:06:01:16 00:06:04:01 01:01:51:18 01:01:53:29 
M2   EVL1_HEI       031.3                00:06:01:16 
* FRAMEPOOL_T_QEVL1HEIS451_HEISTS_LUFTHANSA HEIST_LUFTHANSA  LOADING DOCK FOR A CA 
* RGO PLANE _895-830-824 
* FROM CLIP NAME:  T_QEVL1HEIS451.NEW.01 
* REEL: FRAMEPOOL_895-830-824
FCM: DROP FRAME
153  EVL1_HEI V     C        00:00:11:25 00:00:15:02 01:01:53:29 01:01:57:05 
M2   EVL1_HEI       037.5                00:00:11:25 
* AETN__QEVL1HEIS064_HEISTS_LUFTHANSA HEIST_MEN WITH BAGS (OF CASH) WALK THROUGH H 
* ALL / ZOOM INTO $20 BILLS_106549_MOBSTERS_JIMMYTHEGENTBURKE_11 
* FROM CLIP NAME:  QEVL1HEIS064.NEW.01 
* REEL: AETN_106549_MOBSTERS_JIMMYTHEGE
FCM: NON-DROP FRAME
154  EVL10519 V     C        15:03:21:03 15:03:32:09 01:01:57:05 01:01:59:14 
M2   EVL10519       146.7                15:03:21:03 
* FROM CLIP NAME:  EVL1051916A02_IP_0289.NEW.01 
* FROM SOURCE STROBE MOTION UPDATE EVERY 2 FRAMES
155  EVL10519 V     C        14:54:14:07 14:54:15:02 01:01:59:14 01:02:00:08 
* FROM CLIP NAME:  EVL1051916A02_IP_0284.NEW.01
156  EVL10519 V     C        14:54:15:02 14:54:16:00 01:02:00:08 01:02:01:05 
* FROM CLIP NAME:  EVL1051916A02_IP_0284.NEW.01
159  EVIL_GEN V     C        00:00:01:05 00:00:04:02 01:02:01:05 01:02:04:01 
* FROM CLIP NAME:  EVIL GENIUS L3 LINES_V02 UNMATTED.MOV
FCM: DROP FRAME
157  LWR_3RD_ V     C        01:00:01:06 01:00:04:02 01:02:01:05 01:02:04:01 
* FROM CLIP NAME:  LWR 3RD SAMPLE.18
FCM: NON-DROP FRAME
158  EVL10525 V     C        10:59:22:09 10:59:25:06 01:02:01:05 01:02:04:01 
* FROM CLIP NAME:  EVL1052516A02_E020C002_160525Y3.NEW.01.SUB.01
161  EVL10516 V     C        15:19:27:18 15:19:30:15 01:02:01:05 01:02:04:01 
* BACKPLATE FOR JON DOUGLAS RAINEY 
* FROM CLIP NAME:  EVL1051616A04_IP_0252.NEW.01.SUB.01
FCM: DROP FRAME
160  LWR_3RD_ V     C        01:00:01:06 01:00:04:02 01:02:01:05 01:02:04:01 
* FROM CLIP NAME:  LWR 3RD SAMPLE.17
FCM: NON-DROP FRAME
162  T_QEVL1G V     C        00:00:01:12 00:00:05:07 01:02:04:01 01:02:07:03 
* POND5_T_QEVL1GRND525_UNDERGROUND_HATTON GARDEN_VAULT DOOR OPENS, CLOSES_32464403 
* FROM CLIP NAME:  T_QEVL1GRND525.NEW.01
163  EVL10516 V     C        09:39:59:22 09:40:03:02 01:02:07:03 01:02:10:08 
* FROM CLIP NAME:  EVL1051716A01_IP_0258.NEW.01.SUB.01
165  EVIL_GEN V     C        00:00:01:05 00:00:03:23 01:02:07:15 01:02:10:08 
* FROM CLIP NAME:  EVIL GENIUS L3 LINES_V02 UNMATTED.MOV
FCM: DROP FRAME
164  LWR_3RD_ V     C        01:00:01:06 01:00:03:29 01:02:07:15 01:02:10:08 
* FROM CLIP NAME:  LWR 3RD SAMPLE.07
166  LWR_3RD_ V     C        01:00:01:06 01:00:03:29 01:02:07:15 01:02:10:08 
* FROM CLIP NAME:  LWR 3RD SAMPLE.08
FCM: NON-DROP FRAME
167  EVL10517 V     C        09:09:31:07 09:09:33:13 01:02:10:08 01:02:12:15 
* FROM CLIP NAME:  EVL1051716B01_LL0241_1.NEW.01.SUB.01
168  EVL1_HEI V     C        00:07:19:14 00:07:22:10 01:02:12:15 01:02:15:09 
M2   EVL1_HEI       031.3                00:07:19:14 
* POND5_T_QEVL1HEIS883_HEISTS_LUFTHANSA HEIST_CRIMINAL BUSINESS IN PARKING LOT, BR 
* EIFCASE, EXCHANGING MOENY_60667581 
* FROM CLIP NAME:  T_QEVL1HEIS883.NEW.01 
* REEL: POND5_60667581
169  EVL1_HEI V     C        00:01:06:04 00:01:09:08 01:02:15:09 01:02:17:25 
* GETTY IMAGES__QEVL1HEIS468_HEISTS_LUFTHANSA HEIST_CLOSE UP WOODEN TABLE, BRIEFCA 
* SE SLIDING ACROSS, MAN'S HANDS OPEN CASE, REVEALING BUNDLES OF $20 BILLS_932-49 
* FROM CLIP NAME:  QEVL1HEIS468.NEW.01 
* REEL: GETTY IMAGES_932-49
170  EVIL_GEN V     C        00:00:01:05 00:00:03:10 01:02:17:24 01:02:20:00 
* FROM CLIP NAME:  EVIL GENIUS L3 LINES_V02 UNMATTED.MOV
FCM: DROP FRAME
171  LWR_3RD_ V     C        01:00:01:06 01:00:03:12 01:02:17:24 01:02:20:00 
* FROM CLIP NAME:  LWR 3RD SAMPLE.09
172  LWR_3RD_ V     C        01:00:01:06 01:00:03:12 01:02:17:24 01:02:20:00 
* FROM CLIP NAME:  LWR 3RD SAMPLE.10
FCM: NON-DROP FRAME
173  EVL10610 V     C        11:57:49:18 11:57:51:21 01:02:17:25 01:02:19:29 
* FROM CLIP NAME:  EVL1061016A02_275_0177.NEW.01.SUB.01
174  EVL1_ARC V     C        03:24:22:13 03:24:23:20 01:02:19:29 01:02:21:05 
M2   EVL1_ARC       037.5                03:24:22:13 
* AETN__QEVL1ARCH274_ARCHITECTS_MIT COUNTERS_CASINO GAMBLING ROULETTE_MF6174_LASVE 
* GASBROLL_13.MOV 
* FROM CLIP NAME:  QEVL1ARCH274.NEW.01
175  EVL1_ARC V     C        03:28:18:12 03:28:19:29 01:02:21:05 01:02:22:21 
M2   EVL1_ARC       037.5                03:28:18:12 
* AETN__QEVL1ARCH277_ARCHITECTS_MIT COUNTERS_CASINO GAMBLING ROULETTE_MF6174_LASVE 
* GASBROLL_16.MOV 
* FROM CLIP NAME:  QEVL1ARCH277.NEW.01
176  EVL10509 V     C        12:21:38:16 12:21:40:22 01:02:22:21 01:02:24:29 
* FROM CLIP NAME:  EVL1050916A02_IP_0161.NEW.01.SUB.01
FCM: DROP FRAME
178  LWR_3RD_ V     C        01:00:01:06 01:00:03:12 01:02:22:23 01:02:24:29 
* FROM CLIP NAME:  LWR 3RD SAMPLE.05
177  LWR_3RD_ V     C        01:00:01:06 01:00:03:12 01:02:22:23 01:02:24:29 
* FROM CLIP NAME:  LWR 3RD SAMPLE.06
FCM: NON-DROP FRAME
179  EVIL_GEN V     C        00:00:01:05 00:00:03:10 01:02:22:23 01:02:24:29 
* FROM CLIP NAME:  EVIL GENIUS L3 LINES_V02 UNMATTED.MOV
FCM: DROP FRAME
180  EVL1_HEI V     C        01:13:30:21 01:13:32:02 01:02:24:29 01:02:26:09 
M2   EVL1_HEI       037.5                01:13:30:21 
* AETN__QEVL1HEIS065_HEISTS_LUFTHANSA HEIST_DRIVING PAST JFK AIRPORT / MONEY GETS 
* STASHED IN COAT_106549_MOBSTERS_JIMMYTHEGENTBURKE_12 
* FROM CLIP NAME:  QEVL1HEIS065.NEW.01 
* REEL: AETN_106549_MOBSTERS_JIMMYTHEGE
181  EVL1_HEI V     C        01:13:32:01 01:13:33:20 01:02:26:09 01:02:27:28 
M2   EVL1_HEI       037.5                01:13:32:01 
* AETN__QEVL1HEIS065_HEISTS_LUFTHANSA HEIST_DRIVING PAST JFK AIRPORT / MONEY GETS 
* STASHED IN COAT_106549_MOBSTERS_JIMMYTHEGENTBURKE_12 
* FROM CLIP NAME:  QEVL1HEIS065.NEW.01 
* REEL: AETN_106549_MOBSTERS_JIMMYTHEGE
FCM: NON-DROP FRAME
182  GFX_HEIS V     C        00:00:00:00 00:00:08:00 01:02:27:28 01:02:35:28 
* FROM CLIP NAME:  GFX_HEIS01_V01.MOV
FCM: DROP FRAME
183  EVL1_HEI V     C        00:00:22:18 00:00:32:00 01:02:35:28 01:02:45:09 
M2   EVL1_HEI       037.5                00:00:22:18 
* AETN__QEVL1HEIS077_HEISTS_LUFTHANSA HEIST_GANGSTERS IN BLACK WALK TOWARDS CAMERA 
* _106549_MOBSTERS_JIMMYTHEGENTBURKE_24 
* FROM CLIP NAME:  QEVL1HEIS077.NEW.01 
* REEL: AETN_106549_MOBSTERS_JIMMYTHEGE
FCM: NON-DROP FRAME
184  EVIL_GEN V     C        00:00:01:05 00:00:05:00 01:02:45:09 01:02:49:03 
* FROM CLIP NAME:  EVIL GENIUS L3 LINES_V02 UNMATTED.MOV
FCM: DROP FRAME
185  LWR_3RD_ V     C        01:00:01:06 01:00:05:00 01:02:45:09 01:02:49:03 
* FROM CLIP NAME:  LWR 3RD SAMPLE.15
186  LWR_3RD_ V     C        01:00:01:06 01:00:05:12 01:02:45:09 01:02:49:15 
* FROM CLIP NAME:  LWR 3RD SAMPLE.16
FCM: NON-DROP FRAME
187  EVL10525 V     C        11:34:05:12 11:34:10:06 01:02:45:09 01:02:50:01 
* FROM CLIP NAME:  EVL1052516A02_E020C004_160525MD.NEW.01.SUB.01
188  EVL10517 V     C        13:01:29:03 13:01:36:12 01:02:45:09 01:02:52:20 
* FROM CLIP NAME:  EVL1051716A02_IP_0263.NEW.01
FCM: DROP FRAME
189  EVL1_HEI V     C        00:00:09:06 00:00:11:25 01:02:50:01 01:02:52:20 
M2   EVL1_HEI       037.5                00:00:09:06 
* AETN__QEVL1HEIS062_HEISTS_LUFTHANSA HEIST_CASH BEING COUNTED / CASH IN ENVELOPE 
* / ENVELOPE GOES INTO JACKET_106549_MOBSTERS_JIMMYTHEGENTBURKE_09 
* FROM CLIP NAME:  QEVL1HEIS062.NEW.01 
* REEL: AETN_106549_MOBSTERS_JIMMYTHEGE
190  EVL1_HEI V     C        00:00:06:27 00:00:08:14 01:02:52:20 01:02:54:06 
M2   EVL1_HEI       037.5                00:00:06:27 
* AETN__QEVL1HEIS060_HEISTS_LUFTHANSA HEIST_MAN BEATING MAN UP; MAN WALKS TOWARD C 
* AMERA THREATENINGLY_106549_MOBSTERS_JIMMYTHEGENTBURKE_07 
* FROM CLIP NAME:  QEVL1HEIS060.NEW.01 
* REEL: AETN_106549_MOBSTERS_JIMMYTHEGE
191  EVL1_HEI V     C        00:00:14:03 00:00:16:07 01:02:54:06 01:02:56:09 
M2   EVL1_HEI       037.5                00:00:14:03 
* AETN__QEVL1HEIS062_HEISTS_LUFTHANSA HEIST_CASH BEING COUNTED / CASH IN ENVELOPE 
* / ENVELOPE GOES INTO JACKET_106549_MOBSTERS_JIMMYTHEGENTBURKE_09 
* FROM CLIP NAME:  QEVL1HEIS062.NEW.01 
* REEL: AETN_106549_MOBSTERS_JIMMYTHEGE
192  EVL1_HEI V     C        00:00:16:27 00:00:20:25 01:02:56:09 01:03:00:06 
M2   EVL1_HEI       037.5                00:00:16:27 
* AETN__QEVL1HEIS061_HEISTS_LUFTHANSA HEIST_STACKS OF HUNDRED DOLLAR BILLS; HANDSH 
* AKE; MAN THREATENED W/ GUN_106549_MOBSTERS_JIMMYTHEGENTBURKE_08 
* FROM CLIP NAME:  QEVL1HEIS061.NEW.01 
* REEL: AETN_106549_MOBSTERS_JIMMYTHEGE
193  EVL1_HEI V     C        00:00:11:15 00:00:12:17 01:03:00:06 01:03:01:08 
M2   EVL1_HEI       037.5                00:00:11:15 
* AETN__QEVL1HEIS061_HEISTS_LUFTHANSA HEIST_STACKS OF HUNDRED DOLLAR BILLS; HANDSH 
* AKE; MAN THREATENED W/ GUN_106549_MOBSTERS_JIMMYTHEGENTBURKE_08 
* FROM CLIP NAME:  QEVL1HEIS061.NEW.01 
* REEL: AETN_106549_MOBSTERS_JIMMYTHEGE
FCM: NON-DROP FRAME
194  MORTISE_ V     C        01:01:50:14 01:01:52:17 01:03:00:06 01:03:02:10 
* FROM CLIP NAME:  MORTISE_V01 WITH ALPHA.TIF
FCM: DROP FRAME
195  EVL1_HEI V     C        00:00:12:26 00:00:13:29 01:03:01:08 01:03:02:10 
M2   EVL1_HEI       037.5                00:00:12:26 
* AETN__QEVL1HEIS061_HEISTS_LUFTHANSA HEIST_STACKS OF HUNDRED DOLLAR BILLS; HANDSH 
* AKE; MAN THREATENED W/ GUN_106549_MOBSTERS_JIMMYTHEGENTBURKE_08 
* FROM CLIP NAME:  QEVL1HEIS061.NEW.01 
* REEL: AETN_106549_MOBSTERS_JIMMYTHEGE
FCM: NON-DROP FRAME
196     AX    V     C        01:00:00:00 01:00:00:15 01:03:01:21 01:03:02:10
FCM: DROP FRAME
197  LWR_3RD_ V     C        01:00:01:06 01:00:01:25 01:03:02:10 01:03:02:29 
* FROM CLIP NAME:  LWR 3RD SAMPLE.03 
* TO CLIP NAME:  LWR 3RD SAMPLE.03
FCM: NON-DROP FRAME
200  EVIL_GEN V     C        00:00:01:05 00:00:03:20 01:03:02:10 01:03:04:29 
* FROM CLIP NAME:  EVIL GENIUS L3 LINES_V02 UNMATTED.MOV
FCM: DROP FRAME
198  LWR_3RD_ V     C        01:00:01:06 01:00:03:25 01:03:02:10 01:03:04:29 
* FROM CLIP NAME:  LWR 3RD SAMPLE.04
FCM: NON-DROP FRAME
199  EVL10512 V     C        13:42:54:08 13:42:56:23 01:03:02:10 01:03:04:29 
* FROM CLIP NAME:  EVL1051216A02_IP_0225.NEW.01.SUB.01
FCM: DROP FRAME
201  LWR_3RD_ V     C        01:00:01:25 01:00:03:25 01:03:02:29 01:03:04:29 
* FROM CLIP NAME:  LWR 3RD SAMPLE.03
FCM: NON-DROP FRAME
202  T_QEVL1H V     C        00:05:27:01 00:05:28:05 01:03:04:29 01:03:06:03 
M2   T_QEVL1H       031.3                00:05:27:01 
* POND5_T_QEVL1HEIS264_HEISTS_LUFTHANSA HEIST_DEPARTURE LOUNGE / TERMINAL AT JFK A 
* IRPORT_23853928 
* FROM CLIP NAME:  T_QEVL1HEIS264.NEW.01 
* REEL: POND5_23853928
203  T_QEVL1H V     C        00:05:28:00 00:05:31:09 01:03:06:03 01:03:09:13 
M2   T_QEVL1H       031.3                00:05:28:00 
* POND5_T_QEVL1HEIS267_HEISTS_LUFTHANSA HEIST_TIME LAPSE - CARGO WORKERS AT JFK AI 
* RPORT_34463930 
* FROM CLIP NAME:  T_QEVL1HEIS267.NEW.01 
* REEL: POND5_34463930
204  T_QEVL1H V     C        00:10:14:26 00:10:16:28 01:03:09:13 01:03:11:14 
M2   T_QEVL1H       037.5                00:10:14:26 
* POND5_T_QEVL1HEIS274_HEISTS_LUFTHANSA HEIST_UNLOADING OF AIR CARGO, AIRPORT_5722 
* 3401 
* FROM CLIP NAME:  T_QEVL1HEIS274.NEW.01 
* REEL: POND5_57223401
205  T_QEVL1H V     C        00:05:29:21 00:05:30:23 01:03:11:14 01:03:12:14 
M2   T_QEVL1H       031.3                00:05:29:21 
* POND5_T_QEVL1HEIS260_HEISTS_LUFTHANSA HEIST_AIRPORT APRON AT JFK_23854809 
* FROM CLIP NAME:  T_QEVL1HEIS260.NEW.01 
* REEL: POND5_23854809
206  T_QEVL1H V     C        00:13:21:11 00:13:24:24 01:03:12:14 01:03:15:26 
M2   T_QEVL1H       037.5                00:13:21:11 
* NBC NEWS_T_QEVL1HEIS494_HEISTS_LUFTHANSA HEIST_NEWS ON LUFTHANSA ROBBERY, COPS P 
* RESS CONFERENCE, LOUIS WERNER ARREST, CARGO BUILDING INTERIOR EXTERIOR, AERIAL, 
* EXAMINE BROKEN FENCE, EMPLOYEE B-ROLL_MN16F8078-001_WO1.MOV 
* FROM CLIP NAME:  T_QEVL1HEIS494.NEW.01 
* REEL: NBC NEWS_MN16F8078-001_WO1.MOV
207  T_QEVL1H V     C        00:13:53:02 00:14:00:13 01:03:15:26 01:03:23:06 
M2   T_QEVL1H       037.5                00:13:53:02 
* NBC NEWS_T_QEVL1HEIS494_HEISTS_LUFTHANSA HEIST_NEWS ON LUFTHANSA ROBBERY, COPS P 
* RESS CONFERENCE, LOUIS WERNER ARREST, CARGO BUILDING INTERIOR EXTERIOR, AERIAL, 
* EXAMINE BROKEN FENCE, EMPLOYEE B-ROLL_MN16F8078-001_WO1.MOV 
* FROM CLIP NAME:  T_QEVL1HEIS494.NEW.01 
* REEL: NBC NEWS_MN16F8078-001_WO1.MOV
208  EVL1_HEI V     C        00:16:03:08 00:16:06:19 01:03:19:26 01:03:23:06 
M2   EVL1_HEI       037.5                00:16:03:08 
* GETTY_T_QEVL1HEIS1099_HEISTS_LUFTHANSA HEIST_1970 ZOOM OUT CLOSE UP MAN'S HAND P 
* ICKING UP TELEPHONE RECEIVER_405-191 
* FROM CLIP NAME:  T_QEVL1HEIS1099.NEW.01 
* REEL: GETTY_405-191
209  T_QEVL1H V     C        00:10:24:15 00:10:26:22 01:03:23:06 01:03:25:13 
M2   T_QEVL1H       037.5                00:10:24:15 
* POND5_T_QEVL1HEIS274_HEISTS_LUFTHANSA HEIST_UNLOADING OF AIR CARGO, AIRPORT_5722 
* 3401 
* FROM CLIP NAME:  T_QEVL1HEIS274.NEW.01 
* REEL: POND5_57223401
210  EVL1_HEI V     C        00:16:18:05 00:16:19:14 01:03:25:13 01:03:26:21 
M2   EVL1_HEI       037.5                00:16:18:05 
* POND5_T_QEVL1HEIS1135_HEISTS_ALL ACTS_AERIAL SHOT OF SUNSET OVER NEW YORK CITY S 
* KYLINE_40715637 
* FROM CLIP NAME:  T_QEVL1HEIS1135.NEW.01 
* REEL: POND5_40715637
211  EVL1_ARC V     C        01:34:04:17 01:34:06:12 01:03:26:21 01:03:28:05 
* GETTY IMAGES__QEVL1ARCH193_ARCHITECTS_ROBERT MOSES_TRAFFIC DRIVING ON 3RD AVENUE 
*  IN THE BRONX NEAR I95 LATE IN THE DAY AS PEDESTRIANS CROSS THE STREET NEW YORK 
* TRAFFIC_139642653 
* FROM CLIP NAME:  QEVL1ARCH193.NEW.01
212  EVL10512 V     C        13:35:35:12 13:35:37:04 01:03:28:05 01:03:29:25 
* FROM CLIP NAME:  EVL1051216A02_IP_0225.NEW.01.SUB.01
FCM: DROP FRAME
213  EVL1_HEI V     C        00:00:25:00 00:00:26:24 01:03:29:25 01:03:31:19 
M2   EVL1_HEI       037.5                00:00:25:00 
* AETN__QEVL1HEIS076_HEISTS_LUFTHANSA HEIST_MEN TALKING AROUND TABLE, MAKE DEAL_10 
* 6549_MOBSTERS_JIMMYTHEGENTBURKE_23 
* FROM CLIP NAME:  QEVL1HEIS076.NEW.01 
* REEL: AETN_106549_MOBSTERS_JIMMYTHEGE
FCM: NON-DROP FRAME
214  EVL10509 V     C        12:22:56:10 12:22:57:21 01:03:31:19 01:03:33:03 
* FROM CLIP NAME:  EVL1050916A02_IP_0161.NEW.01.SUB.01
215  T_QEVL1H V     C        00:10:07:23 00:10:09:02 01:03:33:03 01:03:34:10 
M2   T_QEVL1H       037.5                00:10:07:23 
* POND5_T_QEVL1HEIS261_HEISTS_LUFTHANSA HEIST_CABS/DROP-OFF AREA AT JFK AIRPORT_11 
* 356824 
* FROM CLIP NAME:  T_QEVL1HEIS261.NEW.01 
* REEL: POND5_11356824
216  T_QEVL1B V     C        00:00:03:00 00:00:05:04 01:03:34:10 01:03:36:14 
M2   T_QEVL1B       037.5                00:00:03:00 
* POND5_T_QEVL1BOMB009_BOMBS_THE UNABOMBER_CHICAGO -OLD FOOTAGE : THE CLASSIC ASTR 
* OJET AIRPLANE AT O'HARE AIRPORT FROM THE TRAVEL_52338642 
* FROM CLIP NAME:  T_QEVL1BOMB009.NEW.01
217  EVL10519 V     C        14:26:18:18 14:26:20:13 01:03:36:14 01:03:38:08 
* FROM CLIP NAME:  EVL1051916B02_275_0041.NEW.01
FCM: DROP FRAME
218  EVL1_HEI V     C        00:00:21:20 00:00:24:02 01:03:38:08 01:03:40:19 
M2   EVL1_HEI       037.5                00:00:21:20 
* AETN__QEVL1HEIS071_HEISTS_LUFTHANSA HEIST_MEN HAVING DISCUSSION AROUND TABLE, GE 
* STURING_106549_MOBSTERS_JIMMYTHEGENTBURKE_18 
* FROM CLIP NAME:  QEVL1HEIS071.NEW.01 
* REEL: AETN_106549_MOBSTERS_JIMMYTHEGE
FCM: NON-DROP FRAME
219  EVL1_HEI V     C        00:08:59:03 00:09:00:05 01:03:40:19 01:03:41:20 
M2   EVL1_HEI       037.5                00:08:59:03 
* AETN__QEVL1HEIS224_HEISTS_SISI JEWEL HEIST_AIRPORT PEOPLE MILLING AROUND, DARK L 
* IT, BLURRY FOCUS_MF9749_MVI_5541 
* FROM CLIP NAME:  QEVL1HEIS224.NEW.01 
* REEL: AETN_MF9749_MVI_5541
220  QEVL1HEI V     C        00:00:46:12 00:00:47:09 01:03:41:20 01:03:42:11 
* GETTY IMAGES__QEVL1HEIS339_HEISTS_LUFTHANSA HEIST_CHAIN LINK FENCE AT AIRPORT_10 
* 3268440 
* FROM CLIP NAME:  QEVL1HEIS339.NEW.01 
* REEL: GETTY IMAGES_103268440
221  EVL1_HEI V     C        00:08:57:13 00:09:00:14 01:03:42:11 01:03:45:11 
M2   EVL1_HEI       037.5                00:08:57:13 
* GETTY IMAGES__QEVL1HEIS337_HEISTS_LUFTHANSA HEIST_CHAIN LINK FENCE AT AIRPORT_46 
* 0718321 
* FROM CLIP NAME:  QEVL1HEIS337.NEW.01 
* REEL: GETTY IMAGES_460718321
222  EVL10615 V     C        20:13:51:19 20:13:56:04 01:03:44:04 01:03:48:15 
* FROM CLIP NAME:  EVL1061516A05_275_0300.NEW.01.COPY.01
223  EVL10509 V     C        12:23:18:12 12:23:19:23 01:03:48:15 01:03:49:29 
* FROM CLIP NAME:  EVL1050916A02_IP_0161.NEW.01.SUB.01
224  T_QEVL1H V     C        00:13:57:16 00:13:59:08 01:03:49:29 01:03:51:20 
M2   T_QEVL1H       037.5                00:13:57:16 
* SHUTTERSTOCK_T_QEVL1HEIS852_HEISTS_DINNER SET GANG_MAN WALKING ALONE AT NIGHT IN 
*  THE PARK. SHADOW SILHOUETTE OF PERSON. SPOOKY NIGHT SCENERY BACKGROUND FEET AT 
* NIGHT APPROACHING HOUSE_12548714 
* FROM CLIP NAME:  T_QEVL1HEIS852.NEW.01 
* REEL: SHUTTERSTOCK_12548714
225  SEVL1HEI V     C        01:00:06:11 01:00:10:15 01:03:51:20 01:03:55:25 
* AP IMAGES__SEVL1HEIS379_HEISTS_LUFTHANSA HEIST_JIMMY THE GENT BURKE CUFFED, LED 
* FROM GOVT VEHICLE_96041601315_HTTP://WWW.APIMAGES.COM/METADATA/INDEX/AP-A-NY-NYR 
* 15-OBIT-FILE-OBIT-BURKE/EBECFC2EC9E0DA11AF9F0014C2589DFB/41/0 
* FROM CLIP NAME:  SEVL1HEIS379.TIFF.NEW.01 
* REEL: AP IMAGES_96041601315
226  EVL1_HEI V     C        00:11:02:05 00:11:06:04 01:03:55:25 01:03:59:24 
M2   EVL1_HEI       037.5                00:11:02:05 
* POND5_T_QEVL1HEIS445_HEISTS_LUFTHANSA HEIST_LARGE KEY RING WITH MANY KEYS ON BLA 
* CK BACKGROUND_42773033 
* FROM CLIP NAME:  T_QEVL1HEIS445.NEW.01 
* REEL: POND5_42773033
227  EVL1_HEI V     C        00:08:29:15 00:08:34:23 01:03:59:24 01:04:05:01 
M2   EVL1_HEI       037.5                00:08:29:15 
* GETTY IMAGES__QEVL1HEIS160_HEISTS_LUFTHANSA HEIST_MAN HOLDING ALCOHOL DRINK, SMO 
* KING MARIJUANA CIGARETTE JOINT IN OTHER HAND, CLINKING GLASS_472814865 
* FROM CLIP NAME:  QEVL1HEIS160.NEW.01 
* REEL: GETTY IMAGES_472814865
228  EVL1_HEI V     C        00:06:07:06 00:06:07:11 01:04:05:01 01:04:05:06 
M2   EVL1_HEI       031.3                00:06:07:06 
* POND5_T_QEVL1HEIS535_HEISTS_LUFTHANSA_CLUB SCENE DISCO BALL_2800788 
* FROM CLIP NAME:  T_QEVL1HEIS535.NEW.01 
* REEL: POND5_2800788
229  EVL1_HEI V     C        00:06:07:10 00:06:07:17 01:04:05:06 01:04:05:14 
M2   EVL1_HEI       031.3                00:06:07:10 
* POND5_T_QEVL1HEIS535_HEISTS_LUFTHANSA_CLUB SCENE DISCO BALL_2800788 
* FROM CLIP NAME:  T_QEVL1HEIS535.NEW.01 
* REEL: POND5_2800788
230  EVL1_HEI V     C        00:06:09:23 00:06:10:10 01:04:05:14 01:04:05:28 
M2   EVL1_HEI       031.3                00:06:09:23 
* POND5_T_QEVL1HEIS535_HEISTS_LUFTHANSA_CLUB SCENE DISCO BALL_2800788 
* FROM CLIP NAME:  T_QEVL1HEIS535.NEW.01 
* REEL: POND5_2800788
231  EVL1_HEI V     C        00:06:12:07 00:06:12:20 01:04:05:28 01:04:06:13 
M2   EVL1_HEI       031.3                00:06:12:07 
* POND5_T_QEVL1HEIS535_HEISTS_LUFTHANSA_CLUB SCENE DISCO BALL_2800788 
* FROM CLIP NAME:  T_QEVL1HEIS535.NEW.01 
* REEL: POND5_2800788
232  EVL1_HEI V     C        00:06:21:05 00:06:21:18 01:04:06:13 01:04:06:26 
M2   EVL1_HEI       031.3                00:06:21:05 
* POND5_T_QEVL1HEIS535_HEISTS_LUFTHANSA_CLUB SCENE DISCO BALL_2800788 
* FROM CLIP NAME:  T_QEVL1HEIS535.NEW.01 
* REEL: POND5_2800788
233  EVL10512 V     C        12:57:35:04 12:57:39:09 01:04:06:26 01:04:11:03 
* FROM CLIP NAME:  EVL1051216B02_E0376.NEW.01.SUB.01
234  EVL1_HEI V     C        00:06:28:22 00:06:29:04 01:04:11:03 01:04:11:10 
M2   EVL1_HEI       031.3                00:06:28:22 
* POND5_T_QEVL1HEIS535_HEISTS_LUFTHANSA_CLUB SCENE DISCO BALL_2800788 
* FROM CLIP NAME:  T_QEVL1HEIS535.NEW.01 
* REEL: POND5_2800788
235  EVL1_HEI V     C        00:06:22:21 00:06:23:02 01:04:11:10 01:04:11:16 
M2   EVL1_HEI       031.3                00:06:22:21 
* POND5_T_QEVL1HEIS535_HEISTS_LUFTHANSA_CLUB SCENE DISCO BALL_2800788 
* FROM CLIP NAME:  T_QEVL1HEIS535.NEW.01 
* REEL: POND5_2800788
236  EVL1_HEI V     C        00:06:30:05 00:06:30:09 01:04:11:16 01:04:11:20 
M2   EVL1_HEI       031.3                00:06:30:05 
* POND5_T_QEVL1HEIS535_HEISTS_LUFTHANSA_CLUB SCENE DISCO BALL_2800788 
* FROM CLIP NAME:  T_QEVL1HEIS535.NEW.01 
* REEL: POND5_2800788
237  EVL1_HEI V     C        00:06:25:23 00:06:26:02 01:04:11:20 01:04:11:24 
M2   EVL1_HEI       031.3                00:06:25:23 
* POND5_T_QEVL1HEIS535_HEISTS_LUFTHANSA_CLUB SCENE DISCO BALL_2800788 
* FROM CLIP NAME:  T_QEVL1HEIS535.NEW.01 
* REEL: POND5_2800788
238  EVL1_HEI V     C        00:06:25:08 00:06:25:21 01:04:11:24 01:04:12:08 
M2   EVL1_HEI       031.3                00:06:25:08 
* POND5_T_QEVL1HEIS535_HEISTS_LUFTHANSA_CLUB SCENE DISCO BALL_2800788 
* FROM CLIP NAME:  T_QEVL1HEIS535.NEW.01 
* REEL: POND5_2800788
239  EVL10512 V     C        12:57:56:23 12:57:58:17 01:04:12:08 01:04:14:00 
* FROM CLIP NAME:  EVL1051216B02_E0376.NEW.01.SUB.01
240  EVL1_HEI V     C        00:11:36:23 00:11:37:27 01:04:14:00 01:04:15:03 
M2   EVL1_HEI       037.5                00:11:36:23 
* POND5_T_QEVL1HEIS536_HEISTS_LUFTHANSA_SNORTING COKE THROUGH $100_10884385 
* FROM CLIP NAME:  T_QEVL1HEIS536.NEW.01 
* REEL: POND5_10884385
241  EVL1_HEI V     C        00:04:44:23 00:04:46:17 01:04:15:03 01:04:16:24 
M2   EVL1_HEI       031.3                00:04:44:23 
* GETTY IMAGES__QEVL1HEIS149_HEISTS_LUFTHANSA HEIST_CLOSE UP OF A PERSON ROLLING A 
*  CANNABIS JOINT BEFORE LIGHTING IT AND SMOKING IT, MARIJUANA, AGAINST BLACK BACK 
* ROUND_519539886 
* FROM CLIP NAME:  QEVL1HEIS149.NEW.01 
* REEL: GETTY IMAGES_519539886
242  EVL10516 V     C        09:58:55:20 09:59:03:15 01:04:16:24 01:04:24:18 
* FROM CLIP NAME:  EVL1051716A01_IP_0258.NEW.01.SUB.01
243  EVL10517 V     C        09:28:41:05 09:28:42:23 01:04:24:18 01:04:26:10 
* FROM CLIP NAME:  EVL1051716B01_LL0241_1.NEW.01.SUB.01
244  EVL1_HEI V     C        00:12:51:22 00:12:54:11 01:04:26:10 01:04:28:29 
M2   EVL1_HEI       037.5                00:12:51:22 
* POND5_T_QEVL1HEIS693_HEISTS_LUFTHANSA HEIST_KEYS ON A TABLE_100278 
* FROM CLIP NAME:  T_QEVL1HEIS693.NEW.01 
* REEL: POND5_100278
245  EVL1_HEI V     C        00:10:47:01 00:10:47:11 01:04:28:29 01:04:29:09 
M2   EVL1_HEI       037.5                00:10:47:01 
* SHUTTERSTOCK_T_QEVL1HEIS359_HEISTS_LUFTHANSA HEIST_DANCING GIRLS NEON SIGN STRIP 
* PERS_2417102 
* FROM CLIP NAME:  T_QEVL1HEIS359.NEW.01 
* REEL: SHUTTERSTOCK_2417102
246  EVL1_HEI V     C        00:10:48:07 00:10:49:14 01:04:29:09 01:04:30:15 
M2   EVL1_HEI       037.5                00:10:48:07 
* SHUTTERSTOCK_T_QEVL1HEIS359_HEISTS_LUFTHANSA HEIST_DANCING GIRLS NEON SIGN STRIP 
* PERS_2417102 
* FROM CLIP NAME:  T_QEVL1HEIS359.NEW.01 
* REEL: SHUTTERSTOCK_2417102
247  EVL1_HEI V     C        00:10:53:29 00:10:55:03 01:04:30:15 01:04:31:19 
M2   EVL1_HEI       037.5                00:10:53:29 
* SHUTTERSTOCK_T_QEVL1HEIS358_HEISTS_LUFTHANSA HEIST_SEXY EROTIC FEMALE IN A HOTEL 
*  ROOM WITH OVERLAID ABSTRACT LIGHTING STRIPPERS_2279210 
* FROM CLIP NAME:  T_QEVL1HEIS358.NEW.01 
* REEL: SHUTTERSTOCK_2279210
248  EVL1_HEI V     C        00:06:18:21 00:06:19:19 01:04:31:19 01:04:32:15 
M2   EVL1_HEI       031.3                00:06:18:21 
* POND5_T_QEVL1HEIS535_HEISTS_LUFTHANSA_CLUB SCENE DISCO BALL_2800788 
* FROM CLIP NAME:  T_QEVL1HEIS535.NEW.01 
* REEL: POND5_2800788
249  EVL1_HEI V     C        00:10:56:10 00:10:57:15 01:04:32:15 01:04:33:20 
M2   EVL1_HEI       037.5                00:10:56:10 
* SHUTTERSTOCK_T_QEVL1HEIS358_HEISTS_LUFTHANSA HEIST_SEXY EROTIC FEMALE IN A HOTEL 
*  ROOM WITH OVERLAID ABSTRACT LIGHTING STRIPPERS_2279210 
* FROM CLIP NAME:  T_QEVL1HEIS358.NEW.01 
* REEL: SHUTTERSTOCK_2279210
250  EVL1_HEI V     C        00:10:57:15 00:10:57:19 01:04:33:20 01:04:33:24 
M2   EVL1_HEI       037.5                00:10:57:15 
* SHUTTERSTOCK_T_QEVL1HEIS358_HEISTS_LUFTHANSA HEIST_SEXY EROTIC FEMALE IN A HOTEL 
*  ROOM WITH OVERLAID ABSTRACT LIGHTING STRIPPERS_2279210 
* FROM CLIP NAME:  T_QEVL1HEIS358.NEW.01 
* REEL: SHUTTERSTOCK_2279210
251  EVL1_HEI V     C        00:10:57:18 00:10:57:23 01:04:33:24 01:04:33:28 
M2   EVL1_HEI       037.5                00:10:57:18 
* SHUTTERSTOCK_T_QEVL1HEIS358_HEISTS_LUFTHANSA HEIST_SEXY EROTIC FEMALE IN A HOTEL 
*  ROOM WITH OVERLAID ABSTRACT LIGHTING STRIPPERS_2279210 
* FROM CLIP NAME:  T_QEVL1HEIS358.NEW.01 
* REEL: SHUTTERSTOCK_2279210
252  EVL1_HEI V     C        00:10:58:28 00:10:59:05 01:04:33:28 01:04:34:04 
M2   EVL1_HEI       037.5                00:10:58:28 
* SHUTTERSTOCK_T_QEVL1HEIS358_HEISTS_LUFTHANSA HEIST_SEXY EROTIC FEMALE IN A HOTEL 
*  ROOM WITH OVERLAID ABSTRACT LIGHTING STRIPPERS_2279210 
* FROM CLIP NAME:  T_QEVL1HEIS358.NEW.01 
* REEL: SHUTTERSTOCK_2279210
253  EVL1_HEI V     C        00:10:57:28 00:10:58:03 01:04:34:04 01:04:34:08 
M2   EVL1_HEI       037.5                00:10:57:28 
* SHUTTERSTOCK_T_QEVL1HEIS358_HEISTS_LUFTHANSA HEIST_SEXY EROTIC FEMALE IN A HOTEL 
*  ROOM WITH OVERLAID ABSTRACT LIGHTING STRIPPERS_2279210 
* FROM CLIP NAME:  T_QEVL1HEIS358.NEW.01 
* REEL: SHUTTERSTOCK_2279210
254  EVL1_HEI V     C        00:10:46:13 00:10:46:22 01:04:34:08 01:04:34:15 
M2   EVL1_HEI       037.5                00:10:46:13 
* SHUTTERSTOCK_T_QEVL1HEIS358_HEISTS_LUFTHANSA HEIST_SEXY EROTIC FEMALE IN A HOTEL 
*  ROOM WITH OVERLAID ABSTRACT LIGHTING STRIPPERS_2279210 
* FROM CLIP NAME:  T_QEVL1HEIS358.NEW.01 
* REEL: SHUTTERSTOCK_2279210
255  EVL10509 V     C        12:26:17:01 12:26:18:01 01:04:34:15 01:04:35:15 
* FROM CLIP NAME:  EVL1050916A02_IP_0161.NEW.01.SUB.01
256  EVL1_HEI V     C        00:07:31:17 00:07:32:09 01:04:35:15 01:04:36:05 
M2   EVL1_HEI       031.3                00:07:31:17 
* SHUTTERSTOCK_T_QEVL1HEIS942_HEISTS_LUFTHANSA HEIST_BACKLIT SILHOUETTE OF STRIPPE 
* R ON THE FLOOR DANCING_5308430 
* FROM CLIP NAME:  T_QEVL1HEIS942.NEW.01 
* REEL: SHUTTERSTOCK_5308430
257  EVL1_HEI V     C        00:07:32:12 00:07:32:15 01:04:36:05 01:04:36:08 
M2   EVL1_HEI       031.3                00:07:32:12 
* SHUTTERSTOCK_T_QEVL1HEIS942_HEISTS_LUFTHANSA HEIST_BACKLIT SILHOUETTE OF STRIPPE 
* R ON THE FLOOR DANCING_5308430 
* FROM CLIP NAME:  T_QEVL1HEIS942.NEW.01 
* REEL: SHUTTERSTOCK_5308430
258  EVL1_HEI V     C        00:07:32:13 00:07:32:23 01:04:36:08 01:04:36:19 
M2   EVL1_HEI       031.3                00:07:32:13 
* SHUTTERSTOCK_T_QEVL1HEIS942_HEISTS_LUFTHANSA HEIST_BACKLIT SILHOUETTE OF STRIPPE 
* R ON THE FLOOR DANCING_5308430 
* FROM CLIP NAME:  T_QEVL1HEIS942.NEW.01 
* REEL: SHUTTERSTOCK_5308430
259  EVL1_HEI V     C        00:07:34:15 00:07:38:10 01:04:36:19 01:04:40:11 
M2   EVL1_HEI       031.3                00:07:34:15 
* POND5_T_QEVL1HEIS950_HEISTS_LUFTHANSA HEIST_STRIPPER AND CRUMPLED PAN_43304689 
* FROM CLIP NAME:  T_QEVL1HEIS950.NEW.01 
* REEL: POND5_43304689
260  EVL10509 V     C        12:26:35:12 12:26:36:18 01:04:40:11 01:04:41:19 
* FROM CLIP NAME:  EVL1050916A02_IP_0161.NEW.01.SUB.01
261  EVL1_HEI V     C        00:12:52:00 00:12:52:13 01:04:41:19 01:04:42:01 
M2   EVL1_HEI       037.5                00:12:52:00 
* POND5_T_QEVL1HEIS693_HEISTS_LUFTHANSA HEIST_KEYS ON A TABLE_100278 
* FROM CLIP NAME:  T_QEVL1HEIS693.NEW.01 
* REEL: POND5_100278
262  EVL1_HEI V     C        00:06:02:02 00:06:06:14 01:04:41:19 01:04:46:03 
M2   EVL1_HEI       031.3                00:06:02:02 
* POND5_T_QEVL1HEIS450_HEISTS_LUFTHANSA HEIST_HANDS MAKING A COPY OF THE KEY ON DU 
* PLICATOR MACHINE_54233020 
* FROM CLIP NAME:  T_QEVL1HEIS450.NEW.01 
* REEL: POND5_54233020
263  EVL1_HEI V     C        00:06:06:13 00:06:06:13 01:04:46:03 01:04:46:03 
263  GFX_HEIS V     W001 004 00:00:00:00 00:00:00:04 01:04:46:03 01:04:46:08 
M2   EVL1_HEI       031.3                00:06:06:13 
* POND5_T_QEVL1HEIS450_HEISTS_LUFTHANSA HEIST_HANDS MAKING A COPY OF THE KEY ON DU 
* PLICATOR MACHINE_54233020 
* FROM CLIP NAME:  T_QEVL1HEIS450.NEW.01 
* TO CLIP NAME:  GFX_HEIS09_GND_02_V01.MOV 
* REEL: POND5_54233020
264  GFX_HEIS V     C        00:00:00:04 00:00:02:12 01:04:46:08 01:04:48:18 
* FROM CLIP NAME:  GFX_HEIS09_GND_02_V01.MOV
265  EVL1_HEI V     C        00:06:29:06 00:06:31:03 01:04:48:18 01:04:50:13 
M2   EVL1_HEI       031.3                00:06:29:06 
* POND5_T_QEVL1HEIS670_HEISTS_LUFTHANSA HEIST_DUMBO - NEW YORK - BROOKLYN BRIDGE, 
* MANHATTAN BRIDGE_11463400 
* FROM CLIP NAME:  T_QEVL1HEIS670.NEW.01 
* REEL: POND5_11463400
266  QEVL1HEI V     C        00:00:39:19 00:00:41:12 01:04:50:13 01:04:52:06 
* GETTY IMAGES__QEVL1HEIS231_HEISTS_DINNER SET GANG_SNOWY STREET IN LONG ISLAND, N 
* EW YORK, TRUCK ONLY CAR ON ROAD_98950716 
* FROM CLIP NAME:  QEVL1HEIS231.NEW.01 
* REEL: GETTY IMAGES_98950716
267  EVL1_HEI V     C        00:00:37:24 00:00:40:12 01:04:52:06 01:04:54:25 
* GETTY IMAGES__QEVL1HEIS229_HEISTS_DINNER SET GANG_SNOWY STREET IN LONG ISLAND, N 
* EW YORK, WINTER_98950648 
* FROM CLIP NAME:  QEVL1HEIS229.NEW.01 
* REEL: GETTY IMAGES_98950648
268  EVL1_HEI V     C        00:05:55:15 00:05:58:22 01:04:54:25 01:04:58:01 
M2   EVL1_HEI       031.3                00:05:55:15 
* FRAMEPOOL_T_QEVL1HEIS322_HEISTS_SISI JEWEL HEIST_VIENNA, AUSTRIA AIRPLANE TAKING 
*  OFF IN SNOW, WINTER_934-250-546 
* FROM CLIP NAME:  T_QEVL1HEIS322.NEW.01 
* REEL: FRAMEPOOL_934-250-546
269  EVL10527 V     C        17:23:38:16 17:23:42:03 01:04:58:01 01:05:00:25 
* FROM CLIP NAME:  EVL1052716A04_IP_ACAM0474.NEW.01
270  EVL1_HEI V     C        00:15:57:20 00:16:00:07 01:05:00:25 01:05:03:11 
M2   EVL1_HEI       037.5                00:15:57:20 
* GETTY_T_QEVL1HEIS1096_HEISTS_LUFTHANSA HEIST_1970 CLOSE UP PAN MAN'S HAND PICKIN 
* G UP TELEPHONE RECEIVER_405-190 
* FROM CLIP NAME:  T_QEVL1HEIS1096.NEW.01 
* REEL: GETTY_405-190
271  SEVL1HEI V     C        01:00:04:07 01:00:07:18 01:05:03:11 01:05:06:25 
* GETTY IMAGES__SEVL1HEIS059_HEISTS_LUFTHANSA HEIST_JIMMY THE GENT BURKE BY DOORWA 
* Y OF SOUTH SIDE INN_97279721_HTTP://WWW.GETTYIMAGES.COM/LICENSE/97279721 
* FROM CLIP NAME:  SEVL1HEIS059.TIFF.NEW.01 
* REEL: 97279721
272  MORTICE_ V     C        01:02:20:01 01:02:23:12 01:05:03:11 01:05:06:25 
* FROM CLIP NAME:  MORTICE_V03 WITH ALPHA_V03.TIF
273  EVL10615 V     C        18:13:49:18 18:13:55:11 01:05:06:25 01:05:12:16 
* FROM CLIP NAME:  EVL1061516A05_275_0261.NEW.01.COPY.01
274  T_QEVL1H V     C        00:02:54:23 00:02:55:11 01:05:10:29 01:05:11:11 
* POND 5 _T_QEVL1HEIS390_HEISTS_LUFTHANSA HEIST_ANSWERING PHONE_25039655 
* FROM CLIP NAME:  T_QEVL1HEIS390.NEW.01 
* REEL: POND 5 _25039655
275  EVL10510 V     C        10:36:21:20 10:36:30:02 01:05:11:11 01:05:19:19 
* FROM CLIP NAME:  EVL1051016B01_E0360.NEW.01
276  EVL10525 V     C        11:02:23:16 11:02:29:08 01:05:12:16 01:05:18:06 
* FROM CLIP NAME:  EVL1052516A02_E020C002_160525Y3.NEW.01.SUB.01
277  EVL10525 V     C        11:02:29:08 11:02:30:18 01:05:18:06 01:05:19:19 
* FROM CLIP NAME:  EVL1052516B02_B0050.COPY.01.NEW.01.SUB.01
FCM: DROP FRAME
278  EVL1_HEI V     C        00:00:27:15 00:00:29:24 01:05:19:19 01:05:21:28 
M2   EVL1_HEI       037.5                00:00:27:15 
* AETN__QEVL1HEIS082_HEISTS_LUFTHANSA HEIST_2 GUYS MAKE DEAL IN RESTAURANT OVER ME 
* AL; CIGARETTE; PAY PHONE_106549_MOBSTERS_JIMMYTHEGENTBURKE_29 
* FROM CLIP NAME:  QEVL1HEIS082.NEW.01 
* REEL: AETN_106549_MOBSTERS_JIMMYTHEGE
FCM: NON-DROP FRAME
279  EVL10512 V     C        13:44:09:06 13:44:12:19 01:05:21:28 01:05:25:14 
* FROM CLIP NAME:  EVL1051216A02_IP_0225.NEW.01.SUB.01
280  EVL10512 V     C        13:14:00:19 13:14:04:00 01:05:25:14 01:05:28:20 
* FROM CLIP NAME:  EVL1051216B02_E0377.NEW.01.SUB.01
281  T_QEVL1A V     C        00:02:16:02 00:02:19:12 01:05:28:20 01:05:31:29 
M2   T_QEVL1A       037.5                00:02:16:02 
* POND5_T_QEVL1ARCH150_ARCHITECTS_ROBERT MOSES_TIMELAPSE OF THE FULL MOON RISING O 
* VER THE EAST RIVER AND THE TRIBOROUGH BRIDGE IN NEW YORK CITY_575006 
* FROM CLIP NAME:  T_QEVL1ARCH150.NEW.01
282  EVL1_HEI V     C        00:12:43:00 00:12:48:24 01:05:31:29 01:05:37:23 
M2   EVL1_HEI       037.5                00:12:43:00 
* POND5_T_QEVL1HEIS678_HEISTS_LUFTHANSA HEIST_VAN-ARRIVING-STORAGE-UNIT-NEAR-BROOK 
* LYN-BRIDGE-NIGHT_11350595 
* FROM CLIP NAME:  T_QEVL1HEIS678.NEW.01 
* REEL: POND5_11350595
283  GFX_HEIS V     C        00:00:01:07 00:00:01:19 01:05:34:16 01:05:35:01 
* FROM CLIP NAME:  GFX_HEIS01_V01.MOV
284  UNTITLED V     C        01:00:24:01 01:00:30:07 01:05:35:01 01:05:41:08 
* FROM CLIP NAME:  UNTITLED
285  GFX_HEIS V     C        00:00:01:19 00:00:08:00 01:05:35:01 01:05:41:08 
* FROM CLIP NAME:  GFX_HEIS01_V01.MOV
FCM: DROP FRAME
286  EVL1_HEI V     C        00:01:12:00 00:01:13:13 01:05:41:06 01:05:42:19 
M2   EVL1_HEI       037.5                00:01:12:00 
* AETN__QEVL1HEIS257_HEISTS_LUFTHANSA HEIST_VAN WYCK EXPRESSWAY-JFK AIRPORT SIGN - 
* - LUFTHANSA CARGO BUILDING_106549_MOBSTERS_JIMMYTHEGENTBURKE_01 
* FROM CLIP NAME:  QEVL1HEIS257.NEW.01 
* REEL: AETN_106549_MOBSTERS_JIMMYTHEGE
287  EVL1_HEI V     C        00:00:12:17 00:00:14:15 01:05:42:19 01:05:44:16 
M2   EVL1_HEI       037.5                00:00:12:17 
* AETN__QEVL1HEIS060_HEISTS_LUFTHANSA HEIST_MAN BEATING MAN UP; MAN WALKS TOWARD C 
* AMERA THREATENINGLY_106549_MOBSTERS_JIMMYTHEGENTBURKE_07 
* FROM CLIP NAME:  QEVL1HEIS060.NEW.01 
* REEL: AETN_106549_MOBSTERS_JIMMYTHEGE
288  EVL1_HEI V     C        00:00:15:12 00:00:17:00 01:05:44:16 01:05:46:04 
M2   EVL1_HEI       037.5                00:00:15:12 
* AETN__QEVL1HEIS060_HEISTS_LUFTHANSA HEIST_MAN BEATING MAN UP; MAN WALKS TOWARD C 
* AMERA THREATENINGLY_106549_MOBSTERS_JIMMYTHEGENTBURKE_07 
* FROM CLIP NAME:  QEVL1HEIS060.NEW.01 
* REEL: AETN_106549_MOBSTERS_JIMMYTHEGE
FCM: NON-DROP FRAME
289  QEVL1HEI V     C        00:01:02:20 00:01:06:12 01:05:46:04 01:05:49:03 
* GETTY IMAGES__QEVL1HEIS441_HEISTS_LUFTHANSA HEIST_PUNCHING IN NUMBERS ON DIGITAL 
*  SAFE VAULT, UNLOCK _MR_00095458 
* FROM CLIP NAME:  QEVL1HEIS441.NEW.01 
* REEL: GETTY IMAGES_MR_00095458
290  EVL16101 V     C        17:00:33:04 17:00:36:07 01:05:49:03 01:05:52:06 
* FROM CLIP NAME:  EVL161016A05_275_0190.COPY.01.NEW.01
FCM: DROP FRAME
291  EVL1_HEI V     C        00:00:56:12 00:00:58:28 01:05:52:06 01:05:54:21 
M2   EVL1_HEI       037.5                00:00:56:12 
* AETN__QEVL1HEIS198_HEISTS_LUFTHANSA HEIST_ROBBER WITH MASK HOLDING MONEY, RECRE 
* OF ROBBERY WITH PEOPLE LAYING ON FLOOR GUN POINTED AT THEM_70462_GANGLAND_ARMYOF 
* HATE_010223 
* FROM CLIP NAME:  QEVL1HEIS198.NEW.01 
* REEL: AETN_70462_GANGLAND_ARMYOFHATE_
FCM: NON-DROP FRAME
292  EVL10509 V     C        12:24:16:23 12:24:21:14 01:05:54:21 01:05:59:10 
* FROM CLIP NAME:  EVL1050916A02_IP_0161.NEW.01.SUB.01
293  EVL10615 V     C        17:40:50:04 17:40:52:23 01:05:59:10 01:06:02:04 
* FROM CLIP NAME:  EVL1061516A05_275_0247.NEW.01.COPY.01
294  T_QEVL1H V     C        00:28:37:13 00:28:39:29 01:06:02:04 01:06:04:19 
M2   T_QEVL1H       037.5                00:28:37:13 
* NBC NEWS_T_QEVL1HEIS494_HEISTS_LUFTHANSA HEIST_NEWS ON LUFTHANSA ROBBERY, COPS P 
* RESS CONFERENCE, LOUIS WERNER ARREST, CARGO BUILDING INTERIOR EXTERIOR, AERIAL, 
* EXAMINE BROKEN FENCE, EMPLOYEE B-ROLL_MN16F8078-001_WO1.MOV 
* FROM CLIP NAME:  T_QEVL1HEIS494.NEW.01 
* REEL: NBC NEWS_MN16F8078-001_WO1.MOV
295  T_QEVL1H V     C        00:28:04:11 00:28:08:27 01:06:04:19 01:06:09:04 
M2   T_QEVL1H       037.5                00:28:04:11 
* NBC NEWS_T_QEVL1HEIS494_HEISTS_LUFTHANSA HEIST_NEWS ON LUFTHANSA ROBBERY, COPS P 
* RESS CONFERENCE, LOUIS WERNER ARREST, CARGO BUILDING INTERIOR EXTERIOR, AERIAL, 
* EXAMINE BROKEN FENCE, EMPLOYEE B-ROLL_MN16F8078-001_WO1.MOV 
* FROM CLIP NAME:  T_QEVL1HEIS494.NEW.01 
* REEL: NBC NEWS_MN16F8078-001_WO1.MOV
296  T_QEVL1H V     C        00:30:43:06 00:30:45:29 01:06:09:04 01:06:11:26 
M2   T_QEVL1H       037.5                00:30:43:06 
* NBC NEWS_T_QEVL1HEIS494_HEISTS_LUFTHANSA HEIST_NEWS ON LUFTHANSA ROBBERY, COPS P 
* RESS CONFERENCE, LOUIS WERNER ARREST, CARGO BUILDING INTERIOR EXTERIOR, AERIAL, 
* EXAMINE BROKEN FENCE, EMPLOYEE B-ROLL_MN16F8078-001_WO1.MOV 
* FROM CLIP NAME:  T_QEVL1HEIS494.NEW.01 
* REEL: NBC NEWS_MN16F8078-001_WO1.MOV
298  UNTITLED V     C        01:00:27:19 01:00:33:15 01:06:11:26 01:06:17:23 
* FROM CLIP NAME:  UNTITLED.06
297  EVL_TITL V     C        01:01:54:23 01:02:00:20 01:06:11:26 01:06:17:23 
* FROM CLIP NAME:  EVL_TITLE_FRAME_05.TIF
299  GFX_HEIS V     C        00:00:05:21 00:00:10:00 01:06:17:23 01:06:21:26 
* FROM CLIP NAME:  GFX_HEIS15_GND_03_V01.MOV
300  T_QEVL1H V     C        00:10:41:05 00:10:45:00 01:06:21:26 01:06:25:21 
M2   T_QEVL1H       037.5                00:10:41:05 
* POND 5_T_QEVL1HEIS333_HEISTS_LUFTHANSA HEIST_THIEF GOES THRU FILING CABINET PAPE 
* RS_47762153 
* FROM CLIP NAME:  T_QEVL1HEIS333.NEW.01 
* REEL: POND 5_47762153
FCM: DROP FRAME
301  EVL1_HEI V     C        00:00:23:00 00:00:31:19 01:06:25:21 01:06:34:10 
M2   EVL1_HEI       037.5                00:00:23:00 
* AETN__QEVL1HEIS078_HEISTS_LUFTHANSA HEIST_ROBBER POINTS GUN; CU OF HANDS TIED BE 
* HIND BACK; MAN REACTS TO GUN POINTED AT HIM; BOXES_106549_MOBSTERS_JIMMYTHEGENTB 
* URKE_25 
* FROM CLIP NAME:  QEVL1HEIS078.NEW.01 
* REEL: AETN_106549_MOBSTERS_JIMMYTHEGE
FCM: NON-DROP FRAME
302  EVL10516 V     C        10:00:52:02 10:00:57:01 01:06:34:10 01:06:39:09 
* FROM CLIP NAME:  EVL1051716A01_IP_0258.NEW.01.SUB.01
303  EVL10516 V     C        10:00:57:01 10:00:57:09 01:06:39:09 01:06:39:19 
* FROM CLIP NAME:  EVL1051716A01_IP_0258.NEW.01.SUB.01
304  EVL1_HEI V     C        00:10:40:01 00:10:44:10 01:06:39:19 01:06:43:28 
M2   EVL1_HEI       037.5                00:10:40:01 
* POND 5_T_QEVL1HEIS334_HEISTS_LUFTHANSA HEIST_GLOVED HANDS WITH GUN AND FLASHLIGH 
* T AIMING_45435029 
* FROM CLIP NAME:  T_QEVL1HEIS334.NEW.01 
* REEL: POND 5_45435029
305  EVL10517 V     C        09:30:29:21 09:30:32:02 01:06:43:28 01:06:46:04 
* FROM CLIP NAME:  EVL1051716B01_LL0241_1.NEW.01.SUB.01
306  EVL1_HEI V     C        00:00:56:11 00:00:58:04 01:06:46:04 01:06:47:15 
* GETTY IMAGES__QEVL1HEIS353_HEISTS_LUFTHANSA HEIST_POV ROBBER HOLDING GUN TO FACE 
* , FOCUS FROM FACE TO GUN_145725619 
* FROM CLIP NAME:  QEVL1HEIS353.NEW.01 
* REEL: GETTY IMAGES_145725619
FCM: DROP FRAME
307  EVL1_HEI V     C        00:00:11:20 00:00:13:27 01:06:47:15 01:06:49:21 
M2   EVL1_HEI       037.5                00:00:11:20 
* AETN__QEVL1HEIS063_HEISTS_LUFTHANSA HEIST_SHIPPING TRUCK DRIVES UP /  MEN WITH G 
* UNS LOOKS THREATENING_106549_MOBSTERS_JIMMYTHEGENTBURKE_10 
* FROM CLIP NAME:  QEVL1HEIS063.NEW.01 
* REEL: AETN_106549_MOBSTERS_JIMMYTHEGE
308  EVL1_HEI V     C        00:00:15:00 00:00:16:03 01:06:49:21 01:06:50:24 
M2   EVL1_HEI       037.5                00:00:15:00 
* AETN__QEVL1HEIS063_HEISTS_LUFTHANSA HEIST_SHIPPING TRUCK DRIVES UP /  MEN WITH G 
* UNS LOOKS THREATENING_106549_MOBSTERS_JIMMYTHEGENTBURKE_10 
* FROM CLIP NAME:  QEVL1HEIS063.NEW.01 
* REEL: AETN_106549_MOBSTERS_JIMMYTHEGE
FCM: NON-DROP FRAME
309  EVL10519 V     C        14:29:58:04 14:30:00:20 01:06:50:24 01:06:53:14 
* FROM CLIP NAME:  EVL1051916B02_275_0042.NEW.01
310  EVL10615 V     C        18:02:44:21 18:02:46:08 01:06:53:14 01:06:54:28 
* FROM CLIP NAME:  EVL1061516A05_275_0254.NEW.01.COPY.01
311  EVL10615 V     C        18:02:49:23 18:02:51:14 01:06:54:28 01:06:56:16 
* FROM CLIP NAME:  EVL1061516A05_275_0254.NEW.01.COPY.01
312  EVL10509 V     C        12:27:54:11 12:27:56:22 01:06:56:16 01:06:59:00 
* FROM CLIP NAME:  EVL1050916A02_IP_0161.NEW.01.SUB.01
313  T_QEVL1H V     C        00:00:00:18 00:00:02:14 01:06:59:00 01:07:00:26 
* POND5_T_QEVL1HEIS1377_HEISTS_DINNER SET GANG_PUSH BUTTON TELEPHONE CALL 911_6205 
* 6185 
* FROM CLIP NAME:  T_QEVL1HEIS1377.NEW.01 
* REEL: POND5_62056185
314  T_QEVL1H V     C        00:00:02:04 00:00:06:22 01:07:00:26 01:07:05:16 
M2   T_QEVL1H       031.3                00:00:02:04 
* POND5_T_QEVL1HEIS1441_HEISTS_LUFTHANSA HEIST_MAN WITH SUITCASE WALKING ALONG THE 
*  CORRIDOR 03_54781933 
* FROM CLIP NAME:  T_QEVL1HEIS1441.NEW.01 
* REEL: POND5_54781933
315  QEVL1HEI V     C        00:00:50:05 00:00:53:15 01:07:05:16 01:07:08:09 
* GETTY IMAGES__QEVL1HEIS347_HEISTS_LUFTHANSA HEIST_CU BLACK GLOVED HAND FIRING A 
* GUN TOWARDS THE GROUND_MR_00082288 
* FROM CLIP NAME:  QEVL1HEIS347.NEW.01 
* REEL: POND5_58831232
316  EVL10519 V     C        15:01:34:16 15:01:37:15 01:07:08:09 01:07:11:08 
* FROM CLIP NAME:  EVL1051916B02_275_0047.NEW.01
317  EVL10519 V     C        14:54:10:11 14:54:12:01 01:07:11:08 01:07:12:25 
* FROM CLIP NAME:  EVL1051916A02_IP_0284.NEW.01
318  EVL10519 V     C        15:26:05:01 15:26:06:10 01:07:12:25 01:07:14:06 
* FROM CLIP NAME:  EVL1051916A02_IP_0296.NEW.01
319     AX    V     C        01:00:00:00 01:00:00:15 01:07:13:18 01:07:14:06
FCM: DROP FRAME
320  LWR_3RD_ V     C        01:00:01:06 01:00:01:25 01:07:14:06 01:07:14:25 
* FROM CLIP NAME:  LWR 3RD SAMPLE.21 
* TO CLIP NAME:  LWR 3RD SAMPLE.21
FCM: NON-DROP FRAME
323  EVL10509 V     C        09:57:36:03 09:57:39:03 01:07:14:06 01:07:17:06 
* FROM CLIP NAME:  EVL1050916B01_E0344.NEW.01.SUB.01
FCM: DROP FRAME
321  LWR_3RD_ V     C        01:00:01:06 01:00:04:06 01:07:14:06 01:07:17:06 
* FROM CLIP NAME:  LWR 3RD SAMPLE.22
FCM: NON-DROP FRAME
322  EVIL_GEN V     C        00:00:01:05 00:00:04:05 01:07:14:06 01:07:17:06 
* FROM CLIP NAME:  EVIL GENIUS L3 LINES_V02 UNMATTED.MOV
FCM: DROP FRAME
324  LWR_3RD_ V     C        01:00:01:25 01:00:04:06 01:07:14:25 01:07:17:06 
* FROM CLIP NAME:  LWR 3RD SAMPLE.21
FCM: NON-DROP FRAME
325  EVL10519 V     C        15:02:05:18 15:02:07:19 01:07:17:06 01:07:19:08 
* FROM CLIP NAME:  EVL1051916B02_275_0047.NEW.01
326  EVL10519 V     C        15:01:47:14 15:01:48:20 01:07:19:08 01:07:20:15 
* FROM CLIP NAME:  EVL1051916B02_275_0047.NEW.01
327  EVL10519 V     C        15:17:54:05 15:17:56:01 01:07:20:15 01:07:22:10 
* FROM CLIP NAME:  EVL1051916A02_IP_0291.NEW.01
328  EVL10519 V     C        15:27:38:22 15:27:40:06 01:07:22:10 01:07:23:20 
* FROM CLIP NAME:  EVL1051916A02_IP_0297.NEW.01
329  EVL10519 V     C        15:28:21:09 15:28:22:09 01:07:23:20 01:07:24:20 
* FROM CLIP NAME:  EVL1051916A02_IP_0298.NEW.01
330  EVL10519 V     C        15:24:20:03 15:24:20:18 01:07:24:20 01:07:25:09 
* FROM CLIP NAME:  EVL1051916A02_IP_0295.NEW.01
331  EVL10519 V     C        15:24:22:09 15:24:23:14 01:07:25:09 01:07:26:15 
* FROM CLIP NAME:  EVL1051916A02_IP_0295.NEW.01
FCM: DROP FRAME
332  EVL1_HEI V     C        00:00:02:11 00:00:04:08 01:07:26:15 01:07:28:11 
M2   EVL1_HEI       037.5                00:00:02:11 
* AETN__QEVL1HEIS055_HEISTS_LUFTHANSA HEIST_MAN BEING HELD UP WITH GUN / GATES RAI 
* SE TO SHOW BOXES_106549_MOBSTERS_JIMMYTHEGENTBURKE_02 
* FROM CLIP NAME:  QEVL1HEIS055.NEW.01 
* REEL: AETN_106549_MOBSTERS_JIMMYTHEGE
333  EVL1_HEI V     C        00:00:37:07 00:00:39:28 01:07:28:11 01:07:31:01 
M2   EVL1_HEI       037.5                00:00:37:07 
* AETN__QEVL1HEIS078_HEISTS_LUFTHANSA HEIST_ROBBER POINTS GUN; CU OF HANDS TIED BE 
* HIND BACK; MAN REACTS TO GUN POINTED AT HIM; BOXES_106549_MOBSTERS_JIMMYTHEGENTB 
* URKE_25 
* FROM CLIP NAME:  QEVL1HEIS078.NEW.01 
* REEL: AETN_106549_MOBSTERS_JIMMYTHEGE
334  EVL1_HEI V     C        00:00:39:27 00:00:40:00 01:07:31:01 01:07:31:04 
M2   EVL1_HEI       037.5                00:00:39:27 
* AETN__QEVL1HEIS078_HEISTS_LUFTHANSA HEIST_ROBBER POINTS GUN; CU OF HANDS TIED BE 
* HIND BACK; MAN REACTS TO GUN POINTED AT HIM; BOXES_106549_MOBSTERS_JIMMYTHEGENTB 
* URKE_25 
* FROM CLIP NAME:  QEVL1HEIS078.NEW.01 
* REEL: AETN_106549_MOBSTERS_JIMMYTHEGE
FCM: NON-DROP FRAME
335  T_QEVL1H V     C        00:05:33:03 00:05:36:22 01:07:31:04 01:07:34:26 
M2   T_QEVL1H       031.3                00:05:33:03 
* POND5_T_QEVL1HEIS273_HEISTS_LUFTHANSA HEIST_WAREHOUSE BOXES PILED HIGH_21813472 
* FROM CLIP NAME:  T_QEVL1HEIS273.NEW.01 
* REEL: POND5_21813472
336  EVL10509 V     C        12:29:25:00 12:29:26:16 01:07:34:26 01:07:36:16 
* FROM CLIP NAME:  EVL1050916A02_IP_0161.NEW.01.SUB.01
337  EVL10527 V     C        17:22:44:10 17:22:46:02 01:07:36:16 01:07:37:26 
* FROM CLIP NAME:  EVL1052716A04_IP_ACAM0474.NEW.01
338  EVL10527 V     C        17:22:46:02 17:22:47:02 01:07:37:26 01:07:38:20 
* FROM CLIP NAME:  EVL1052716A04_IP_ACAM0474.NEW.01
339  EVL10527 V     C        17:15:03:08 17:15:05:10 01:07:38:20 01:07:40:10 
* FROM CLIP NAME:  EVL1052716A04_IP_ACAM0473.NEW.01
FCM: DROP FRAME
340  EVL1_HEI V     C        00:00:26:20 00:00:28:23 01:07:40:10 01:07:42:13 
M2   EVL1_HEI       037.5                00:00:26:20 
* AETN__QEVL1HEIS079_HEISTS_LUFTHANSA HEIST_âFREIGHT ONLYâ SIGN; MEN PASSING SHIPP 
* ING BOXES TO EACH OTHER_106549_MOBSTERS_JIMMYTHEGENTBURKE_26 
* FROM CLIP NAME:  QEVL1HEIS079.NEW.01 
* REEL: AETN_106549_MOBSTERS_JIMMYTHEGE
341  EVL1_HEI V     C        00:00:31:15 00:00:33:28 01:07:42:13 01:07:44:25 
M2   EVL1_HEI       037.5                00:00:31:15 
* AETN__QEVL1HEIS079_HEISTS_LUFTHANSA HEIST_âFREIGHT ONLYâ SIGN; MEN PASSING SHIPP 
* ING BOXES TO EACH OTHER_106549_MOBSTERS_JIMMYTHEGENTBURKE_26 
* FROM CLIP NAME:  QEVL1HEIS079.NEW.01 
* REEL: AETN_106549_MOBSTERS_JIMMYTHEGE
342  EVL1_HEI V     C        00:00:31:12 00:00:33:15 01:07:44:25 01:07:46:28 
M2   EVL1_HEI       037.5                00:00:31:12 
* AETN__QEVL1HEIS081_HEISTS_LUFTHANSA HEIST_MEN TAKE STACK OF SHIPPING BOXES_10654 
* 9_MOBSTERS_JIMMYTHEGENTBURKE_28 
* FROM CLIP NAME:  QEVL1HEIS081.NEW.01 
* REEL: AETN_106549_MOBSTERS_JIMMYTHEGE
343  EVL1_HEI V     C        00:00:04:08 00:00:07:13 01:07:46:28 01:07:50:01 
M2   EVL1_HEI       037.5                00:00:04:08 
* AETN__QEVL1HEIS057_HEISTS_LUFTHANSA HEIST_BOXES BEING LOADED INTO VAN_106549_MOB 
* STERS_JIMMYTHEGENTBURKE_04 
* FROM CLIP NAME:  QEVL1HEIS057.NEW.01 
* REEL: AETN_106549_MOBSTERS_JIMMYTHEGE
FCM: NON-DROP FRAME
344  EVL16101 V     C        17:02:32:22 17:02:34:09 01:07:50:01 01:07:51:15 
* FROM CLIP NAME:  EVL161016A05_275_0191.COPY.01.NEW.01
345  EVL16101 V     C        17:02:33:17 17:02:33:22 01:07:51:15 01:07:51:21 
* FROM CLIP NAME:  EVL161016A05_275_0191.COPY.01.NEW.01
346  EVL16101 V     C        17:02:33:22 17:02:34:20 01:07:51:21 01:07:52:19 
* FROM CLIP NAME:  EVL161016A05_275_0191.COPY.01.NEW.01
FCM: DROP FRAME
347  EVL1_HEI V     C        00:00:05:11 00:00:07:17 01:07:52:19 01:07:54:24 
M2   EVL1_HEI       037.5                00:00:05:11 
* AETN__QEVL1HEIS058_HEISTS_LUFTHANSA HEIST_POV SHOT AS CAR DRIVES THRU NY / LUFTH 
* ANSA BUILDING_106549_MOBSTERS_JIMMYTHEGENTBURKE_05 
* FROM CLIP NAME:  QEVL1HEIS058.NEW.01 
* REEL: AETN_106549_MOBSTERS_JIMMYTHEGE
FCM: NON-DROP FRAME
348  EVL1_HEI V     C        00:01:01:06 00:01:03:15 01:07:54:24 01:07:56:21 
* GETTY IMAGES__QEVL1HEIS395_HEISTS_LUFTHANSA HEIST_CU REAR TIRES OF LARGE TRUCK S 
* PINNING AND MOVING AWAY_99032188 
* FROM CLIP NAME:  QEVL1HEIS395.NEW.01 
* REEL: GETTY IMAGES_99032188
FCM: DROP FRAME
349  EVL1_HEI V     C        00:00:07:16 00:00:09:27 01:07:56:21 01:07:59:01 
M2   EVL1_HEI       037.5                00:00:07:16 
* AETN__QEVL1HEIS058_HEISTS_LUFTHANSA HEIST_POV SHOT AS CAR DRIVES THRU NY / LUFTH 
* ANSA BUILDING_106549_MOBSTERS_JIMMYTHEGENTBURKE_05 
* FROM CLIP NAME:  QEVL1HEIS058.NEW.01 
* REEL: AETN_106549_MOBSTERS_JIMMYTHEGE
FCM: NON-DROP FRAME
350  EVL1_HEI V     C        00:03:23:10 00:03:25:05 01:07:59:01 01:08:00:26 
* POND5_T_QEVL1HEIS664_HEISTS_LUFTHANSA HEIST_NEW-YORK-CITY-NIGHT-DRIVE-TIME-LAPSE 
* -BROOKLYN-MANHATTAN-NJ_33007377 
* FROM CLIP NAME:  T_QEVL1HEIS664.NEW.01 
* REEL: POND5_33007377
351  SEVL1HEI V     C        01:00:02:05 01:00:07:00 01:08:00:26 01:08:05:21 
* JUSTICE DEPT__SEVL1HEIS930_HEISTS_LUFTHANSA HEIST_GASPARE VALENTI__ 
* FROM CLIP NAME:  SEVL1HEIS930.JPG 
* REEL: JUSTICE DEPT_
FCM: DROP FRAME
352  EVL1_GRN V     C        02:02:33:12 02:02:35:21 01:08:05:21 01:08:08:00 
M2   EVL1_GRN       037.5                02:02:33:12 
* AETN__QEVL1GRND044_UNDERGROUND_EL CHAPO TUNNELS_EL CHAPO NEWS REPORT, FINDING MO 
* NEY_76238_COCAINEHISTORYBETWEENTHELINES_63 
* FROM CLIP NAME:  QEVL1GRND044.NEW.01
FCM: NON-DROP FRAME
353  EVL1_HEI V     C        00:08:54:26 00:08:56:22 01:08:08:00 01:08:09:25 
M2   EVL1_HEI       037.5                00:08:54:26 
* GETTY IMAGES__QEVL1HEIS474_HEISTS_LUFTHANSA HEIST_CU BANK MONEY COUNTING MACHINE 
* _456467358 
* FROM CLIP NAME:  QEVL1HEIS474.NEW.01 
* REEL: GETTY IMAGES_456467358
354  EVL1_HEI V     C        00:11:10:15 00:11:12:08 01:08:09:25 01:08:11:18 
M2   EVL1_HEI       037.5                00:11:10:15 
* POND5_T_QEVL1HEIS477_HEISTS_LUFTHANSA HEIST_SOMEONE GOING THROUGH A STACK OF 100 
* $ BILLS, LOW LIGHT CU_1091733 
* FROM CLIP NAME:  T_QEVL1HEIS477.NEW.01 
* REEL: POND5_1091733
FCM: DROP FRAME
355  QEVL1HEI V     C        00:01:38:00 00:01:40:08 01:08:11:18 01:08:13:25 
M2   QEVL1HEI       037.5                00:01:38:00 
* GETTY IMAGES__QEVL1HEIS467_HEISTS_LUFTHANSA HEIST_WORKER STRAIGHTENING OUT STACK 
* S OF ONE DOLLAR BILLS BEFORE PLACING ON CONVEYOR BELT_125128678 
* FROM CLIP NAME:  QEVL1HEIS467.NEW.01 
* REEL: GETTY IMAGES_125128678
FCM: NON-DROP FRAME
356  EVL1_HEI V     C        00:00:22:10 00:00:24:01 01:08:13:25 01:08:15:05 
* AETN__QEVL1HEIS178_HEISTS_DINNER SET GANG_MONTAGE OF JEWELRY, DIAMOND RINGS AND 
* EARRINGS_28309_BLOODDIAMONDS_1080P_010027 
* FROM CLIP NAME:  QEVL1HEIS178.NEW.01 
* REEL: AETN_28309_BLOODDIAMONDS_1080P_
357  SEVL1HEI V     C        01:00:03:12 01:00:09:19 01:08:14:09 01:08:20:18 
* GETTY IMAGES__SEVL1HEIS053_HEISTS_LUFTHANSA HEIST_HEADLINE âINSIDE JOB SEEN IN $ 
* 5M JFK HEISTâ (NY DAILY NEWS)_452900918_HTTP://WWW.GETTYIMAGES.COM/LICENSE/45290 
* 0918 
* FROM CLIP NAME:  SEVL1HEIS053.TIFF.NEW.01 
* REEL: 452900918
358  EVL1_HEI V     C        00:00:16:00 00:00:16:08 01:08:15:05 01:08:15:14 
* AETN__QEVL1HEIS178_HEISTS_DINNER SET GANG_MONTAGE OF JEWELRY, DIAMOND RINGS AND 
* EARRINGS_28309_BLOODDIAMONDS_1080P_010027 
* FROM CLIP NAME:  QEVL1HEIS178.NEW.01 
* REEL: AETN_28309_BLOODDIAMONDS_1080P_
359  EVL1_HEI V     C        00:00:19:05 00:00:19:23 01:08:15:14 01:08:16:01 
* AETN__QEVL1HEIS178_HEISTS_DINNER SET GANG_MONTAGE OF JEWELRY, DIAMOND RINGS AND 
* EARRINGS_28309_BLOODDIAMONDS_1080P_010027 
* FROM CLIP NAME:  QEVL1HEIS178.NEW.01 
* REEL: AETN_28309_BLOODDIAMONDS_1080P_
360  EVL10602 V     C        11:20:22:01 11:20:24:00 01:08:16:01 01:08:18:00 
* FROM CLIP NAME:  EVL1060216A02_211_0040.NEW.01
361  EVL10602 V     C        11:28:18:16 11:28:21:06 01:08:18:00 01:08:20:18 
* FROM CLIP NAME:  EVL1060216A02_211_0041.NEW.01
362  EVL10610 V     C        11:58:11:04 11:58:13:18 01:08:20:18 01:08:23:05 
* FROM CLIP NAME:  EVL1061016A02_275_0177.NEW.01.SUB.01
363  T_QEVL1H V     C        00:12:51:00 00:12:53:20 01:08:23:05 01:08:25:25 
M2   T_QEVL1H       037.5                00:12:51:00 
* GETTY_T_QEVL1HEIS701_HEISTS_LUFTHANSA HEIST_CLOSE UP OF ONE HUNDRED DOLLAR BILLS 
*  BEING COUNTED IN MACHINE_65-83 
* FROM CLIP NAME:  T_QEVL1HEIS701.NEW.01 
* REEL: POND5_
364  EVL1_HEI V     C        00:11:10:15 00:11:11:12 01:08:25:25 01:08:26:21 
M2   EVL1_HEI       037.5                00:11:10:15 
* POND5_T_QEVL1HEIS479_HEISTS_LUFTHANSA HEIST_SOMEONE FANNING A STACK OF 100$ BILL 
* S, LOW LIGHT CU_1091714 
* FROM CLIP NAME:  T_QEVL1HEIS479.NEW.01 
* REEL: POND5_1091714
365  SEVL1HEI V     C        01:00:01:23 01:00:06:22 01:08:26:21 01:08:31:20 
* GETTY IMAGES__SEVL1HEIS047_HEISTS_LUFTHANSA HEIST_NY DAILY NEWS HEADLINE: âJFK R 
* OBBERS GET 5Mâ (DEC 12, 1978)_452900910_HTTP://WWW.GETTYIMAGES.COM/LICENSE/45290 
* 0910 
* FROM CLIP NAME:  SEVL1HEIS047.TIFF.NEW.01.COPY.01
366  EVL1_HEI V     C        00:01:01:07 00:01:09:00 01:08:26:21 01:08:32:26 
* GETTY IMAGES__QEVL1HEIS395_HEISTS_LUFTHANSA HEIST_CU REAR TIRES OF LARGE TRUCK S 
* PINNING AND MOVING AWAY_99032188 
* FROM CLIP NAME:  QEVL1HEIS395.NEW.01 
* REEL: GETTY IMAGES_99032188
367  EVL1_HEI V     C        00:14:53:22 00:14:58:07 01:08:31:20 01:08:36:04 
M2   EVL1_HEI       037.5                00:14:53:22 
* POND5_T_QEVL1HEIS978_HEISTS_DINNER SET GANG_CLOSE UP OF MAN COUNTING MONEY, HUND 
* RED DOLLAR BILLS_61169578 
* FROM CLIP NAME:  T_QEVL1HEIS978.NEW.01 
* REEL: POND5_61169578
FCM: DROP FRAME
368  EVL1_HEI V     C        00:01:10:00 00:01:10:29 01:08:36:04 01:08:37:03 
M2   EVL1_HEI       037.5                00:01:10:00 
* NYPD__QEVL1HEIS375_HEISTS_LUFTHANSA HEIST_JIMMY BURKE NYPD PHOTO (STILL WITHIN M 
* OV)_NYPD 
* FROM CLIP NAME:  QEVL1HEIS375.NEW.01 
* REEL: NYPD_NYPD
369  EVL1_HEI V     C        00:01:06:05 00:01:07:07 01:08:37:03 01:08:38:04 
M2   EVL1_HEI       037.5                00:01:06:05 
* NYPD__QEVL1HEIS371_HEISTS_LUFTHANSA HEIST_JIMMY BURKE NYPD PHOTO (STILL WITHIN M 
* OV)_NYPD 
* FROM CLIP NAME:  QEVL1HEIS371.NEW.01 
* REEL: NYPD_NYPD
FCM: NON-DROP FRAME
370  EVL10516 V     C        15:19:27:12 15:19:28:23 01:08:38:01 01:08:39:15 
* BACKPLATE FOR JON DOUGLAS RAINEY 
* FROM CLIP NAME:  EVL1051616A04_IP_0252.NEW.01.SUB.01
371  EVL10525 V     C        11:03:42:12 11:03:43:21 01:08:38:04 01:08:39:15 
* FROM CLIP NAME:  EVL1052516A02_E020C002_160525Y3.NEW.01.SUB.01
372  EVL10525 V     C        11:03:43:21 11:03:45:10 01:08:39:15 01:08:41:01 
* FROM CLIP NAME:  EVL1052516A02_E020C002_160525Y3.NEW.01.SUB.01
373  EVL10516 V     C        15:19:28:23 15:19:30:13 01:08:39:15 01:08:41:03 
* BACKPLATE FOR JON DOUGLAS RAINEY 
* FROM CLIP NAME:  EVL1051616A04_IP_0252.NEW.01.SUB.01
374  SEVL1HEI V     C        01:00:04:12 01:00:08:07 01:08:41:01 01:08:44:25 
* GETTY IMAGES__SEVL1HEIS058_HEISTS_LUFTHANSA HEIST_BULLDOZER NEXT TO JIMMY THE GE 
* NT BURKE & LAWYER_97279740_HTTP://WWW.GETTYIMAGES.COM/LICENSE/97279740 
* FROM CLIP NAME:  SEVL1HEIS058.TIFF.NEW.01 
* REEL: 97279740
FCM: DROP FRAME
375  QEVL1HEI V     C        00:01:29:03 00:01:31:17 01:08:44:25 01:08:47:08 
M2   QEVL1HEI       037.5                00:01:29:03 
* GETTY IMAGES__QEVL1HEIS473_HEISTS_LUFTHANSA HEIST_CASH MONEY COUNTING MACHINE, H 
* UNDRED DOLLAR BILLS_151812519 
* FROM CLIP NAME:  QEVL1HEIS473.NEW.01 
* REEL: GETTY IMAGES_151812519
FCM: NON-DROP FRAME
376  SEVL1HEI V     C        01:00:04:03 01:00:06:18 01:08:44:25 01:08:47:14 
* GETTY IMAGES__SEVL1HEIS059_HEISTS_LUFTHANSA HEIST_JIMMY THE GENT BURKE BY DOORWA 
* Y OF SOUTH SIDE INN_97279721_HTTP://WWW.GETTYIMAGES.COM/LICENSE/97279721 
* FROM CLIP NAME:  SEVL1HEIS059.TIFF.NEW.01 
* REEL: 97279721
377  EVL1_HEI V     C        00:04:50:13 00:04:52:05 01:08:47:08 01:08:48:26 
M2   EVL1_HEI       031.3                00:04:50:13 
* GETTY__QEVL1HEIS1082_HEISTS_SISI JEWEL_BUILDING UP A WEAPON, RIFLE, GETTING READ 
* Y FOR A BANK ROBBERY, POV ROBBER HOLDING GUN IN FACE_135821563 
* FROM CLIP NAME:  QEVL1HEIS1082.NEW.01 
* REEL: GETTY_135821563
378     AX    V     C        00:45:07:07 00:45:07:23 01:08:48:26 01:08:49:11 
M2      AX          037.5                00:45:07:07 
* GETTY__QEVL1HEIS1082_HEISTS_SISI JEWEL_BUILDING UP A WEAPON, RIFLE, GETTING READ 
* Y FOR A BANK ROBBERY, POV ROBBER HOLDING GUN IN FACE_135821563 
* FROM CLIP NAME:  T_QEVL1HEIS494.NEW.01 
* TO CLIP NAME:  QEVL1HEIS1082.NEW.01 
* REEL: GETTY_135821563
379  T_QEVL1H V     C        00:45:07:22 00:45:09:12 01:08:49:11 01:08:51:00 
M2   T_QEVL1H       037.5                00:45:07:22 
* NBC NEWS_T_QEVL1HEIS494_HEISTS_LUFTHANSA HEIST_NEWS ON LUFTHANSA ROBBERY, COPS P 
* RESS CONFERENCE, LOUIS WERNER ARREST, CARGO BUILDING INTERIOR EXTERIOR, AERIAL, 
* EXAMINE BROKEN FENCE, EMPLOYEE B-ROLL_MN16F8078-001_WO1.MOV 
* FROM CLIP NAME:  T_QEVL1HEIS494.NEW.01 
* REEL: NBC NEWS_MN16F8078-001_WO1.MOV
380  EVL10509 V     C        10:52:48:08 10:52:52:02 01:08:49:15 01:08:53:08 
* FROM CLIP NAME:  EVL1050916B01_E0347.NEW.01.SUB.02
FCM: DROP FRAME
381  EVL1_HEI V     C        00:00:18:01 00:00:19:13 01:08:53:08 01:08:54:19 
M2   EVL1_HEI       037.5                00:00:18:01 
* AETN__QEVL1HEIS061_HEISTS_LUFTHANSA HEIST_STACKS OF HUNDRED DOLLAR BILLS; HANDSH 
* AKE; MAN THREATENED W/ GUN_106549_MOBSTERS_JIMMYTHEGENTBURKE_08 
* FROM CLIP NAME:  QEVL1HEIS061.NEW.01 
* REEL: AETN_106549_MOBSTERS_JIMMYTHEGE
FCM: NON-DROP FRAME
382  EVL10509 V     C        10:52:52:02 10:52:53:20 01:08:53:08 01:08:55:00 
* FROM CLIP NAME:  EVL1050916B01_E0347.NEW.01.SUB.02
383     AX    V     C        01:00:00:00 01:00:00:03 01:08:54:19 01:08:54:23 
* AETN__QEVL1HEIS061_HEISTS_LUFTHANSA HEIST_STACKS OF HUNDRED DOLLAR BILLS; HANDSH 
* AKE; MAN THREATENED W/ GUN_106549_MOBSTERS_JIMMYTHEGENTBURKE_08 
* TO CLIP NAME:  QEVL1HEIS061.NEW.01 
* REEL: AETN_106549_MOBSTERS_JIMMYTHEGE
384  EVL1_HEI V     C        00:00:54:26 00:00:55:00 01:08:54:23 01:08:54:26 
* GETTY IMAGES__QEVL1HEIS354_HEISTS_LUFTHANSA HEIST_HOSTAGE BEING HELD AT GUNPOINT 
* , HIT ON HEAD_472722425 
* FROM CLIP NAME:  QEVL1HEIS354.NEW.01 
* TO CLIP NAME:  QEVL1HEIS354.NEW.01 
* REEL: GETTY IMAGES_472722425
385  EVL1_HEI V     C        00:00:55:00 00:00:55:12 01:08:54:26 01:08:55:09 
* GETTY IMAGES__QEVL1HEIS354_HEISTS_LUFTHANSA HEIST_HOSTAGE BEING HELD AT GUNPOINT 
* , HIT ON HEAD_472722425 
* FROM CLIP NAME:  QEVL1HEIS354.NEW.01 
* REEL: GETTY IMAGES_472722425
386  EVL10509 V     C        11:14:17:23 11:14:18:05 01:08:55:00 01:08:55:08 
* FROM CLIP NAME:  EVL1050916A01_IP_0159.NEW.01.SUB.02
387  EVL10509 V     C        10:53:01:05 10:53:05:11 01:08:55:08 01:08:59:15 
* FROM CLIP NAME:  EVL1050916B01_E0347.NEW.01.SUB.02
388  T_SEVL1H V     C        01:00:04:10 01:00:05:01 01:08:55:09 01:08:55:28 
* GETTY IMAGES__QEVL1HEIS354_HEISTS_LUFTHANSA HEIST_HOSTAGE BEING HELD AT GUNPOINT 
* , HIT ON HEAD_472722425 
* FROM CLIP NAME:  T_SEVL1HEIS487.TIF 
* TO CLIP NAME:  QEVL1HEIS354.NEW.01 
* REEL: GETTY IMAGES_472722425
389  T_SEVL1H V     C        01:00:05:01 01:00:06:00 01:08:55:28 01:08:56:26 
* GETTY IMAGES_T_SEVL1HEIS487_HEISTS_LUFTHANSA HEIST_TWO MEN IN BLACK, ONE HOLDING 
*  THE OTHER HOSTAGE AT GUNPOINT_138368062_HTTP://WWW.GETTYIMAGES.COM/LICENSE/1383 
* 68062 
* FROM CLIP NAME:  T_SEVL1HEIS487.TIF 
* REEL: GETTY IMAGES_138368062
390  T_QEVL1H V     C        00:06:40:16 00:06:41:20 01:08:58:25 01:08:59:29 
M2   T_QEVL1H       031.3                00:06:40:16 
* POND5_T_QEVL1HEIS724_HEISTS_LUFTHANSA HEIST_BLOOD STAINED KNIFE FALLS IN SLOW MO 
* TION MOBSTER HIT_61738112 
* FROM CLIP NAME:  T_QEVL1HEIS724.NEW.01 
* REEL: POND5_61738112
391  T_QEVL1H V     C        00:06:41:19 00:06:41:19 01:08:59:29 01:08:59:29 
391  SEVL1HEI V     W001 010 01:00:03:03 01:00:03:13 01:08:59:29 01:09:00:11 
M2   T_QEVL1H       031.3                00:06:41:19 
* POND5_T_QEVL1HEIS724_HEISTS_LUFTHANSA HEIST_BLOOD STAINED KNIFE FALLS IN SLOW MO 
* TION MOBSTER HIT_61738112 
* FROM CLIP NAME:  T_QEVL1HEIS724.NEW.01 
* TO CLIP NAME:  SEVL1HEIS590.TIFF.NEW.01 
* REEL: POND5_61738112
392  SEVL1HEI V     C        01:00:03:13 01:00:05:06 01:09:00:11 01:09:02:03 
* DICK ATKINS__SEVL1HES590_HEISTS_DINNER SET GANG_PETE & DOMINICK YOUNG B&W_A13_ 
* FROM CLIP NAME:  SEVL1HEIS590.TIFF.NEW.01 
* REEL: DICK ATKINS_A13
393  T_QEVL1H V     C        00:05:02:02 00:05:02:18 01:09:02:03 01:09:02:21 
M2   T_QEVL1H       031.3                00:05:02:02 
* DICK ATKINS__SEVL1HES590_HEISTS_DINNER SET GANG_PETE & DOMINICK YOUNG B&W_A13_ 
* FROM CLIP NAME:  T_QEVL1HEIS029.NEW.01.COPY.01 
* TO CLIP NAME:  SEVL1HEIS590.TIFF.NEW.01 
* REEL: DICK ATKINS_A13
394  T_QEVL1H V     C        00:05:02:17 00:05:04:22 01:09:02:21 01:09:04:26 
M2   T_QEVL1H       031.3                00:05:02:17 
* POND5_T_QEVL1HEIS029_HEISTS_DINNER SET GANG_OPENING JEWEL BOX TO STEAL_11136173 
* FROM CLIP NAME:  T_QEVL1HEIS029.NEW.01.COPY.01
397  GFX_HEIS V     C        01:01:16:20 01:01:19:18 01:09:04:26 01:09:07:24 
* FROM CLIP NAME:  GFX_HEIS09_GND_02.TIF
396  GFX_HEIS V     C        01:01:44:18 01:01:47:16 01:09:04:26 01:09:07:24 
* FROM CLIP NAME:  GFX_HEIS20_GND_9_V01.TIF
395  GFX_HEIS V     C        01:01:20:08 01:01:23:06 01:09:04:26 01:09:07:24 
* FROM CLIP NAME:  GFX_HEIS15_GND_03.TIF
398  TITLE_CA V     C        01:00:31:08 01:00:38:27 01:09:04:26 01:09:12:16 
* FROM CLIP NAME:  TITLE CARD
399  EVL_TITL V     C        01:01:57:07 01:01:58:07 01:09:07:24 01:09:08:24 
* FROM CLIP NAME:  EVL_TITLE_FRAME_05.TIF 
* TO CLIP NAME:  EVL_TITLE_FRAME_05.TIF
400  EVL_TITL V     C        01:01:58:07 01:02:02:01 01:09:08:24 01:09:12:16 
* FROM CLIP NAME:  EVL_TITLE_FRAME_05.TIF
401  PROPAGAT V     C        00:00:03:01 00:00:08:00 01:09:12:16 01:09:17:16 
* FROM CLIP NAME:  PROPAGATE LOGO V04 (1).MOV
402  OUTPUT_S V     C        01:00:00:10 01:00:05:10 01:09:12:16 01:09:17:16 
* FROM CLIP NAME:  OUTPUT SLATE.25
403  EVL1_HEI V     C        00:05:51:09 00:05:52:08 01:09:17:18 01:09:18:16 
M2   EVL1_HEI       031.3                00:05:51:09 
* FRAMEPOOL_T_QEVL1HEIS318_HEISTS_SISI JEWEL HEIST_AIRPLANE TAKING OFF FROM RUNWAY 
* , FLYING OVER CAMERA_736-187-574 
* FROM CLIP NAME:  T_QEVL1HEIS318.NEW.01 
* REEL: FRAMEPOOL_736-187-574
404  EVL1_HEI V     C        00:10:53:22 00:10:54:20 01:09:18:16 01:09:19:14 
M2   EVL1_HEI       037.5                00:10:53:22 
* POND 5_T_QEVL1HEIS336_HEISTS_LUFTHANSA HEIST_BREAK AND ENTER CHAIN LINK FENCE GE 
* TS BROKEN INTO _40427311 
* FROM CLIP NAME:  T_QEVL1HEIS336.NEW.01 
* REEL: POND 5_40427311
405  EVL1_HEI V     C        00:02:31:11 00:02:32:16 01:09:19:14 01:09:20:13 
* POND5_T_QEVL1HEIS270_HEISTS_LUFTHANSA HEIST_LUFTHANSA CARGO PLANE_60242540 
* FROM CLIP NAME:  T_QEVL1HEIS270.NEW.01 
* REEL: POND5_60242540
FCM: DROP FRAME
406  EVL1_HEI V     C        00:00:59:12 00:01:00:17 01:09:20:13 01:09:21:15 
M2   EVL1_HEI       037.5                00:00:59:12 
* AETN__QEVL1HEIS198_HEISTS_LUFTHANSA HEIST_ROBBER WITH MASK HOLDING MONEY, RECRE 
* OF ROBBERY WITH PEOPLE LAYING ON FLOOR GUN POINTED AT THEM_70462_GANGLAND_ARMYOF 
* HATE_010223 
* FROM CLIP NAME:  QEVL1HEIS198.NEW.01 
* REEL: AETN_70462_GANGLAND_ARMYOFHATE_
FCM: NON-DROP FRAME
407     BL    V     C        00:00:00:00 00:00:00:00 01:09:21:05 01:09:21:05 
407  MORTICE_ V     W001 010 01:02:22:01 01:02:22:11 01:09:21:05 01:09:21:18 
* TO CLIP NAME:  MORTICE_V03 WITH ALPHA_V03.TIF
FCM: DROP FRAME
408  EVL1_HEI V     C        00:01:18:17 00:01:20:08 01:09:21:11 01:09:23:01 
M2   EVL1_HEI       037.5                00:01:18:17 
* FBI__QEVL1HEIS384_HEISTS_LUFTHANSA HEIST_JIMMY BURKE FBI (STILL WITHIN .MOV)_FBI 
* FROM CLIP NAME:  QEVL1HEIS384.NEW.01 
* REEL: FBI_FBI
FCM: NON-DROP FRAME
409  MORTICE_ V     C        01:02:22:11 01:02:23:17 01:09:21:18 01:09:22:25 
* FROM CLIP NAME:  MORTICE_V03 WITH ALPHA_V03.TIF
410  MORTICE_ V     C        01:02:23:17 01:02:23:17 01:09:22:25 01:09:22:25 
410     BL    V     W001 010 00:00:00:00 00:00:00:10 01:09:22:25 01:09:23:08 
* FROM CLIP NAME:  MORTICE_V03 WITH ALPHA_V03.TIF
FCM: DROP FRAME
411  EVL1_HEI V     C        00:00:05:06 00:00:07:18 01:09:23:01 01:09:25:13 
M2   EVL1_HEI       037.5                00:00:05:06 
* AETN__QEVL1HEIS056_HEISTS_LUFTHANSA HEIST_MEN WITH GUNS PASS BOXES_106549_MOBSTE 
* RS_JIMMYTHEGENTBURKE_03 
* FROM CLIP NAME:  QEVL1HEIS056.NEW.01 
* REEL: AETN_106549_MOBSTERS_JIMMYTHEGE
412  EVL1_HEI V     C        00:00:58:12 00:01:00:27 01:09:25:13 01:09:27:25 
M2   EVL1_HEI       037.5                00:00:58:12 
* AETN__QEVL1HEIS199_HEISTS_LUFTHANSA HEIST_RECRE OF ROBBERY WITH PEOPLE LAYING ON 
*  FLOOR GUN POINTED AT THEM, ROBBER PUTTING MONEY INTO DUFFEL BAG_70462_GANGLAND_ 
* ARMYOFHATE_010227 
* FROM CLIP NAME:  QEVL1HEIS199.NEW.01 
* REEL: AETN_70462_GANGLAND_ARMYOFHATE_
414  EVL1_HEI V     C        00:00:58:13 00:01:00:07 01:09:27:25 01:09:29:16 
M2   EVL1_HEI       037.5                00:00:58:13 
* AETN__QEVL1HEIS199_HEISTS_LUFTHANSA HEIST_RECRE OF ROBBERY WITH PEOPLE LAYING ON 
*  FLOOR GUN POINTED AT THEM, ROBBER PUTTING MONEY INTO DUFFEL BAG_70462_GANGLAND_ 
* ARMYOFHATE_010227 
* FROM CLIP NAME:  QEVL1HEIS199.NEW.01 
* REEL: AETN_70462_GANGLAND_ARMYOFHATE_
FCM: NON-DROP FRAME
413  SEVL1HEI V     C        01:00:04:04 01:00:05:21 01:09:27:25 01:09:29:16 
* GETTY IMAGES__SEVL1HEIS047_HEISTS_LUFTHANSA HEIST_NY DAILY NEWS HEADLINE: âJFK R 
* OBBERS GET 5Mâ (DEC 12, 1978)_452900910_HTTP://WWW.GETTYIMAGES.COM/LICENSE/45290 
* 0910 
* FROM CLIP NAME:  SEVL1HEIS047.TIFF.NEW.01 
* REEL: 452900910
FCM: DROP FRAME
415  EVL1_HEI V     C        00:00:59:20 00:01:00:19 01:09:29:16 01:09:30:13 
M2   EVL1_HEI       037.5                00:00:59:20 
* AETN__QEVL1HEIS199_HEISTS_LUFTHANSA HEIST_RECRE OF ROBBERY WITH PEOPLE LAYING ON 
*  FLOOR GUN POINTED AT THEM, ROBBER PUTTING MONEY INTO DUFFEL BAG_70462_GANGLAND_ 
* ARMYOFHATE_010227 
* FROM CLIP NAME:  QEVL1HEIS199.NEW.01 
* REEL: AETN_70462_GANGLAND_ARMYOFHATE_
FCM: NON-DROP FRAME
416  SEVL1HEI V     C        01:00:05:21 01:00:06:18 01:09:29:16 01:09:30:13 
* GETTY IMAGES__SEVL1HEIS047_HEISTS_LUFTHANSA HEIST_NY DAILY NEWS HEADLINE: âJFK R 
* OBBERS GET 5Mâ (DEC 12, 1978)_452900910_HTTP://WWW.GETTYIMAGES.COM/LICENSE/45290 
* 0910 
* FROM CLIP NAME:  SEVL1HEIS047.TIFF.NEW.01 
* REEL: 452900910
417  EVL1_HEI V     C        00:02:33:02 00:02:33:20 01:09:30:13 01:09:31:01 
* POND5_T_QEVL1HEIS272_HEISTS_LUFTHANSA HEIST_VAULT OPENS, REVEALING STACKS OF CAS 
* H_32464403 
* FROM CLIP NAME:  T_QEVL1HEIS272.NEW.01 
* REEL: POND5_32464403
418  EVL1_HEI V     C        00:02:33:20 00:02:34:11 01:09:31:01 01:09:31:16 
* POND5_T_QEVL1HEIS272_HEISTS_LUFTHANSA HEIST_VAULT OPENS, REVEALING STACKS OF CAS 
* H_32464403 
* FROM CLIP NAME:  T_QEVL1HEIS272.NEW.01 
* REEL: POND5_32464403
419  T_QEVL1H V     C        00:12:51:15 00:12:53:04 01:09:31:16 01:09:33:05 
M2   T_QEVL1H       037.5                00:12:51:15 
* GETTY_T_QEVL1HEIS701_HEISTS_LUFTHANSA HEIST_CLOSE UP OF ONE HUNDRED DOLLAR BILLS 
*  BEING COUNTED IN MACHINE_65-83 
* FROM CLIP NAME:  T_QEVL1HEIS701.NEW.01 
* REEL: POND5_
420  EVL1_HEI V     C        00:00:22:10 00:00:23:17 01:09:33:05 01:09:34:06 
* AETN__QEVL1HEIS178_HEISTS_DINNER SET GANG_MONTAGE OF JEWELRY, DIAMOND RINGS AND 
* EARRINGS_28309_BLOODDIAMONDS_1080P_010027 
* FROM CLIP NAME:  QEVL1HEIS178.NEW.01 
* REEL: AETN_28309_BLOODDIAMONDS_1080P_
421  EVL1_HEI V     C        00:06:29:12 00:06:30:12 01:09:34:06 01:09:35:05 
M2   EVL1_HEI       031.3                00:06:29:12 
* POND5_T_QEVL1HEIS535_HEISTS_LUFTHANSA_CLUB SCENE DISCO BALL_2800788 
* FROM CLIP NAME:  T_QEVL1HEIS535.NEW.01 
* REEL: POND5_2800788
422  EVL1_HEI V     C        00:06:02:17 00:06:03:05 01:09:35:05 01:09:35:19 
M2   EVL1_HEI       031.3                00:06:02:17 
* POND5_T_QEVL1HEIS490_HEISTS_LUFTHANSA HEIST_PAYING FOR A DRINK AT THE BAR_612473 
* 51 
* FROM CLIP NAME:  T_QEVL1HEIS490.NEW.01 
* REEL: POND5_61247351
423  T_QEVL1H V     C        00:09:47:15 00:09:48:10 01:09:35:19 01:09:36:14 
M2   T_QEVL1H       037.5                00:09:47:15 
* POND5_T_QEVL1HEIS104_HEISTS_ANTHONY CURCIO: CRAIGâS LIST ROBBER_YOUNG MEN AT BAR 
*  DRINKING_34005433 
* FROM CLIP NAME:  T_QEVL1HEIS104.NEW.01 
* REEL: POND5_34005433
424  EVL1_HEI V     C        00:06:17:06 00:06:18:07 01:09:36:14 01:09:37:14 
M2   EVL1_HEI       031.3                00:06:17:06 
* POND5_T_QEVL1HEIS535_HEISTS_LUFTHANSA_CLUB SCENE DISCO BALL_2800788 
* FROM CLIP NAME:  T_QEVL1HEIS535.NEW.01 
* REEL: POND5_2800788
425  EVL1_HEI V     C        00:04:36:13 00:04:37:04 01:09:37:14 01:09:38:01 
M2   EVL1_HEI       031.3                00:04:36:13 
* GETTY__QEVL1HEIS555_HEISTS_LUFTHANSA HEIST_MIDSECTION OF COUPLE DANCING TOGETHER 
*  IN CLUB_509515124 
* FROM CLIP NAME:  QEVL1HEIS555.NEW.01 
* REEL: GETTY_509515124
426  EVL1_HEI V     C        00:06:14:13 00:06:15:02 01:09:38:01 01:09:38:16 
M2   EVL1_HEI       031.3                00:06:14:13 
* POND5_T_QEVL1HEIS535_HEISTS_LUFTHANSA_CLUB SCENE DISCO BALL_2800788 
* FROM CLIP NAME:  T_QEVL1HEIS535.NEW.01 
* REEL: POND5_2800788
427  QEVL1HEI V     C        00:01:23:12 00:01:23:23 01:09:38:16 01:09:38:28 
* GETTY__QEVL1HEIS552_HEISTS_LUFTHANSA HEIST_COUPLE IN NIGHTCLUB DANCING WITH EACH 
*  OTHER_104116491 
* FROM CLIP NAME:  QEVL1HEIS552.NEW.01 
* REEL: GETTY_104116491
428  EVL1_HEI V     C        00:04:45:04 00:04:45:23 01:09:38:28 01:09:39:19 
M2   EVL1_HEI       031.3                00:04:45:04 
* GETTY__QEVL1HEIS556_HEISTS_LUFTHANSA HEIST_SLOMO HEELS IN CLUB COUPLE DANCING_50 
* 9521530 
* FROM CLIP NAME:  QEVL1HEIS556.NEW.01 
* REEL: GETTY_509521530
429  EVL1_HEI V     C        00:08:32:07 00:08:32:22 01:09:39:19 01:09:40:03 
M2   EVL1_HEI       037.5                00:08:32:07 
* GETTY IMAGES__QEVL1HEIS158_HEISTS_LUFTHANSA HEIST_SUPER SLOW MOTION ICE CUBES FA 
* LLING INTO WHISKY GLASS, DRINKING ALCOHOL 
* _473164655" 
* FROM CLIP NAME:  QEVL1HEIS158.NEW.01 
* REEL: GETTY IMAGES_473164655
430  SEVL1HEI V     C        01:00:02:20 01:00:04:03 01:09:40:03 01:09:41:11 
* GETTY IMAGES__SEVL1HEIS059_HEISTS_LUFTHANSA HEIST_JIMMY THE GENT BURKE BY DOORWA 
* Y OF SOUTH SIDE INN_97279721_HTTP://WWW.GETTYIMAGES.COM/LICENSE/97279721 
* FROM CLIP NAME:  SEVL1HEIS059.TIFF.NEW.01 
* REEL: 97279721
431  SEVL1HEI V     C        01:00:04:03 01:00:07:20 01:09:41:11 01:09:45:03 
* GETTY IMAGES__SEVL1HEIS059_HEISTS_LUFTHANSA HEIST_JIMMY THE GENT BURKE BY DOORWA 
* Y OF SOUTH SIDE INN_97279721_HTTP://WWW.GETTYIMAGES.COM/LICENSE/97279721 
* FROM CLIP NAME:  SEVL1HEIS059.TIFF.NEW.01 
* REEL: 97279721
432  EVL1_HEI V     C        00:11:10:15 00:11:10:28 01:09:44:19 01:09:45:01 
M2   EVL1_HEI       037.5                00:11:10:15 
* POND5_T_QEVL1HEIS479_HEISTS_LUFTHANSA HEIST_SOMEONE FANNING A STACK OF 100$ BILL 
* S, LOW LIGHT CU_1091714 
* FROM CLIP NAME:  T_QEVL1HEIS479.NEW.01 
* REEL: POND5_1091714
433  EVL1_HEI V     C        00:11:10:27 00:11:13:24 01:09:45:01 01:09:47:28 
M2   EVL1_HEI       037.5                00:11:10:27 
* POND5_T_QEVL1HEIS479_HEISTS_LUFTHANSA HEIST_SOMEONE FANNING A STACK OF 100$ BILL 
* S, LOW LIGHT CU_1091714 
* FROM CLIP NAME:  T_QEVL1HEIS479.NEW.01 
* REEL: POND5_1091714
434  QEVL1HEI V     C        00:01:42:20 00:01:42:23 01:09:45:03 01:09:45:06 
* GETTY__QEVL1HEIS699_HEISTS_LUFTHANSA HEIST_MAN PUTTING AMERICAN DOLLAR BILLS INT 
* O CASH COUNTING MACHINE, CLOSE-UP OF HAND_80550847 
* FROM CLIP NAME:  QEVL1HEIS699.NEW.01
435  QEVL1HEI V     C        00:01:42:23 00:01:43:19 01:09:45:06 01:09:45:26 
* GETTY__QEVL1HEIS699_HEISTS_LUFTHANSA HEIST_MAN PUTTING AMERICAN DOLLAR BILLS INT 
* O CASH COUNTING MACHINE, CLOSE-UP OF HAND_80550847 
* FROM CLIP NAME:  QEVL1HEIS699.NEW.01
FCM: DROP FRAME
436  QEVL1HEI V     C        00:01:29:03 00:01:31:10 01:09:45:26 01:09:48:03 
M2   QEVL1HEI       037.5                00:01:29:03 
* GETTY IMAGES__QEVL1HEIS473_HEISTS_LUFTHANSA HEIST_CASH MONEY COUNTING MACHINE, H 
* UNDRED DOLLAR BILLS_151812519 
* FROM CLIP NAME:  QEVL1HEIS473.NEW.01 
* REEL: GETTY IMAGES_151812519
FCM: NON-DROP FRAME
437  EVL10509 V     C        12:35:02:06 12:35:05:10 01:09:47:28 01:09:51:03 
* FROM CLIP NAME:  EVL1050916A02_IP_0161.NEW.01.SUB.01
438  SEVL1HEI V     C        01:00:03:17 01:00:06:17 01:09:48:03 01:09:51:03 
* GETTY IMAGES__SEVL1HEIS058_HEISTS_LUFTHANSA HEIST_BULLDOZER NEXT TO JIMMY THE GE 
* NT BURKE & LAWYER_97279740_HTTP://WWW.GETTYIMAGES.COM/LICENSE/97279740 
* FROM CLIP NAME:  SEVL1HEIS058.TIFF.NEW.01 
* REEL: 97279740
439  EVL10509 V     C        12:35:05:10 12:35:09:03 01:09:51:03 01:09:54:24 
* FROM CLIP NAME:  EVL1050916A02_IP_0161.NEW.01.SUB.01
FCM: DROP FRAME
442  LWR_3RD_ V     C        01:00:00:00 01:00:03:14 01:09:51:10 01:09:54:24 
* FROM CLIP NAME:  LWR 3RD SAMPLE.06
440  LWR_3RD_ V     C        01:00:00:00 01:00:03:14 01:09:51:10 01:09:54:24 
* FROM CLIP NAME:  LWR 3RD SAMPLE.05
FCM: NON-DROP FRAME
441  EVIL_GEN V     C        00:00:00:00 00:00:03:11 01:09:51:10 01:09:54:24 
* FROM CLIP NAME:  EVIL GENIUS L3 LINES_V02 UNMATTED.MOV
443  EVL1_SCA V     C        05:57:48:15 05:57:50:20 01:09:54:24 01:09:56:16 
* GETTY IMAGES__QEVL1SCAM314_SCAMS_BERNIE MADOFF_MS SUBWAY TRAINS ON ELEVATED TRAC 
* KS IN QUEENS / NEW YORK CITY, NEW YORK_MR_00108699_HTTP://WWW.GETTYIMAGES.COM/LI 
* CENSE/MR_00108699 
* FROM CLIP NAME:  QEVL1SCAM314.NEW.01
444  T_QEVL1S V     C        00:00:06:21 00:00:07:25 01:09:56:16 01:09:57:20 
* POND5_T_QEVL1SCAM068_SCAMS_BERNIE MADOFF_COMMUTERS CROWD OF PEOPLE ENTER MTA SUB 
* WAY TRAIN IN QUEENS IN NEW YORK, USA_40240123 
* FROM CLIP NAME:  T_QEVL1SCAM068.NEW.01
445  EVL10509 V     C        12:32:29:05 12:32:32:14 01:09:57:19 01:10:01:00 
* FROM CLIP NAME:  EVL1050916A02_IP_0161.NEW.01.SUB.01
446  EVL1_HEI V     C        00:12:44:22 00:12:47:03 01:10:01:00 01:10:03:10 
M2   EVL1_HEI       037.5                00:12:44:22 
* POND5_T_QEVL1HEIS678_HEISTS_LUFTHANSA HEIST_VAN-ARRIVING-STORAGE-UNIT-NEAR-BROOK 
* LYN-BRIDGE-NIGHT_11350595 
* FROM CLIP NAME:  T_QEVL1HEIS678.NEW.01 
* REEL: POND5_11350595
FCM: DROP FRAME
447  EVL1_HEI V     C        00:00:04:15 00:00:05:02 01:10:03:10 01:10:03:26 
M2   EVL1_HEI       037.5                00:00:04:15 
* AETN__QEVL1HEIS057_HEISTS_LUFTHANSA HEIST_BOXES BEING LOADED INTO VAN_106549_MOB 
* STERS_JIMMYTHEGENTBURKE_04 
* FROM CLIP NAME:  QEVL1HEIS057.NEW.01 
* REEL: AETN_106549_MOBSTERS_JIMMYTHEGE
FCM: NON-DROP FRAME
448  SEVL1HEI V     C        01:00:02:13 01:00:03:22 01:10:03:26 01:10:05:08 
* GETTY IMAGES__SEVL1HEIS214_HEISTS_LUFTHANSA HEIST_BACK VIEW OF HEIST GETAWAY VAN 
*  W/ SIGN âCRIME SCENE, NO ENTRYâ_97281770_HTTP://WWW.GETTYIMAGES.COM/LICENSE/972 
* 81770 
* FROM CLIP NAME:  SEVL1HEIS214.TIFF.NEW.01 
* REEL: 97281770
449  SEVL1HEI V     C        01:00:03:22 01:00:05:00 01:10:05:08 01:10:06:10 
* GETTY IMAGES__SEVL1HEIS214_HEISTS_LUFTHANSA HEIST_BACK VIEW OF HEIST GETAWAY VAN 
*  W/ SIGN âCRIME SCENE, NO ENTRYâ_97281770_HTTP://WWW.GETTYIMAGES.COM/LICENSE/972 
* 81770 
* FROM CLIP NAME:  SEVL1HEIS214.TIFF.NEW.01 
* REEL: 97281770
450  EVL10509 V     C        12:32:40:23 12:32:42:08 01:10:06:10 01:10:07:21 
* FROM CLIP NAME:  EVL1050916A02_IP_0161.NEW.01.SUB.01
451  EVL1_HEI V     C        00:12:50:02 00:12:53:10 01:10:07:21 01:10:10:29 
M2   EVL1_HEI       037.5                00:12:50:02 
* POND5_T_QEVL1HEIS678_HEISTS_LUFTHANSA HEIST_VAN-ARRIVING-STORAGE-UNIT-NEAR-BROOK 
* LYN-BRIDGE-NIGHT_11350595 
* FROM CLIP NAME:  T_QEVL1HEIS678.NEW.01 
* REEL: POND5_11350595
FCM: DROP FRAME
452  EVL1_HEI V     C        00:01:16:12 00:01:18:14 01:10:10:29 01:10:13:00 
M2   EVL1_HEI       037.5                00:01:16:12 
* NYPD__QEVL1HEIS381_HEISTS_LUFTHANSA HEIST_PARNELL "STACKS" EDWARDS (STILL WITHIN 
*  MOV)_NYPD-STACKS EDWARDS 
* FROM CLIP NAME:  QEVL1HEIS381.NEW.01 
* REEL: NYPD_NYPD-STACKS EDWARDS
453  EVL1_HEI V     C        00:01:18:13 00:01:19:08 01:10:13:00 01:10:13:24 
M2   EVL1_HEI       037.5                00:01:18:13 
* NYPD__QEVL1HEIS381_HEISTS_LUFTHANSA HEIST_PARNELL "STACKS" EDWARDS (STILL WITHIN 
*  MOV)_NYPD-STACKS EDWARDS 
* FROM CLIP NAME:  QEVL1HEIS381.NEW.01 
* REEL: NYPD_NYPD-STACKS EDWARDS
FCM: NON-DROP FRAME
454  T_QEVL1A V     C        00:02:17:23 00:02:19:21 01:10:13:24 01:10:15:21 
M2   T_QEVL1A       037.5                00:02:17:23 
* POND5_T_QEVL1ARCH151_ARCHITECTS_ROBERT MOSES_NIGHT TRAFFIC ON I-278 NEAR RFK AKA 
*  TRIBOROBRIUGH BRIDGE IN NEW YORK CITY_50912775 
* FROM CLIP NAME:  T_QEVL1ARCH151.NEW.01
455  EVL1_ARC V     C        01:33:57:03 01:33:58:20 01:10:15:21 01:10:17:03 
* GETTY IMAGES__QEVL1ARCH193_ARCHITECTS_ROBERT MOSES_TRAFFIC DRIVING ON 3RD AVENUE 
*  IN THE BRONX NEAR I95 LATE IN THE DAY AS PEDESTRIANS CROSS THE STREET NEW YORK 
* TRAFFIC_139642653 
* FROM CLIP NAME:  QEVL1ARCH193.NEW.01
456  EVL1_HEI V     C        00:03:46:29 00:03:48:07 01:10:17:03 01:10:18:11 
* POND5_T_QEVL1HEIS664_HEISTS_LUFTHANSA HEIST_NEW-YORK-CITY-NIGHT-DRIVE-TIME-LAPSE 
* -BROOKLYN-MANHATTAN-NJ_33007377 
* FROM CLIP NAME:  T_QEVL1HEIS664.NEW.01 
* REEL: POND5_33007377
FCM: DROP FRAME
457  EVL1_HEI V     C        00:01:20:15 00:01:21:15 01:10:18:11 01:10:19:11 
M2   EVL1_HEI       037.5                00:01:20:15 
* NYPD__QEVL1HEIS381_HEISTS_LUFTHANSA HEIST_PARNELL "STACKS" EDWARDS (STILL WITHIN 
*  MOV)_NYPD-STACKS EDWARDS 
* FROM CLIP NAME:  QEVL1HEIS381.NEW.01 
* REEL: NYPD_NYPD-STACKS EDWARDS
458  EVL1_HEI V     C        00:00:07:17 00:00:09:17 01:10:19:11 01:10:21:10 
M2   EVL1_HEI       037.5                00:00:07:17 
* AETN__QEVL1HEIS058_HEISTS_LUFTHANSA HEIST_POV SHOT AS CAR DRIVES THRU NY / LUFTH 
* ANSA BUILDING_106549_MOBSTERS_JIMMYTHEGENTBURKE_05 
* FROM CLIP NAME:  QEVL1HEIS058.NEW.01 
* REEL: AETN_106549_MOBSTERS_JIMMYTHEGE
459  QEVL1HEI V     C        00:01:41:13 00:01:41:29 01:10:20:25 01:10:21:10 
M2   QEVL1HEI       037.5                00:01:41:13 
* GETTY IMAGES__QEVL1HEIS940_HEISTS_LUFTHANSA HEIST_LIVE GIRLS STRIP CLUB NEON SIG 
* N, STRIPPER SILHOUETTE_482853853 
* FROM CLIP NAME:  QEVL1HEIS940.NEW.01 
* REEL: GETTY IMAGES_482853853
460  QEVL1HEI V     C        00:01:41:28 00:01:42:12 01:10:21:10 01:10:21:23 
M2   QEVL1HEI       037.5                00:01:41:28 
* GETTY IMAGES__QEVL1HEIS940_HEISTS_LUFTHANSA HEIST_LIVE GIRLS STRIP CLUB NEON SIG 
* N, STRIPPER SILHOUETTE_482853853 
* FROM CLIP NAME:  QEVL1HEIS940.NEW.01 
* REEL: GETTY IMAGES_482853853
FCM: NON-DROP FRAME
461  EVL1_HID V     C        00:00:12:02 00:00:12:29 01:10:21:10 01:10:22:06 
M2   EVL1_HID       037.5                00:00:12:02 
* POND5_T_QEVL1HIDE161_HIDDEN CONTRABAND_PABLO ESCOBAR_COCAINE SNORTED OFF A TABLE 
* _7818663 
* FROM CLIP NAME:  T_QEVL1HIDE161.NEW.01
FCM: DROP FRAME
462  QEVL1HEI V     C        00:01:42:11 00:01:42:25 01:10:21:23 01:10:22:06 
M2   QEVL1HEI       037.5                00:01:42:11 
* GETTY IMAGES__QEVL1HEIS940_HEISTS_LUFTHANSA HEIST_LIVE GIRLS STRIP CLUB NEON SIG 
* N, STRIPPER SILHOUETTE_482853853 
* FROM CLIP NAME:  QEVL1HEIS940.NEW.01 
* REEL: GETTY IMAGES_482853853
FCM: NON-DROP FRAME
463  EVL1_HEI V     C        00:06:20:08 00:06:21:23 01:10:22:06 01:10:23:23 
M2   EVL1_HEI       031.3                00:06:20:08 
* POND5_T_QEVL1HEIS535_HEISTS_LUFTHANSA_CLUB SCENE DISCO BALL_2800788 
* FROM CLIP NAME:  T_QEVL1HEIS535.NEW.01 
* REEL: POND5_2800788
464  T_QEVL1H V     C        00:11:15:12 00:11:16:07 01:10:23:23 01:10:24:16 
M2   T_QEVL1H       037.5                00:11:15:12 
* POND5_T_QEVL1HEIS491_HEISTS_LUFTHANSA HEIST_BARTENDER HANDS POURING DRINK, SERVI 
* NG CLIENTS_49736884 
* FROM CLIP NAME:  T_QEVL1HEIS491.NEW.01 
* REEL: POND5_49736884
465  EVL1_HEI V     C        00:00:11:01 00:00:12:02 01:10:24:16 01:10:25:11 
* GETTY IMAGES__QEVL1HEIS159_HEISTS_LUFTHANSA HEIST_SLOW MO ICE CUBE FALLING INTO 
* GLASS OF WHISKEY, DRINKING ALCOHOL, DRINK ON TABLE_456044546 
* FROM CLIP NAME:  QEVL1HEIS159.NEW.01 
* REEL: GETTY IMAGES_456044546
466  EVL1_HEI V     C        00:01:48:07 00:01:51:22 01:10:25:11 01:10:28:09 
* GETTY__QEVL1HEIS554_HEISTS_LUFTHANSA HEIST_PEOPLE IN NIGHT CLUB DANCING WITH THE 
* IR ARMS UP_104116501 
* FROM CLIP NAME:  QEVL1HEIS554.NEW.01 
* REEL: GETTY_104116501
467  EVL1_HEI V     C        00:12:27:02 00:12:28:18 01:10:28:09 01:10:29:24 
M2   EVL1_HEI       037.5                00:12:27:02 
* POND5_T_QEVL1HEIS656_HEISTS_LUFTHANSA HEIST_HANDHELD TIME-LAPSE OF BROOKLYN BY N 
* IGHT_55559080 
* FROM CLIP NAME:  T_QEVL1HEIS656.NEW.01 
* REEL: POND5_55559080
FCM: DROP FRAME
468  EVL1_HEI V     C        00:01:05:11 00:01:06:18 01:10:29:24 01:10:31:00 
M2   EVL1_HEI       037.5                00:01:05:11 
* AETN__QEVL1HEIS257_HEISTS_LUFTHANSA HEIST_VAN WYCK EXPRESSWAY-JFK AIRPORT SIGN - 
* - LUFTHANSA CARGO BUILDING_106549_MOBSTERS_JIMMYTHEGENTBURKE_01 
* FROM CLIP NAME:  QEVL1HEIS257.NEW.01 
* REEL: AETN_106549_MOBSTERS_JIMMYTHEGE
FCM: NON-DROP FRAME
469  EVL1_ARC V     C        01:06:03:23 01:06:05:02 01:10:31:00 01:10:31:28 
* AETN__QEVL1ARCH215_ARCHITECTS_DC SNIPER_DRIVING AROUND IN A WHITE VAN _110959_DE 
* ADLYALIBI_010556.MOV 
* FROM CLIP NAME:  QEVL1ARCH215.NEW.01
470  EVL1_HEI V     C        00:12:48:27 00:12:49:15 01:10:31:28 01:10:32:15 
M2   EVL1_HEI       037.5                00:12:48:27 
* POND5_T_QEVL1HEIS690_HEISTS_LUFTHANSA HEIST_TRAFFIC-SIGNS-NEW-YORK-CITY NO PARKI 
* NG_695597 
* FROM CLIP NAME:  T_QEVL1HEIS690.NEW.01 
* REEL: POND5_695597
471  EVL1_SCA V     C        00:10:01:06 00:10:01:18 01:10:32:15 01:10:32:26 
M2   EVL1_SCA       037.5                00:10:01:06 
* SHUTTERSTOCK_T_QEVL1SCAM780_SCAMS_BERNIE MADOFF_GROUP OF PIGEONS FLYING UP FROM 
* STREET 1970S NEW YORK_1827884 
* FROM CLIP NAME:  T_QEVL1SCAM780.NEW.01
472  EVL1_HEI V     C        00:12:23:06 00:12:23:22 01:10:32:26 01:10:33:11 
M2   EVL1_HEI       037.5                00:12:23:06 
* POND5_T_QEVL1HEIS642_HEISTS_DINNER SET GANG_POLICE CAR LIGHTS GOING OFF AT NIGHT 
*  CU ON TOP OF CAR_936518 
* FROM CLIP NAME:  T_QEVL1HEIS642.NEW.01 
* REEL: POND5_936518
473  GFX_HEIS V     C        00:00:00:00 00:00:05:09 01:10:33:01 01:10:38:13 
* FROM CLIP NAME:  GFX_HEIS05_GND_01_V01.MOV
474  TEMP_    V     C        01:00:00:00 01:00:05:01 01:10:38:13 01:10:43:14 
* FROM CLIP NAME:  TEMP
475  GFX_HEIS V     C        01:00:00:09 01:00:05:20 01:10:38:13 01:10:43:24 
* FROM CLIP NAME:  GFX_HEIS04_MAP_01.TIF
476  EVL1_HEI V     C        00:12:25:23 00:12:26:09 01:10:43:24 01:10:44:09 
M2   EVL1_HEI       037.5                00:12:25:23 
* POND5_T_QEVL1HEIS642_HEISTS_DINNER SET GANG_POLICE CAR LIGHTS GOING OFF AT NIGHT 
*  CU ON TOP OF CAR_936518 
* FROM CLIP NAME:  T_QEVL1HEIS642.NEW.01 
* REEL: POND5_936518
477  SEVL1HEI V     C        01:00:02:19 01:00:03:07 01:10:43:24 01:10:44:09 
* GETTY IMAGES__SEVL1HEIS213_HEISTS_LUFTHANSA HEIST_HIEST GETAWAY VAN WITH SIGN âC 
* RIME SCENE, NO ENTRYâ_9281779_HTTP://WWW.GETTYIMAGES.COM/LICENSE/97281779 
* FROM CLIP NAME:  SEVL1HEIS213.TIFF.NEW.01 
* REEL: 9281779
479  EVL1_HEI V     C        00:12:27:25 00:12:29:09 01:10:44:09 01:10:45:23 
M2   EVL1_HEI       037.5                00:12:27:25 
* POND5_T_QEVL1HEIS642_HEISTS_DINNER SET GANG_POLICE CAR LIGHTS GOING OFF AT NIGHT 
*  CU ON TOP OF CAR_936518 
* FROM CLIP NAME:  T_QEVL1HEIS642.NEW.01 
* REEL: POND5_936518
478  SEVL1HEI V     C        01:00:04:20 01:00:06:07 01:10:44:09 01:10:45:23 
* GETTY IMAGES__SEVL1HEIS213_HEISTS_LUFTHANSA HEIST_HIEST GETAWAY VAN WITH SIGN âC 
* RIME SCENE, NO ENTRYâ_9281779_HTTP://WWW.GETTYIMAGES.COM/LICENSE/97281779 
* FROM CLIP NAME:  SEVL1HEIS213.TIFF.NEW.01 
* REEL: 9281779
481  MORTICE_ V     C        01:02:12:10 01:02:16:20 01:10:45:23 01:10:50:05 
* FROM CLIP NAME:  MORTICE_02 WITH ALPHA_V03.TIF
FCM: DROP FRAME
480  EVL1_HEI V     C        00:01:17:05 00:01:21:18 01:10:45:23 01:10:50:05 
M2   EVL1_HEI       037.5                00:01:17:05 
* NYPD__QEVL1HEIS382_HEISTS_LUFTHANSA HEIST_PARNELL "STACKS" EDWARDS (STILL WITHIN 
*  MOV)_NYPD-STACKS EDWARDS 
* FROM CLIP NAME:  QEVL1HEIS382.NEW.01 
* REEL: NYPD_NYPD-STACKS EDWARDS
FCM: NON-DROP FRAME
482  EVL1_HEI V     C        00:02:49:04 00:02:50:05 01:10:50:05 01:10:51:06 
* POND5_T_QEVL1HEIS455_HEISTS_LUFTHANSA HEIST_POLICE CAR WITH FLASHING LIGHTS PORT 
*  AUTHROITY_60679840 
* FROM CLIP NAME:  T_QEVL1HEIS455.NEW.01 
* REEL: POND5_60679840
483  EVL1_HEI V     C        00:02:50:05 00:02:51:04 01:10:51:06 01:10:52:05 
* POND5_T_QEVL1HEIS455_HEISTS_LUFTHANSA HEIST_POLICE CAR WITH FLASHING LIGHTS PORT 
*  AUTHROITY_60679840 
* FROM CLIP NAME:  T_QEVL1HEIS455.NEW.01 
* REEL: POND5_60679840
484  T_QEVL1H V     C        00:43:50:21 00:43:52:02 01:10:52:05 01:10:53:15 
M2   T_QEVL1H       037.5                00:43:50:21 
* NBC NEWS_T_QEVL1HEIS494_HEISTS_LUFTHANSA HEIST_NEWS ON LUFTHANSA ROBBERY, COPS P 
* RESS CONFERENCE, LOUIS WERNER ARREST, CARGO BUILDING INTERIOR EXTERIOR, AERIAL, 
* EXAMINE BROKEN FENCE, EMPLOYEE B-ROLL_MN16F8078-001_WO1.MOV 
* FROM CLIP NAME:  T_QEVL1HEIS494.NEW.01 
* REEL: NBC NEWS_MN16F8078-001_WO1.MOV
485  EVL1_HEI V     C        00:11:10:08 00:11:10:28 01:10:53:15 01:10:54:04 
M2   EVL1_HEI       037.5                00:11:10:08 
* POND5_T_QEVL1HEIS463_HEISTS_LUFTHANSA HEIST_POLICE LIGHTS VINTAGE SUPER 8_428151 
* 33 
* FROM CLIP NAME:  T_QEVL1HEIS463.NEW.01 
* REEL: POND5_42815133
486  SEVL1HEI V     C        01:00:05:00 01:00:08:10 01:10:54:04 01:10:57:16 
* GETTY IMAGES__SEVL1HEIS060_HEISTS_LUFTHANSA HEIST_JIMMY THE GENT BURKE BEING ARR 
* ESTED_97279698_HTTP://WWW.GETTYIMAGES.COM/LICENSE/97279698 
* FROM CLIP NAME:  SEVL1HEIS060.TIFF.NEW.01 
* REEL: 97279698
487  EVL1_HEI V     C        00:10:48:03 00:10:49:29 01:10:57:16 01:10:59:11 
M2   EVL1_HEI       037.5                00:10:48:03 
* POND5_T_QEVL1HEIS346_HEISTS_LUFTHANSA HEIST_GLOVED HAND PICKING UP HAND GUN_5883 
* 1232 
* FROM CLIP NAME:  T_QEVL1HEIS346.NEW.01 
* REEL: POND5_58831232
488  QEVL1HEI V     C        00:08:52:11 00:08:55:28 01:10:58:19 01:11:02:05 
M2   QEVL1HEI       037.5                00:08:52:11 
* GETTY IMAGES__QEVL1HEIS469_HEISTS_LUFTHANSA HEIST_SLOW MOTION WIDE SHOT MEN RUNN 
* ING THROUGH THE HALLS SD ONLY_644-12 
* FROM CLIP NAME:  QEVL1HEIS469.NEW.01 
* REEL: GETTY IMAGES_644-12
FCM: DROP FRAME
489  EVL1_HEI V     C        00:00:32:10 00:00:34:00 01:11:00:23 01:11:02:13 
M2   EVL1_HEI       037.5                00:00:32:10 
* AETN__QEVL1HEIS078_HEISTS_LUFTHANSA HEIST_ROBBER POINTS GUN; CU OF HANDS TIED BE 
* HIND BACK; MAN REACTS TO GUN POINTED AT HIM; BOXES_106549_MOBSTERS_JIMMYTHEGENTB 
* URKE_25 
* FROM CLIP NAME:  QEVL1HEIS078.NEW.01 
* REEL: AETN_106549_MOBSTERS_JIMMYTHEGE
490  EVL1_HEI V     C        00:00:12:17 00:00:14:13 01:11:02:13 01:11:04:08 
M2   EVL1_HEI       037.5                00:00:12:17 
* AETN__QEVL1HEIS060_HEISTS_LUFTHANSA HEIST_MAN BEATING MAN UP; MAN WALKS TOWARD C 
* AMERA THREATENINGLY_106549_MOBSTERS_JIMMYTHEGENTBURKE_07 
* FROM CLIP NAME:  QEVL1HEIS060.NEW.01 
* REEL: AETN_106549_MOBSTERS_JIMMYTHEGE
FCM: NON-DROP FRAME
491  EVL10509 V     C        11:14:12:09 11:14:27:19 01:11:04:08 01:11:19:20 
* FROM CLIP NAME:  EVL1050916A01_IP_0159.NEW.01.SUB.02
493  EVIL_GEN V     C        00:00:00:00 00:00:04:18 01:11:04:26 01:11:09:19 
* FROM CLIP NAME:  EVIL GENIUS L3 LINES_V02 UNMATTED.MOV
FCM: DROP FRAME
494  LWR_3RD_ V     C        01:00:00:00 01:00:04:22 01:11:04:26 01:11:09:19 
* FROM CLIP NAME:  LWR 3RD SAMPLE.21
492  LWR_3RD_ V     C        01:00:00:00 01:00:04:22 01:11:04:26 01:11:09:19 
* FROM CLIP NAME:  LWR 3RD SAMPLE.22
FCM: NON-DROP FRAME
495  EVL10509 V     C        10:53:03:22 10:53:05:14 01:11:19:20 01:11:21:10 
* FROM CLIP NAME:  EVL1050916B01_E0347.NEW.01.SUB.02
496  EVL1_HEI V     C        00:11:41:17 00:11:42:17 01:11:21:10 01:11:22:09 
M2   EVL1_HEI       037.5                00:11:41:17 
* POND5_T_QEVL1HEIS543_HEISTS_LUFTHANSA_RAISING AND CHARGING GUN_11480148 
* FROM CLIP NAME:  T_QEVL1HEIS543.NEW.01 
* REEL: POND5_11480148
FCM: DROP FRAME
497  EVL1_HEI V     C        00:01:09:13 00:01:10:23 01:11:22:09 01:11:23:18 
M2   EVL1_HEI       037.5                00:01:09:13 
* NYPD__QEVL1HEIS372_HEISTS_LUFTHANSA HEIST_JIMMY BURKE NYPD PHOTO (STILL WITHIN M 
* OV)_NYPD 
* FROM CLIP NAME:  QEVL1HEIS372.NEW.01 
* REEL: NYPD_NYPD
498  EVL1_HEI V     C        00:01:10:22 00:01:12:20 01:11:23:18 01:11:25:15 
M2   EVL1_HEI       037.5                00:01:10:22 
* NYPD__QEVL1HEIS372_HEISTS_LUFTHANSA HEIST_JIMMY BURKE NYPD PHOTO (STILL WITHIN M 
* OV)_NYPD 
* FROM CLIP NAME:  QEVL1HEIS372.NEW.01 
* REEL: NYPD_NYPD
499  EVL1_HEI V     C        00:00:33:22 00:00:35:19 01:11:23:19 01:11:25:15 
M2   EVL1_HEI       037.5                00:00:33:22 
* AETN__QEVL1HEIS082_HEISTS_LUFTHANSA HEIST_2 GUYS MAKE DEAL IN RESTAURANT OVER ME 
* AL; CIGARETTE; PAY PHONE_106549_MOBSTERS_JIMMYTHEGENTBURKE_29 
* FROM CLIP NAME:  QEVL1HEIS082.NEW.01 
* REEL: AETN_106549_MOBSTERS_JIMMYTHEGE
FCM: NON-DROP FRAME
500  EVL10512 V     C        13:51:12:12 13:51:13:15 01:11:25:15 01:11:26:19 
* FROM CLIP NAME:  EVL1051216A02_IP_0225.NEW.01.SUB.01
FCM: DROP FRAME
501  EVL1_HEI V     C        00:00:21:07 00:00:23:15 01:11:26:19 01:11:28:26 
M2   EVL1_HEI       037.5                00:00:21:07 
* AETN__QEVL1HEIS059_HEISTS_LUFTHANSA HEIST_âGRAINYâ LOOK - MONEY CHANGES HANDS, M 
* AN GETS HANDCUFFED, MAN INTERROGATED_106549_MOBSTERS_JIMMYTHEGENTBURKE_06 
* FROM CLIP NAME:  QEVL1HEIS059.NEW.01 
* REEL: AETN_106549_MOBSTERS_JIMMYTHEGE
FCM: NON-DROP FRAME
502  EVL1_HEI V     C        00:00:53:09 00:00:53:12 01:11:28:26 01:11:28:29 
* GETTY IMAGES__QEVL1HEIS352_HEISTS_LUFTHANSA HEIST_CU GUN SHOT WITH BLACK BACKGRO 
* UND_145725620 
* FROM CLIP NAME:  QEVL1HEIS352.NEW.01 
* REEL: GETTY IMAGES_145725620
503  EVL1_HEI V     C        00:00:53:12 00:00:54:11 01:11:28:29 01:11:29:23 
* GETTY IMAGES__QEVL1HEIS352_HEISTS_LUFTHANSA HEIST_CU GUN SHOT WITH BLACK BACKGRO 
* UND_145725620 
* FROM CLIP NAME:  QEVL1HEIS352.NEW.01 
* REEL: GETTY IMAGES_145725620
504  EVL1_HEI V     C        00:00:53:11 00:00:53:12 01:11:29:21 01:11:29:23 
* GETTY IMAGES__QEVL1HEIS352_HEISTS_LUFTHANSA HEIST_CU GUN SHOT WITH BLACK BACKGRO 
* UND_145725620 
* FROM CLIP NAME:  QEVL1HEIS352.NEW.01 
* REEL: GETTY IMAGES_145725620
FCM: DROP FRAME
505  EVL1_HEI V     C        00:00:30:03 00:00:31:04 01:11:29:23 01:11:30:23 
M2   EVL1_HEI       037.5                00:00:30:03 
* AETN__QEVL1HEIS083_HEISTS_LUFTHANSA HEIST_2 DEAD BODIES SLUMPED OVER IN CAR_1065 
* 49_MOBSTERS_JIMMYTHEGENTBURKE_30 
* FROM CLIP NAME:  QEVL1HEIS083.NEW.01.COPY.01
FCM: NON-DROP FRAME
506  EVL1_HEI V     C        00:00:53:09 00:00:53:12 01:11:30:20 01:11:30:23 
* GETTY IMAGES__QEVL1HEIS352_HEISTS_LUFTHANSA HEIST_CU GUN SHOT WITH BLACK BACKGRO 
* UND_145725620 
* FROM CLIP NAME:  QEVL1HEIS352.NEW.01 
* REEL: GETTY IMAGES_145725620
507  SEVL1HEI V     C        01:00:02:20 01:00:03:15 01:11:30:23 01:11:31:16 
* GETTY IMAGES__SEVL1HEIS061_HEISTS_LUFTHANSA HEIST_DEAD BODIES OF ROBERT MCMAHON 
* AND JOSEPH MANRI FOUND_97265768_HTTP://WWW.GETTYIMAGES.COM/LICENSE/97265768 
* FROM CLIP NAME:  SEVL1HEIS061.TIFF.NEW.01 
* REEL: 97265768
508  T_QEVL1H V     C        00:06:41:07 00:06:42:07 01:11:31:16 01:11:32:15 
M2   T_QEVL1H       031.3                00:06:41:07 
* POND5_T_QEVL1HEIS724_HEISTS_LUFTHANSA HEIST_BLOOD STAINED KNIFE FALLS IN SLOW MO 
* TION MOBSTER HIT_61738112 
* FROM CLIP NAME:  T_QEVL1HEIS724.NEW.01 
* REEL: POND5_61738112
509  EVL1_HEI V     C        00:11:42:28 00:11:44:13 01:11:32:15 01:11:33:29 
M2   EVL1_HEI       037.5                00:11:42:28 
* POND5_T_QEVL1HEIS542_HEISTS_LUFTHANSA_LOADING BLOODY BODY INTO TRUNK_11346493 
* FROM CLIP NAME:  T_QEVL1HEIS542.NEW.01 
* REEL: POND5_11346493
510  T_QEVL1H V     C        00:42:23:01 00:42:24:04 01:11:33:29 01:11:35:01 
M2   T_QEVL1H       037.5                00:42:23:01 
* NBC NEWS_T_QEVL1HEIS494_HEISTS_LUFTHANSA HEIST_NEWS ON LUFTHANSA ROBBERY, COPS P 
* RESS CONFERENCE, LOUIS WERNER ARREST, CARGO BUILDING INTERIOR EXTERIOR, AERIAL, 
* EXAMINE BROKEN FENCE, EMPLOYEE B-ROLL_MN16F8078-001_WO1.MOV 
* FROM CLIP NAME:  T_QEVL1HEIS494.NEW.01 
* REEL: NBC NEWS_MN16F8078-001_WO1.MOV
511  T_QEVL1H V     C        00:42:24:03 00:42:25:13 01:11:35:01 01:11:36:10 
M2   T_QEVL1H       037.5                00:42:24:03 
* NBC NEWS_T_QEVL1HEIS494_HEISTS_LUFTHANSA HEIST_NEWS ON LUFTHANSA ROBBERY, COPS P 
* RESS CONFERENCE, LOUIS WERNER ARREST, CARGO BUILDING INTERIOR EXTERIOR, AERIAL, 
* EXAMINE BROKEN FENCE, EMPLOYEE B-ROLL_MN16F8078-001_WO1.MOV 
* FROM CLIP NAME:  T_QEVL1HEIS494.NEW.01 
* REEL: NBC NEWS_MN16F8078-001_WO1.MOV
512  T_QEVL1H V     C        00:45:07:07 00:45:09:12 01:11:36:10 01:11:38:14 
M2   T_QEVL1H       037.5                00:45:07:07 
* NBC NEWS_T_QEVL1HEIS494_HEISTS_LUFTHANSA HEIST_NEWS ON LUFTHANSA ROBBERY, COPS P 
* RESS CONFERENCE, LOUIS WERNER ARREST, CARGO BUILDING INTERIOR EXTERIOR, AERIAL, 
* EXAMINE BROKEN FENCE, EMPLOYEE B-ROLL_MN16F8078-001_WO1.MOV 
* FROM CLIP NAME:  T_QEVL1HEIS494.NEW.01 
* REEL: NBC NEWS_MN16F8078-001_WO1.MOV
513  SEVL1HEI V     C        01:00:03:17 01:00:07:10 01:11:38:14 01:11:42:05 
* GETTY IMAGES__SEVL1HEIS370_HEISTS_LUFTHANSA HEIST_NY DAILY NEWS HEADLINE - âLINK 
*  2 SLAYINGS TO JFK HEISTâ (MAY 19, 1979)_454553204_HTTP://WWW.GETTYIMAGES.COM/LI 
* CENSE/454553204 
* FROM CLIP NAME:  SEVL1HEIS370.TIFF.NEW.01 
* REEL: GETTY IMAGES_454553204
514  T_QEVL1H V     C        00:45:09:11 00:45:13:03 01:11:38:14 01:11:42:05 
M2   T_QEVL1H       037.5                00:45:09:11 
* NBC NEWS_T_QEVL1HEIS494_HEISTS_LUFTHANSA HEIST_NEWS ON LUFTHANSA ROBBERY, COPS P 
* RESS CONFERENCE, LOUIS WERNER ARREST, CARGO BUILDING INTERIOR EXTERIOR, AERIAL, 
* EXAMINE BROKEN FENCE, EMPLOYEE B-ROLL_MN16F8078-001_WO1.MOV 
* FROM CLIP NAME:  T_QEVL1HEIS494.NEW.01 
* REEL: NBC NEWS_MN16F8078-001_WO1.MOV
515  EVL10509 V     C        12:42:38:07 12:42:41:02 01:11:42:05 01:11:44:29 
* FROM CLIP NAME:  EVL1050916A02_IP_0161.NEW.01.SUB.01
516  EVL1_HEI V     C        00:04:50:13 00:04:53:15 01:11:44:29 01:11:48:00 
M2   EVL1_HEI       031.3                00:04:50:13 
* GETTY__QEVL1HEIS1082_HEISTS_SISI JEWEL_BUILDING UP A WEAPON, RIFLE, GETTING READ 
* Y FOR A BANK ROBBERY, POV ROBBER HOLDING GUN IN FACE_135821563 
* FROM CLIP NAME:  QEVL1HEIS1082.NEW.01 
* REEL: GETTY_135821563
517  EVL10509 V     C        12:42:43:20 12:42:46:08 01:11:45:15 01:11:48:00 
* FROM CLIP NAME:  EVL1050916A02_IP_0161.NEW.01.SUB.01
518  T_QEVL1H V     C        00:44:17:11 00:44:20:03 01:11:48:00 01:11:50:21 
M2   T_QEVL1H       037.5                00:44:17:11 
* NBC NEWS_T_QEVL1HEIS494_HEISTS_LUFTHANSA HEIST_NEWS ON LUFTHANSA ROBBERY, COPS P 
* RESS CONFERENCE, LOUIS WERNER ARREST, CARGO BUILDING INTERIOR EXTERIOR, AERIAL, 
* EXAMINE BROKEN FENCE, EMPLOYEE B-ROLL_MN16F8078-001_WO1.MOV 
* FROM CLIP NAME:  T_QEVL1HEIS494.NEW.01 
* REEL: NBC NEWS_MN16F8078-001_WO1.MOV
FCM: DROP FRAME
519  EVL1_HEI V     C        00:00:15:16 00:00:17:04 01:11:50:21 01:11:52:09 
M2   EVL1_HEI       037.5                00:00:15:16 
* AETN__QEVL1HEIS059_HEISTS_LUFTHANSA HEIST_âGRAINYâ LOOK - MONEY CHANGES HANDS, M 
* AN GETS HANDCUFFED, MAN INTERROGATED_106549_MOBSTERS_JIMMYTHEGENTBURKE_06 
* FROM CLIP NAME:  QEVL1HEIS059.NEW.01 
* REEL: AETN_106549_MOBSTERS_JIMMYTHEGE
FCM: NON-DROP FRAME
520  T_QEVL1H V     C        00:42:15:15 00:42:21:12 01:11:52:09 01:11:58:05 
M2   T_QEVL1H       037.5                00:42:15:15 
* NBC NEWS_T_QEVL1HEIS494_HEISTS_LUFTHANSA HEIST_NEWS ON LUFTHANSA ROBBERY, COPS P 
* RESS CONFERENCE, LOUIS WERNER ARREST, CARGO BUILDING INTERIOR EXTERIOR, AERIAL, 
* EXAMINE BROKEN FENCE, EMPLOYEE B-ROLL_MN16F8078-001_WO1.MOV 
* FROM CLIP NAME:  T_QEVL1HEIS494.NEW.01 
* REEL: NBC NEWS_MN16F8078-001_WO1.MOV
521  QEVL1HEI V     C        00:01:39:04 00:01:41:23 01:11:58:05 01:12:00:13 
* GETTY__QEVL1HEIS564_HEISTS_LUFTHANSA HEIST_CU, PRISON GUARD OPENING PRISON CELL 
* DOOR, MALE PRISONER EXITING_9011-47 
* FROM CLIP NAME:  QEVL1HEIS564.NEW.01 
* REEL: GETTY_9011-47
FCM: DROP FRAME
522  EVL1_HEI V     C        00:01:19:06 00:01:21:24 01:12:00:13 01:12:03:00 
M2   EVL1_HEI       037.5                00:01:19:06 
* FBI__QEVL1HEIS388_HEISTS_LUFTHANSA HEIST_JIMMY BURKE- WENDE PRISON MUGSHOT (STIL 
* L WITHIN MOV)_ 
* FROM CLIP NAME:  QEVL1HEIS388.NEW.01 
* REEL: FBI_
FCM: NON-DROP FRAME
523  EVL1_HEI V     C        00:11:56:23 00:11:58:18 01:12:03:00 01:12:04:24 
M2   EVL1_HEI       037.5                00:11:56:23 
* POND5_T_QEVL1HEIS586_HEISTS_LUFTHANSA HEIST_GENERIC PRISON YARD ENTRANCE GATES_4 
* 3332361 
* FROM CLIP NAME:  T_QEVL1HEIS586.NEW.01 
* REEL: POND5_43332361
524  QEVL1HEI V     C        00:01:34:10 00:01:36:02 01:12:04:24 01:12:06:04 
* GETTY__QEVL1HEIS581_HEISTS_LUFTHANSA HEIST_GUARD WITH RIFLE STANDING IN GUARD TO 
* WER AND PEOPLE OF WEARING ORANGE UNIFORMS IN PRISON YARD_140298663 
* FROM CLIP NAME:  QEVL1HEIS581.NEW.01 
* REEL: GETTY_140298663
525  EVL1_ESC V     C        04:00:03:20 04:00:05:07 01:12:06:04 01:12:07:16 
M2   EVL1_ESC       031.3                04:00:03:20 
* POND5_T_QEVL1ESCP010_GREAT ESCAPES_MECKLENBURG SIX_PRISON, DEATH ROW, CORRECTION 
*  OFFICERS, POLICE DOG_10608089 
* FROM CLIP NAME:  T_QEVL1ESCP010.NEW.01
526  T_QEVL1H V     C        00:11:51:16 00:11:53:02 01:12:07:16 01:12:09:01 
M2   T_QEVL1H       037.5                00:11:51:16 
* GETTY_T_QEVL1HEIS577_HEISTS_LUFTHANSA HEIST_CELL DOORS PRISON BARS SHUT, LOW ANG 
* LE_117720686 
* FROM CLIP NAME:  T_QEVL1HEIS577.NEW.01 
* REEL: GETTY_117720686
527  EVL1_HEI V     C        00:11:46:17 00:11:48:23 01:12:09:01 01:12:11:06 
M2   EVL1_HEI       037.5                00:11:46:17 
* POND5_T_QEVL1HEIS549_HEISTS__SHADOW OF JAIL CELL CLOSING_44757593 
* FROM CLIP NAME:  T_QEVL1HEIS549.NEW.01
528  T_QEVL1H V     C        00:07:13:09 00:07:18:21 01:12:10:13 01:12:15:26 
M2   T_QEVL1H       031.3                00:07:13:09 
* POND5_T_QEVL1HEIS823_HEISTS_LUFTHANSA HEIST_LAST GOODBYE AT FUNERAL_44725785 
* FROM CLIP NAME:  T_QEVL1HEIS823.NEW.01 
* REEL: POND5_44725785
FCM: DROP FRAME
529  EVL1_HEI V     C        00:00:14:15 00:00:15:22 01:12:15:26 01:12:17:03 
M2   EVL1_HEI       037.5                00:00:14:15 
* AETN__QEVL1HEIS064_HEISTS_LUFTHANSA HEIST_MEN WITH BAGS (OF CASH) WALK THROUGH H 
* ALL / ZOOM INTO $20 BILLS_106549_MOBSTERS_JIMMYTHEGENTBURKE_11 
* FROM CLIP NAME:  QEVL1HEIS064.NEW.01 
* REEL: AETN_106549_MOBSTERS_JIMMYTHEGE
530  EVL1_GRN V     C        02:02:33:16 02:02:35:00 01:12:17:03 01:12:18:16 
M2   EVL1_GRN       037.5                02:02:33:16 
* AETN__QEVL1GRND044_UNDERGROUND_EL CHAPO TUNNELS_EL CHAPO NEWS REPORT, FINDING MO 
* NEY_76238_COCAINEHISTORYBETWEENTHELINES_63 
* FROM CLIP NAME:  QEVL1GRND044.NEW.01
FCM: NON-DROP FRAME
531  EVL1_HEI V     C        00:06:23:07 00:06:24:13 01:12:18:16 01:12:19:21 
M2   EVL1_HEI       031.3                00:06:23:07 
* POND5_T_QEVL1HEIS481_HEISTS_LUFTHANSA HEIST_MIDSECTION OF MAN COUNTING MONEY IN 
* HANDS_21428566 
* FROM CLIP NAME:  T_QEVL1HEIS481.NEW.01 
* REEL: POND5_21428566
532  EVL1_HEI V     C        00:06:24:12 00:06:27:16 01:12:19:21 01:12:22:25 
M2   EVL1_HEI       031.3                00:06:24:12 
* POND5_T_QEVL1HEIS481_HEISTS_LUFTHANSA HEIST_MIDSECTION OF MAN COUNTING MONEY IN 
* HANDS_21428566 
* FROM CLIP NAME:  T_QEVL1HEIS481.NEW.01 
* REEL: POND5_21428566
533  QEVL1HEI V     C        00:01:01:23 00:01:03:05 01:12:22:25 01:12:23:25 
* GETTY IMAGES__QEVL1HEIS385_HEISTS_SISI JEWEL HEIST_CLOSE UP WHEELS AND LANDING G 
* EAR RETRACTING DURING AIRPLANE TAKE OFF / AERIAL OVER RUNWAY_698-115 
* FROM CLIP NAME:  QEVL1HEIS385.NEW.01 
* REEL: GETTY IMAGES_698-115
534  EVL1_HEI V     C        00:05:57:08 00:05:59:10 01:12:23:25 01:12:25:26 
M2   EVL1_HEI       031.3                00:05:57:08 
* FRAMEPOOL_T_QEVL1HEIS319_HEISTS_SISI JEWEL HEIST_AIRPLANE TAKING OFF FROM RUNWAY 
* , FLYING OVER CAMERA_467-879-483 
* FROM CLIP NAME:  T_QEVL1HEIS319.NEW.01 
* REEL: FRAMEPOOL_467-879-483
535  EVL10509 V     C        12:44:19:06 12:44:21:06 01:12:25:26 01:12:27:26 
* FROM CLIP NAME:  EVL1050916A02_IP_0161.NEW.01.SUB.01
FCM: DROP FRAME
536  EVL1_HEI V     C        00:00:18:01 00:00:19:17 01:12:27:26 01:12:29:11 
M2   EVL1_HEI       037.5                00:00:18:01 
* AETN__QEVL1HEIS061_HEISTS_LUFTHANSA HEIST_STACKS OF HUNDRED DOLLAR BILLS; HANDSH 
* AKE; MAN THREATENED W/ GUN_106549_MOBSTERS_JIMMYTHEGENTBURKE_08 
* FROM CLIP NAME:  QEVL1HEIS061.NEW.01 
* REEL: AETN_106549_MOBSTERS_JIMMYTHEGE
FCM: NON-DROP FRAME
537  EVL1_HEI V     C        00:00:54:26 00:00:56:01 01:12:29:11 01:12:30:16 
* GETTY IMAGES__QEVL1HEIS354_HEISTS_LUFTHANSA HEIST_HOSTAGE BEING HELD AT GUNPOINT 
* , HIT ON HEAD_472722425 
* FROM CLIP NAME:  QEVL1HEIS354.NEW.01 
* REEL: GETTY IMAGES_472722425
538  T_SEVL1H V     C        01:00:05:01 01:00:05:17 01:12:30:16 01:12:31:06 
* GETTY IMAGES_T_SEVL1HEIS487_HEISTS_LUFTHANSA HEIST_TWO MEN IN BLACK, ONE HOLDING 
*  THE OTHER HOSTAGE AT GUNPOINT_138368062_HTTP://WWW.GETTYIMAGES.COM/LICENSE/1383 
* 68062 
* FROM CLIP NAME:  T_SEVL1HEIS487.TIF 
* REEL: GETTY IMAGES_138368062
539  EVL1_HEI V     C        00:01:13:17 00:01:15:01 01:12:31:06 01:12:32:09 
* GETTY IMAGES__QEVL1HEIS352_HEISTS_LUFTHANSA HEIST_CU GUN SHOT WITH BLACK BACKGRO 
* UND_145725620 
* FROM CLIP NAME:  QEVL1HEIS352.NEW.01 
* REEL: GETTY IMAGES_145725620
540  EVL10509 V     C        12:44:32:18 12:44:35:11 01:12:32:09 01:12:35:00 
* FROM CLIP NAME:  EVL1050916A02_IP_0161.NEW.01.SUB.01
FCM: DROP FRAME
541  EVL1_HEI V     C        00:00:56:01 00:01:00:24 01:12:35:00 01:12:39:20 
M2   EVL1_HEI       037.5                00:00:56:01 
* AETN__QEVL1HEIS199_HEISTS_LUFTHANSA HEIST_RECRE OF ROBBERY WITH PEOPLE LAYING ON 
*  FLOOR GUN POINTED AT THEM, ROBBER PUTTING MONEY INTO DUFFEL BAG_70462_GANGLAND_ 
* ARMYOFHATE_010227 
* FROM CLIP NAME:  QEVL1HEIS199.NEW.01 
* REEL: AETN_70462_GANGLAND_ARMYOFHATE_
542  EVL1_HEI V     C        00:01:09:13 00:01:11:00 01:12:39:20 01:12:41:06 
M2   EVL1_HEI       037.5                00:01:09:13 
* NYPD__QEVL1HEIS372_HEISTS_LUFTHANSA HEIST_JIMMY BURKE NYPD PHOTO (STILL WITHIN M 
* OV)_NYPD 
* FROM CLIP NAME:  QEVL1HEIS372.NEW.01 
* REEL: NYPD_NYPD
543  EVL1_HEI V     C        00:01:11:00 00:01:12:17 01:12:41:06 01:12:42:23 
M2   EVL1_HEI       037.5                00:01:11:00 
* NYPD__QEVL1HEIS372_HEISTS_LUFTHANSA HEIST_JIMMY BURKE NYPD PHOTO (STILL WITHIN M 
* OV)_NYPD 
* FROM CLIP NAME:  QEVL1HEIS372.NEW.01 
* REEL: NYPD_NYPD
FCM: NON-DROP FRAME
544  GFX_HEIS V     C        00:00:06:13 00:00:09:12 01:12:42:23 01:12:45:21 
* FROM CLIP NAME:  GFX_HEIS15_GND_03_V01.MOV
545  EVL1_HEI V     C        00:14:53:22 00:14:55:27 01:12:45:20 01:12:47:24 
M2   EVL1_HEI       037.5                00:14:53:22 
* POND5_T_QEVL1HEIS978_HEISTS_DINNER SET GANG_CLOSE UP OF MAN COUNTING MONEY, HUND 
* RED DOLLAR BILLS_61169578 
* FROM CLIP NAME:  T_QEVL1HEIS978.NEW.01 
* REEL: POND5_61169578
546  T_QEVL1H V     C        00:09:20:13 00:09:22:05 01:12:47:24 01:12:49:15 
M2   T_QEVL1H       037.5                00:09:20:13 
* POND5_T_QEVL1HEIS040_HEISTS_DINNER SET GANG_BURGLAR PEERS THRU WINDOW & PRIES IT 
* _SNOWY 47016070 
* FROM CLIP NAME:  T_QEVL1HEIS040.NEW.01.COPY.01
547  T_QEVL1H V     C        00:09:22:05 00:09:23:00 01:12:49:15 01:12:50:10 
M2   T_QEVL1H       037.5                00:09:22:05 
* POND5_T_QEVL1HEIS040_HEISTS_DINNER SET GANG_BURGLAR PEERS THRU WINDOW & PRIES IT 
* _SNOWY 47016070 
* FROM CLIP NAME:  T_QEVL1HEIS040.NEW.01.COPY.01
548  T_QEVL1H V     C        00:09:23:00 00:09:24:22 01:12:50:10 01:12:52:01 
M2   T_QEVL1H       037.5                00:09:23:00 
* POND5_T_QEVL1HEIS040_HEISTS_DINNER SET GANG_BURGLAR PEERS THRU WINDOW & PRIES IT 
* _SNOWY 47016070 
* FROM CLIP NAME:  T_QEVL1HEIS040.NEW.01.COPY.01
549  T_QEVL1H V     C        00:09:24:21 00:09:26:05 01:12:52:01 01:12:53:15 
M2   T_QEVL1H       037.5                00:09:24:21 
* POND5_T_QEVL1HEIS040_HEISTS_DINNER SET GANG_BURGLAR PEERS THRU WINDOW & PRIES IT 
* _SNOWY 47016070 
* FROM CLIP NAME:  T_QEVL1HEIS040.NEW.01.COPY.01
550  EVL1_HEI V     C        00:15:29:20 00:15:30:25 01:12:52:10 01:12:53:15 
M2   EVL1_HEI       037.5                00:15:29:20 
* SHUTTERSTOCK_T_QEVL1HEIS1033_HEISTS_DINNER SET GANG_LOW-KEY POINT OF VIEW VIDEO 
* OF BURGLAR CHECKING WHAT IS INSIDE SAFE BOX BEFORE STEALING CASH AND JEWELRY_374 
* 9723 
* FROM CLIP NAME:  T_QEVL1HEIS1033.NEW.01 
* REEL: SHUTTERSTOCK_3749723
551  T_QEVL1H V     C        00:09:26:05 00:09:27:29 01:12:53:15 01:12:55:09 
M2   T_QEVL1H       037.5                00:09:26:05 
* POND5_T_QEVL1HEIS040_HEISTS_DINNER SET GANG_BURGLAR PEERS THRU WINDOW & PRIES IT 
* _SNOWY 47016070 
* FROM CLIP NAME:  T_QEVL1HEIS040.NEW.01.COPY.01
552  EVL1_HEI V     C        00:07:44:07 00:07:46:05 01:12:55:09 01:12:57:05 
M2   EVL1_HEI       031.3                00:07:44:07 
* SHUTTERSTOCK_T_QEVL1HEIS1010_HEISTS_DINNER SET GANG_MANSION COVERED IN SNOW, SNO 
* WY TREES IN WINTER _14309380 
* FROM CLIP NAME:  T_QEVL1HEIS1010.NEW.01 
* REEL: SHUTTERSTOCK_14309380
553  EVL1_HEI V     C        00:06:15:09 00:06:16:10 01:12:57:05 01:12:58:05 
M2   EVL1_HEI       031.3                00:06:15:09 
* POND5_T_QEVL1HEIS595_HEISTS_DINNER SET GANG_BUSINESS MAN LEAFING THROUGH A GLOSS 
* Y MAGAZINE WHILE SITTING ON THE COUCH _48370690 
* FROM CLIP NAME:  T_QEVL1HEIS595.NEW.01.COPY.01
554  EVL1_HEI V     C        00:12:08:15 00:12:10:12 01:12:58:05 01:13:00:01 
M2   EVL1_HEI       037.5                00:12:08:15 
* POND5_T_QEVL1HEIS596_HEISTS_DINNER SET GANG_CU MAN'S HAND LEAFING THROUGH A PAGE 
* S OF THE MAGAZINE_62927716 
* FROM CLIP NAME:  T_QEVL1HEIS596.NEW.01 
* REEL: POND5_62927716
555  T_QEVL1H V     C        00:09:28:01 00:09:29:15 01:12:59:06 01:13:00:20 
M2   T_QEVL1H       037.5                00:09:28:01 
* POND5_T_QEVL1HEIS040_HEISTS_DINNER SET GANG_BURGLAR PEERS THRU WINDOW & PRIES IT 
* _SNOWY 47016070 
* FROM CLIP NAME:  T_QEVL1HEIS040.NEW.01.COPY.01
558  STILL.21 V     C        01:00:37:04 01:00:40:17 01:13:00:26 01:13:04:10 
* FROM CLIP NAME:  STILL.21
556  STILL.22 V     C        01:00:10:04 01:00:13:17 01:13:00:26 01:13:04:10 
* FROM CLIP NAME:  STILL.22
557  GFX_HEIS V     C        00:00:00:21 00:00:04:08 01:13:00:26 01:13:04:10 
* FROM CLIP NAME:  GFX_HEIS15_GND_4A_V01.MOV
559  EVL1_HEI V     C        00:16:18:23 00:16:19:22 01:13:04:10 01:13:05:08 
M2   EVL1_HEI       037.5                00:16:18:23 
* POND5_T_QEVL1HEIS1135_HEISTS_ALL ACTS_AERIAL SHOT OF SUNSET OVER NEW YORK CITY S 
* KYLINE_40715637 
* FROM CLIP NAME:  T_QEVL1HEIS1135.NEW.01 
* REEL: POND5_40715637
560  EVL1_ARC V     C        00:00:49:03 00:00:49:15 01:13:05:08 01:13:05:20 
* POND5_T_QEVL1HEIS1135_HEISTS_ALL ACTS_AERIAL SHOT OF SUNSET OVER NEW YORK CITY S 
* KYLINE_40715637 
* FROM CLIP NAME:  T_QEVL1ARCH201.NEW.01 
* TO CLIP NAME:  T_QEVL1HEIS1135.NEW.01 
* REEL: POND5_40715637
561  EVL1_ARC V     C        00:00:49:15 00:00:49:27 01:13:05:20 01:13:06:03 
* POND5_T_QEVL1ARCH201_ARCHITECTS_ROBERT MOSES_FLYING BY STATUE OF LIBERTY, BROOKL 
* YN IN THE DISTANCE, NEW YORK, NEW YORK,_60063521 
* FROM CLIP NAME:  T_QEVL1ARCH201.NEW.01
562  SEVL1HEI V     C        01:00:01:21 01:00:04:09 01:13:06:00 01:13:08:15 
* DICK ATKINS__SEVL1HEIS583_HEISTS_DINNER SET GANG_DOMINICK YOUNG SHIRTLESS W/ GUI 
* TAR_A07_ 
* FROM CLIP NAME:  SEVL1HEIS583.TIFF.NEW.01 
* REEL: DICK ATKINS_A07
563  EVL1_ARC V     C        00:00:49:28 00:00:50:22 01:13:06:03 01:13:06:28 
* POND5_T_QEVL1ARCH201_ARCHITECTS_ROBERT MOSES_FLYING BY STATUE OF LIBERTY, BROOKL 
* YN IN THE DISTANCE, NEW YORK, NEW YORK,_60063521 
* FROM CLIP NAME:  T_QEVL1ARCH201.NEW.01 
* TO CLIP NAME:  T_QEVL1ARCH201.NEW.01
564  EVL1_ARC V     C        00:00:50:23 00:00:56:16 01:13:06:28 01:13:12:21 
* POND5_T_QEVL1ARCH201_ARCHITECTS_ROBERT MOSES_FLYING BY STATUE OF LIBERTY, BROOKL 
* YN IN THE DISTANCE, NEW YORK, NEW YORK,_60063521 
* FROM CLIP NAME:  T_QEVL1ARCH201.NEW.01
565  SEVL1HEI V     C        01:00:03:17 01:00:05:15 01:13:08:03 01:13:10:00 
* DICK ATKINS__SEVL1HEIS585_HEISTS_DINNER SET GANG_DOMINICK & WIFE WEDDING PHOTO_A 
* 08_ 
* FROM CLIP NAME:  SEVL1HEIS585.TIFF.NEW.01 
* REEL: DICK ATKINS_A08
566  SEVL1HEI V     C        01:00:03:14 01:00:04:00 01:13:09:19 01:13:10:01 
* FROM CLIP NAME:  SEVL1HEIS581.TIFF.NEW.01
567  SEVL1HEI V     C        01:00:04:00 01:00:06:16 01:13:10:01 01:13:12:21 
* DICK ATKINS__SEVL1HEIS581_HEISTS_DINNER SET GANG_4 POLAROID IMAGES - DOMINICK & 
* PETER W/ WIVES & OLDER FAMILY MEMBERS_A05_ 
* FROM CLIP NAME:  SEVL1HEIS581.TIFF.NEW.01 
* REEL: DICK ATKINS_A05
568  MORTISE_ V     C        01:01:09:03 01:01:14:07 01:13:12:21 01:13:17:26 
* FROM CLIP NAME:  MORTISE_V01 WITH ALPHA.TIF
569  SEVL1HEI V     C        01:00:03:07 01:00:08:14 01:13:12:21 01:13:18:00 
* DICK ATKINS__SEVL1HES590_HEISTS_DINNER SET GANG_PETE & DOMINICK YOUNG B&W_A13_ 
* FROM CLIP NAME:  SEVL1HEIS590.TIFF.NEW.01 
* REEL: DICK ATKINS_A13
570  MORTISE_ V     C        01:01:14:07 01:01:14:07 01:13:17:26 01:13:17:26 
570     BL    V     W001 006 00:00:00:00 00:00:00:06 01:13:17:26 01:13:18:04 
* FROM CLIP NAME:  MORTISE_V01 WITH ALPHA.TIF
571  T_QEVL1H V     C        01:00:09:09 01:00:11:26 01:13:17:29 01:13:20:16 
* POND5_T_QEVL1HEIS1299_HEISTS_DINNER SET GANG_TRACKING SHOT PAST BEVERLY HILLS HO 
* MES ON AN UPSCALE STREET, MANSIONS_10895806 
* FROM CLIP NAME:  T_QEVL1HEIS1299.MOV 
* REEL: POND5_10895806
572  EVL1_HEI V     C        00:12:09:28 00:12:11:24 01:13:20:16 01:13:22:11 
M2   EVL1_HEI       037.5                00:12:09:28 
* SHUTTERSTOCK_T_QEVL1HEIS613_HEISTS_DINNER SET GANG_TWO MASKED BURGLARS MAKE THEI 
* R WAY THROUGH AN OPEN GATE AND GET INTO A HOUSE WHERE THE DOOR IS UNLOCKED. MEDI 
* UM-WIDE VIEW WITH DOLLY MOVE, LOOKING THROUGH A FENC AT A HOME_3726494 
* FROM CLIP NAME:  T_QEVL1HEIS613.NEW.01 
* REEL: SHUTTERSTOCK_3726494
573  T_QEVL1H V     C        01:00:00:00 01:00:02:19 01:13:22:11 01:13:25:00 
* POND5_T_QEVL1HEIS1300_HEISTS_DINNER SET GANG_ZOOM IN  HISTORIC MANSION IN MIAMI, 
*  FLORIDA_8928511 
* FROM CLIP NAME:  T_QEVL1HEIS1300.MOV 
* REEL: POND5_8928511
574  EVL1_HEI V     C        00:13:48:18 00:13:51:07 01:13:25:00 01:13:27:18 
M2   EVL1_HEI       037.5                00:13:48:18 
* SHUTTERSTOCK_T_QEVL1HEIS845_HEISTS_DINNER SET GANG_REAL SURVEILLANCE CAMERAS CAP 
* TURED AND RECORDED THE TWO ROBBERS ENTER THE HOUSE_14225156 
* FROM CLIP NAME:  T_QEVL1HEIS845.NEW.01.COPY.01
575  T_QEVL1H V     C        01:00:03:16 01:00:04:26 01:13:27:18 01:13:28:28 
* POND5_T_QEVL1HEIS1296_HEISTS_DINNER SET GANG_BURGLAR TRIES TO BREAK IN DOOR, LOO 
* KING THROUGH WINDOW AT NIGHT WITH FLASHLIGHT_11606788 
* FROM CLIP NAME:  T_QEVL1HEIS1296.MOV 
* REEL: POND5_11606788
576  EVL10602 V     C        09:49:58:20 09:50:03:08 01:13:28:28 01:13:33:13 
* FROM CLIP NAME:  EVL1060216A01_211_0033.NEW.01.SUB.01
FCM: DROP FRAME
577  LWR_3RD_ V     C        01:00:00:00 01:00:03:20 01:13:29:23 01:13:33:13 
* FROM CLIP NAME:  LWR 3RD SAMPLE.19
578  LWR_3RD_ V     C        01:00:00:00 01:00:03:20 01:13:29:23 01:13:33:13 
* FROM CLIP NAME:  LWR 3RD SAMPLE.20
FCM: NON-DROP FRAME
579  EVIL_GEN V     C        00:00:00:00 00:00:03:16 01:13:29:23 01:13:33:13 
* FROM CLIP NAME:  EVIL GENIUS L3 LINES_V02 UNMATTED.MOV
580  EVL10610 V     C        10:36:52:10 10:36:54:00 01:13:33:13 01:13:35:00 
* FROM CLIP NAME:  EVL1061016A01_275_0172.NEW.01
581  EVL1_HEI V     C        00:12:10:17 00:12:11:07 01:13:35:00 01:13:35:19 
M2   EVL1_HEI       037.5                00:12:10:17 
* POND5_T_QEVL1HEIS596_HEISTS_DINNER SET GANG_CU MAN'S HAND LEAFING THROUGH A PAGE 
* S OF THE MAGAZINE_62927716 
* FROM CLIP NAME:  T_QEVL1HEIS596.NEW.01 
* REEL: POND5_62927716
582  SEVL1HEI V     C        01:00:05:02 01:00:06:15 01:13:35:19 01:13:37:05 
* GETTY IMAGES__SEVL1HEIS717_HEISTS_DINNER SET GANG_RICH PEOPLE INSIDE MANSION HOM 
* E, WOMAN PLAYING PIANO_107105525_HTTP://WWW.GETTYIMAGES.COM/LICENSE/107105525 
* FROM CLIP NAME:  SEVL1HEIS717.TIF.NEW.01 
* REEL: GETTY IMAGES_107105525
583  EVL10602 V     C        09:51:05:09 09:51:07:10 01:13:37:05 01:13:39:06 
* FROM CLIP NAME:  EVL1060216A01_211_0033.NEW.01.SUB.01
584  EVL1_HEI V     C        00:12:36:21 00:12:37:19 01:13:38:26 01:13:39:24 
M2   EVL1_HEI       037.5                00:12:36:21 
* SHUTTERSTOCK_T_QEVL1HEIS592_HEISTS_DINNER SET GANG_MAN FLIPPING THROUGH MAGAZINE 
*  PAGES_7483831 
* FROM CLIP NAME:  T_QEVL1HEIS592.NEW.01 
* REEL: SHUTTERSTOCK_7483831
585  SEVL1HEI V     C        01:00:03:17 01:00:05:02 01:13:39:24 01:13:41:05 
* GETTY IMAGES__SEVL1HEIS644_HEISTS_DINNER SET GANG_WOMAN IN DOMESTIC BATHROOM IN 
* HER HOME OR HOUSE_119678644_HTTP://WWW.GETTYIMAGES.COM/LICENSE/119678644 *THIS I 
* S A DREAM SHOT - BUT IN THE LIVING ROOM WOULD PERFECT 
* FROM CLIP NAME:  SEVL1HEIS644.TIF.NEW.01 
* REEL: GETTY IMAGES_119678644
586  T_SEVL1H V     C        01:00:05:18 01:00:07:07 01:13:41:05 01:13:42:21 
* GETTY IMAGES_T_SEVL1HEIS724_HEISTS_DINNER SET GANG_DIPLOMATIC WIFE DRESSED IN PE 
* ARLS JEWELRY STANDING IN MANSION_3089117_HTTP://WWW.GETTYIMAGES.COM/LICENSE/3089 
* 117 
* FROM CLIP NAME:  T_SEVL1HEIS724.TIF.NEW.01 
* REEL: GETTY IMAGES_3089117
587  T_SEVL1H V     C        01:00:07:07 01:00:08:00 01:13:42:21 01:13:43:13 
* GETTY IMAGES_T_SEVL1HEIS724_HEISTS_DINNER SET GANG_DIPLOMATIC WIFE DRESSED IN PE 
* ARLS JEWELRY STANDING IN MANSION_3089117_HTTP://WWW.GETTYIMAGES.COM/LICENSE/3089 
* 117 
* FROM CLIP NAME:  T_SEVL1HEIS724.TIF.NEW.01 
* REEL: GETTY IMAGES_3089117
588  T_SEVL1H V     C        01:00:08:00 01:00:09:21 01:13:43:13 01:13:45:09 
* GETTY IMAGES_T_SEVL1HEIS724_HEISTS_DINNER SET GANG_DIPLOMATIC WIFE DRESSED IN PE 
* ARLS JEWELRY STANDING IN MANSION_3089117_HTTP://WWW.GETTYIMAGES.COM/LICENSE/3089 
* 117 
* FROM CLIP NAME:  T_SEVL1HEIS724.TIF.NEW.01 
* REEL: GETTY IMAGES_3089117
589  EVL10602 V     C        09:51:22:02 09:51:24:00 01:13:45:09 01:13:47:06 
* FROM CLIP NAME:  EVL1060216A01_211_0033.NEW.01.SUB.01
590  EVL1_HEI V     C        00:12:19:26 00:12:20:15 01:13:47:06 01:13:47:25 
M2   EVL1_HEI       037.5                00:12:19:26 
* SHUTTERSTOCK_T_QEVL1HEIS614_HEISTS_DINNER SET GANG_EXTREMELY CLOSE VIEW OF A BUR 
* GLAR TRYING TO GET INTO A HOUSE, FIRST CHECKING THE HANDLE, THEN USING A CROWBAR 
* ._3704591 
* FROM CLIP NAME:  T_QEVL1HEIS614.NEW.01 
* REEL: SHUTTERSTOCK_3704591
591  T_SEVL1H V     C        01:00:05:09 01:00:07:04 01:13:47:25 01:13:49:19 
* GETTY IMAGES_T_SEVL1HEIS711_HEISTS_DINNER SET GANG_HEIRESS RICH WOMAN STANDS ON 
* STAIRS IN HER MANSION_53466672_HTTP://WWW.GETTYIMAGES.COM/LICENSE/53466672 
* FROM CLIP NAME:  T_SEVL1HEIS711.TIF.NEW.01 
* REEL: GETTY IMAGES_53466672
592  T_SEVL1H V     C        01:00:07:04 01:00:08:10 01:13:49:19 01:13:50:26 
* GETTY IMAGES_T_SEVL1HEIS711_HEISTS_DINNER SET GANG_HEIRESS RICH WOMAN STANDS ON 
* STAIRS IN HER MANSION_53466672_HTTP://WWW.GETTYIMAGES.COM/LICENSE/53466672 
* FROM CLIP NAME:  T_SEVL1HEIS711.TIF.NEW.01 
* REEL: GETTY IMAGES_53466672
593  SEVL1HEI V     C        01:00:03:22 01:00:04:23 01:13:50:26 01:13:51:28 
* GETTY IMAGES__SEVL1HEIS645_HEISTS_DINNER SET GANG_WOMAN SITTING ON SOFA, PORTRAI 
* T, SMILING IN HER HOME OR HOUSE RETRO_119678623_HTTP://WWW.GETTYIMAGES.COM/DETAI 
* L/PHOTO/WOMAN-SITTING-ON-SOFA-PORTRAIT-SMILING-ROYALTY-FREE-IMAGE/119678623 
* FROM CLIP NAME:  SEVL1HEIS645.TIF.NEW.01 
* REEL: GETTY IMAGES_119678623
594  SEVL1HEI V     C        01:00:04:23 01:00:06:02 01:13:51:28 01:13:53:01 
* GETTY IMAGES__SEVL1HEIS645_HEISTS_DINNER SET GANG_WOMAN SITTING ON SOFA, PORTRAI 
* T, SMILING IN HER HOME OR HOUSE RETRO_119678623_HTTP://WWW.GETTYIMAGES.COM/DETAI 
* L/PHOTO/WOMAN-SITTING-ON-SOFA-PORTRAIT-SMILING-ROYALTY-FREE-IMAGE/119678623 
* FROM CLIP NAME:  SEVL1HEIS645.TIF.NEW.01 
* REEL: GETTY IMAGES_119678623
595  EVL1_HEI V     C        00:07:47:12 00:07:49:21 01:13:52:13 01:13:54:23 
M2   EVL1_HEI       031.3                00:07:47:12 
* SHUTTERSTOCK_T_QEVL1HEIS1032_HEISTS_DINNER SET GANG_FASHION JEWELRY, ACCESSORIES 
* _9762584 
* FROM CLIP NAME:  T_QEVL1HEIS1032.NEW.01 
* REEL: SHUTTERSTOCK_9762584
596  SEVL1HEI V     C        01:00:03:23 01:00:10:02 01:13:53:01 01:13:59:05 
* GETTY IMAGES__SEVL1HEIS727_HEISTS_DINNER SET GANG_THE DUKE AND DUCHESS OF ALBA S 
* IT AMONG PAINTINGS OF THEIR ANCESTORS, MANSION_80997013_HTTP://WWW.GETTYIMAGES.C 
* OM/LICENSE/80997013 
* FROM CLIP NAME:  SEVL1HEIS727.TIF.NEW.01 
* REEL: GETTY IMAGES_80997013
597  EVL1_HEI V     C        00:00:24:03 00:00:25:06 01:13:55:26 01:13:56:24 
* AETN__QEVL1HEIS178_HEISTS_DINNER SET GANG_MONTAGE OF JEWELRY, DIAMOND RINGS AND 
* EARRINGS_28309_BLOODDIAMONDS_1080P_010027 
* FROM CLIP NAME:  QEVL1HEIS178.NEW.01 
* REEL: AETN_28309_BLOODDIAMONDS_1080P_
598     AX    V     C        01:00:00:00 01:00:00:03 01:13:56:24 01:13:56:28 
* AETN__QEVL1HEIS178_HEISTS_DINNER SET GANG_MONTAGE OF JEWELRY, DIAMOND RINGS AND 
* EARRINGS_28309_BLOODDIAMONDS_1080P_010027 
* TO CLIP NAME:  QEVL1HEIS178.NEW.01 
* REEL: AETN_28309_BLOODDIAMONDS_1080P_
599  SEVL1HEI V     C        01:00:04:18 01:00:04:21 01:13:56:28 01:13:57:01 
* GETTY IMAGES__SEVL1HEIS701_HEISTS_DINNER SET GANG_PALE YELLOW WALLS IN LIVING RO 
* OM THAT WOULD HAVE BEEN ROBBED FANCY LIVING ROOM _522106448_HTTP://WWW.GETTYIMAG 
* ES.COM/LICENSE/522106448 
* FROM CLIP NAME:  SEVL1HEIS701.TIF.NEW.01 
* TO CLIP NAME:  SEVL1HEIS701.TIF.NEW.01 
* REEL: GETTY IMAGES_522106448
600  SEVL1HEI V     C        01:00:04:21 01:00:05:16 01:13:57:01 01:13:57:25 
* GETTY IMAGES__SEVL1HEIS701_HEISTS_DINNER SET GANG_PALE YELLOW WALLS IN LIVING RO 
* OM THAT WOULD HAVE BEEN ROBBED FANCY LIVING ROOM _522106448_HTTP://WWW.GETTYIMAG 
* ES.COM/LICENSE/522106448 
* FROM CLIP NAME:  SEVL1HEIS701.TIF.NEW.01 
* REEL: GETTY IMAGES_522106448
601     AX    V     C        01:00:00:00 01:00:00:03 01:13:57:25 01:13:57:29 
* GETTY IMAGES__SEVL1HEIS701_HEISTS_DINNER SET GANG_PALE YELLOW WALLS IN LIVING RO 
* OM THAT WOULD HAVE BEEN ROBBED FANCY LIVING ROOM _522106448_HTTP://WWW.GETTYIMAG 
* ES.COM/LICENSE/522106448 
* TO CLIP NAME:  SEVL1HEIS701.TIF.NEW.01 
* REEL: GETTY IMAGES_522106448
602  SEVL1HEI V     C        01:00:04:09 01:00:04:12 01:13:57:29 01:13:58:03 
* GETTY IMAGES__SEVL1HEIS712_HEISTS_DINNER SET GANG_TWO UPPER CLASS WOMEN CHAT AND 
*  HOLD DRINKS INSIDE THEIR MANSION_80748281_HTTP://WWW.GETTYIMAGES.COM/LICENSE/80 
* 748281 
* FROM CLIP NAME:  SEVL1HEIS712.TIF.NEW.01 
* TO CLIP NAME:  SEVL1HEIS712.TIF.NEW.01 
* REEL: GETTY IMAGES_80748281
603  SEVL1HEI V     C        01:00:04:12 01:00:05:10 01:13:58:03 01:13:59:00 
* GETTY IMAGES__SEVL1HEIS712_HEISTS_DINNER SET GANG_TWO UPPER CLASS WOMEN CHAT AND 
*  HOLD DRINKS INSIDE THEIR MANSION_80748281_HTTP://WWW.GETTYIMAGES.COM/LICENSE/80 
* 748281 
* FROM CLIP NAME:  SEVL1HEIS712.TIF.NEW.01 
* REEL: GETTY IMAGES_80748281
604  SEVL1HEI V     C        01:00:05:10 01:00:05:10 01:13:59:00 01:13:59:00 
604     BL    V     W001 010 00:00:00:00 00:00:00:10 01:13:59:00 01:13:59:13 
* GETTY IMAGES__SEVL1HEIS712_HEISTS_DINNER SET GANG_TWO UPPER CLASS WOMEN CHAT AND 
*  HOLD DRINKS INSIDE THEIR MANSION_80748281_HTTP://WWW.GETTYIMAGES.COM/LICENSE/80 
* 748281 
* FROM CLIP NAME:  SEVL1HEIS712.TIF.NEW.01 
* REEL: GETTY IMAGES_80748281
605  T_SEVL1H V     C        01:00:04:20 01:00:06:16 01:13:59:05 01:14:01:00 
* GETTY IMAGES_T_SEVL1HEIS700_HEISTS_DINNER SET GANG_A MODEL POSES AT A VANITY TAB 
* LE WITH MIRROR IN A PHOTO SHOOT FOR TOWN AND COUNTRY MAGAZINE._526116764_HTTP:// 
* WWW.GETTYIMAGES.COM/LICENSE/526116764 
* FROM CLIP NAME:  T_SEVL1HEIS700.TIF.NEW.01 
* REEL: GETTY IMAGES_526116764
606  EVL1_HEI V     C        00:15:29:00 00:15:30:15 01:14:00:15 01:14:02:00 
M2   EVL1_HEI       037.5                00:15:29:00 
* SHUTTERSTOCK_T_QEVL1HEIS1026_HEISTS_DINNER SET GANG_HAND TAKES GOLD NECKLACE OUT 
*  OF A JEWELRY BOX RINGS, PEARLS AND VINTAGE BROOCH IN THE BACKGROUND_1627270 
* FROM CLIP NAME:  T_QEVL1HEIS1026.NEW.01 
* REEL: SHUTTERSTOCK_1627270
607  T_SEVL1H V     C        01:00:04:20 01:00:06:22 01:14:01:00 01:14:03:03 
* GETTY IMAGES_T_SEVL1HEIS700_HEISTS_DINNER SET GANG_A MODEL POSES AT A VANITY TAB 
* LE WITH MIRROR IN A PHOTO SHOOT FOR TOWN AND COUNTRY MAGAZINE._526116764_HTTP:// 
* WWW.GETTYIMAGES.COM/LICENSE/526116764 
* FROM CLIP NAME:  T_SEVL1HEIS700.TIF.NEW.01 
* REEL: GETTY IMAGES_526116764
608  EVL1_HEI V     C        00:13:28:20 00:13:30:22 01:14:03:03 01:14:05:04 
M2   EVL1_HEI       037.5                00:13:28:20 
* POND5_T_QEVL1HEIS818_HEISTS_DIINNER SET GANG_HAND PICKING UP EARRING FROM JEWELR 
* Y BOX_11350690 
* FROM CLIP NAME:  T_QEVL1HEIS818.NEW.01 
* REEL: POND5_11350690
609  EVL10516 V     C        15:19:27:15 15:19:33:05 01:14:05:04 01:14:10:21 
* FROM CLIP NAME:  EVL1051616A04_IP_0252.NEW.01
610  EVL10525 V     C        09:09:21:17 09:09:27:07 01:14:05:04 01:14:10:21 
* FROM CLIP NAME:  EVL1052516A01_E019C003_16052565.NEW.01.SUB.01
FCM: DROP FRAME
613  LWR_3RD_ V     C        01:00:00:00 01:00:03:11 01:14:05:06 01:14:08:18 
* FROM CLIP NAME:  LWR 3RD SAMPLE.17
612  LWR_3RD_ V     C        01:00:00:00 01:00:03:11 01:14:05:06 01:14:08:18 
* FROM CLIP NAME:  LWR 3RD SAMPLE.18
FCM: NON-DROP FRAME
611  EVIL_GEN V     C        00:00:00:00 00:00:03:09 01:14:05:06 01:14:08:18 
* FROM CLIP NAME:  EVIL GENIUS L3 LINES_V02 UNMATTED.MOV
614  T_QEVL1H V     C        00:20:03:08 00:20:06:07 01:14:10:21 01:14:13:20 
* POND5_T_QEVL1HEIS1292_HEISTS_DINNER SET GANG_ AERIAL SHOT OF AN ENGLISH COUNTRY- 
* STYLE MANOR AND THE SURROUNDING PROPERTY, MANSION_12328970 
* FROM CLIP NAME:  T_QEVL1HEIS1292.MOV 
* REEL: POND5_12328970
615  T_QEVL1H V     C        01:00:03:01 01:00:05:12 01:14:13:20 01:14:16:01 
* POND5_T_QEVL1HEIS1307_HEISTS_DINNER SET GANG_ARCHITECTURE BLUEPRINT, HOUSE PLAN, 
*  GRAPHIC _7730263 
* FROM CLIP NAME:  T_QEVL1HEIS1307.MOV 
* REEL: POND5_7730263
617  EVL10523 V     C        14:16:35:12 14:16:37:19 01:14:16:00 01:14:18:09 
* FROM CLIP NAME:  EVL1052316A03_E014C002_1605236T.NEW.01.SUB.01
616  EVL10517 V     C        10:42:17:01 10:42:19:08 01:14:16:00 01:14:18:09 
* GEOFF MANAUGH 
* FROM CLIP NAME:  EVL1051716B02_LL0244.NEW.01
FCM: DROP FRAME
618  LWR_3RD_ V     C        01:00:00:00 01:00:02:06 01:14:16:03 01:14:18:09 
* FROM CLIP NAME:  LWR 3RD SAMPLE.13
FCM: NON-DROP FRAME
619  EVIL_GEN V     C        00:00:00:00 00:00:02:05 01:14:16:03 01:14:18:09 
* FROM CLIP NAME:  EVIL GENIUS L3 LINES_V02 UNMATTED.MOV
FCM: DROP FRAME
620  LWR_3RD_ V     C        01:00:00:00 01:00:02:06 01:14:16:03 01:14:18:09 
* FROM CLIP NAME:  LWR 3RD SAMPLE.14
FCM: NON-DROP FRAME
621  T_QEVL1H V     C        00:10:16:27 00:10:19:12 01:14:18:09 01:14:20:24 
M2   T_QEVL1H       037.5                00:10:16:27 
* POND5_T_QEVL1HEIS281_HEISTS_DINNER SET GANG_PASSING MANSIONS GOLDEN BEACH FL_599 
* 59488 
* FROM CLIP NAME:  T_QEVL1HEIS281.NEW.01.COPY.01
622  EVL10512 V     C        15:24:04:13 15:24:10:14 01:14:20:24 01:14:26:25 
* FROM CLIP NAME:  EVL1051216A03_IP_0226.NEW.01.SUB.01
FCM: DROP FRAME
625  LWR_3RD_ V     C        01:00:00:00 01:00:03:16 01:14:21:03 01:14:24:19 
* FROM CLIP NAME:  LWR 3RD SAMPLE.04
FCM: NON-DROP FRAME
624  EVIL_GEN V     C        00:00:00:00 00:00:03:13 01:14:21:03 01:14:24:19 
* FROM CLIP NAME:  EVIL GENIUS L3 LINES_V02 UNMATTED.MOV
FCM: DROP FRAME
623  LWR_3RD_ V     C        01:00:00:00 01:00:03:16 01:14:21:03 01:14:24:19 
* FROM CLIP NAME:  LWR 3RD SAMPLE.03
FCM: NON-DROP FRAME
626  SEVL1HEI V     C        01:00:04:17 01:00:07:05 01:14:26:25 01:14:29:10 
* GETTY IMAGES__SEVL1HEIS164_HEISTS_DINNER SET GANG_ARCHITECTURAL DIGEST MAGAZINE, 
*  LAYOUT FOR HOUSES GANG ROBBED_564010585_HTTP://WWW.GETTYIMAGES.COM/LICENSE/5640 
* 10585 
* FROM CLIP NAME:  SEVL1HEIS164.TIF.NEW.01.COPY.01
627  SEVL1HEI V     C        01:00:07:05 01:00:07:19 01:14:29:10 01:14:29:28 
* GETTY IMAGES__SEVL1HEIS164_HEISTS_DINNER SET GANG_ARCHITECTURAL DIGEST MAGAZINE, 
*  LAYOUT FOR HOUSES GANG ROBBED_564010585_HTTP://WWW.GETTYIMAGES.COM/LICENSE/5640 
* 10585 
* FROM CLIP NAME:  SEVL1HEIS164.TIF.NEW.01.COPY.01
628  SEVL1HEI V     C        01:00:07:19 01:00:08:10 01:14:29:28 01:14:30:16 
* GETTY IMAGES__SEVL1HEIS164_HEISTS_DINNER SET GANG_ARCHITECTURAL DIGEST MAGAZINE, 
*  LAYOUT FOR HOUSES GANG ROBBED_564010585_HTTP://WWW.GETTYIMAGES.COM/LICENSE/5640 
* 10585 
* FROM CLIP NAME:  SEVL1HEIS164.TIF.NEW.01.COPY.01
629  T_QEVL1H V     C        00:03:10:18 00:03:13:15 01:14:30:16 01:14:32:26 
* SHUTTERSTOCK_T_QEVL1HEIS610_HEISTS_DINNER SET GANG_BURGLAR AND CCTV CAMERA - PRO 
* PERTY RELEASED_7969744 
* FROM CLIP NAME:  T_QEVL1HEIS610.NEW.01 
* REEL: SHUTTERSTOCK_7969744
630  T_QEVL1H V     C        00:03:13:09 00:03:15:05 01:14:32:26 01:14:34:10 
* SHUTTERSTOCK_T_QEVL1HEIS610_HEISTS_DINNER SET GANG_BURGLAR AND CCTV CAMERA - PRO 
* PERTY RELEASED_7969744 
* FROM CLIP NAME:  T_QEVL1HEIS610.NEW.01 
* REEL: SHUTTERSTOCK_7969744
631  SEVL1HEI V     C        01:00:03:18 01:00:06:15 01:14:34:10 01:14:37:06 
* GETTY IMAGES__SEVL1HEIS649_HEISTS_DINNER SET GANG_STUDY IN ESTATE HOME HOUSE LAY 
* OUT OFFICE_82644108_HTTP://WWW.GETTYIMAGES.COM/LICENSE/82644108 
* FROM CLIP NAME:  SEVL1HEIS649.TIF.NEW.01 
* REEL: GETTY IMAGES_82644108
632  QEVL1HEI V     C        00:01:34:12 00:01:38:04 01:14:37:06 01:14:40:05 
* GETTY__QEVL1HEIS603_HEISTS_LUFTHANSA HEIST_CLOSE UP BURGLAR EXAMINING WINDOW LOC 
* K WITH FLASHLIGHT_682-28 
* FROM CLIP NAME:  QEVL1HEIS603.NEW.01 
* REEL: GETTY_682-28
633  EVL1_HEI V     C        00:15:10:28 00:15:12:19 01:14:40:05 01:14:41:25 
M2   EVL1_HEI       037.5                00:15:10:28 
* SHUTTERSTOCK_T_QEVL1HEIS1002_HEISTS_DINNER SET GANG_LUXURIOUS WATERFRONT BEACH H 
* OUSE WITH PRIVATE DOCK,MANSION_9677228 
* FROM CLIP NAME:  T_QEVL1HEIS1002.NEW.01 
* REEL: SHUTTERSTOCK_9677228
634  T_QEVL1H V     C        00:00:08:25 00:00:10:23 01:14:41:25 01:14:43:23 
M2   T_QEVL1H       037.5                00:00:08:25 
* SHUTTERSTOCK_T_QEVL1HEIS1392_HEISTS_DINNER SET GANG_4K 2 MASKED BURGLARS BREAKIN 
* G AND ENTERING INTO A VICTIM'S HOME_8870272 
* FROM CLIP NAME:  T_QEVL1HEIS1392.NEW.01 
* REEL: SHUTTERSTOCK_8870272
635  T_SEVL1H V     C        01:00:06:12 01:00:08:22 01:14:43:23 01:14:46:05 
* GETTY IMAGES_T_SEVL1HEIS183_HEISTS_DINNER SET GANG_LIBERACE, VICTIM OF DINNER SE 
* T GANG, INSIDE LAS VEGAS HOME OF VICTIM, PHOTO SPREAD_176398427_HTTP://WWW.GETTY 
* IMAGES.COM/LICENSE/176398427 
* FROM CLIP NAME:  T_SEVL1HEIS183.TIF.NEW.01 
* REEL: GETTY IMAGES_176398427
636  EVL1_HEI V     C        00:12:20:10 00:12:21:14 01:14:46:05 01:14:47:09 
M2   EVL1_HEI       037.5                00:12:20:10 
* SHUTTERSTOCK_T_QEVL1HEIS607_HEISTS_DINNER SET GANG_2 MASKED BURGLARS BREAKING AN 
* D ENTERING INTO A VICTIM'S HOME_8870230 
* FROM CLIP NAME:  T_QEVL1HEIS607.NEW.01 
* REEL: SHUTTERSTOCK_8870230
637  EVL1_HEI V     C        00:06:16:10 00:06:18:07 01:14:47:09 01:14:49:04 
M2   EVL1_HEI       031.3                00:06:16:10 
* POND5_T_QEVL1HEIS568_HEISTS_DINNER SET GANG_A GRAND INDOOR HOUSE INTERIOR TOUR W 
* ITH FURNITURE AND DECORATIONS IN RETRO_62377221 
* FROM CLIP NAME:  T_QEVL1HEIS568.NEW.01 
* REEL: POND5_62377221
638  EVL1_HEI V     C        00:10:48:10 00:10:49:12 01:14:49:04 01:14:50:05 
M2   EVL1_HEI       037.5                00:10:48:10 
* POND 5_T_QEVL1HEIS364_HEISTS_LUFTHANSA HEIST_GLOVED HANDS, MASKED GUY AIMING GUN 
* _45409972 
* FROM CLIP NAME:  T_QEVL1HEIS364.NEW.01 
* REEL: POND 5_45409972
639  EVL1_HEI V     C        00:00:19:14 00:00:20:19 01:14:50:05 01:14:51:04 
* AETN__QEVL1HEIS181_HEISTS_DINNER SET GANG_DIAMOND RING IN BOX, PINK FLAWLESS PEA 
* R-SHAPED DIAMOND_28309_BLOODDIAMONDS_1080P_011229 
* FROM CLIP NAME:  QEVL1HEIS181.NEW.01 
* REEL: AETN_28309_BLOODDIAMONDS_1080P_
640  QEVL1HEI V     C        01:02:49:18 01:02:52:14 01:14:51:04 01:14:53:13 
* GETTY IMAGES__QEVL1HEIS1334_HEISTS_DINNER SET GANG_MEDIUM SHOT BURGLAR WITH FLAS 
* HLIGHT LOOKING AROUND HOUSE/ CLIMBING IN THROUGH WINDOW_900-18 
* FROM CLIP NAME:  QEVL1HEIS1334.NEW.01 
* REEL: GETTY IMAGES_900-18
642  EVL10525 V     C        09:05:03:18 09:05:07:02 01:14:53:13 01:14:56:23 
* FROM CLIP NAME:  EVL1052516A01_E019C003_16052565.NEW.01.SUB.01
641  EVL10516 V     C        15:19:26:18 15:19:30:02 01:14:53:13 01:14:56:23 
* FROM CLIP NAME:  EVL1051616A04_IP_0252.NEW.01
643  EVL1_HEI V     C        00:02:39:23 00:02:43:08 01:14:56:23 01:14:59:14 
* POND5_T_QEVL1HEIS287_HEISTS_DINNER SET GANG_WAITERS APPROACH W/ TRAY OF WINE_547 
* 63213 
* FROM CLIP NAME:  T_QEVL1HEIS287.NEW.01 
* REEL: POND5_54763213
644  SEVL1HEI V     C        01:00:03:20 01:00:06:00 01:14:59:14 01:15:01:19 
* GETTY IMAGES__SEVL1HEIS715_HEISTS_DINNER SET GANG_UPPER CLASS RICH PEOPLE LOUNGI 
* NG AROUND IN GRAND ROOM IN MANSION_150667283_HTTP://WWW.GETTYIMAGES.COM/LICENSE/ 
* 150667283 
* FROM CLIP NAME:  SEVL1HEIS715.TIF.NEW.01 
* REEL: GETTY IMAGES_150667283
645  SEVL1HEI V     C        01:00:06:00 01:00:07:05 01:15:01:19 01:15:02:25 
* GETTY IMAGES__SEVL1HEIS715_HEISTS_DINNER SET GANG_UPPER CLASS RICH PEOPLE LOUNGI 
* NG AROUND IN GRAND ROOM IN MANSION_150667283_HTTP://WWW.GETTYIMAGES.COM/LICENSE/ 
* 150667283 
* FROM CLIP NAME:  SEVL1HEIS715.TIF.NEW.01 
* REEL: GETTY IMAGES_150667283
646  SEVL1HEI V     C        01:00:02:19 01:00:03:21 01:15:02:25 01:15:03:28 
* GETTY IMAGES__SEVL1HEIS725_HEISTS_DINNER SET GANG_DUTCHESS AT DINNER PARTY WITH 
* JEWELRY PEARLS ON, MANSION_71078146_HTTP://WWW.GETTYIMAGES.COM/LICENSE/71078146 
* FROM CLIP NAME:  SEVL1HEIS725.TIF.NEW.01 
* REEL: GETTY IMAGES_71078146
647  SEVL1HEI V     C        01:00:03:21 01:00:04:17 01:15:03:28 01:15:04:23 
* GETTY IMAGES__SEVL1HEIS725_HEISTS_DINNER SET GANG_DUTCHESS AT DINNER PARTY WITH 
* JEWELRY PEARLS ON, MANSION_71078146_HTTP://WWW.GETTYIMAGES.COM/LICENSE/71078146 
* FROM CLIP NAME:  SEVL1HEIS725.TIF.NEW.01 
* REEL: GETTY IMAGES_71078146
648  EVL1_HEI V     C        00:00:32:07 00:00:34:03 01:15:05:21 01:15:07:05 
* AETN__QEVL1HEIS189_HEISTS_DINNER SET GANG_ROBBER OPENING DOOR AND SNEAKING INTO 
* ROOM, IN THE DARK SHINING FLASHLIGHT INTO JEWELRY BOX, MAN ON THE ROOF_45885_WAT 
* CHINGTHEDETECTIVES_EP5_010338 
* FROM CLIP NAME:  QEVL1HEIS189.NEW.01 
* REEL: AETN_45885_WATCHINGTHEDETECTIVE
649  SEVL1HEI V     C        01:00:03:15 01:00:06:16 01:15:06:25 01:15:09:26 
* GETTY IMAGES__SEVL1HEIS157_HEISTS_DINNER SET GANG_FAMILY SITTING AROUND TABLE, F 
* AMILY DINNER_3398377_HTTP://WWW.GETTYIMAGES.COM/LICENSE/3398377 
* FROM CLIP NAME:  SEVL1HEIS157.TIF.NEW.01.COPY.01
650  T_QEVL1H V     C        00:11:11:01 00:11:12:18 01:15:09:26 01:15:11:13 
M2   T_QEVL1H       037.5                00:11:11:01 
* POND5_T_QEVL1HEIS442_HEISTS_LUFTHANSA HEIST_ALARM SYSTEM CODE INPUT _7133201 
* FROM CLIP NAME:  T_QEVL1HEIS442.NEW.01 
* REEL: POND5_7133201
651  T_QEVL1H V     C        00:09:38:08 00:09:39:07 01:15:11:13 01:15:12:10 
M2   T_QEVL1H       037.5                00:09:38:08 
* POND5_T_QEVL1HEIS040_HEISTS_DINNER SET GANG_BURGLAR PEERS THRU WINDOW & PRIES IT 
* _SNOWY 47016070 
* FROM CLIP NAME:  T_QEVL1HEIS040.NEW.01.COPY.01
652  SEVL1HEI V     C        01:00:02:23 01:00:04:11 01:15:12:10 01:15:13:25 
* GETTY IMAGES__SEVL1HEIS718_HEISTS_DINNER SET GANG_OLD PHOTO OF ENTRANCE TO MANSI 
* ON_539188404_HTTP://WWW.GETTYIMAGES.COM/LICENSE/539188404 
* FROM CLIP NAME:  SEVL1HEIS718.TIF.NEW.01 
* REEL: GETTY IMAGES_539188404
653  SEVL1HEI V     C        01:00:03:07 01:00:04:22 01:15:13:25 01:15:15:14 
* GETTY IMAGES__SEVL1HEIS713_HEISTS_DINNER SET GANG_A DINNER PARTY UPPER CLASS WIT 
* H BUTLERS _532820099_HTTP://WWW.GETTYIMAGES.COM/LICENSE/532820099 
* FROM CLIP NAME:  SEVL1HEIS713.TIF.NEW.01 
* REEL: GETTY IMAGES_532820099
654  EVL10517 V     C        10:42:17:01 10:42:19:14 01:15:15:14 01:15:18:00 
* GEOFF MANAUGH 
* FROM CLIP NAME:  EVL1051716B02_LL0244.NEW.01
655  EVL10523 V     C        14:10:53:09 14:10:55:22 01:15:15:14 01:15:18:00 
* FROM CLIP NAME:  EVL1052316A03_E014C001_160523Q1.NEW.01.SUB.01
656  EVL1_HEI V     C        00:15:00:17 00:15:03:03 01:15:17:25 01:15:20:10 
M2   EVL1_HEI       037.5                00:15:00:17 
* SHUTTERSTOCK_T_QEVL1HEIS996_HEISTS_DINNER SET GANG_CAMERA VIEW DRAWING BACK FROM 
*  A SITTING AREA IN AN EXPENSIVE HOME_2545955 
* FROM CLIP NAME:  T_QEVL1HEIS996.NEW.01 
* REEL: SHUTTERSTOCK_2545955
657  SEVL1HEI V     C        01:00:03:11 01:00:06:01 01:15:19:24 01:15:22:11 
* GETTY IMAGES__SEVL1HEIS162_HEISTS_DINNER SET GANG_FAMILY DINNER, FOOD BEING SERV 
* ED BY MAID, SITTING AROUND TABLE_563936757_HTTP://WWW.GETTYIMAGES.COM/LICENSE/56 
* 3936757 
* FROM CLIP NAME:  SEVL1HEIS162.TIF.NEW.01 
* REEL: 563936757
658  EVL1_HEI V     C        00:12:09:21 00:12:12:20 01:15:20:10 01:15:23:09 
M2   EVL1_HEI       037.5                00:12:09:21 
* SHUTTERSTOCK_T_QEVL1HEIS612_HEISTS_DINNER SET GANG_ROBBER ART THIEF STEALS PAINT 
* ING FROM HOUSE IN BRIGHT DAYLIGHT, SLIPS OUT FRONT DOOR FROM A HOUSE OR HOME_468 
* 4064 
* FROM CLIP NAME:  T_QEVL1HEIS612.NEW.01 
* REEL: SHUTTERSTOCK_4684064
659  EVL10512 V     C        14:07:47:05 14:07:52:02 01:15:20:15 01:15:25:11 
* FROM CLIP NAME:  EVL1051216A02_IP_0225.NEW.01.SUB.01
660  T_QEVL1E V     C        00:00:00:00 00:00:01:12 01:15:25:11 01:15:26:25 
M2   T_QEVL1E       031.3                00:00:00:00 
* SHUTTERSTOCK_T_QEVL1ESCP060_GREAT ESCAPES_MECKLENBURG SIX_CONTROL OFFICER HOLDIN 
* G WALKIE TALKIE LOOKING AT ESCAPE PLANS_8980171 
* FROM CLIP NAME:  T_QEVL1ESCP060.NEW.01
661  T_QEVL1H V     C        01:00:03:16 01:00:05:09 01:15:26:25 01:15:28:18 
* POND5_T_QEVL1HEIS1310_HEISTS_DINNER SET GANG_ARCHITECTURE BLUEPRINT PLAN_644420 
* FROM CLIP NAME:  T_QEVL1HEIS1310.MOV 
* REEL: POND5_644420
662  EVL_GRND V     C        01:00:05:28 01:00:07:15 01:15:28:18 01:15:30:05 
* GETTY IMAGES_T_QEVL1GRND390_UNDERGROUND_EL CHAPO TUNNELS_ARCHITECT MAKES MARKS O 
* N BLUEPRINTS_187931252 
* FROM CLIP NAME:  T_QEVL1GRND390.MP4
663  T_QEVL1H V     C        01:00:02:06 01:00:04:18 01:15:30:05 01:15:32:18 
* POND5_T_QEVL1HEIS1309_HEISTS_DINNER SET GANG_ROLLS OF BLUEPRINTS ON TABLE, LAYOU 
* T OF HOUSES_669504 
* FROM CLIP NAME:  T_QEVL1HEIS1309.MOV 
* REEL: POND5_669504
664  EVL10517 V     C        09:29:59:10 09:30:02:12 01:15:32:18 01:15:35:20 
* FROM CLIP NAME:  EVL1051716B01_LL0241_1.NEW.01.SUB.01
FCM: DROP FRAME
665  LWR_3RD_ V     C        01:00:00:00 01:00:02:26 01:15:32:24 01:15:35:20 
* FROM CLIP NAME:  LWR 3RD SAMPLE.07
FCM: NON-DROP FRAME
667  EVIL_GEN V     C        00:00:00:00 00:00:02:21 01:15:32:24 01:15:35:20 
* FROM CLIP NAME:  EVIL GENIUS L3 LINES_V02 UNMATTED.MOV
FCM: DROP FRAME
666  LWR_3RD_ V     C        01:00:00:00 01:00:02:26 01:15:32:24 01:15:35:20 
* FROM CLIP NAME:  LWR 3RD SAMPLE.08
FCM: NON-DROP FRAME
668  T_QEVL1H V     C        00:02:20:05 00:02:23:09 01:15:35:20 01:15:38:06 
* POND5_T_QEVL1HEIS031_HEISTS_DINNER SET GANG_NIGHTTIME, BURGLAR OPEN & CLIMB THRU 
*  WINDOW_44103384 
* FROM CLIP NAME:  T_QEVL1HEIS031.NEW.01.COPY.01
669  SEVL1ARC V     C        01:00:02:20 01:00:17:11 01:15:38:06 01:15:52:25 
* LIBRARY OF CONGRESS__SEVL1ARCH326_ARCHITECTS_ROBERT MOSES_BLUEPRINT COPY OF MANU 
* SCRIPT SURVEY MAP OF REAL PROPERTY AND LAND GRANTS IN CENTRAL GREENE COUNTY IN N 
* EW YORK_PD_2013593066_HTTPS://WWW.LOC.GOV/ITEM/2013593066/ 
* FROM CLIP NAME:  SEVL1ARCH326.TIF.NEW.01
670  UNTITLED V     C        01:00:13:28 01:00:14:10 01:15:38:25 01:15:39:08 
* FROM CLIP NAME:  UNTITLED.06
671  UNTITLED V     C        01:00:14:10 01:00:27:27 01:15:39:08 01:15:52:25 
* FROM CLIP NAME:  UNTITLED.06
672  EVL1_HEI V     C        00:02:48:03 00:02:51:10 01:15:52:25 01:15:55:14 
* POND5_T_QEVL1HEIS284_HEISTS_DINNER SET GANG_BUTLER WALKS DOWN STAIRCASE WITH TRA 
* Y_42683329 
* FROM CLIP NAME:  T_QEVL1HEIS284.NEW.01.COPY.01
673  T_QEVL1H V     C        00:00:12:27 00:00:14:23 01:15:55:14 01:15:57:09 
M2   T_QEVL1H       037.5                00:00:12:27 
* GETTY IMAGES_T_QEVL1HEIS1389_HEISTS_DINNER SET GANG_BURGLAR WITH CROW BAR AND FA 
* CE MASK BREAKING INTO A HOUSE - STEADYCAM_464898924 
* FROM CLIP NAME:  T_QEVL1HEIS1389.NEW.01 
* REEL: QEVL1HEIS1389
674  SEVL1HEI V     C        01:00:04:02 01:00:06:00 01:15:57:09 01:15:59:06 
* GETTY IMAGES__SEVL1HEIS163_HEISTS_DINNER SET GANG_FAMILY DINNER, FOOD BEING SERV 
* ED BY MAID, SITTING AROUND TABLE_563936751_HTTP://WWW.GETTYIMAGES.COM/LICENSE/56 
* 3936751 
* FROM CLIP NAME:  SEVL1HEIS163.TIF.NEW.01.COPY.01
675  EVL1_HEI V     C        00:11:15:17 00:11:16:22 01:15:59:06 01:16:00:10 
M2   EVL1_HEI       037.5                00:11:15:17 
* POND5_T_QEVL1HEIS497_HEISTS_DINNER SET GANG_BURGLAR WITH CROWBAR, FLASHLIGHT_460 
* 419 
* FROM CLIP NAME:  T_QEVL1HEIS497.NEW.01 
* REEL: POND5_460419
676  T_SEVL1H V     C        01:00:05:02 01:00:06:05 01:16:00:10 01:16:01:14 
* POND5_T_SEVL1HEIS169_HEISTS_DINNER SET GANG_PORCELAIN BOX WITH PEARLS, FANCY JEW 
* ELRY_29205987_HTTPS://WWW.POND5.COM/PHOTO/29205987/PORCELAIN-JEWELRY-BOX.HTML 
* FROM CLIP NAME:  T_SEVL1HEIS169.TIF.NEW.01 
* REEL: POND5_29205987
677  T_QEVL1H V     C        00:02:32:28 00:02:34:10 01:16:01:14 01:16:02:26 
* POND5_T_QEVL1HEIS141_HEISTS_DINNER SET GANG_FAMILY DINNER, FAMILY SITTING AROUND 
*  TABLE EATING, FANCY_38863108 
* FROM CLIP NAME:  T_QEVL1HEIS141.NEW.01 
* REEL: POND5_38863108
678  T_QEVL1H V     C        00:05:02:09 00:05:04:07 01:16:02:26 01:16:04:23 
M2   T_QEVL1H       031.3                00:05:02:09 
* POND5_T_QEVL1HEIS029_HEISTS_DINNER SET GANG_OPENING JEWEL BOX TO STEAL_11136173 
* FROM CLIP NAME:  T_QEVL1HEIS029.NEW.01.COPY.01
679  SEVL1HEI V     C        01:00:04:05 01:00:05:19 01:16:04:23 01:16:06:10 
* GETTY IMAGES__SEVL1HEIS710_HEISTS_DINNER SET GANG_RICH COUPLE SIT AT TABLE WHILE 
*  BEING SERVED_534516102_HTTP://WWW.GETTYIMAGES.COM/LICENSE/534516102 
* FROM CLIP NAME:  SEVL1HEIS710.TIF.NEW.01 
* REEL: GETTY IMAGES_534516102
680  EVL1_HEI V     C        00:11:23:02 00:11:25:08 01:16:06:10 01:16:08:15 
M2   EVL1_HEI       037.5                00:11:23:02 
* POND5_T_QEVL1HEIS511_HEISTS_DINNER SET GANG_BURGLAR HOLDING RUBY RING_11237616 
* FROM CLIP NAME:  T_QEVL1HEIS511.NEW.01 
* REEL: POND5_11237616
681  EVL10602 V     C        09:35:07:09 09:35:09:08 01:16:08:15 01:16:10:14 
* FROM CLIP NAME:  EVL1060216A01_211_0033.NEW.01.SUB.01
682  T_QEVL1H V     C        00:13:56:05 00:13:59:03 01:16:10:14 01:16:13:11 
M2   T_QEVL1H       037.5                00:13:56:05 
* POND5_T_QEVL1HEIS843_HEISTS_DINNER SET GANG_BURGLAR EXITING HOUSE 1_8916226 
* FROM CLIP NAME:  T_QEVL1HEIS843.NEW.01 
* REEL: POND5_8916226
683  SEVL1HEI V     C        01:00:01:14 01:00:04:21 01:16:13:11 01:16:16:20 
* DICK ATKINS__SEVL1HEIS591_HEISTS_DINNER SET GANG_GLORIA & PETE CUT WEDDING CAKE_ 
* A14_ 
* FROM CLIP NAME:  SEVL1HEIS591.TIFF.NEW.01 
* REEL: DICK ATKINS_A14
684  SEVL1HEI V     C        01:00:04:21 01:00:07:03 01:16:16:20 01:16:18:28 
* DICK ATKINS__SEVL1HEIS591_HEISTS_DINNER SET GANG_GLORIA & PETE CUT WEDDING CAKE_ 
* A14_ 
* FROM CLIP NAME:  SEVL1HEIS591.TIFF.NEW.01 
* REEL: DICK ATKINS_A14
685  EVL1_HEI V     C        00:12:37:23 00:12:39:03 01:16:18:28 01:16:20:06 
M2   EVL1_HEI       037.5                00:12:37:23 
* POND5_T_QEVL1HEIS676_HEISTS_LUFTHANSA HEIST_CLOSE-MAN-WALKING-STAIRS_11353522 
* FROM CLIP NAME:  T_QEVL1HEIS676.NEW.01 
* REEL: POND5_11353522
686  EVL1_HEI V     C        00:00:38:23 00:00:40:14 01:16:20:06 01:16:21:15 
* AETN__QEVL1HEIS180_HEISTS_DINNER SET GANG_CASE OF JEWELRY ON MANNEQUINS, PORTION 
* ING OUT DIAMONDS_28309_BLOODDIAMONDS_1080P_011104 
* FROM CLIP NAME:  QEVL1HEIS180.NEW.01.COPY.01
687  T_QEVL1H V     C        00:05:02:01 00:05:04:09 01:16:21:15 01:16:23:24 
M2   T_QEVL1H       031.3                00:05:02:01 
* POND5_T_QEVL1HEIS041_HEISTS_DINNER SET GANG_BURGLAR WITH FLASHLIGHT WALKS DOWN S 
* TAIRS_11607026 
* FROM CLIP NAME:  T_QEVL1HEIS041.NEW.01 
* REEL: POND5_11607026
688  EVL10516 V     C        15:19:27:15 15:19:37:03 01:16:23:24 01:16:33:09 
* FROM CLIP NAME:  EVL1051616A04_IP_0252.NEW.01
689  EVL10525 V     C        09:10:28:23 09:10:38:11 01:16:23:24 01:16:33:09 
* FROM CLIP NAME:  EVL1052516A01_E019C003_16052565.NEW.01.SUB.01
690  SEVL1HEI V     C        01:00:06:01 01:00:09:07 01:16:33:09 01:16:36:16 
* GETTY IMAGES__SEVL1HEIS716_HEISTS_DINNER SET GANG_FANCY DINNER WITH BUTLER SERVI 
* NG FOOD_80898720_HTTP://WWW.GETTYIMAGES.COM/LICENSE/80898720 
* FROM CLIP NAME:  SEVL1HEIS716.TIF.NEW.01 
* REEL: GETTY IMAGES_80898720
691  EVL1_HEI V     C        00:11:18:11 00:11:20:24 01:16:36:16 01:16:38:29 
M2   EVL1_HEI       037.5                00:11:18:11 
* POND5_T_QEVL1HEIS503_HEISTS_DINNER SET GANG_WINE FALLING TO FLOOR_42542824 
* FROM CLIP NAME:  T_QEVL1HEIS503.NEW.01 
* REEL: POND5_42542824
692  T_QEVL1H V     C        00:05:04:06 00:05:06:01 01:16:38:29 01:16:40:21 
M2   T_QEVL1H       031.3                00:05:04:06 
* POND5_T_QEVL1HEIS041_HEISTS_DINNER SET GANG_BURGLAR WITH FLASHLIGHT WALKS DOWN S 
* TAIRS_11607026 
* FROM CLIP NAME:  T_QEVL1HEIS041.NEW.01 
* REEL: POND5_11607026
693  EVL1_HEI V     C        00:00:37:08 00:00:39:01 01:16:40:21 01:16:42:03 
* AETN__QEVL1HEIS189_HEISTS_DINNER SET GANG_ROBBER OPENING DOOR AND SNEAKING INTO 
* ROOM, IN THE DARK SHINING FLASHLIGHT INTO JEWELRY BOX, MAN ON THE ROOF_45885_WAT 
* CHINGTHEDETECTIVES_EP5_010338 
* FROM CLIP NAME:  QEVL1HEIS189.NEW.01 
* REEL: AETN_45885_WATCHINGTHEDETECTIVE
694  EVL10602 V     C        09:34:01:09 09:34:06:05 01:16:42:03 01:16:46:28 
* FROM CLIP NAME:  EVL1060216A01_211_0033.NEW.01.SUB.01
695  EVL1_HEI V     C        00:00:25:19 00:00:29:23 01:16:45:10 01:16:48:20 
* AETN__QEVL1HEIS191_HEISTS_DINNER SET GANG_MAN ON ROOFTOP RUNNING AWAY FROM CRIME 
* , DUSTING FOR FINGERPRINTS_45885_WATCHINGTHEDETECTIVES_EP5_010604 
* FROM CLIP NAME:  QEVL1HEIS191.NEW.01 
* REEL: AETN_45885_WATCHINGTHEDETECTIVE
696  EVL1_HEI V     C        00:15:17:22 00:15:22:22 01:16:48:20 01:16:53:19 
M2   EVL1_HEI       037.5                00:15:17:22 
* SHUTTERSTOCK_T_QEVL1HEIS1007_HEISTS_DINNER SET GANG_AERIAL BRIDGE TO INDIAN CREE 
* K HOMES IN MIAMI BEACH, WATERFRONT MANSIONS IN FLORIDA_6228215 
* FROM CLIP NAME:  T_QEVL1HEIS1007.NEW.01 
* REEL: SHUTTERSTOCK_6228215
697  T_QEVL1H V     C        00:00:15:14 00:00:16:21 01:16:53:19 01:16:54:20 
* SHUTTERSTOCK_T_QEVL1HEIS1396_HEISTS_DINNER SET GANG_VIEW OF MASKED MALE ADULT BR 
* EAKING OPEN GLASS PANED DOOR OR WINDOW WITH PRY BAR BURGLAR_7969789 
* FROM CLIP NAME:  T_QEVL1HEIS1396.NEW.01 
* REEL: SHUTTERSTOCK_7969789
698  T_QEVL1H V     C        00:00:08:13 00:00:09:13 01:16:54:20 01:16:55:19 
M2   T_QEVL1H       037.5                00:00:08:13 
* SHUTTERSTOCK_T_QEVL1HEIS1393_HEISTS_DINNER SET GANG_EXTREME CLOSE UP SHOT OF A B 
* URGLAR PICKING A LOCK_10626923 
* FROM CLIP NAME:  T_QEVL1HEIS1393.NEW.01 
* REEL: SHUTTERSTOCK_10626923
699  T_QEVL1H V     C        00:00:09:27 00:00:10:20 01:16:55:19 01:16:56:11 
M2   T_QEVL1H       037.5                00:00:09:27 
* GETTY IMAGES_T_QEVL1HEIS1390_HEISTS_DINNER SET GANG_A THIEF CLIMBING A WINDOW._1 
* 62840640 
* FROM CLIP NAME:  T_QEVL1HEIS1390.NEW.01 
* REEL: GETTY IMAGES_162840640
700  EVL1_HEI V     C        00:15:31:21 00:15:32:13 01:16:56:11 01:16:57:03 
M2   EVL1_HEI       037.5                00:15:31:21 
* SHUTTERSTOCK_T_QEVL1HEIS1033_HEISTS_DINNER SET GANG_LOW-KEY POINT OF VIEW VIDEO 
* OF BURGLAR CHECKING WHAT IS INSIDE SAFE BOX BEFORE STEALING CASH AND JEWELRY_374 
* 9723 
* FROM CLIP NAME:  T_QEVL1HEIS1033.NEW.01 
* REEL: SHUTTERSTOCK_3749723
701  T_QEVL1H V     C        00:19:26:10 00:19:28:07 01:16:57:03 01:16:59:00 
* POND5_T_QEVL1HEIS1294_HEISTS_DINNER SET GANG_ AERIAL VIEW OF AN EXPANSIVE MANSIO 
* N WITH POOL, AND SURROUNDING PROPERTY _12328952 
* FROM CLIP NAME:  T_QEVL1HEIS1294.MOV 
* REEL: POND5_12328952
702  EVL1_HEI V     C        00:13:55:15 00:13:57:03 01:16:59:00 01:17:00:18 
M2   EVL1_HEI       037.5                00:13:55:15 
* SHUTTERSTOCK_T_QEVL1HEIS851_HEISTS_DINNER SET GANG_MAN WALKING ALONE AT NIGHT IN 
*  THE PARK. SHADOW SILHOUETTE OF PERSON. SPOOKY NIGHT SCENERY BACKGROUND FEET AT 
* NIGHT APPROACHING HOUSE_12548726 
* FROM CLIP NAME:  T_QEVL1HEIS851.NEW.01.COPY.01
703  SEVL1HEI V     C        01:00:10:06 01:00:12:05 01:16:59:00 01:17:00:29 
* PHILADELPHIA INQUIRER__SEVL1HEIS607_HEISTS_DINNER SET GANG_NEWSPAPER ARTICLE HEA 
* DING 'ON THE TRAIL OF MAIN LINE CAT BURGLARS'__ 
* FROM CLIP NAME:  SEVL1HEIS607.TIFF.NEW.01 
* REEL: PHILADELPHIA INQUIRER_
704  EVL1_HEI V     C        00:12:20:02 00:12:21:02 01:17:00:18 01:17:01:16 
M2   EVL1_HEI       037.5                00:12:20:02 
* SHUTTERSTOCK_T_QEVL1HEIS607_HEISTS_DINNER SET GANG_2 MASKED BURGLARS BREAKING AN 
* D ENTERING INTO A VICTIM'S HOME_8870230 
* FROM CLIP NAME:  T_QEVL1HEIS607.NEW.01.COPY.01
705  SEVL1HEI V     C        01:00:09:03 01:00:10:16 01:17:00:29 01:17:02:15 
* DICK ATKINS - NY POST__SEVL1HEIS777_HEISTS_DINNER SET GANG_HEADLINE - 10/21//91 
* NYPOST 'BURGLARS DROP IN FOR DINNER__ 
* FROM CLIP NAME:  SEVL1HEIS777.TIFF.NEW.01.COPY.01
706  EVL1_HEI V     C        00:11:20:15 00:11:21:14 01:17:01:16 01:17:02:15 
M2   EVL1_HEI       037.5                00:11:20:15 
* POND5_T_QEVL1HEIS497_HEISTS_DINNER SET GANG_BURGLAR WITH CROWBAR, FLASHLIGHT_460 
* 419 
* FROM CLIP NAME:  T_QEVL1HEIS497.NEW.01 
* REEL: POND5_460419
707  SEVL1HEI V     C        01:00:10:16 01:00:11:08 01:17:02:15 01:17:03:05 
* DICK ATKINS - NY POST__SEVL1HEIS777_HEISTS_DINNER SET GANG_HEADLINE - 10/21//91 
* NYPOST 'BURGLARS DROP IN FOR DINNER__ 
* FROM CLIP NAME:  SEVL1HEIS777.TIFF.NEW.01.COPY.01
708  EVL1_HEI V     C        00:11:21:13 00:11:22:04 01:17:02:15 01:17:03:05 
M2   EVL1_HEI       037.5                00:11:21:13 
* POND5_T_QEVL1HEIS497_HEISTS_DINNER SET GANG_BURGLAR WITH CROWBAR, FLASHLIGHT_460 
* 419 
* FROM CLIP NAME:  T_QEVL1HEIS497.NEW.01 
* REEL: POND5_460419
710  SEVL1HEI V     C        01:00:05:18 01:00:07:18 01:17:03:05 01:17:05:05 
* NEWSPAPER ARCHIVE__SEVL1HEIS914_HEISTS_DINNER SET GANG_UNIONTOWN MORNING HERALD 
* JANUARY 14, 1975 FAT CAT BURGLAR HEADLINE_CE2DE711AF1D4230B339F007B0931C0F_HTTP: 
* //ACCESS.NEWSPAPERARCHIVE.COM.EZPROXY.LAPL.ORG/US/PENNSYLVANIA/UNIONTOWN/UNIONTO 
* WN-MORNING-HERA 
* FROM CLIP NAME:  SEVL1HEIS914.TIF.NEW.01.COPY.01
709  EVL1_HEI V     C        00:15:31:07 00:15:33:08 01:17:03:05 01:17:05:05 
M2   EVL1_HEI       037.5                00:15:31:07 
* SHUTTERSTOCK_T_QEVL1HEIS1033_HEISTS_DINNER SET GANG_LOW-KEY POINT OF VIEW VIDEO 
* OF BURGLAR CHECKING WHAT IS INSIDE SAFE BOX BEFORE STEALING CASH AND JEWELRY_374 
* 9723 
* FROM CLIP NAME:  T_QEVL1HEIS1033.NEW.01.COPY.01
712  EVL10525 V     C        09:12:54:18 09:12:59:11 01:17:05:00 01:17:09:21 
* FROM CLIP NAME:  EVL1052516A01_E019C003_16052565.NEW.01.SUB.01
711  EVL10516 V     C        15:19:27:15 15:19:32:08 01:17:05:00 01:17:09:21 
* FROM CLIP NAME:  EVL1051616A04_IP_0252.NEW.01
713  SEVL1HEI V     C        01:00:02:18 01:00:06:20 01:17:09:21 01:17:13:24 
* DICK ATKINS__SEVL1HEIS577_HEISTS_DINNER SET GANG_PETER & DOMINICK W/ WIVES AT DI 
* NNER, CARMINE STANZIONE, PETE'S SISTER_A01B COUPLE TRIO AT DINNER_ 
* FROM CLIP NAME:  SEVL1HEIS577.TIFF.NEW.01 
* REEL: DICK ATKINS_A01B COUPLE TRIO AT
714  EVL10602 V     C        10:32:32:00 10:32:35:07 01:17:13:20 01:17:16:29 
* FROM CLIP NAME:  EVL1060216A01_211_0035.NEW.01.SUB.01
715  EVL1_HEI V     C        00:16:41:01 00:16:42:07 01:17:16:29 01:17:18:04 
M2   EVL1_HEI       037.5                00:16:41:01 
* SHUTTERSTOCK_T_QEVL1HEIS1122_HEISTS_ALL ACTS_ SUNSET AND SUPER MOON RISING ABOVE 
*  NEW YORK SKYLINE, DAY-TO-NIGHT TIMELAPSE_6804094 
* FROM CLIP NAME:  T_QEVL1HEIS1122.NEW.01 
* REEL: SHUTTERSTOCK_6804094
716  QEVL1HEI V     C        00:01:56:06 00:01:57:23 01:17:18:04 01:17:19:15 
* GETTY__QEVL1HEIS1138_HEISTS_ALL ACTS_FULL MOON RISING BEHIND TREES_176652191 
* FROM CLIP NAME:  QEVL1HEIS1138.NEW.01 
* REEL: GETTY_176652191
717  QEVL1HEI V     C        00:02:05:14 00:02:07:20 01:17:19:15 01:17:21:10 
* GETTY IMAGES__QEVL1HEIS1145_HEISTS_DINNER SET GANG_MS SHOT OF BRICK SOUTHERN MAN 
* SION AT NIGHT_140298556 
* FROM CLIP NAME:  QEVL1HEIS1145.NEW.01 
* REEL: GETTY IMAGES_140298556
718  T_QEVL1H V     C        00:14:14:11 00:14:16:20 01:17:21:00 01:17:23:09 
M2   T_QEVL1H       037.5                00:14:14:11 
* SHUTTERSTOCK_T_QEVL1HEIS852_HEISTS_DINNER SET GANG_MAN WALKING ALONE AT NIGHT IN 
*  THE PARK. SHADOW SILHOUETTE OF PERSON. SPOOKY NIGHT SCENERY BACKGROUND FEET AT 
* NIGHT APPROACHING HOUSE_12548714 
* FROM CLIP NAME:  T_QEVL1HEIS852.NEW.01 
* REEL: SHUTTERSTOCK_12548714
719  T_QEVL1H V     C        00:00:09:08 00:00:11:22 01:17:22:29 01:17:25:14 
* POND5_T_QEVL1HEIS1282_HEISTS_DINNER SET GANG_BURGLAR CHECKING THE DOOR OF A HOUS 
* E, TRYING TO LOOK INTO THE HOUSE, SIHOUTTE OF SHADOW OF MAN_46999570 
* FROM CLIP NAME:  T_QEVL1HEIS1282.MOV 
* REEL: POND5_46999570
720  SEVL1HEI V     C        01:00:03:23 01:00:05:02 01:17:25:14 01:17:26:18 
* GETTY IMAGES__SEVL1HEIS747_HEISTS_LUFTHANSA HEIST_FRED ASTAIRE (1899 - 1987) AND 
*  GINGER ROGERS_180258178_HTTP://WWW.GETTYIMAGES.COM/LICENSE/180258178 
* FROM CLIP NAME:  SEVL1HEIS747.TIF.NEW.01 
* REEL: GETTY IMAGES_180258178
721  SEVL1HEI V     C        01:00:03:11 01:00:05:00 01:17:26:18 01:17:28:04 
* GETTY IMAGES__SEVL1HEIS749_HEISTS_LUFTHANSA HEIST_FRED ASTAIRE (1899 - 1987) AND 
*  GINGER ROGERS (1911 - 1995) IN A DANCE SCENE FROM THE MUSICAL COMEDY FILM 'TOP 
* HAT_81107395_HTTP://WWW.GETTYIMAGES.COM/LICENSE/481107395 
* FROM CLIP NAME:  SEVL1HEIS749.TIF.NEW.01 
* REEL: GETTY IMAGES_81107395
722  T_QEVL1H V     C        15:34:49:22 15:34:52:07 01:17:28:04 01:17:30:19 
* POND5_T_QEVL1HEIS1280_HEISTS_DINNER SET GANG_AERIAL BEACHFRONT MANSIONS_51927760 
* FROM CLIP NAME:  T_QEVL1HEIS1280.MOV 
* REEL: POND5_51927760
723  GFX_HEIS V     C        01:00:04:05 01:00:06:16 01:17:30:19 01:17:33:00 
* FROM CLIP NAME:  GFX_HEIS08_MAP_03_V01.TIF
724  EVL1_HEI V     C        00:12:25:28 00:12:27:20 01:17:33:00 01:17:34:21 
M2   EVL1_HEI       037.5                00:12:25:28 
* POND5_T_QEVL1HEIS648_HEISTS_DINNER SET GANG_HUDSON RIVER AT SUNSET_692103 
* FROM CLIP NAME:  T_QEVL1HEIS648.NEW.01 
* REEL: POND5_692103
725  EVL1_HEI V     C        00:15:02:21 00:15:04:07 01:17:34:21 01:17:36:06 
M2   EVL1_HEI       037.5                00:15:02:21 
* SHUTTERSTOCK_T_QEVL1HEIS998_HEISTS_DINNER SET GANG_ABANDONED OLD MANSION, SHOT N 
* IGHTTIME WITH MOON AND CLOUDS IN BACKGROUND_8924890 
* FROM CLIP NAME:  T_QEVL1HEIS998.NEW.01 
* REEL: SHUTTERSTOCK_8924890
726  T_QEVL1H V     C        01:00:13:13 01:00:15:20 01:17:36:06 01:17:38:14 
* POND5_T_QEVL1HEIS1298_HEISTS_DINNER SET GANG_SPOOKED BURGLAR BREAK ENTER ENTERIN 
* G BURGLARY CRIME SECURITY, AT NIGHT, MANSION_11209253 
* FROM CLIP NAME:  T_QEVL1HEIS1298.MOV 
* REEL: POND5_11209253
727  T_QEVL1H V     C        00:00:04:26 00:00:09:02 01:17:38:14 01:17:42:19 
M2   T_QEVL1H       037.5                00:00:04:26 
* POND5_T_QEVL1HEIS1311_HEISTS_DINNER SET GANG_BURGLAR COMES IN AT NIGHT WALKS ARO 
* UND WITH FLASHLIGHT_18077694 
* FROM CLIP NAME:  T_QEVL1HEIS1311.NEW.01 
* REEL: POND5_18077694
728  T_QEVL1H V     C        00:03:38:18 00:03:39:26 01:17:42:19 01:17:43:28 
* POND5_T_QEVL1HEIS775_HEISTS_SISI JEWEL HEIST_THIEF WITH FLASHLIGHT WHILE SECRETL 
* Y ENTERING INTO HOUSE_54545892 
* FROM CLIP NAME:  T_QEVL1HEIS775.NEW.01 
* REEL: POND5_54545892
729  EVL10602 V     C        10:19:06:22 10:19:08:20 01:17:43:14 01:17:45:11 
* FROM CLIP NAME:  EVL1060216A01_211_0035.NEW.01.SUB.01
730  T_QEVL1H V     C        00:00:01:12 00:00:05:12 01:17:43:28 01:17:47:04 
* SHUTTERSTOCK_T_QEVL1HEIS1399_HEISTS_DINNER SET GANG_4K BURGLAR WITH FLASHLIGHT L 
* OOKING FOR VALUABLES IN A DARK ROOM 4K 3840X2160 ULTRA HIGH DEFINITION_3512896 
* FROM CLIP NAME:  T_QEVL1HEIS1399.NEW.01 
* REEL: SHUTTERSTOCK_3512896
731  EVL10602 V     C        10:19:56:21 10:19:58:12 01:17:45:15 01:17:47:04 
* FROM CLIP NAME:  EVL1060216A01_211_0035.NEW.01.SUB.01
732  EVL10602 V     C        10:19:58:17 10:20:01:02 01:17:47:04 01:17:49:15 
* FROM CLIP NAME:  EVL1060216A01_211_0035.NEW.01.SUB.01
733  T_QEVL1H V     C        00:00:03:27 00:00:04:22 01:17:49:14 01:17:50:08 
M2   T_QEVL1H       037.5                00:00:03:27 
* GETTY IMAGES_T_QEVL1HEIS1365_HEISTS_DINNER SET GANG_SHADOW BREAKING IN WALKING U 
* PSTAIRS, MAN IN THE DARK_184262572 
* FROM CLIP NAME:  T_QEVL1HEIS1365.NEW.01 
* REEL: GETTY IMAGES_184262572
734  T_QEVL1H V     C        00:03:41:16 00:03:42:16 01:17:50:08 01:17:51:08 
* POND5_T_QEVL1HEIS767_HEISTS_SISI JEWEL HEIST_THIEF-HACKING-LOCK_63402861 
* FROM CLIP NAME:  T_QEVL1HEIS767.NEW.01 
* REEL: POND5_63402861
735  T_QEVL1H V     C        00:03:01:26 00:03:02:14 01:17:51:08 01:17:51:25 
* POND5_T_QEVL1HEIS557_HEISTS_DINNER SET GANG_DOLLY SHOT OF STAIRS, STAIRWELL, STA 
* IRCASE, HALLWAY INSIDE A HOUSE_44665163 
* FROM CLIP NAME:  T_QEVL1HEIS557.NEW.01 
* REEL: POND5_44665163
736  EVL10602 V     C        10:03:57:17 10:03:59:15 01:17:51:16 01:17:53:14 
* FROM CLIP NAME:  EVL1060216A01_211_0033.NEW.01.SUB.01
737  T_QEVL1H V     C        00:05:04:12 00:05:05:10 01:17:51:25 01:17:52:21 
M2   T_QEVL1H       031.3                00:05:04:12 
* POND5_T_QEVL1HEIS041_HEISTS_DINNER SET GANG_BURGLAR WITH FLASHLIGHT WALKS DOWN S 
* TAIRS_11607026 
* FROM CLIP NAME:  T_QEVL1HEIS041.NEW.01 
* REEL: POND5_11607026
738  T_QEVL1H V     C        00:00:01:14 00:00:04:16 01:17:53:14 01:17:55:29 
* SHUTTERSTOCK_T_QEVL1HEIS1385_HEISTS_DINNER SET GANG_MAN LEAPS OVER BRICK FENCE_5 
* 798759 
* FROM CLIP NAME:  T_QEVL1HEIS1385.NEW.01 
* REEL: QEVL1HEIS1385
739  T_QEVL1H V     C        00:00:03:10 00:00:05:05 01:17:55:29 01:17:57:24 
M2   T_QEVL1H       037.5                00:00:03:10 
* POND5_T_QEVL1HEIS1381_HEISTS_DINNER SET GANG_SECURITY LIGHT ACTIVATE TURN ON_224 
* 13462 
* FROM CLIP NAME:  T_QEVL1HEIS1381.NEW.01 
* REEL: QEVL1HEIS1381
740  EVL10602 V     C        10:20:13:03 10:20:15:02 01:17:56:00 01:17:57:29 
* FROM CLIP NAME:  EVL1060216A01_211_0035.NEW.01.SUB.01
741  T_QEVL1H V     C        00:00:10:00 00:00:11:07 01:17:57:24 01:17:59:00 
M2   T_QEVL1H       037.5                00:00:10:00 
* SHUTTERSTOCK_T_QEVL1HEIS1383_HEISTS_DINNER SET GANG_STADIUM FLOODLIGHTS SHINING 
* BRIGHTLY. WARM COLORS. 5 SHOTS IN 1 VIDEO. FIVE SIZES OF STADIUM FLOODLIGHTS FLA 
* SHING AND TURNING ON AND OFF._11748701 
* FROM CLIP NAME:  T_QEVL1HEIS1383.NEW.01 
* REEL: QEVL1HEIS1383
742  T_QEVL1H V     C        00:00:00:18 00:00:01:09 01:17:59:00 01:17:59:21 
* POND5_T_QEVL1HEIS1377_HEISTS_DINNER SET GANG_PUSH BUTTON TELEPHONE CALL 911_6205 
* 6185 
* FROM CLIP NAME:  T_QEVL1HEIS1377.NEW.01 
* REEL: POND5_62056185
743  T_QEVL1H V     C        00:00:01:09 00:00:02:04 01:17:59:21 01:18:00:16 
* POND5_T_QEVL1HEIS1377_HEISTS_DINNER SET GANG_PUSH BUTTON TELEPHONE CALL 911_6205 
* 6185 
* FROM CLIP NAME:  T_QEVL1HEIS1377.NEW.01 
* REEL: POND5_62056185
744  EVL10602 V     C        10:20:17:16 10:20:19:00 01:18:00:15 01:18:01:25 
* FROM CLIP NAME:  EVL1060216A01_211_0035.NEW.01.SUB.01
745  T_QEVL1H V     C        00:00:01:17 00:00:03:08 01:18:01:25 01:18:03:15 
M2   T_QEVL1H       037.5                00:00:01:17 
* SHUTTERSTOCK_T_QEVL1HEIS1429_HEISTS_DINNER SET GANG_DOG RUNNING ON EMPTY COUNTRY 
*  ROAD AT NIGHT_2110868 
* FROM CLIP NAME:  T_QEVL1HEIS1429.NEW.01 
* REEL: SHUTTERSTOCK_2110868
746  EVL1_HEI V     C        00:16:53:28 00:16:55:23 01:18:03:15 01:18:05:09 
M2   EVL1_HEI       037.5                00:16:53:28 
* POND5_T_QEVL1HEIS1199_HEISTS_LUFTHANSA HEIST_MAN RUNNING IN THE DARK IN FLORIDA 
* CLOSE UP ON LEGS AND FEET_61629830 
* FROM CLIP NAME:  T_QEVL1HEIS1199.NEW.01 
* REEL: POND5_61629830
747  EVL1_HEI V     C        00:06:27:22 00:06:28:01 01:18:05:09 01:18:05:13 
M2   EVL1_HEI       031.3                00:06:27:22 
* POND5_T_QEVL1HEIS625_HEISTS_DINNER SET GANG_PEOPLE WITH FLASHLIGHTS ARE RUNNING 
* AROUND FOREST IN THE DARK AT NIGHT_55991705 
* FROM CLIP NAME:  T_QEVL1HEIS625.NEW.01 
* REEL: POND5_55991705
748  EVL10602 V     C        10:39:33:17 10:39:35:05 01:18:05:13 01:18:06:28 
* FROM CLIP NAME:  EVL1060216A01_211_0035.NEW.01.SUB.01
749  EVL1_HEI V     C        00:06:27:22 00:06:28:19 01:18:06:28 01:18:07:24 
M2   EVL1_HEI       031.3                00:06:27:22 
* POND5_T_QEVL1HEIS625_HEISTS_DINNER SET GANG_PEOPLE WITH FLASHLIGHTS ARE RUNNING 
* AROUND FOREST IN THE DARK AT NIGHT_55991705 
* FROM CLIP NAME:  T_QEVL1HEIS625.NEW.01 
* REEL: POND5_55991705
750  T_QEVL1H V     C        00:00:02:28 00:00:04:04 01:18:07:24 01:18:08:29 
M2   T_QEVL1H       037.5                00:00:02:28 
* POND5_T_QEVL1HEIS1379_HEISTS_DINNER SET GANG_SPEEDING POLICE CAR DOWN DARK STREE 
* T_160191 
* FROM CLIP NAME:  T_QEVL1HEIS1379.NEW.01 
* REEL: POND5_160191
751  T_QEVL1H V     C        00:10:02:25 00:10:04:15 01:18:08:29 01:18:10:19 
M2   T_QEVL1H       037.5                00:10:02:25 
* GETTY IMAGES_T_QEVL1HEIS240_HEISTS_DINNER SET GANG_SHAKY CU K9 POLICE DOG BARKIN 
* G IN FRONT SEAT OF POLICE CAR AT NIGHT_388-197 
* FROM CLIP NAME:  T_QEVL1HEIS240.NEW.01 
* REEL: GETTY IMAGES_388-197
752  T_QEVL1H V     C        00:00:11:28 00:00:13:09 01:18:10:19 01:18:12:00 
* POND5_T_QEVL1HEIS1378_HEISTS_DINNER SET GANG_POLICE LIGHTS_10871033 
* FROM CLIP NAME:  T_QEVL1HEIS1378.NEW.01 
* REEL: POND5_10871033
753  EVL1_HEI V     C        00:12:26:23 00:12:27:10 01:18:12:00 01:18:12:16 
M2   EVL1_HEI       037.5                00:12:26:23 
* POND5_T_QEVL1HEIS634_HEISTS_DINNER SET GANG_POV STEADICAM RUNNING THROUGH FOREST 
*  AT NIGHT_37907116 
* FROM CLIP NAME:  T_QEVL1HEIS634.NEW.01 
* REEL: POND5_37907116
754  EVL1_HEI V     C        00:06:32:21 00:06:34:03 01:18:12:16 01:18:13:24 
M2   EVL1_HEI       031.3                00:06:32:21 
* POND5_T_QEVL1HEIS638_HEISTS_DINNER SET GANG_POACHERS SEEKING PREY IN THE NIGHT T 
* HROUGH THE FOREST WITH A VEHICLE_33654392 
* FROM CLIP NAME:  T_QEVL1HEIS638.NEW.01 
* REEL: POND5_33654392
755  EVL10510 V     C        18:12:03:17 18:12:05:09 01:18:13:13 01:18:15:03 
* FROM CLIP NAME:  EVL1051016A04_IP_0194.NEW.01.SUB.01
756  QEVL1HEI V     C        01:02:44:14 01:02:45:07 01:18:15:01 01:18:15:19 
* GETTY IMAGES__QEVL1HEIS1333_HEISTS_DINNER SET GANG_BREAK IN A HOME WINTER OUTSID 
* E_900-17 
* FROM CLIP NAME:  QEVL1HEIS1333.NEW.01 
* REEL: GETTY IMAGES_900-17
757  QEVL1HEI V     C        01:02:45:07 01:02:46:08 01:18:15:19 01:18:16:14 
* GETTY IMAGES__QEVL1HEIS1333_HEISTS_DINNER SET GANG_BREAK IN A HOME WINTER OUTSID 
* E_900-17 
* FROM CLIP NAME:  QEVL1HEIS1333.NEW.01 
* REEL: GETTY IMAGES_900-17
758  T_QEVL1H V     C        00:02:47:00 00:02:48:23 01:18:16:14 01:18:18:01 
* POND 5_T_QEVL1HEIS365_HEISTS_LUFTHANSA HEIST_POLICE CAR FLASHING LIGHTS_63618187 
* _HTTPS://WWW.POND5.COM/STOCK-FOOTAGE/63618187/4K-POLICE-CAR-EMERGENCY-LIGHTS-FLA 
* SHING-TOP-BAR-AND-GRILL-RE.HTML 
* FROM CLIP NAME:  T_QEVL1HEIS365.NEW.01 
* REEL: POND 5_63618187
759  EVL1_HEI V     C        00:02:22:08 00:02:24:20 01:18:18:01 01:18:20:01 
* POND5_T_QEVL1HEIS053_HEISTS_ANTHONY CURCIO: CRAIGâS LIST ROBBER_BRINKâS TRUCK DR 
* IVES OUT OF A STRUCTURE AND TURNS ONTO STREET_35906814 
* FROM CLIP NAME:  T_QEVL1HEIS053.NEW.01 
* REEL: POND5_35906814
760  SEVL1HEI V     C        01:00:07:04 01:00:08:22 01:18:20:01 01:18:21:24 
* MONROE PD__SEVL1HEIS694_HEISTS_ANTHONY CURCIO: CRAIGâS LIST ROBBER_BRINK'S TRUCK 
*  OUTSIDE BANK, DOOR LEFT OPEN_DSC_0037_ 
* FROM CLIP NAME:  SEVL1HEIS694.TIFF.NEW.01 
* REEL: MONROE PD_DSC_0037
761  GFX_HEIS V     C        00:00:01:04 00:00:02:11 01:18:21:24 01:18:23:03 
* FROM CLIP NAME:  GFX_HEIS20_GND_09_V01.MOV
762  STILL.25 V     C        01:00:39:15 01:00:40:24 01:18:21:24 01:18:23:03 
* FROM CLIP NAME:  STILL.25
763  STILL.25 V     C        01:00:50:05 01:00:51:25 01:18:23:03 01:18:24:23 
* FROM CLIP NAME:  STILL.25
764  GFX_HEIS V     C        01:01:40:00 01:01:41:17 01:18:23:03 01:18:24:24 
* FROM CLIP NAME:  GFX_HEIS18_2D.TIF
765  EVL_TITL V     C        01:01:57:07 01:01:57:12 01:18:27:18 01:18:27:24 
* FROM CLIP NAME:  EVL_TITLE_FRAME_05.TIF
766  EVL_TITL V     C        01:01:57:12 01:01:58:12 01:18:27:24 01:18:28:24 
* FROM CLIP NAME:  EVL_TITLE_FRAME_05.TIF 
* TO CLIP NAME:  EVL_TITLE_FRAME_05.TIF
767  EVL_TITL V     C        01:01:58:12 01:02:02:01 01:18:28:24 01:18:32:10 
* FROM CLIP NAME:  EVL_TITLE_FRAME_05.TIF
768  OUTPUT_S V     C        01:00:00:10 01:00:05:10 01:18:32:10 01:18:37:10 
* FROM CLIP NAME:  OUTPUT SLATE.27
769  PROPAGAT V     C        00:00:03:01 00:00:08:00 01:18:32:10 01:18:37:10 
* FROM CLIP NAME:  PROPAGATE LOGO V04 (1).MOV
770  T_QEVL1H V     C        00:02:21:17 00:02:23:09 01:18:37:10 01:18:38:20 
* POND5_T_QEVL1HEIS031_HEISTS_DINNER SET GANG_NIGHTTIME, BURGLAR OPEN & CLIMB THRU 
*  WINDOW_44103384 
* FROM CLIP NAME:  T_QEVL1HEIS031.NEW.01.COPY.02
771  T_QEVL1H V     C        00:00:09:10 00:00:10:27 01:18:38:20 01:18:40:08 
* POND5_T_QEVL1HEIS1282_HEISTS_DINNER SET GANG_BURGLAR CHECKING THE DOOR OF A HOUS 
* E, TRYING TO LOOK INTO THE HOUSE, SIHOUTTE OF SHADOW OF MAN_46999570 
* FROM CLIP NAME:  T_QEVL1HEIS1282.MOV 
* REEL: POND5_46999570
772     BL    V     C        00:00:00:00 00:00:00:00 01:18:40:00 01:18:40:00 
772  MORTICE_ V     W001 012 01:02:10:06 01:02:10:18 01:18:40:00 01:18:40:15 
* TO CLIP NAME:  MORTICE_V03 WITH ALPHA_V03.TIF
774  STILL.25 V     C        01:00:35:04 01:00:38:06 01:18:40:08 01:18:43:10 
* FROM CLIP NAME:  STILL.25
773  SEVL1HEI V     C        01:00:06:01 01:00:09:03 01:18:40:08 01:18:43:10 
* DICK ATKINS__SEVL1HES590_HEISTS_DINNER SET GANG_PETE & DOMINICK YOUNG B&W_A13_ 
* FROM CLIP NAME:  SEVL1HEIS590.TIFF.NEW.01 
* REEL: DICK ATKINS_A13
775  T_QEVL1H V     C        00:02:25:09 00:02:29:05 01:18:40:08 01:18:43:10 
* POND5_T_QEVL1HEIS031_HEISTS_DINNER SET GANG_NIGHTTIME, BURGLAR OPEN & CLIMB THRU 
*  WINDOW_44103384 
* FROM CLIP NAME:  T_QEVL1HEIS031.NEW.01.COPY.02
776  MORTICE_ V     C        01:02:10:18 01:02:13:14 01:18:40:15 01:18:43:10 
* FROM CLIP NAME:  MORTICE_V03 WITH ALPHA_V03.TIF
777  EVL1_HEI V     C        00:00:26:20 00:00:30:02 01:18:43:10 01:18:45:29 
* AETN__QEVL1HEIS192_HEISTS_DINNER SET GANG_BLACK GLOVED HANDS BREAKING IN THROUGH 
*  WINDOW_116906_IKILLEDMYBFF_EP9_011502 
* FROM CLIP NAME:  QEVL1HEIS192.NEW.01.COPY.01
778  EVL1_HEI V     C        00:12:09:00 00:12:11:12 01:18:45:29 01:18:48:10 
M2   EVL1_HEI       037.5                00:12:09:00 
* SHUTTERSTOCK_T_QEVL1HEIS604_HEISTS_DINNER SET GANG_A BURGLAR OPENS A PORCH DOOR, 
*  COMES IN AND WATCH AROUND. _3240235 
* FROM CLIP NAME:  T_QEVL1HEIS604.NEW.01.COPY.01
779  T_QEVL1H V     C        00:05:03:03 00:05:04:01 01:18:48:10 01:18:49:06 
M2   T_QEVL1H       031.3                00:05:03:03 
* POND5_T_QEVL1HEIS041_HEISTS_DINNER SET GANG_BURGLAR WITH FLASHLIGHT WALKS DOWN S 
* TAIRS_11607026 
* FROM CLIP NAME:  T_QEVL1HEIS041.NEW.01.COPY.01
780  T_QEVL1H V     C        00:05:04:00 00:05:04:16 01:18:49:06 01:18:49:25 
M2   T_QEVL1H       031.3                00:05:04:00 
* POND5_T_QEVL1HEIS041_HEISTS_DINNER SET GANG_BURGLAR WITH FLASHLIGHT WALKS DOWN S 
* TAIRS_11607026 
* FROM CLIP NAME:  T_QEVL1HEIS041.NEW.01.COPY.01
781  EVL1_HEI V     C        00:06:15:08 00:06:16:19 01:18:49:25 01:18:51:08 
M2   EVL1_HEI       031.3                00:06:15:08 
* POND5_T_QEVL1HEIS595_HEISTS_DINNER SET GANG_BUSINESS MAN LEAFING THROUGH A GLOSS 
* Y MAGAZINE WHILE SITTING ON THE COUCH _48370690 
* FROM CLIP NAME:  T_QEVL1HEIS595.NEW.01.COPY.01
782  T_QEVL1G V     C        00:00:05:17 00:00:07:05 01:18:51:08 01:18:52:25 
M2   T_QEVL1G       037.5                00:00:05:17 
* GETTY IMAGES_T_QEVL1GRND529_UNDERGROUND_HATTON GARDEN_FEET WHEEL A WHEELIE BIN_M 
* R_00108319 
* FROM CLIP NAME:  T_QEVL1GRND529.NEW.01
783  T_SEVL1H V     C        01:00:05:18 01:00:07:03 01:18:52:25 01:18:54:06 
* SHUTTERSTOCK_T_SEVL1HEIS264_HEISTS_DINNER SET GANG_STACK OF MAGAZINES, RESEARCHI 
* NG RICH AND FAMOUS HOMES_260923574_HTTP://WWW.SHUTTERSTOCK.COM/PIC-260923574/STO 
* CK-PHOTO-STACK-OF-MAGAZINES.HTML?SRC=H6LBYGJMZTOSAGXHOK9LPA-1-2 
* FROM CLIP NAME:  T_SEVL1HEIS264.TIF.NEW.01 
* REEL: SHUTTERSTOCK_260923574
784  SEVL1HEI V     C        01:00:07:22 01:00:09:03 01:18:54:06 01:18:55:13 
* GETTY IMAGES__SEVL1HEIS705_HEISTS_DINNER SET GANG_BURGLAR STUDYING EXTERIOR OF H 
* OUSE, REAR VIEW, SILHOUETTE_BC7044-001_HTTP://WWW.GETTYIMAGES.COM/LICENSE/BC7044 
* -001 
* FROM CLIP NAME:  SEVL1HEIS705.TIF.NEW.01 
* REEL: GETTY IMAGES_BC7044-001
785  EVL10610 V     C        10:38:20:15 10:38:21:18 01:18:55:13 01:18:56:16 
* FROM CLIP NAME:  EVL1061016A01_275_0172.NEW.01
786  EVL1_HEI V     C        00:13:48:17 00:13:51:08 01:18:56:16 01:18:59:06 
M2   EVL1_HEI       037.5                00:13:48:17 
* SHUTTERSTOCK_T_QEVL1HEIS845_HEISTS_DINNER SET GANG_REAL SURVEILLANCE CAMERAS CAP 
* TURED AND RECORDED THE TWO ROBBERS ENTER THE HOUSE_14225156 
* FROM CLIP NAME:  T_QEVL1HEIS845.NEW.01.COPY.01
787  EVL1_HEI V     C        00:06:25:22 00:06:27:00 01:18:59:06 01:19:00:09 
M2   EVL1_HEI       031.3                00:06:25:22 
* SHUTTERSTOCK_T_QEVL1HEIS609_HEISTS_DINNER SET GANG_BURGLAR OPENS THE LOCK PICKIN 
* G_6570497 
* FROM CLIP NAME:  T_QEVL1HEIS609.NEW.01.COPY.01
788  SEVL1HEI V     C        01:00:08:01 01:00:09:14 01:19:00:09 01:19:01:25 
* GETTY IMAGES__SEVL1HEIS707_HEISTS_DINNER SET GANG_BURLGER REACHING FOR WATCH JEW 
* ELRY_78766125_HTTP://WWW.GETTYIMAGES.COM/LICENSE/78766125 
* FROM CLIP NAME:  SEVL1HEIS707.TIF.NEW.01 
* REEL: GETTY IMAGES_78766125
789  SEVL1HEI V     C        01:00:09:02 01:00:10:00 01:19:01:25 01:19:02:23 
* GETTY IMAGES__SEVL1HEIS726_HEISTS_DINNER SET GANG_DUTCHESS SITTING ON COUCH AT D 
* INNER PARTY IN MANSION_80748505_HTTP://WWW.GETTYIMAGES.COM/LICENSE/80748505 
* FROM CLIP NAME:  SEVL1HEIS726.TIF.NEW.01 
* REEL: GETTY IMAGES_80748505
790  SEVL1HEI V     C        01:00:10:01 01:00:11:13 01:19:02:23 01:19:04:08 
* GETTY IMAGES__SEVL1HEIS727_HEISTS_DINNER SET GANG_THE DUKE AND DUCHESS OF ALBA S 
* IT AMONG PAINTINGS OF THEIR ANCESTORS, MANSION_80997013_HTTP://WWW.GETTYIMAGES.C 
* OM/LICENSE/80997013 
* FROM CLIP NAME:  SEVL1HEIS727.TIF.NEW.01 
* REEL: GETTY IMAGES_80997013
791  SEVL1HEI V     C        01:00:03:04 01:00:04:07 01:19:03:14 01:19:04:18 
* GETTY IMAGES__SEVL1HEIS651_HEISTS_DINNER SET GANG_LUXURY FOYER OF A HOUSE HOME L 
* AYOUT_494358407_HTTP://WWW.GETTYIMAGES.COM/DETAIL/PHOTO/LUXURY-FOYER-ROYALTY-FRE 
* E-IMAGE/494358407 
* FROM CLIP NAME:  SEVL1HEIS651.TIF.NEW.01 
* REEL: GETTY IMAGES_494358407
792  SEVL1HEI V     C        01:00:04:03 01:00:04:21 01:19:04:18 01:19:05:10 
* GETTY IMAGES__SEVL1HEIS712_HEISTS_DINNER SET GANG_TWO UPPER CLASS WOMEN CHAT AND 
*  HOLD DRINKS INSIDE THEIR MANSION_80748281_HTTP://WWW.GETTYIMAGES.COM/LICENSE/80 
* 748281 
* FROM CLIP NAME:  SEVL1HEIS712.TIF.NEW.01 
* REEL: GETTY IMAGES_80748281
793  EVL1_HEI V     C        00:06:13:13 00:06:15:13 01:19:05:10 01:19:07:09 
M2   EVL1_HEI       031.3                00:06:13:13 
* POND5_T_QEVL1HEIS567_HEISTS_DINNER SET GANG_GRAND PIANO IN A LUXURY INTERIOR TIM 
* ELAPSE HYPERLAPSE INSIDE A WEALTHY HOUSE HOME_57641344 
* FROM CLIP NAME:  T_QEVL1HEIS567.NEW.01 
* REEL: POND5_57641344
794  EVL10525 V     C        09:05:09:19 09:05:13:00 01:19:07:09 01:19:10:15 
* FROM CLIP NAME:  EVL1052516A01_E019C003_16052565.NEW.01.SUB.01
795  EVL10516 V     C        15:19:33:10 15:19:36:15 01:19:07:09 01:19:10:15 
* FROM CLIP NAME:  EVL1051616A04_IP_0252.NEW.01
796  EVIL_GEN V     C        00:00:01:04 00:00:03:16 01:19:07:10 01:19:09:25 
* FROM CLIP NAME:  EVIL GENIUS L3 LINES_V02 UNMATTED.MOV
FCM: DROP FRAME
797  LWR_3RD_ V     C        01:00:01:05 01:00:03:20 01:19:07:10 01:19:09:25 
* FROM CLIP NAME:  LWR 3RD SAMPLE.18
798  LWR_3RD_ V     C        01:00:01:05 01:00:03:20 01:19:07:10 01:19:09:25 
* FROM CLIP NAME:  LWR 3RD SAMPLE.17
FCM: NON-DROP FRAME
799  EVL1_HEI V     C        00:11:21:05 00:11:22:09 01:19:09:25 01:19:10:29 
M2   EVL1_HEI       037.5                00:11:21:05 
* POND5_T_QEVL1HEIS511_HEISTS_DINNER SET GANG_BURGLAR HOLDING RUBY RING_11237616 
* FROM CLIP NAME:  T_QEVL1HEIS511.NEW.01 
* REEL: POND5_11237616
800  EVL1_HEI V     C        00:13:55:16 00:13:57:03 01:19:10:29 01:19:12:15 
M2   EVL1_HEI       037.5                00:13:55:16 
* SHUTTERSTOCK_T_QEVL1HEIS851_HEISTS_DINNER SET GANG_MAN WALKING ALONE AT NIGHT IN 
*  THE PARK. SHADOW SILHOUETTE OF PERSON. SPOOKY NIGHT SCENERY BACKGROUND FEET AT 
* NIGHT APPROACHING HOUSE_12548726 
* FROM CLIP NAME:  T_QEVL1HEIS851.NEW.01.COPY.01
801  EVL1_HEI V     C        00:11:20:15 00:11:21:14 01:19:12:15 01:19:13:14 
M2   EVL1_HEI       037.5                00:11:20:15 
* POND5_T_QEVL1HEIS497_HEISTS_DINNER SET GANG_BURGLAR WITH CROWBAR, FLASHLIGHT_460 
* 419 
* FROM CLIP NAME:  T_QEVL1HEIS497.NEW.01 
* REEL: POND5_460419
802  EVL1_HEI V     C        00:11:21:13 00:11:22:12 01:19:13:14 01:19:14:11 
M2   EVL1_HEI       037.5                00:11:21:13 
* POND5_T_QEVL1HEIS497_HEISTS_DINNER SET GANG_BURGLAR WITH CROWBAR, FLASHLIGHT_460 
* 419 
* FROM CLIP NAME:  T_QEVL1HEIS497.NEW.01 
* REEL: POND5_460419
803  SEVL1HEI V     C        01:00:10:09 01:00:11:14 01:19:14:11 01:19:15:18 
* GETTY IMAGES__SEVL1HEIS745_HEISTS_LUFTHANSA HEIST_GINGER ROGERS ON PHONE ONLY WE 
* ARING A BATHROBE _150749354_HTTP://WWW.GETTYIMAGES.COM/LICENSE/150749354 
* FROM CLIP NAME:  SEVL1HEIS745.TIF.NEW.01 
* REEL: GETTY IMAGES_150749354
804  QEVL1HEI V     C        00:02:16:07 00:02:17:18 01:19:15:18 01:19:16:23 
* GETTY IMAGES__QEVL1HEIS1145_HEISTS_DINNER SET GANG_MS SHOT OF BRICK SOUTHERN MAN 
* SION AT NIGHT_140298556 
* FROM CLIP NAME:  QEVL1HEIS1145.NEW.01 
* REEL: GETTY IMAGES_140298556
805  SEVL1HEI V     C        01:00:08:22 01:00:10:16 01:19:16:23 01:19:18:15 
* GETTY IMAGES__SEVL1HEIS706_HEISTS_DINNER SET GANG_B&W CLOSE-UP OF BURGLAR ILLUMI 
* NATING JEWELRY WITH FLASHLIGHT_128018876_HTTP://WWW.GETTYIMAGES.COM/LICENSE/1280 
* 18876 
* FROM CLIP NAME:  SEVL1HEIS706.TIF.NEW.01 
* REEL: GETTY IMAGES_128018876
806  SEVL1HEI V     C        01:00:01:13 01:00:03:06 01:19:18:15 01:19:20:06 
* GETTY IMAGES__SEVL1HEIS708_HEISTS_DINNER SET GANG_BURLGER HOLDING STEALING JEWEL 
* RY_78766119_HTTP://WWW.GETTYIMAGES.COM/LICENSE/78766119 
* FROM CLIP NAME:  SEVL1HEIS708.TIF.NEW.01 
* REEL: GETTY IMAGES_78766119
807  EVL1_HEI V     C        00:00:23:01 00:00:23:08 01:19:20:06 01:19:20:14 
* AETN__QEVL1HEIS191_HEISTS_DINNER SET GANG_MAN ON ROOFTOP RUNNING AWAY FROM CRIME 
* , DUSTING FOR FINGERPRINTS_45885_WATCHINGTHEDETECTIVES_EP5_010604 
* FROM CLIP NAME:  QEVL1HEIS191.NEW.01.COPY.01
808  EVL1_HEI V     C        00:00:23:08 00:00:25:17 01:19:20:14 01:19:22:11 
* AETN__QEVL1HEIS191_HEISTS_DINNER SET GANG_MAN ON ROOFTOP RUNNING AWAY FROM CRIME 
* , DUSTING FOR FINGERPRINTS_45885_WATCHINGTHEDETECTIVES_EP5_010604 
* FROM CLIP NAME:  QEVL1HEIS191.NEW.01.COPY.01
809  T_QEVL1H V     C        00:00:01:14 00:00:03:07 01:19:22:11 01:19:23:23 
* SHUTTERSTOCK_T_QEVL1HEIS1385_HEISTS_DINNER SET GANG_MAN LEAPS OVER BRICK FENCE_5 
* 798759 
* FROM CLIP NAME:  T_QEVL1HEIS1385.NEW.01 
* REEL: QEVL1HEIS1385
810  EVL1_HEI V     C        00:12:18:23 00:12:20:24 01:19:23:23 01:19:25:23 
M2   EVL1_HEI       037.5                00:12:18:23 
* POND5_T_QEVL1HEIS634_HEISTS_DINNER SET GANG_POV STEADICAM RUNNING THROUGH FOREST 
*  AT NIGHT_37907116 
* FROM CLIP NAME:  T_QEVL1HEIS634.NEW.01.COPY.01
811  EVL1_HEI V     C        00:12:20:23 00:12:21:02 01:19:25:23 01:19:26:00 
M2   EVL1_HEI       037.5                00:12:20:23 
* POND5_T_QEVL1HEIS634_HEISTS_DINNER SET GANG_POV STEADICAM RUNNING THROUGH FOREST 
*  AT NIGHT_37907116 
* FROM CLIP NAME:  T_QEVL1HEIS634.NEW.01.COPY.01
812  EVL1_HEI V     C        00:12:26:07 00:12:28:18 01:19:26:00 01:19:28:10 
M2   EVL1_HEI       037.5                00:12:26:07 
* POND5_T_QEVL1HEIS648_HEISTS_DINNER SET GANG_HUDSON RIVER AT SUNSET_692103 
* FROM CLIP NAME:  T_QEVL1HEIS648.NEW.01.COPY.01
813  EVL10602 V     C        10:04:49:23 10:04:53:16 01:19:27:29 01:19:31:20 
* FROM CLIP NAME:  EVL1060216A01_211_0033.NEW.01.SUB.01
FCM: DROP FRAME
814  LWR_3RD_ V     C        01:00:01:08 01:00:04:12 01:19:28:15 01:19:31:20 
* FROM CLIP NAME:  LWR 3RD SAMPLE.20
FCM: NON-DROP FRAME
816  EVIL_GEN V     C        00:00:01:06 00:00:04:10 01:19:28:15 01:19:31:20 
* FROM CLIP NAME:  EVIL GENIUS L3 LINES_V02 UNMATTED.MOV
FCM: DROP FRAME
815  LWR_3RD_ V     C        01:00:01:08 01:00:04:12 01:19:28:15 01:19:31:20 
* FROM CLIP NAME:  LWR 3RD SAMPLE.19
FCM: NON-DROP FRAME
817  GFX_HEIS V     C        01:00:03:16 01:00:08:17 01:19:31:20 01:19:36:21 
* FROM CLIP NAME:  GFX_HEIS08_MAP_03_V01.TIF
818  STILL.25 V     C        01:00:36:09 01:00:43:07 01:19:31:20 01:19:38:19 
* FROM CLIP NAME:  STILL.25
819  T_QEVL1H V     C        00:03:13:21 00:03:15:06 01:19:35:05 01:19:36:20 
* POND5_T_QEVL1HEIS647_HEISTS_DINNER SET GANG_NYC HUDSON BOATS CROSS DUSK_649591 
* FROM CLIP NAME:  T_QEVL1HEIS647.NEW.01.COPY.01
820  EVL10602 V     C        10:05:05:07 10:05:05:18 01:19:36:21 01:19:37:05 
* FROM CLIP NAME:  EVL1060216A01_211_0033.NEW.01.SUB.01
821  GFX_HEIS V     C        01:03:45:03 01:03:47:01 01:19:36:21 01:19:38:19 
* FROM CLIP NAME:  GFX_HEIS17_GND_5_V01.TIF
822  EVL10602 V     C        10:05:07:02 10:05:08:11 01:19:37:05 01:19:38:16 
* FROM CLIP NAME:  EVL1060216A01_211_0033.NEW.01.SUB.01
823     BL    V     C        00:00:00:00 00:00:00:00 01:19:38:08 01:19:38:08 
823  QEVL1HEI V     W001 016 00:01:25:19 00:01:26:15 01:19:38:08 01:19:38:28 
* TO CLIP NAME:  QEVL1HEIS502.NEW.01
824  EVL10602 V     C        10:05:10:11 10:05:12:07 01:19:38:16 01:19:40:11 
* FROM CLIP NAME:  EVL1060216A01_211_0033.NEW.01.SUB.01
825  QEVL1HEI V     C        00:01:26:15 00:01:31:16 01:19:38:28 01:19:42:29 
* GETTY__QEVL1HEIS502_HEISTS_DINNER SET GANG_HELICOPTER WITH SEARCH LIGHT SCANNING 
*  BELOW AT NIGHT_MR_00089506 
* FROM CLIP NAME:  QEVL1HEIS502.NEW.01 
* REEL: GETTY_MR_00089506
826  GFX_HEIS V     C        00:00:00:06 00:00:07:21 01:19:42:28 01:19:50:16 
* FROM CLIP NAME:  GFX_HEIS16_GND_4B_V02.MOV.NEW.01
827  EVL10602 V     C        10:05:54:13 10:05:58:12 01:19:50:15 01:19:54:14 
* FROM CLIP NAME:  EVL1060216A01_211_0033.NEW.01.SUB.01
828  EVL1_HEI V     C        00:11:40:08 00:11:41:24 01:19:54:14 01:19:55:29 
M2   EVL1_HEI       037.5                00:11:40:08 
* POND5_T_QEVL1HEIS499_HEISTS_DINNER SET GANG_POLICE HELICOPTER AT NIGHT WITH SEAR 
* CHLIGHT_34656756 
* FROM CLIP NAME:  T_QEVL1HEIS499.NEW.01 
* REEL: POND5_34656756
829  EVL1_HEI V     C        00:11:40:08 00:11:41:24 01:19:54:14 01:19:55:29 
M2   EVL1_HEI       037.5                00:11:40:08 
* POND5_T_QEVL1HEIS499_HEISTS_DINNER SET GANG_POLICE HELICOPTER AT NIGHT WITH SEAR 
* CHLIGHT_34656756 
* FROM CLIP NAME:  T_QEVL1HEIS499.NEW.01 
* REEL: POND5_34656756
830  GFX_HEIS V     C        00:00:00:07 00:00:03:15 01:19:55:29 01:19:59:09 
* FROM CLIP NAME:  GFX_HEIS15_GND_4A_V01.MOV
831  EVL10602 V     C        10:05:42:16 10:05:45:10 01:19:57:16 01:20:00:09 
* FROM CLIP NAME:  EVL1060216A01_211_0033.NEW.01.SUB.01
832  EVL1_HEI V     C        00:06:20:24 00:06:22:24 01:20:00:09 01:20:02:08 
M2   EVL1_HEI       031.3                00:06:20:24 
* POND5_T_QEVL1HEIS624_HEISTS_DINNER SET GANG_PEOPLE WITH FLASHLIGHTS ARE RUNNING 
* AROUND FOREST IN THE DARK AT NIGHT_56001453 
* FROM CLIP NAME:  T_QEVL1HEIS624.NEW.01.COPY.01
FCM: DROP FRAME
833  EVL1_HEI V     C        00:01:49:22 00:01:51:18 01:20:02:08 01:20:04:03 
M2   EVL1_HEI       037.5                00:01:49:22 
* POND5_T_QEVL1HEIS621_HEISTS_DINNER SET GANG_FLIGHT OVER OLD GROWTH FOREST IN THE 
*  DARK_61160325 
* FROM CLIP NAME:  T_QEVL1HEIS621.NEW.01.COPY.01
FCM: NON-DROP FRAME
834  EVL1_HEI V     C        00:06:27:13 00:06:30:13 01:20:04:03 01:20:07:01 
M2   EVL1_HEI       031.3                00:06:27:13 
* POND5_T_QEVL1HEIS638_HEISTS_DINNER SET GANG_POACHERS SEEKING PREY IN THE NIGHT T 
* HROUGH THE FOREST WITH A VEHICLE_33654392 
* FROM CLIP NAME:  T_QEVL1HEIS638.NEW.01.COPY.01
835  EVL1_HIG V     C        00:03:20:21 00:03:21:29 01:20:07:01 01:20:08:09 
* POND5_T_QEVL1HEIS638_HEISTS_DINNER SET GANG_POACHERS SEEKING PREY IN THE NIGHT T 
* HROUGH THE FOREST WITH A VEHICLE_33654392 
* FROM CLIP NAME:  T_QEVL1TECH242.NEW.01 
* TO CLIP NAME:  T_QEVL1HEIS638.NEW.01.COPY.01
836  EVL1_HIG V     C        00:03:21:29 00:03:23:29 01:20:08:09 01:20:10:09 
* POND5_T_QEVL1TECH242_HIGH TECH CRIMES_AL QAEDA PORN_FEET OF BUSINESSMAN WALKING 
* IN FOREST LODIN BEFORE GETTING CAUGHT RECRE_56391385 
* FROM CLIP NAME:  T_QEVL1TECH242.NEW.01
837  EVL1_HIG V     C        00:03:23:29 00:03:23:29 01:20:10:09 01:20:10:09 
837  EVL1_HEI V     W001 012 00:12:20:03 00:12:20:19 01:20:10:09 01:20:10:24 
M2   EVL1_HEI       037.5                00:12:20:03 
* POND5_T_QEVL1TECH242_HIGH TECH CRIMES_AL QAEDA PORN_FEET OF BUSINESSMAN WALKING 
* IN FOREST LODIN BEFORE GETTING CAUGHT RECRE_56391385 
* FROM CLIP NAME:  T_QEVL1TECH242.NEW.01 
* TO CLIP NAME:  T_QEVL1HEIS607.NEW.01.COPY.01
838  EVL1_HEI V     C        00:12:20:18 00:12:21:27 01:20:10:24 01:20:12:01 
M2   EVL1_HEI       037.5                00:12:20:18 
* SHUTTERSTOCK_T_QEVL1HEIS607_HEISTS_DINNER SET GANG_2 MASKED BURGLARS BREAKING AN 
* D ENTERING INTO A VICTIM'S HOME_8870230 
* FROM CLIP NAME:  T_QEVL1HEIS607.NEW.01.COPY.01
839  EVL1_HEI V     C        00:15:31:10 00:15:32:07 01:20:12:01 01:20:12:28 
M2   EVL1_HEI       037.5                00:15:31:10 
* SHUTTERSTOCK_T_QEVL1HEIS1033_HEISTS_DINNER SET GANG_LOW-KEY POINT OF VIEW VIDEO 
* OF BURGLAR CHECKING WHAT IS INSIDE SAFE BOX BEFORE STEALING CASH AND JEWELRY_374 
* 9723 
* FROM CLIP NAME:  T_QEVL1HEIS1033.NEW.01.COPY.01
840  T_QEVL1H V     C        00:05:04:21 00:05:06:01 01:20:12:28 01:20:14:01 
M2   T_QEVL1H       031.3                00:05:04:21 
* POND5_T_QEVL1HEIS041_HEISTS_DINNER SET GANG_BURGLAR WITH FLASHLIGHT WALKS DOWN S 
* TAIRS_11607026 
* FROM CLIP NAME:  T_QEVL1HEIS041.NEW.01.COPY.01
841  T_SEVL1H V     C        01:00:08:15 01:00:09:19 01:20:14:01 01:20:15:06 
* POND5_T_SEVL1HEIS174_HEISTS_DINNER SET GANG_FANCY JEWELRY, PEARLS DISPLAYED ON D 
* RESSER_54215129_HTTPS://WWW.POND5.COM/PHOTO/54215129/BRIDES-JEWELRY-WEDDING.HTML 
* FROM CLIP NAME:  T_SEVL1HEIS174.TIF.NEW.01 
* REEL: POND5_54215129
842  T_QEVL1H V     C        00:02:20:20 00:02:22:18 01:20:15:06 01:20:16:23 
* GETTY IMAGES_T_QEVL1HEIS033_HEISTS_DINNER SET GANG_THIEF IN CAP WORKS TO OPEN A 
* SAFE_845-100 
* FROM CLIP NAME:  T_QEVL1HEIS033.NEW.01.COPY.02
843  EVL1_HEI V     C        00:15:34:15 00:15:34:28 01:20:16:23 01:20:17:05 
M2   EVL1_HEI       037.5                00:15:34:15 
* POND5_T_QEVL1HEIS1038_HEISTS_DINNER SET GANG_BEAUTIFUL ORIENTAL GOLD, SILVER JEW 
* ELRY (INDIAN, ARAB). FASHION ETHNO ACCESSO_63607073 
* FROM CLIP NAME:  T_QEVL1HEIS1038.NEW.01.COPY.01
844  T_QEVL1H V     C        00:00:02:21 00:00:03:09 01:20:17:05 01:20:17:19 
M2   T_QEVL1H       031.3                00:00:02:21 
* "POND5_T_QEVL1HEIS1323_HEISTS_DINNER SET GANG_DINNER SET JEWELRY, 
* EARRINGS ON A GLASS TABLE _61208477" 
* FROM CLIP NAME:  T_QEVL1HEIS1323.NEW.01 
* REEL: POND5_61208477
845  T_QEVL1H V     C        00:00:03:08 00:00:03:15 01:20:17:19 01:20:17:26 
M2   T_QEVL1H       031.3                00:00:03:08 
* "POND5_T_QEVL1HEIS1323_HEISTS_DINNER SET GANG_DINNER SET JEWELRY, 
* EARRINGS ON A GLASS TABLE _61208477" 
* FROM CLIP NAME:  T_QEVL1HEIS1323.NEW.01 
* REEL: POND5_61208477
846  T_QEVL1H V     C        00:00:03:14 00:00:03:22 01:20:17:26 01:20:18:05 
M2   T_QEVL1H       031.3                00:00:03:14 
* "POND5_T_QEVL1HEIS1323_HEISTS_DINNER SET GANG_DINNER SET JEWELRY, 
* EARRINGS ON A GLASS TABLE _61208477" 
* FROM CLIP NAME:  T_QEVL1HEIS1323.NEW.01 
* REEL: POND5_61208477
847  T_SEVL1H V     C        01:00:08:23 01:00:09:04 01:20:18:05 01:20:18:11 
* POND5_T_SEVL1HEIS166_HEISTS_DINNER SET GANG_JEWELRY BOX, FANCY PEARLS_12035128_H 
* TTPS://WWW.POND5.COM/PHOTO/12035128/ORGANIZED-JEWELRY-BOX.HTML 
* FROM CLIP NAME:  T_SEVL1HEIS166.TIF.NEW.01 
* REEL: POND5_12035128
848  EVL1_HEI V     C        00:00:16:00 00:00:16:08 01:20:18:11 01:20:18:20 
* AETN__QEVL1HEIS178_HEISTS_DINNER SET GANG_MONTAGE OF JEWELRY, DIAMOND RINGS AND 
* EARRINGS_28309_BLOODDIAMONDS_1080P_010027 
* FROM CLIP NAME:  QEVL1HEIS178.NEW.01.COPY.01
849  EVL1_HEI V     C        00:15:34:03 00:15:34:13 01:20:18:20 01:20:18:29 
M2   EVL1_HEI       037.5                00:15:34:03 
* POND5_T_QEVL1HEIS1048_HEISTS_DINNER SET GANG_STONE JEWELRY MACRO SHOT_60120720 
* FROM CLIP NAME:  T_QEVL1HEIS1048.NEW.01 
* REEL: POND5_60120720
850  EVL1_HEI V     C        01:00:15:03 01:00:15:21 01:20:18:29 01:20:19:18 
* AETN__QEVL1HEIS177_HEISTS_DINNER SET GANG_PINK FLAWLESS PEAR-SHAPED DIAMOND, MON 
* TAGE OF JEWELRY_28309_BLOODDIAMONDS_1080P_010018 
* FROM CLIP NAME:  QEVL1HEIS177.NEW.01.COPY.01
851  EVL1_HEI V     C        00:02:20:18 00:02:21:15 01:20:19:18 01:20:20:09 
* AETN__QEVL1HEIS079_HEISTS_LUFTHANSA HEIST_âFREIGHT ONLYâ SIGN; MEN PASSING SHIPP 
* ING BOXES TO EACH OTHER_106549_MOBSTERS_JIMMYTHEGENTBURKE_26 
* FROM CLIP NAME:  T_QEVL1HEIS079.NEW.01.COPY.01
852  EVL1_HEI V     C        00:02:22:12 00:02:22:14 01:20:20:09 01:20:20:11 
* AETN__QEVL1HEIS079_HEISTS_LUFTHANSA HEIST_âFREIGHT ONLYâ SIGN; MEN PASSING SHIPP 
* ING BOXES TO EACH OTHER_106549_MOBSTERS_JIMMYTHEGENTBURKE_26 
* FROM CLIP NAME:  T_QEVL1HEIS079.NEW.01.COPY.01
853  EVL1_HEI V     C        00:07:59:22 00:08:00:23 01:20:20:11 01:20:21:11 
M2   EVL1_HEI       031.3                00:07:59:22 
* POND5_T_QEVL1HEIS1043_HEISTS_DINNER SET GANG_CLOSE-UP OF A PRECIOUS SPARKLING JE 
* WELRY_49763362 
* FROM CLIP NAME:  T_QEVL1HEIS1043.NEW.01.COPY.01
854  EVL10610 V     C        09:55:59:12 09:56:00:03 01:20:21:11 01:20:22:00 
* FROM CLIP NAME:  EVL1061016A01_275_0163.NEW.01
855  EVL10602 V     C        09:59:24:09 09:59:26:00 01:20:22:00 01:20:23:19 
* FROM CLIP NAME:  EVL1060216A01_211_0033.NEW.01.SUB.01
856  EVL1_HEI V     C        00:02:37:13 00:02:38:14 01:20:23:19 01:20:24:14 
* POND5_T_QEVL1HEIS278_HEISTS_DINNER SET GANG_ORBITING OVER PALM BEACH MANSIONS_55 
* 743988 
* FROM CLIP NAME:  T_QEVL1HEIS278.NEW.01.COPY.01
857  SEVL1HEI V     C        01:00:04:04 01:00:06:02 01:20:24:14 01:20:26:11 
* GETTY IMAGES__SEVL1HEIS722_HEISTS_DINNER SET GANG_JOHN LENNON MANSION_3271717_HT 
* TP://WWW.GETTYIMAGES.COM/LICENSE/3271717 
* FROM CLIP NAME:  SEVL1HEIS722.TIF.NEW.01 
* REEL: GETTY IMAGES_3271717
858  EVL1_SCA V     C        03:00:00:08 03:00:02:09 01:20:26:11 01:20:28:11 
M2   EVL1_SCA       031.3                03:00:00:08 
* POND5_T_QEVL1SCAM218_SCAMS_RUDY KURNIAWAN_WAITER POURING WINE_40339662 
* FROM CLIP NAME:  T_QEVL1SCAM218.NEW.01
859  T_QEVL1H V     C        00:10:01:29 00:10:03:17 01:20:28:11 01:20:29:29 
M2   T_QEVL1H       037.5                00:10:01:29 
* POND5_T_QEVL1HEIS234_HEISTS_DINNER SET GANG_SWEEPING AERIAL VIEW OF JUPITER ISLA 
* ND, FLORIDA, LIGHTHOUSE, FANCY WATERFRONT HOMES_50172900 
* FROM CLIP NAME:  T_QEVL1HEIS234.NEW.01.COPY.01
860  SEVL1HEI V     C        01:00:10:10 01:00:11:21 01:20:29:29 01:20:31:13 
* GETTY IMAGES__SEVL1HEIS285_HEISTS_DINNER SET GANG_YACHT DOCKED IN FRONT OF WATER 
* FRONT MANSION, JUPITER ISLAND, FLORIDA_93339417_HTTP://WWW.GETTYIMAGES.COM/LICEN 
* SE/93339417 
* FROM CLIP NAME:  SEVL1HEIS285.TIF.NEW.01 
* REEL: GETTY IMAGES_93339417
861  QEVL1HEI V     C        00:00:45:14 00:00:48:05 01:20:31:13 01:20:33:16 
* GETTY IMAGES__QEVL1HEIS241_HEISTS_DINNER SET GANG_AERIAL WATERFRONT HOMES AND YA 
* CHTS AT PALM BEACH, FLORIDA_85527854 
* FROM CLIP NAME:  QEVL1HEIS241.NEW.01.COPY.01
862  SEVL1HEI V     C        01:00:03:15 01:00:07:17 01:20:33:16 01:20:37:19 
* GETTY IMAGES__SEVL1HEIS289_HEISTS_DINNER SET GANG_FLORIDA, JUPITER ISLAND, JUPIT 
* ER INLET LIGHTHOUSE, WATERFRONT MANSIONS_530114126_HTTP://WWW.GETTYIMAGES.COM/LI 
* CENSE/530114126 
* FROM CLIP NAME:  SEVL1HEIS289.TIF.NEW.01 
* REEL: GETTY IMAGES_530114126
863  EVL10525 V     C        09:17:48:10 09:17:51:23 01:20:37:19 01:20:41:05 
* FROM CLIP NAME:  EVL1052516A01_E019C003_16052565.NEW.01.SUB.01
864  EVL10516 V     C        15:19:27:15 15:19:31:04 01:20:37:19 01:20:41:05 
* FROM CLIP NAME:  EVL1051616A04_IP_0252.NEW.01
866  STILL.25 V     C        01:00:35:04 01:00:39:21 01:20:41:05 01:20:45:23 
* FROM CLIP NAME:  STILL.25
865  STILL.26 V     C        01:00:33:26 01:00:38:14 01:20:41:05 01:20:45:23 
* FROM CLIP NAME:  STILL.26
868  STILL.25 V     C        01:00:35:04 01:00:39:29 01:20:41:05 01:20:46:00 
* FROM CLIP NAME:  STILL.25
867  GFX_HEIS V     C        01:00:02:02 01:00:06:22 01:20:41:05 01:20:46:00 
* FROM CLIP NAME:  GFX_HEIS03_MAP_4_V02.TIF
870  STILL.25 V     C        01:00:39:21 01:00:39:21 01:20:45:23 01:20:45:23 
870     BL    V     W001 012 00:00:00:00 00:00:00:12 01:20:45:23 01:20:46:08 
* FROM CLIP NAME:  STILL.25
869  STILL.26 V     C        01:00:38:14 01:00:38:14 01:20:45:23 01:20:45:23 
869     BL    V     W001 012 00:00:00:00 00:00:00:12 01:20:45:23 01:20:46:08 
* FROM CLIP NAME:  STILL.26
872  T_SEVL1H V     C        01:00:07:05 01:00:09:18 01:20:46:00 01:20:48:16 
* SHUTTERSTOCK_T_SEVL1HEIS265_HEISTS_DINNER SET GANG_MAN READING MAGAZINE, LOOKING 
*  AT RICH AND FAMOUS HOUSES_232190941_HTTP://WWW.SHUTTERSTOCK.COM/PIC-232190941/S 
* TOCK-PHOTO-MAN-READING-A-MAGAZINE.HTML?SRC=VYDYZ5VMIIE7AJI7GFQUAW-1-5 
* FROM CLIP NAME:  T_SEVL1HEIS265.TIF.NEW.01 
* REEL: SHUTTERSTOCK_232190941
871  EVL10525 V     C        09:19:12:00 09:19:14:13 01:20:46:00 01:20:48:16 
* FROM CLIP NAME:  EVL1052516A01_E019C003_16052565.NEW.01.SUB.01
873  EVL1_HEI V     C        00:11:48:08 00:11:50:21 01:20:48:16 01:20:50:29 
M2   EVL1_HEI       037.5                00:11:48:08 
* POND5_T_QEVL1HEIS572_HEISTS_DINNER SET GANG_INTERIOR CREATION GRAPHIC OF A HOUSE 
*  BLUEPRINT OF A HOME_5299570 
* FROM CLIP NAME:  T_QEVL1HEIS572.NEW.01.COPY.01
874  EVL10516 V     C        15:19:27:15 15:19:30:04 01:20:49:29 01:20:52:15 
* FROM CLIP NAME:  EVL1051616A04_IP_0252.NEW.01
875  SEVL1HEI V     C        01:00:02:10 01:00:04:00 01:20:50:29 01:20:52:16 
* GETTY IMAGES__SEVL1HEIS282_HEISTS_DINNER SET GANG_MANSION WATERFRONT ON JUPITER 
* ISLAND, FLORIDA, FANCY RICH EXPENSIVE PROPERTY_93339382_HTTP://WWW.GETTYIMAGES.C 
* OM/LICENSE/93339382 
* FROM CLIP NAME:  SEVL1HEIS282.TIF.NEW.01 
* REEL: GETTY IMAGES_93339382
876  EVL1_HEI V     C        00:07:54:23 00:07:55:15 01:20:52:16 01:20:53:06 
M2   EVL1_HEI       031.3                00:07:54:23 
* POND5_T_QEVL1HEIS1047_HEISTS_DINNER SET GANG_SILVER JEWELRY, RINGS WITH GEMSTONE 
* S, CRYSTALS, EXTREME CLOSE UP, TILT UP_37774949 
* FROM CLIP NAME:  T_QEVL1HEIS1047.NEW.01.COPY.01
877  EVL1_HEI V     C        00:07:47:01 00:07:47:20 01:20:53:06 01:20:53:29 
M2   EVL1_HEI       031.3                00:07:47:01 
* SHUTTERSTOCK_T_QEVL1HEIS1028_HEISTS_DINNER SET GANG_CLOSING A JEWELRY BOX OR OPE 
* NING IF REVERSED _10991747 
* FROM CLIP NAME:  T_QEVL1HEIS1028.NEW.01.COPY.01
878  EVL1_HEI V     C        00:08:00:19 00:08:01:13 01:20:53:29 01:20:54:21 
M2   EVL1_HEI       031.3                00:08:00:19 
* POND5_T_QEVL1HEIS1040_HEISTS_DINNER SET GANG_CLOSEUP OF FULL TREASURE CHEST WITH 
*  JEWELLERY_59691306 
* FROM CLIP NAME:  T_QEVL1HEIS1040.NEW.01.COPY.01
879  EVL10602 V     C        11:18:03:00 11:18:03:16 01:20:54:21 01:20:55:11 
* FROM CLIP NAME:  EVL1060216A02_211_0039.NEW.01
880  EVL1_HEI V     C        00:06:25:08 00:06:26:00 01:20:55:11 01:20:56:00 
M2   EVL1_HEI       031.3                00:06:25:08 
* POND5_T_QEVL1HEIS630_HEISTS_DINNER SET GANG_DIAMOND BRACELET VALUATION_48457768 
* FROM CLIP NAME:  T_QEVL1HEIS630.NEW.01.COPY.01
881  SEVL1HEI V     C        01:00:12:00 01:00:14:12 01:20:56:00 01:20:58:15 
* GETTY IMAGES__SEVL1HEIS943_HEISTS_DINNER SET GANG_1927-NEW YORK, NY: MR. AND MRS 
* . DUPONT WALK DOWN FIFTH AVENUE. THE RICH DUPONT_515296800_HTTP://WWW.GETTYIMAGE 
* S.COM/LICENSE/515296800 
* FROM CLIP NAME:  SEVL1HEIS943.TIF.NEW.01 
* REEL: GETTY IMAGES_515296800
882  SEVL1HEI V     C        01:00:11:11 01:00:14:10 01:20:58:15 01:21:01:14 
* GETTY IMAGES__SEVL1HEIS944_HEISTS_DINNER SET GANG_ROOSEVELTS AND DUPONTS POSING 
* AT THEIR CHILDREN'S WEDDING WEALTHY DUPONTS_14080572_HTTP://WWW.GETTYIMAGES.COM/ 
* LICENSE/514080572 
* FROM CLIP NAME:  SEVL1HEIS944.TIF.NEW.01 
* REEL: GETTY IMAGES_14080572
883  EVL1_HEI V     C        00:14:23:20 00:14:25:10 01:21:01:14 01:21:03:04 
M2   EVL1_HEI       037.5                00:14:23:20 
* POND5_T_QEVL1HEIS888_HEISTS_DINNER SET GANG_NIGHT MOTOR BOAT_12393633 
* FROM CLIP NAME:  T_QEVL1HEIS888.NEW.01 
* REEL: POND5_12393633
884  GFX_HEIS V     C        00:00:00:08 00:00:02:22 01:21:03:04 01:21:05:21 
* FROM CLIP NAME:  GFX_HEIS17_GND_5_V02.MOV.NEW.01
885  T_QEVL1H V     C        00:09:22:20 00:09:25:15 01:21:05:21 01:21:08:16 
M2   T_QEVL1H       037.5                00:09:22:20 
* POND5_T_QEVL1HEIS030_HEISTS_DINNER SET GANG_POV OF BURGLAR SKULKING AROUND, NIGH 
* T VISION_41336169 
* FROM CLIP NAME:  T_QEVL1HEIS030.NEW.01.COPY.02
886  T_QEVL1H V     C        00:09:16:08 00:09:18:19 01:21:08:16 01:21:10:26 
M2   T_QEVL1H       037.5                00:09:16:08 
* POND5_T_QEVL1HEIS028_HEISTS_DINNER SET GANG_GROUP OF PEOPLE EAT DINNER_61157970 
* FROM CLIP NAME:  T_QEVL1HEIS028.NEW.01.COPY.02
887  EVL1_HEI V     C        00:00:23:11 00:00:24:11 01:21:10:26 01:21:11:21 
* AETN__QEVL1HEIS188_HEISTS_DINNER SET GANG_ROBBER IN THE DARK SHINING FLASHLIGHT 
* INTO JEWELRY BOX_45885_WATCHINGTHEDETECTIVES_EP5_010329 
* FROM CLIP NAME:  QEVL1HEIS188.NEW.01.COPY.01
888  EVL1_HEI V     C        00:08:00:19 00:08:02:16 01:21:11:21 01:21:13:18 
M2   EVL1_HEI       031.3                00:08:00:19 
* POND5_T_QEVL1HEIS1040_HEISTS_DINNER SET GANG_CLOSEUP OF FULL TREASURE CHEST WITH 
*  JEWELLERY_59691306 
* FROM CLIP NAME:  T_QEVL1HEIS1040.NEW.01.COPY.01
889  EVL10610 V     C        10:46:30:20 10:46:31:15 01:21:13:13 01:21:14:06 
* FROM CLIP NAME:  EVL1061016A01_275_0174.NEW.01
890  EVL1_HEI V     C        00:00:30:21 00:00:35:12 01:21:13:18 01:21:17:09 
* AETN__QEVL1HEIS193_HEISTS_DINNER SET GANG_HANDS TYPING ON LAPTOP, CLOSED DOOR FR 
* OM HALLWAY WITH LIGHT SHINING OUT_116907_IKILLEDMYBFF_EP10_013420 
* FROM CLIP NAME:  QEVL1HEIS193.NEW.01.COPY.01
891  EVL10610 V     C        09:34:06:18 09:34:14:07 01:21:17:09 01:21:24:25 
* FROM CLIP NAME:  EVL1061016A01_275_0154.NEW.01
892  EVL10602 V     C        09:43:23:17 09:43:25:16 01:21:24:25 01:21:26:24 
* FROM CLIP NAME:  EVL1060216A01_211_0033.NEW.01.SUB.01
893  EVL10610 V     C        09:42:30:16 09:42:36:05 01:21:26:24 01:21:32:10 
* FROM CLIP NAME:  EVL1061016A01_275_0155.NEW.01
894  EVL10525 V     C        09:25:05:04 09:25:09:05 01:21:32:10 01:21:36:11 
* FROM CLIP NAME:  EVL1052516A01_E019C003_16052565.NEW.01.SUB.01
895  EVL10516 V     C        15:19:27:15 15:19:31:16 01:21:32:10 01:21:36:11 
* FROM CLIP NAME:  EVL1051616A04_IP_0252.NEW.01
896  EVL10610 V     C        09:54:48:22 09:54:50:23 01:21:36:11 01:21:38:13 
* FROM CLIP NAME:  EVL1061016A01_275_0162.NEW.01
898  EVL10525 V     C        09:25:11:05 09:25:13:17 01:21:38:13 01:21:40:28 
* FROM CLIP NAME:  EVL1052516A01_E019C003_16052565.NEW.01.SUB.01
897  EVL10516 V     C        15:19:27:15 15:19:30:03 01:21:38:13 01:21:40:28 
* FROM CLIP NAME:  EVL1051616A04_IP_0252.NEW.01
899  EVL1_HIG V     C        00:01:21:12 00:01:22:05 01:21:40:28 01:21:41:20 
M2   EVL1_HIG       037.5                00:01:21:12 
* "POND5_T_QEVL1TECH073_HIGH TECH CRIMES_ANTWERP DIAMOND HEIST_PILE OF GOLD JEWELR 
* Y FROM HEIST 
* _10750686" 
* FROM CLIP NAME:  T_QEVL1TECH073.NEW.01
900  EVL1_HEI V     C        00:15:27:27 00:15:28:05 01:21:41:20 01:21:41:28 
M2   EVL1_HEI       037.5                00:15:27:27 
* SHUTTERSTOCK_T_QEVL1HEIS1024_HEISTS_DINNER SET GANG_JEWELRY IN A BOX_8878960 
* FROM CLIP NAME:  T_QEVL1HEIS1024.NEW.01 
* REEL: SHUTTERSTOCK_8878960
901  EVL1_HEI V     C        00:00:32:23 00:00:34:00 01:21:41:28 01:21:42:23 
* AETN__QEVL1HEIS192_HEISTS_DINNER SET GANG_BLACK GLOVED HANDS BREAKING IN THROUGH 
*  WINDOW_116906_IKILLEDMYBFF_EP9_011502 
* FROM CLIP NAME:  QEVL1HEIS192.NEW.01.COPY.01
902  T_QEVL1H V     C        00:00:00:20 00:00:00:23 01:21:42:23 01:21:42:25 
M2   T_QEVL1H       031.3                00:00:00:20 
* POND5_T_QEVL1HEIS1325_HEISTS_DINNER SET GANG_DINNER SET JEWELRY, DIAMOND NECKLAC 
* E WITH LARGE STONES FALLING ON THE TABLE_63768233 
* FROM CLIP NAME:  T_QEVL1HEIS1325.NEW.01 
* REEL: POND5_63768233
903  T_QEVL1H V     C        00:00:00:24 00:00:02:02 01:21:42:25 01:21:43:28 
M2   T_QEVL1H       031.3                00:00:00:24 
* POND5_T_QEVL1HEIS1325_HEISTS_DINNER SET GANG_DINNER SET JEWELRY, DIAMOND NECKLAC 
* E WITH LARGE STONES FALLING ON THE TABLE_63768233 
* FROM CLIP NAME:  T_QEVL1HEIS1325.NEW.01 
* REEL: POND5_63768233
904  EVL10610 V     C        09:47:00:09 09:47:01:12 01:21:43:28 01:21:45:01 
* FROM CLIP NAME:  EVL1061016A01_275_0157.NEW.01